<svg width="116" height="116" viewBox="0 0 116 116" fill="none" xmlns="http://www.w3.org/2000/svg">
<path d="M100.144 102.301C105.464 97.0464 108.642 89.5051 110.51 81.6393C112.387 73.7347 113.003 65.2355 113.003 57.7857C113.003 50.4324 112.316 42.4422 110.396 35.0236C108.48 27.6219 105.292 20.6167 100.167 15.4275C94.9565 10.1524 87.9995 6.95754 80.6146 5.07241C73.221 3.18508 65.2374 2.56905 57.7863 2.56905C42.1215 2.56905 28.2413 11.9689 18.5006 21.8305C8.7783 31.6736 2.56966 42.5082 2.56966 57.7857C2.56966 72.2673 4.5229 87.712 14.6942 98.0096C24.9189 108.361 42.7868 113.002 57.7863 113.002C64.9969 113.002 72.9685 112.865 80.3699 111.502C87.7665 110.14 94.8736 107.507 100.144 102.301Z" fill="#B6E3FF" stroke="#F2DFC8" stroke-width="5.13924"/>
<g clip-path="url(#clip0_275_334)">
<path d="M59.2222 92.5949C45.6059 92.5949 34.5277 81.5167 34.5277 67.9004C34.5277 54.2841 45.6059 43.206 59.2222 43.206C72.8385 43.206 83.9167 54.2841 83.9167 67.9004C83.9167 81.5167 72.8385 92.5949 59.2222 92.5949Z" fill="#7A96F7"/>
<path d="M59.2222 44.0564C62.4419 44.0564 65.5644 44.687 68.5034 45.9299C71.3429 47.1303 73.8931 48.8508 76.0837 51.0401C78.2743 53.2308 79.9935 55.781 81.1939 58.6192C82.4368 61.5582 83.0674 64.6807 83.0674 67.9004C83.0674 71.1201 82.4368 74.2426 81.1939 77.1817C79.9935 80.0211 78.2731 82.5713 76.0837 84.7607C73.8931 86.9513 71.3429 88.6705 68.5034 89.8709C65.5644 91.1139 62.4419 91.7444 59.2222 91.7444C56.0025 91.7444 52.88 91.1139 49.941 89.8709C47.1016 88.6705 44.5513 86.9501 42.3619 84.7607C40.1713 82.5701 38.4521 80.0199 37.2517 77.1817C36.0088 74.2426 35.3782 71.1201 35.3782 67.9004C35.3782 64.6807 36.0088 61.5582 37.2517 58.6192C38.4521 55.7798 40.1725 53.2295 42.3619 51.0401C44.5525 48.8495 47.1028 47.1303 49.941 45.9299C52.88 44.687 56.0025 44.0564 59.2222 44.0564ZM59.2222 42.3555C45.1139 42.3555 33.6772 53.7921 33.6772 67.9004C33.6772 82.0088 45.1139 93.4454 59.2222 93.4454C73.3306 93.4454 84.7672 82.0088 84.7672 67.9004C84.7672 53.7921 73.3306 42.3555 59.2222 42.3555Z" fill="black"/>
<path d="M83.6518 62.5371C83.653 62.5359 93.2805 59.8099 93.2805 49.1894C93.289 41.6371 86.682 35.0191 79.1855 35.0944C73.808 35.1478 68.7622 38.6373 66.3553 44.0038C68.4961 44.5724 72.8907 46.0511 76.9147 49.9828C81.8512 54.8062 83.2363 60.3964 83.653 62.5359L83.6518 62.5371Z" fill="#7A96F7" stroke="black" stroke-width="1.70097" stroke-miterlimit="10"/>
<path d="M40.1749 39.648C35.6042 39.648 31.8851 35.9289 31.8851 31.3582C31.8851 26.7874 35.6042 23.0684 40.1749 23.0684C44.7457 23.0684 48.4648 26.7874 48.4648 31.3582C48.4648 35.9289 44.7457 39.648 40.1749 39.648Z" fill="#7A96F7"/>
<path d="M40.175 23.8588C44.3108 23.8588 47.6751 27.2231 47.6751 31.3588C47.6751 35.4946 44.3108 38.8589 40.175 38.8589C36.0392 38.8589 32.6749 35.4946 32.6749 31.3588C32.6749 27.2231 36.0392 23.8588 40.175 23.8588ZM40.175 22.2793C35.1608 22.2793 31.0955 26.3446 31.0955 31.3588C31.0955 36.3731 35.1608 40.4384 40.175 40.4384C45.1892 40.4384 49.2546 36.3731 49.2546 31.3588C49.2546 26.3446 45.1892 22.2793 40.175 22.2793Z" fill="black"/>
<path d="M41.3596 61.4182C41.8335 55.6592 46.4783 50.6231 51.9968 49.1687C52.7853 48.9658 53.5908 48.831 54.4061 48.8164C48.528 52.2439 44.973 55.6507 41.3596 61.4194V61.4182Z" fill="#B1BFEE"/>
<path d="M74.6234 40.2399C75.2637 39.9714 75.9258 39.7587 76.6111 39.6445C74.4218 41.3919 71.176 45.0531 71.176 45.0531L70.3894 44.6258C70.0489 44.4407 69.7069 44.2547 69.6151 44.2041C70.9198 42.48 72.6581 41.0789 74.6234 40.2399Z" fill="#D5DCF4"/>
<path d="M34.885 30.1926C34.5059 28.9035 35.0612 27.482 36.0405 26.5951C37.0246 25.7093 38.5069 25.3169 39.7449 25.8418C38.6478 26.312 37.7038 26.7542 36.846 27.5014C35.9858 28.245 35.4293 29.1332 34.885 30.1914V30.1926Z" fill="#B1BFEE"/>
</g>
<defs>
<clipPath id="clip0_275_334">
<rect width="63.0356" height="71.1663" fill="white" transform="translate(31.0955 22.2793)"/>
</clipPath>
</defs>
</svg>
