<svg width="4096" height="380" viewBox="0 0 4096 380" fill="none" xmlns="http://www.w3.org/2000/svg">
<g clip-path="url(#clip0_515_6085)">
<path d="M1081.89 379.259C1085.55 369.085 1092.74 360.884 1097.5 351.297C1122.2 301.42 1146.54 251.752 1178.6 207.053C1194.38 185.053 1199.79 170.694 1211.61 147.365C1217.53 135.693 1225.36 124.624 1231.09 112.924C1236.55 101.798 1234.53 93.625 1247.71 85.3121C1287.26 60.4013 1339.19 66.573 1383.21 65.8173C1620.6 61.7308 1858.79 65.7613 2096.8 65.8313C2297.65 65.8873 2499.32 60.5133 2699.3 65.7613C2739.43 66.811 2783.55 62.4306 2818.79 86.4177C2830.98 94.7026 2828.23 101.14 2833.45 111.846C2847.8 141.333 2867.48 181.652 2886.16 207.067C2903.28 230.354 2915.85 250.843 2930.08 276.761C2946.26 306.248 2960.31 339.094 2977.32 367.601C2979.38 371.058 2981.52 375.466 2982.97 379.259H1081.89Z" fill="#5A6474"/>
<path d="M4094.65 88.1672V379.259H3140.04C3130.16 368.679 3123.94 356.014 3118.24 342.607C3070.06 263.41 3018.2 187.264 2973.32 105.801C2972.47 104.261 2967.64 98.6773 2966.77 96.858C2963.08 89.1609 2958.01 74.6343 2969.38 70.6178C2976.98 67.9308 2995.54 65.4817 3004 64.7679C3041.98 61.5771 3082.19 62.7527 3120.46 61.6331C3352.88 54.8876 3586.67 55.1675 3819.18 54.6077C3891.61 54.4258 3978.33 49.2197 4048.66 66.4193C4065.43 70.5198 4080.06 79.1826 4094.65 88.1533V88.1672Z" fill="#5A6474"/>
<path d="M0 71.3735C22.0648 65.7476 45.7549 59.4499 68.3886 57.3927C184.821 46.7706 312.74 55.3215 429.823 56.0212C601.532 57.0428 773.106 56.651 944.383 61.6331C980.426 62.6827 1016.83 61.6891 1052.82 64.3481C1064.58 65.2158 1084.75 66.8392 1095.46 70.6178C1104.7 73.8786 1104.39 86.166 1100.33 93.2754C1098.57 96.3682 1093.46 102.652 1091.63 105.913C1057.08 167.56 1020.18 226.996 982.485 286.362C965.052 313.792 951.873 338.143 935.673 366.02C932.829 370.918 928.603 374.361 926.151 379.259H0V71.3735Z" fill="#5A6474"/>
<path d="M595.577 53.717L754.566 56.0201C754.566 56.0201 618.076 149.181 528.718 205.742C415.384 277.479 233.916 381.456 233.916 381.456H20.7146C20.7146 381.456 165.091 293.644 258.793 239.547C388.954 164.401 595.577 53.717 595.577 53.717Z" fill="white" fill-opacity="0.3"/>
<path d="M1861.26 53.7167L2020.25 56.0197L1499.6 381.456H1286.39L1861.26 53.7167Z" fill="white" fill-opacity="0.3"/>
<path d="M3126.94 53.7168L3285.93 56.0198L2765.28 381.456H2552.08L3126.94 53.7168Z" fill="white" fill-opacity="0.3"/>
<path d="M4392.62 53.7168L4551.61 56.0198L4030.96 381.456H3817.76L4392.62 53.7168Z" fill="white" fill-opacity="0.3"/>
<path d="M2818.71 46.183H2883.05L3076.06 379.259H3017.82L2824.13 66.4755L2818.71 46.183Z" fill="#5F6C81"/>
<path d="M1243.43 46.1829H1179.09L986.074 379.259H1044.32L1238.01 66.4753L1243.43 46.1829Z" fill="#5F6C81"/>
<path d="M-1.44951e-05 6.99742C9.58983 7.37528 19.6808 4.78624 29.1217 4.21245C106.694 -0.461814 192.718 3.48472 271.536 2.85495C603.009 0.25192 936.364 13.3651 1268.07 9.01267C1275.08 8.91471 1283.2 7.02541 1289.67 6.94144C1557.32 3.52671 1823.52 7.09538 2091.55 4.73026C2236.95 3.44274 2382.59 6.04577 2527.34 5.72389C2698.28 5.34603 2869.15 12.6233 3040.56 9.86635C3304.73 5.61193 3568.72 0.503827 3832.69 2.75699C3901.63 3.34477 3983.47 -1.32949 4050.62 5.62593C4065.43 7.15136 4079.81 11.3218 4094.62 12.6373C4094.7 19.6067 4094.58 26.6461 4094.62 33.6155C4086.91 31.8942 4079.6 28.7873 4071.88 27.038C4028.91 17.2556 3978.16 19.5787 3934.22 19.5648C3765.92 19.5088 3596.22 17.4235 3427.69 19.5648C3322.2 20.9083 3216.57 21.706 3110.96 23.8752C3022.07 25.7085 2933.75 25.6805 2844.82 25.2187C2843.41 22.8955 2839.69 23.8192 2837.4 23.7912C2733.25 22.6576 2629.62 18.2772 2525.72 20.4884C2511.51 20.7963 2496.19 19.2149 2481.94 21.0202C2470.85 19.8726 2459.67 22.2098 2448.82 22.4897C2354.02 24.9108 2258.92 20.1105 2164.47 19.5648C1956.34 18.3472 1748.25 22.7696 1540.2 20.7403C1453.02 19.8866 1361.05 17.4235 1274.12 23.8192C1273.23 23.8891 1272.31 23.7492 1271.41 23.8192C1258.11 24.169 1244.72 23.3713 1231.41 23.7632C1077.08 28.2835 923.672 21.0482 769.802 21.0762C587.269 21.1182 404.412 15.8981 221.298 19.5648C182.573 20.3345 143.726 19.3268 104.96 19.5648C69.7295 19.7747 34.7835 19.6907 -0.0406494 25.2187V6.99742H-1.44951e-05Z" fill="black"/>
<path d="M4094.65 33.5875C4094.7 40.0951 4094.6 46.6727 4094.65 53.1803C4070.45 52.0467 4045.68 41.5086 4021.53 46.1829C3998.75 43.216 3975.98 43.216 3953.1 42.0544C3838.25 36.2186 3722.8 41.4946 3607.83 41.9704C3437.19 42.6702 3265.26 39.9272 3094.7 46.1969C3052.21 47.7643 2976.56 46.3228 2938.32 60.9194C2930.86 63.7743 2927.83 69.1064 2923.49 75.1801C2920.09 90.3785 2929.15 97.4738 2935.39 108.684C2975.25 180.379 3020.16 244.713 3063.36 313.68C3076.92 335.33 3087.31 358.631 3102.14 379.259H3065.58L3016.79 310.027L3010.57 296.858C2987.49 261.143 2968.22 223.175 2945.06 187.53C2926.84 159.485 2919.63 119.949 2898.99 93.0935C2892.71 84.9205 2882.32 73.2908 2873.3 69.974C2867.01 67.6649 2854.67 64.586 2848.18 64.3621C2840.26 64.0822 2833.34 65.5517 2824.55 64.3761C2808.98 62.3049 2792.61 55.5734 2776.31 53.3482C2738.14 48.1281 2698.35 50.5912 2659.96 50.4513C2478.04 49.7515 2296.32 48.2401 2114.28 48.9259C1897.73 49.7376 1680.8 50.4793 1463.72 50.3953C1465.13 48.0302 1467.39 47.7923 1469.79 47.5684C1490.56 45.6231 1511.4 47.1625 1532.17 46.2528C1593.25 43.5938 1653.79 39.3954 1714.97 37.856C1816.52 35.3089 1918.66 34.6931 2020.25 33.6015C2023.4 33.5736 2026.57 33.6015 2029.73 33.6015C2153.42 33.3216 2277.74 38.3318 2401.36 34.945C2493.37 32.412 2585.74 32.1881 2677.71 29.4591C2733.29 27.8077 2789.13 24.9108 2844.88 25.2047C2933.8 25.6805 3022.13 25.6945 3111.01 23.8612C3216.62 21.692 3322.26 20.8943 3427.75 19.5508C3596.27 17.4096 3765.98 19.4948 3934.27 19.5508C3978.2 19.5508 4028.97 17.2416 4071.93 27.024C4079.65 28.7873 4086.98 31.8802 4094.67 33.6015L4094.65 33.5875Z" fill="#737F92"/>
<path d="M1412.28 48.9818C1413.69 51.305 1417.41 50.3813 1419.7 50.4093C1429.86 50.5353 1440.05 50.3813 1450.19 50.3813C1454.69 50.3813 1459.23 50.3813 1463.74 50.3813C1680.82 50.4793 1897.75 49.7236 2114.29 48.9119C2296.33 48.2401 2478.05 49.7516 2659.98 50.4373C2698.36 50.5772 2738.14 48.1142 2776.33 53.3342C2792.62 55.5594 2809 62.2769 2824.56 64.3621L2854.74 80.1203C2866.73 88.5731 2868.04 101.84 2873.78 113.036C2874.26 113.946 2878.81 119.46 2879.96 121.517C2893.04 144.902 2904.71 175.243 2921.11 198.306C2924.09 202.505 2931.17 206.983 2934.17 211C2941.93 221.468 2951.06 241.061 2957.67 253.376C2963.07 263.452 2969.09 275.166 2974.67 285.06C2988.83 310.167 3001.04 339.612 3013.84 366.286C3015.49 369.729 3017.29 375.411 3018.2 379.259H2983C2981.55 375.467 2979.41 371.058 2977.35 367.602C2960.35 339.094 2946.29 306.248 2930.1 276.761C2915.88 250.843 2903.31 230.355 2886.19 207.067C2867.5 181.639 2847.82 141.32 2833.47 111.847C2828.26 101.126 2830.99 94.7029 2818.82 86.4179C2783.59 62.4448 2739.46 66.8252 2699.32 65.7616C2499.35 60.4996 2297.67 65.8876 2096.83 65.8316C1858.82 65.7616 1620.64 61.7311 1383.24 65.8176C1339.22 66.5733 1287.29 60.4016 1247.74 85.3124C1234.54 93.6253 1236.57 101.784 1231.12 112.924C1225.37 124.624 1217.54 135.694 1211.64 147.365C1199.81 170.695 1194.4 185.053 1178.63 207.053C1146.57 251.753 1122.23 301.42 1097.52 351.298C1092.77 360.884 1085.58 369.085 1081.92 379.259H1046.71C1047.88 375.747 1049.76 369.799 1051.31 366.636C1074.71 318.522 1097.31 267.357 1123.81 223.217C1131.51 210.398 1141.41 201.203 1149.58 189.28C1152.58 184.885 1159.73 175.355 1161.54 171.87C1162.01 170.961 1160.41 169.799 1160.45 169.351C1162.93 167.742 1165.15 163.641 1166.29 160.954C1174.99 140.508 1185.59 118.662 1195.66 99.3771C1203.82 83.717 1219.87 71.7654 1236.28 67.1891C1272.25 53.0683 1308.5 51.165 1346.68 50.4513C1368.23 50.0454 1390.58 49.5556 1412.29 48.9958L1412.28 48.9818Z" fill="black"/>
<path d="M4021.53 46.1829C4045.69 49.3317 4072.55 53.95 4094.65 64.3761C4094.67 72.2832 4094.63 80.2602 4094.65 88.1673C4080.04 79.1826 4065.42 70.5338 4048.66 66.4334C3978.35 49.2338 3891.61 54.4398 3819.18 54.6218C3586.67 55.1815 3352.88 54.9016 3120.46 61.6471C3082.17 62.7527 3041.98 61.5772 3004 64.782C2995.54 65.4957 2976.98 67.9448 2969.38 70.6318C2957.99 74.6483 2963.09 89.1749 2966.77 96.8721C2967.64 98.6914 2972.47 104.261 2973.32 105.815C3018.21 187.279 3070.08 263.424 3118.24 342.621C3123.94 356.028 3130.16 368.693 3140.04 379.273H3102.12C3087.31 358.631 3076.9 335.33 3063.35 313.694C3020.15 244.713 2975.23 180.393 2935.37 108.698C2929.14 97.5018 2920.08 90.3925 2923.48 75.1941C2927.81 69.1204 2930.85 63.7884 2938.31 60.9334C2976.55 46.3368 3052.2 47.7783 3094.69 46.2109C3265.25 39.9412 3437.17 42.6842 3607.81 41.9844C3722.8 41.5086 3838.24 36.2326 3953.09 42.0684C3975.96 43.23 3998.73 43.23 4021.52 46.1969L4021.53 46.1829Z" fill="black"/>
<path d="M1125.22 60.1776C1135.08 63.6344 1142.71 72.1292 1142.14 83.325C1141.57 94.5209 1129.07 109.425 1123.57 119.362C1113.63 137.331 1104.77 155.216 1093.85 172.626C1085.24 186.341 1074.08 199.37 1066.56 213.071L1060.21 225.33C1037.38 263.662 1009.67 299.993 986.548 338.828C978.584 352.221 972.732 367.196 962.709 379.273H926.151C928.603 374.361 932.829 370.932 935.673 366.034C951.873 338.142 965.052 313.806 982.485 286.376C1020.19 227.01 1057.08 167.588 1091.63 105.927C1093.46 102.666 1098.57 96.3822 1100.33 93.2894C1104.38 86.18 1104.7 73.8925 1095.46 70.6318C1084.75 66.8532 1064.58 65.2298 1052.82 64.3621C1016.83 61.7031 980.426 62.6967 944.383 61.6471C773.093 56.6649 601.532 57.0568 429.823 56.0352C312.74 55.3354 184.821 46.7846 68.3886 57.4067C45.7549 59.4779 22.0648 65.7756 0 71.3875V53.1942C29.9344 48.45 59.7198 43.7477 89.9928 41.9424C211.464 34.6931 336.498 41.5505 458.321 42.0544C628.934 42.7541 800.955 39.8572 971.527 46.2248C1014.45 47.8202 1086.12 46.4767 1125.22 60.2056V60.1776Z" fill="black"/>
<path d="M1271.45 23.7911C1237.16 26.688 1195.89 35.7987 1162.06 45.777C1158.95 46.7006 1144.94 50.6332 1143.7 51.6548C1142.25 52.8443 1143.2 55.4754 1140.6 57.1547C1136.08 60.0657 1129.35 57.0848 1125.21 60.1636C1086.1 46.4347 1014.44 47.7782 971.513 46.1828C800.941 39.8292 628.934 42.7261 458.308 42.0124C336.484 41.5085 211.451 34.6651 89.9793 41.9004C59.7062 43.7057 29.9208 48.408 -0.0135498 53.1522V25.1626C34.797 19.6347 69.7566 19.7186 104.987 19.5087C143.753 19.2708 182.6 20.2784 221.325 19.5087C404.439 15.8421 587.296 21.0621 769.829 21.0201C923.713 20.9782 1077.11 28.2135 1231.44 23.7071C1244.74 23.3153 1258.15 24.113 1271.44 23.7631L1271.45 23.7911Z" fill="#737F92"/>
<path d="M1274.16 23.7908L1280.31 29.3468L1279.57 32.8735C1275.8 36.3722 1249.21 39.3391 1241.29 43.6914C1240.27 44.2512 1238.92 44.7131 1238.96 46.1685C1264.26 45.3568 1288.76 36.3722 1314.05 34.9307C1320.5 34.5668 1335.43 33.9511 1341.13 35.0566C1345.18 35.8404 1349.65 41.3543 1353.73 43.0197C1364.01 47.2461 1373.27 43.4675 1383.1 43.3276C1427.38 42.6978 1472.7 41.0604 1517.28 39.2411C1559.08 37.5337 1600.34 34.4689 1641.81 34.9727C1668.44 35.2946 1695.15 36.5681 1721.67 34.9727C1725.29 34.7488 1729.96 32.1317 1732.58 32.3137C1738.47 32.7335 1741.04 33.5312 1748.7 33.5172C1825.89 33.3633 1903.22 36.4981 1979.03 30.8582L2020.25 33.5872C1918.65 34.6788 1816.5 35.2946 1714.97 37.8416C1653.79 39.381 1593.25 43.5795 1532.17 46.2385C1511.4 47.1342 1490.57 45.5947 1469.79 47.554C1467.39 47.7779 1465.13 48.0298 1463.72 50.381C1459.23 50.381 1454.69 50.381 1450.18 50.381C1448.77 48.0578 1445.05 48.9815 1442.76 48.9535C1432.64 48.8415 1422.37 48.7156 1412.27 48.9815C1390.55 49.5413 1368.21 50.0311 1346.66 50.4369C1308.47 51.1507 1272.21 53.054 1236.25 67.1747L1243.01 62.9903C1238.09 62.4585 1233.26 63.802 1228.76 65.7473C1188.37 83.2548 1156.36 120.313 1134.45 158.603C1125.38 174.417 1116.95 188.832 1107.32 204.744C1089.99 233.377 1078.03 265.635 1061.28 295.71C1045.27 324.455 1026.26 351.507 1008.75 379.273H999.267C999.335 369.63 1008.34 363.963 1011.74 356.489C1015.47 348.316 1013.2 346.231 1021.6 338.688C1039.62 322.538 1059.14 290.602 1071.29 268.28C1074.46 262.444 1085.71 240.542 1087 235.476C1089.1 227.261 1076.97 229.976 1070.57 229.291C1068.69 229.095 1066.73 228.493 1064.82 228.143C1062.29 227.695 1059.41 229.724 1060.18 225.316L1066.53 213.057C1074.04 199.356 1085.21 186.327 1093.82 172.612C1104.74 155.216 1113.6 137.317 1123.54 119.347C1129.04 109.411 1141.52 94.8704 1142.11 83.3107C1142.71 71.751 1135.06 63.634 1125.19 60.1633C1129.34 57.0705 1136.06 60.0514 1140.58 57.1544C1143.18 55.4751 1142.23 52.844 1143.68 51.6545C1144.93 50.6329 1158.94 46.6863 1162.05 45.7767C1195.87 35.7984 1237.14 26.6878 1271.44 23.7908C1272.33 23.7209 1273.25 23.8608 1274.15 23.7908H1274.16Z" fill="#5D6675"/>
<path d="M1060.22 225.316C1059.45 229.725 1062.33 227.696 1064.87 228.143C1066.76 228.479 1068.71 229.081 1070.61 229.291C1077.02 229.977 1089.15 227.262 1087.04 235.477C1085.74 240.529 1074.5 262.445 1071.33 268.28C1059.18 290.588 1039.66 322.524 1021.64 338.688C1013.23 346.232 1015.51 348.317 1011.78 356.49C1008.37 363.963 999.376 369.645 999.308 379.273H962.75C972.773 367.21 978.625 352.221 986.589 338.828C1009.71 299.993 1037.42 263.662 1060.25 225.33L1060.22 225.316Z" fill="#778297"/>
<path d="M2481.97 20.9922C2463.95 23.2594 2449.42 32.23 2427.08 33.5036C2359.78 37.3242 2289.97 32.9158 2222.45 32.7199C2168.02 32.5659 2113.22 35.2669 2058.77 33.6575C2049.65 33.3916 2038.72 29.753 2029.71 33.5875C2026.56 33.5875 2023.39 33.5595 2020.23 33.5875L1979.02 30.8585C1903.2 36.5124 1825.88 33.3776 1748.68 33.5176C1741.03 33.5316 1738.44 32.7339 1732.56 32.314C1729.94 32.1321 1725.28 34.7491 1721.66 34.973C1695.14 36.5684 1668.43 35.2949 1641.8 34.973C1600.33 34.4692 1559.07 37.5341 1517.27 39.2414C1472.69 41.0608 1427.38 42.6982 1383.09 43.3279C1373.27 43.4679 1363.99 47.2325 1353.71 43.02C1349.63 41.3407 1345.16 35.8267 1341.11 35.057C1335.41 33.9654 1320.49 34.5672 1314.04 34.931C1288.75 36.3725 1264.25 45.3712 1238.95 46.1689C1238.9 44.7134 1240.26 44.2516 1241.27 43.6918C1249.2 39.3394 1275.79 36.3725 1279.55 32.8738L1280.3 29.3471L1274.15 23.7912C1361.08 17.3955 1453.05 19.8586 1540.23 20.7123C1748.28 22.7416 1956.37 18.3192 2164.5 19.5368C2258.96 20.0825 2354.05 24.8968 2448.85 22.4617C2459.7 22.1818 2470.87 19.8446 2481.97 20.9922Z" fill="#737F92"/>
<path d="M2844.86 25.1907C2789.11 24.8968 2733.28 27.8077 2677.69 29.4451C2585.74 32.1601 2493.37 32.398 2401.35 34.931C2277.72 38.3318 2153.41 33.3076 2029.71 33.5875C2038.71 29.753 2049.65 33.3916 2058.77 33.6575C2113.22 35.2529 2168.02 32.5659 2222.45 32.7199C2289.97 32.9158 2359.78 37.3382 2427.08 33.5036C2449.42 32.2301 2463.97 23.2594 2481.97 20.9922C2496.22 19.2009 2511.54 20.7683 2525.74 20.4604C2629.63 18.2492 2733.28 22.6296 2837.43 23.7632C2839.72 23.7912 2843.46 22.8675 2844.85 25.1907H2844.86Z" fill="#5D6675"/>
<path d="M4094.65 53.1802C4094.67 56.9028 4094.65 60.6534 4094.65 64.3761C4072.54 53.9499 4045.69 49.3316 4021.53 46.1828C4045.68 41.5085 4070.45 52.0466 4094.65 53.1802Z" fill="#5F5F5F"/>
<path d="M1450.19 50.3813C1440.05 50.3813 1429.86 50.5352 1419.7 50.4093C1417.41 50.3813 1413.69 51.3049 1412.28 48.9818C1422.38 48.7159 1432.64 48.8418 1442.77 48.9538C1445.06 48.9818 1448.8 48.0581 1450.19 50.3813Z" fill="#555555"/>
<path d="M662.727 98.5764C660.278 95.1053 657.715 94.8721 653.568 95.3523V95.3694C646.062 96.2338 615.199 110.554 622.954 118.94C629.996 126.53 637.287 116.649 643.016 114.076C649.805 111.027 668.109 108.352 662.727 98.5764Z" fill="white" fill-opacity="0.4"/>
<path d="M1893.97 111.172C1891.52 107.701 1888.95 107.467 1884.81 107.948V107.965C1877.3 108.829 1846.44 123.149 1854.19 131.535C1861.23 139.126 1868.53 129.244 1874.25 126.672C1881.04 123.622 1899.35 120.947 1893.97 111.172Z" fill="white" fill-opacity="0.4"/>
<path d="M3188.86 91.579C3186.42 88.1079 3183.85 87.8746 3179.71 88.3548V88.372C3172.2 89.2363 3141.34 103.556 3149.09 111.942C3156.13 119.533 3163.42 109.651 3169.15 107.079C3175.94 104.03 3194.25 101.354 3188.86 91.579Z" fill="white" fill-opacity="0.4"/>
<path d="M698.178 71.8259C712.834 78.2422 676.336 96.4557 672.138 86.8C668.914 79.3744 691.948 69.0873 698.178 71.8259Z" fill="white" fill-opacity="0.4"/>
<path d="M1929.42 84.4212C1944.07 90.8376 1907.57 109.051 1903.38 99.3953C1900.15 91.9697 1923.19 81.6826 1929.42 84.4212Z" fill="white" fill-opacity="0.4"/>
<path d="M3224.32 64.8284C3238.97 71.2448 3202.47 89.4583 3198.28 79.8025C3195.05 72.3769 3218.09 62.0898 3224.32 64.8284Z" fill="white" fill-opacity="0.4"/>
</g>
<defs>
<clipPath id="clip0_515_6085">
<rect width="4096" height="379.259" fill="white"/>
</clipPath>
</defs>
</svg>
