<svg width="2270" height="460" viewBox="0 0 2270 460" fill="none" xmlns="http://www.w3.org/2000/svg">
<path d="M243.216 98.0264C246.271 100.47 247.798 103.424 247.798 106.886C247.798 109.941 245.456 115.338 240.772 123.078L222.441 125.217C223.867 133.771 224.885 141.51 225.496 148.435C226.107 155.36 226.515 161.266 226.718 166.154C226.922 170.839 227.024 174.505 227.024 177.153C227.024 179.597 227.227 180.819 227.635 180.819V180.513C227.635 183.772 227.533 187.744 227.329 192.428C227.329 196.909 227.227 202.204 227.024 208.314C223.561 227.867 217.146 242.735 207.777 252.918C198.408 262.898 184.66 267.888 166.533 267.888C158.387 267.888 152.175 266.564 147.898 263.917C143.417 261.269 141.176 257.195 141.176 251.696C141.176 243.549 145.555 239.069 154.313 238.254C159.812 239.476 164.802 240.087 169.283 240.087C175.8 240.087 181.401 238.05 186.086 233.977C190.974 229.7 194.335 223.691 196.168 215.952L198.001 195.789C198.612 189.067 198.917 183.772 198.917 179.902V176.542V173.792C198.917 171.959 198.917 169.922 198.917 167.682C198.917 165.442 198.815 162.692 198.612 159.433C198.408 155.971 198.001 151.897 197.39 147.213C196.779 142.529 195.964 136.826 194.946 130.105C193.316 130.512 191.381 130.817 189.141 131.021C186.901 131.225 184.355 131.327 181.503 131.327C176.208 131.327 172.134 130.003 169.283 127.355C166.432 124.707 164.599 120.43 163.784 114.524C165.006 111.876 167.45 109.636 171.116 107.803C174.782 105.766 178.652 103.627 182.725 101.387C184.762 101.183 188.326 100.776 193.418 100.165C198.51 99.3503 205.231 98.3319 213.581 97.1099C214.803 97.5172 216.229 97.7209 217.859 97.7209C218.47 97.7209 219.59 97.7209 221.219 97.7209C223.052 97.5172 224.885 97.3136 226.718 97.1099C228.755 96.9062 230.69 96.8044 232.523 96.8044C234.356 96.6007 235.68 96.4989 236.494 96.4989C239.957 96.4989 242.197 97.0081 243.216 98.0264ZM379.066 241.615C385.787 245.077 389.148 250.067 389.148 256.584C389.148 260.861 388.027 263.917 385.787 265.75C383.75 267.583 380.695 268.805 376.622 269.416C372.752 270.23 367.864 270.638 361.957 270.638C356.051 270.841 349.432 271.147 342.099 271.554C339.655 270.74 330.694 269.925 315.215 269.11C312.975 269.314 310.836 269.416 308.799 269.416C306.763 269.619 304.828 269.721 302.995 269.721C291.996 269.721 284.461 268.092 280.387 264.833C279.369 256.686 278.554 249.15 277.943 242.226C277.536 235.301 277.332 228.987 277.332 223.284C277.332 214.323 277.638 206.583 278.249 200.066C279.063 193.344 279.471 187.336 279.471 182.041C279.471 175.523 279.165 170.431 278.554 166.765L280.387 134.687C281.202 126.948 282.118 120.328 283.137 114.829C284.359 109.33 285.784 105.155 287.414 102.304C288.636 100.674 294.746 98.6374 305.744 96.1934L325.297 91.9163C326.519 91.7126 329.065 91.4071 332.934 90.9998C336.804 90.5924 340.776 90.1851 344.849 89.7777C349.126 89.3704 352.894 89.0649 356.153 88.8612C359.412 88.6575 360.939 88.5557 360.735 88.5557H361.957C364.198 88.5557 366.438 90.0832 368.679 93.1383C371.123 96.1934 372.345 99.7576 372.345 103.831C372.345 105.868 372.243 107.701 372.039 109.33C372.039 110.96 371.428 112.385 370.206 113.607C368.984 114.626 366.947 115.44 364.096 116.051C361.245 116.662 357.069 117.07 351.57 117.273C342.609 117.681 336.499 118.597 333.24 120.023H331.712C326.417 120.023 319.798 121.245 311.854 123.689C311.04 124.707 310.429 126.54 310.021 129.188C309.614 131.632 309.308 134.28 309.105 137.131C308.901 139.779 308.697 142.121 308.494 144.158C308.494 145.991 308.494 146.602 308.494 145.991C308.29 147.009 308.086 148.028 307.883 149.046C307.883 150.064 307.883 151.388 307.883 153.018C307.883 154.443 307.883 156.073 307.883 157.906C308.086 159.535 308.29 161.368 308.494 163.405C314.808 162.794 319.899 162.183 323.769 161.572C327.843 160.757 330.999 160.35 333.24 160.35C337.517 160.35 341.692 160.248 345.766 160.044C349.839 159.841 353.403 160.146 356.458 160.961C359.717 161.572 362.263 162.997 364.096 165.238C365.929 167.275 366.846 170.635 366.846 175.32C366.846 180.615 365.114 184.077 361.652 185.707C358.393 187.336 352.589 188.253 344.238 188.456C334.462 188.864 328.555 189.271 326.519 189.678C325.297 189.678 323.973 189.678 322.547 189.678C321.325 189.475 319.899 189.373 318.27 189.373C317.252 189.373 316.03 189.373 314.604 189.373C313.382 189.169 312.16 189.169 310.938 189.373C309.716 189.373 308.596 189.78 307.577 190.595C306.763 191.206 306.355 192.428 306.355 194.261C306.355 195.483 306.355 197.112 306.355 199.149C306.559 200.982 306.661 202.713 306.661 204.343C306.661 206.787 306.559 209.231 306.355 211.675C306.355 214.119 306.253 216.767 306.05 219.618C306.05 222.266 305.948 225.321 305.744 228.783C305.744 232.246 305.744 236.319 305.744 241.004C306.966 241.207 309.308 241.411 312.771 241.615C316.437 241.818 320.205 242.022 324.075 242.226C328.148 242.429 332.018 242.735 335.684 243.142C339.35 243.346 341.794 243.549 343.016 243.753C343.22 243.753 344.645 243.651 347.293 243.448C349.941 243.244 353.811 242.938 358.902 242.531C365.827 241.92 371.326 241.615 375.4 241.615H379.066ZM524.843 162.183C523.213 176.44 521.788 188.864 520.565 199.455C519.343 210.046 517.001 218.6 513.539 225.117C509.873 231.838 505.901 237.337 501.624 241.615C497.347 245.892 492.968 249.252 488.487 251.696C484.007 254.14 479.526 255.872 475.045 256.89C470.768 257.705 466.694 258.112 462.825 258.112C456.715 258.112 451.317 257.501 446.633 256.279C441.948 254.853 437.57 252.613 433.496 249.558C429.626 246.299 425.96 242.022 422.498 236.726C419.035 231.227 415.471 224.302 411.805 215.952C408.139 201.288 405.899 188.558 405.084 177.764C404.269 166.969 403.862 156.48 403.862 146.296C403.862 142.834 403.76 138.964 403.556 134.687C403.556 130.206 403.862 126.031 404.473 122.161C405.288 118.088 406.713 114.727 408.75 112.08C410.99 109.228 414.249 107.803 418.526 107.803C426.469 107.803 431.663 112.08 434.107 120.634C433.496 124.3 433.191 130.614 433.191 139.575C433.191 142.427 433.191 145.38 433.191 148.435C433.191 151.49 433.292 154.851 433.496 158.517C433.7 167.682 433.802 174.199 433.802 178.069C433.802 181.735 433.903 184.485 434.107 186.318C434.311 187.947 434.616 189.577 435.024 191.206C435.431 192.632 436.144 195.687 437.162 200.371C439.199 206.481 440.93 211.268 442.356 214.73C443.782 217.989 445.309 220.636 446.938 222.673C448.568 224.506 450.604 225.932 453.049 226.95C455.696 227.765 459.057 228.681 463.13 229.7C469.037 228.274 473.925 226.136 477.795 223.284C481.868 220.433 485.025 216.868 487.265 212.591C489.709 208.111 491.441 202.917 492.459 197.011C493.477 191.104 494.19 184.485 494.597 177.153C494.597 171.857 494.699 166.765 494.903 161.877C495.31 156.989 495.718 152.508 496.125 148.435C495.921 144.362 495.819 140.797 495.819 137.742C495.819 134.484 495.819 131.734 495.819 129.494C495.819 127.05 495.718 124.911 495.514 123.078V126.439C495.514 118.903 496.329 112.182 497.958 106.275C502.235 103.831 506.41 102.609 510.484 102.609C514.15 102.609 517.001 103.424 519.038 105.053C521.075 106.479 522.602 108.414 523.621 110.858C524.639 113.098 525.25 115.746 525.454 118.801C525.657 121.652 525.759 124.504 525.759 127.355C525.759 128.577 525.657 130.41 525.454 132.854C525.25 135.095 525.046 137.64 524.843 140.492C524.843 143.14 524.741 145.685 524.537 148.13C524.333 150.574 524.232 152.407 524.232 153.629C524.232 155.258 524.232 156.786 524.232 158.211C524.435 159.433 524.639 160.757 524.843 162.183ZM685.577 247.725C685.577 248.336 685.577 248.947 685.577 249.558C685.781 250.169 685.883 250.678 685.883 251.085C685.883 255.77 684.661 259.639 682.217 262.694C679.773 265.75 676.718 267.277 673.051 267.277C668.978 267.277 665.108 265.342 661.442 261.472L643.112 234.588C640.057 231.329 636.289 227.256 631.808 222.368C627.327 217.276 622.134 211.471 616.227 204.954L595.453 229.7C591.176 234.792 587.611 239.17 584.76 242.837C582.112 246.503 579.668 249.965 577.428 253.224C575.391 256.279 573.354 259.538 571.318 263C569.281 266.259 566.837 270.128 563.986 274.609C561.338 275.628 558.588 276.137 555.737 276.137C551.052 276.137 546.877 274.915 543.211 272.471C539.749 270.027 538.018 266.564 538.018 262.083C538.018 260.861 538.934 258.621 540.767 255.362C542.804 252.104 544.942 248.743 547.183 245.281C549.423 241.615 551.562 238.356 553.598 235.504C555.635 232.653 556.653 231.125 556.653 230.922C559.301 227.459 561.949 224.302 564.597 221.451C567.448 218.6 570.401 215.545 573.456 212.286C576.715 208.823 580.076 204.852 583.538 200.371C587.204 195.89 591.278 190.188 595.758 183.263L575.595 164.932C574.984 164.321 573.558 163.099 571.318 161.266C569.281 159.433 566.939 157.295 564.291 154.851C561.847 152.407 559.301 149.861 556.653 147.213C554.006 144.362 551.867 141.51 550.238 138.659C553.497 128.068 559.199 122.772 567.346 122.772C568.772 122.772 570.096 123.18 571.318 123.994C572.743 124.809 574.475 126.235 576.511 128.272C578.752 130.105 581.603 132.752 585.066 136.215C588.528 139.677 593.212 144.056 599.119 149.352C603.396 152.814 606.451 155.36 608.284 156.989C610.117 158.619 612.256 160.553 614.7 162.794C615.107 162.183 617.347 159.23 621.421 153.934C625.698 148.435 630.586 142.529 636.085 136.215C641.584 129.697 646.982 123.893 652.277 118.801C657.572 113.505 661.646 110.858 664.497 110.858C665.923 110.858 667.552 111.265 669.385 112.08C671.218 112.691 672.95 113.607 674.579 114.829C676.412 116.051 677.838 117.477 678.856 119.106C680.078 120.532 680.689 121.958 680.689 123.383C680.689 124.402 680.282 125.726 679.467 127.355C678.652 128.984 677.227 131.225 675.19 134.076C673.153 136.724 670.302 140.186 666.636 144.463C663.173 148.537 658.591 153.527 652.888 159.433L633.947 182.346C639.446 188.66 643.417 193.446 645.861 196.705C648.509 199.76 650.444 202.306 651.666 204.343C653.092 206.176 654.416 207.907 655.638 209.536C657.063 211.166 659.507 213.61 662.97 216.868C666.228 220.127 669.691 224.302 673.357 229.394C677.227 234.486 681.3 240.596 685.577 247.725ZM943.007 169.209C942.803 176.745 941.887 183.365 940.258 189.067C938.832 194.567 936.592 200.066 933.536 205.565C930.481 211.064 926.612 217.072 921.927 223.59C917.243 229.903 911.54 237.439 904.819 246.197C903.8 246.604 901.764 247.928 898.709 250.169C895.654 252.409 892.191 254.751 888.321 257.195C884.655 259.639 880.887 261.88 877.018 263.917C873.352 266.157 870.5 267.379 868.464 267.583C863.983 267.99 859.604 268.805 855.327 270.027C851.05 271.452 846.874 273.184 842.801 275.22C830.784 275.22 824.063 270.943 822.638 262.389C822.638 261.371 822.638 260.149 822.638 258.723C822.841 257.297 822.943 255.77 822.943 254.14C822.943 243.957 821.925 232.042 819.888 218.396C818.055 204.75 817.138 190.289 817.138 175.014C817.138 160.757 818.666 141.205 821.721 116.357C823.35 112.487 825.693 109.636 828.748 107.803C831.803 105.97 835.367 105.053 839.44 105.053C842.903 105.053 846.263 105.868 849.522 107.497C859.298 104.238 868.769 102.609 877.934 102.609C883.637 102.609 889.442 103.424 895.348 105.053C901.255 106.682 906.652 108.821 911.54 111.469C916.632 114.116 921.113 117.07 924.982 120.328C928.852 123.587 931.703 126.744 933.536 129.799C939.85 147.926 943.007 161.063 943.007 169.209ZM914.595 162.183C914.188 158.517 913.577 155.36 912.762 152.712C912.151 150.064 910.929 147.62 909.096 145.38C907.263 143.14 904.717 141.001 901.458 138.964C898.2 136.928 894.024 134.687 888.932 132.243C886.692 131.225 884.452 130.512 882.211 130.105C879.971 129.494 877.425 129.188 874.574 129.188C872.537 129.188 869.991 129.494 866.936 130.105C864.085 130.512 861.233 130.919 858.382 131.327C854.919 131.938 851.457 132.549 847.995 133.16C845.551 141.51 844.329 157.6 844.329 181.43C844.329 183.874 844.634 188.864 845.245 196.4C845.856 203.732 846.874 213.813 848.3 226.645C848.911 233.162 849.828 239.069 851.05 244.364C854.716 243.346 863.677 238.763 877.934 230.616C879.767 229.598 882.721 227.358 886.794 223.895C890.867 220.229 894.941 215.646 899.014 210.147C903.291 204.445 906.957 197.927 910.012 190.595C913.068 183.059 914.595 174.912 914.595 166.154V162.183ZM1071.71 241.615C1078.43 245.077 1081.79 250.067 1081.79 256.584C1081.79 260.861 1080.67 263.917 1078.43 265.75C1076.39 267.583 1073.34 268.805 1069.26 269.416C1065.39 270.23 1060.5 270.638 1054.6 270.638C1048.69 270.841 1042.07 271.147 1034.74 271.554C1032.3 270.74 1023.33 269.925 1007.86 269.11C1005.62 269.314 1003.48 269.416 1001.44 269.416C999.403 269.619 997.468 269.721 995.635 269.721C984.637 269.721 977.101 268.092 973.028 264.833C972.01 256.686 971.195 249.15 970.584 242.226C970.177 235.301 969.973 228.987 969.973 223.284C969.973 214.323 970.278 206.583 970.889 200.066C971.704 193.344 972.111 187.336 972.111 182.041C972.111 175.523 971.806 170.431 971.195 166.765L973.028 134.687C973.843 126.948 974.759 120.328 975.777 114.829C977 109.33 978.425 105.155 980.055 102.304C981.277 100.674 987.387 98.6374 998.385 96.1934L1017.94 91.9163C1019.16 91.7126 1021.71 91.4071 1025.58 90.9998C1029.44 90.5924 1033.42 90.1851 1037.49 89.7777C1041.77 89.3704 1045.53 89.0649 1048.79 88.8612C1052.05 88.6575 1053.58 88.5557 1053.38 88.5557H1054.6C1056.84 88.5557 1059.08 90.0832 1061.32 93.1383C1063.76 96.1934 1064.99 99.7576 1064.99 103.831C1064.99 105.868 1064.88 107.701 1064.68 109.33C1064.68 110.96 1064.07 112.385 1062.85 113.607C1061.62 114.626 1059.59 115.44 1056.74 116.051C1053.89 116.662 1049.71 117.07 1044.21 117.273C1035.25 117.681 1029.14 118.597 1025.88 120.023H1024.35C1019.06 120.023 1012.44 121.245 1004.5 123.689C1003.68 124.707 1003.07 126.54 1002.66 129.188C1002.25 131.632 1001.95 134.28 1001.75 137.131C1001.54 139.779 1001.34 142.121 1001.13 144.158C1001.13 145.991 1001.13 146.602 1001.13 145.991C1000.93 147.009 1000.73 148.028 1000.52 149.046C1000.52 150.064 1000.52 151.388 1000.52 153.018C1000.52 154.443 1000.52 156.073 1000.52 157.906C1000.73 159.535 1000.93 161.368 1001.13 163.405C1007.45 162.794 1012.54 162.183 1016.41 161.572C1020.48 160.757 1023.64 160.35 1025.88 160.35C1030.16 160.35 1034.33 160.248 1038.41 160.044C1042.48 159.841 1046.04 160.146 1049.1 160.961C1052.36 161.572 1054.9 162.997 1056.74 165.238C1058.57 167.275 1059.49 170.635 1059.49 175.32C1059.49 180.615 1057.76 184.077 1054.29 185.707C1051.03 187.336 1045.23 188.253 1036.88 188.456C1027.1 188.864 1021.2 189.271 1019.16 189.678C1017.94 189.678 1016.61 189.678 1015.19 189.678C1013.97 189.475 1012.54 189.373 1010.91 189.373C1009.89 189.373 1008.67 189.373 1007.24 189.373C1006.02 189.169 1004.8 189.169 1003.58 189.373C1002.36 189.373 1001.24 189.78 1000.22 190.595C999.403 191.206 998.996 192.428 998.996 194.261C998.996 195.483 998.996 197.112 998.996 199.149C999.2 200.982 999.301 202.713 999.301 204.343C999.301 206.787 999.2 209.231 998.996 211.675C998.996 214.119 998.894 216.767 998.69 219.618C998.69 222.266 998.589 225.321 998.385 228.783C998.385 232.246 998.385 236.319 998.385 241.004C999.607 241.207 1001.95 241.411 1005.41 241.615C1009.08 241.818 1012.85 242.022 1016.72 242.226C1020.79 242.429 1024.66 242.735 1028.32 243.142C1031.99 243.346 1034.43 243.549 1035.66 243.753C1035.86 243.753 1037.29 243.651 1039.93 243.448C1042.58 243.244 1046.45 242.938 1051.54 242.531C1058.47 241.92 1063.97 241.615 1068.04 241.615H1071.71ZM1324.69 221.757C1324.08 224.201 1322.55 227.154 1320.11 230.616C1317.87 234.079 1315.02 237.643 1311.56 241.309C1308.09 244.771 1304.33 247.928 1300.25 250.78C1296.38 253.631 1292.61 255.668 1288.95 256.89C1278.36 261.574 1266.44 263.917 1253.2 263.917C1248.93 263.917 1245.16 263.815 1241.9 263.611C1238.84 263.407 1235.79 262.796 1232.73 261.778C1229.68 260.76 1226.62 259.13 1223.57 256.89C1220.51 254.649 1217.05 251.391 1213.18 247.114C1208.91 242.633 1205.54 238.254 1203.1 233.977C1200.66 229.496 1198.82 225.219 1197.6 221.146C1196.38 217.072 1195.56 213.202 1195.16 209.536C1194.75 205.667 1194.55 202.204 1194.55 199.149C1194.55 192.428 1195.36 184.485 1196.99 175.32C1198.62 166.154 1203 154.952 1210.13 141.714C1212.78 136.826 1214.81 132.956 1216.24 130.105C1217.66 127.253 1218.48 125.318 1218.68 124.3L1237.62 112.691C1244.14 108.821 1250.35 105.766 1256.26 103.526C1262.17 101.081 1268.68 99.8595 1275.81 99.8595C1277.85 99.8595 1280.9 99.8595 1284.98 99.8595C1289.05 99.8595 1293.02 100.369 1296.89 101.387C1300.96 102.202 1304.53 103.831 1307.58 106.275C1310.64 108.515 1312.17 111.876 1312.17 116.357C1312.17 123.893 1307.69 128.272 1298.72 129.494C1298.93 129.494 1298.32 129.392 1296.89 129.188C1295.47 128.984 1293.53 128.781 1291.09 128.577C1288.64 128.373 1285.89 128.17 1282.84 127.966C1279.78 127.762 1276.73 127.661 1273.67 127.661C1268.38 127.661 1262.98 129.188 1257.48 132.243C1252.19 135.095 1245.67 140.084 1237.93 147.213C1233.85 155.767 1230.8 162.488 1228.76 167.376C1226.93 172.061 1226.01 175.218 1226.01 176.847C1223.77 180.921 1222.65 186.929 1222.65 194.872C1222.65 209.536 1225.3 220.127 1230.6 226.645C1235.89 232.959 1243.12 236.115 1252.29 236.115C1258.19 236.115 1267.36 234.486 1279.78 231.227C1287.32 226.747 1293.84 219.618 1299.34 209.842C1302.8 206.379 1306.36 204.648 1310.03 204.648C1313.9 204.648 1317.36 206.176 1320.42 209.231C1323.47 212.286 1325 215.748 1325 219.618C1325 220.025 1324.9 220.433 1324.69 220.84C1324.69 221.044 1324.69 221.349 1324.69 221.757ZM1470.08 162.183C1468.45 176.44 1467.02 188.864 1465.8 199.455C1464.58 210.046 1462.23 218.6 1458.77 225.117C1455.11 231.838 1451.13 237.337 1446.86 241.615C1442.58 245.892 1438.2 249.252 1433.72 251.696C1429.24 254.14 1424.76 255.872 1420.28 256.89C1416 257.705 1411.93 258.112 1408.06 258.112C1401.95 258.112 1396.55 257.501 1391.87 256.279C1387.18 254.853 1382.8 252.613 1378.73 249.558C1374.86 246.299 1371.19 242.022 1367.73 236.726C1364.27 231.227 1360.7 224.302 1357.04 215.952C1353.37 201.288 1351.13 188.558 1350.32 177.764C1349.5 166.969 1349.09 156.48 1349.09 146.296C1349.09 142.834 1348.99 138.964 1348.79 134.687C1348.79 130.206 1349.09 126.031 1349.71 122.161C1350.52 118.088 1351.95 114.727 1353.98 112.08C1356.22 109.228 1359.48 107.803 1363.76 107.803C1371.7 107.803 1376.9 112.08 1379.34 120.634C1378.73 124.3 1378.42 130.614 1378.42 139.575C1378.42 142.427 1378.42 145.38 1378.42 148.435C1378.42 151.49 1378.53 154.851 1378.73 158.517C1378.93 167.682 1379.03 174.199 1379.03 178.069C1379.03 181.735 1379.14 184.485 1379.34 186.318C1379.54 187.947 1379.85 189.577 1380.26 191.206C1380.66 192.632 1381.38 195.687 1382.39 200.371C1384.43 206.481 1386.16 211.268 1387.59 214.73C1389.01 217.989 1390.54 220.636 1392.17 222.673C1393.8 224.506 1395.84 225.932 1398.28 226.95C1400.93 227.765 1404.29 228.681 1408.36 229.7C1414.27 228.274 1419.16 226.136 1423.03 223.284C1427.1 220.433 1430.26 216.868 1432.5 212.591C1434.94 208.111 1436.67 202.917 1437.69 197.011C1438.71 191.104 1439.42 184.485 1439.83 177.153C1439.83 171.857 1439.93 166.765 1440.14 161.877C1440.54 156.989 1440.95 152.508 1441.36 148.435C1441.15 144.362 1441.05 140.797 1441.05 137.742C1441.05 134.484 1441.05 131.734 1441.05 129.494C1441.05 127.05 1440.95 124.911 1440.75 123.078V126.439C1440.75 118.903 1441.56 112.182 1443.19 106.275C1447.47 103.831 1451.64 102.609 1455.72 102.609C1459.38 102.609 1462.23 103.424 1464.27 105.053C1466.31 106.479 1467.83 108.414 1468.85 110.858C1469.87 113.098 1470.48 115.746 1470.69 118.801C1470.89 121.652 1470.99 124.504 1470.99 127.355C1470.99 128.577 1470.89 130.41 1470.69 132.854C1470.48 135.095 1470.28 137.64 1470.08 140.492C1470.08 143.14 1469.97 145.685 1469.77 148.13C1469.57 150.574 1469.46 152.407 1469.46 153.629C1469.46 155.258 1469.46 156.786 1469.46 158.211C1469.67 159.433 1469.87 160.757 1470.08 162.183ZM1559.63 255.973C1559.02 256.992 1557.9 257.908 1556.27 258.723C1554.64 259.334 1552.91 259.843 1551.07 260.25C1549.44 260.454 1547.81 260.658 1546.18 260.861C1544.76 261.065 1543.94 261.269 1543.74 261.472C1541.09 261.676 1538.04 261.88 1534.58 262.083C1531.11 262.287 1527.04 262.593 1522.36 263C1521.74 262.796 1520.93 262.694 1519.91 262.694C1519.1 262.694 1517.87 262.898 1516.24 263.306C1514.62 263.713 1513.29 263.917 1512.27 263.917C1505.55 263.917 1502.19 260.047 1502.19 252.307C1502.19 246.401 1504.02 242.327 1507.69 240.087L1520.52 235.81C1520.52 230.311 1521.13 222.469 1522.36 212.286C1522.15 211.268 1521.95 210.147 1521.74 208.925C1521.74 207.5 1521.74 205.972 1521.74 204.343C1521.74 197.214 1521.95 191.715 1522.36 187.845C1522.76 183.976 1522.97 181.837 1522.97 181.43C1522.97 179.597 1522.86 177.56 1522.66 175.32C1522.66 172.876 1522.46 169.719 1522.05 165.849C1521.85 161.775 1521.44 156.786 1520.83 150.879C1520.42 144.973 1519.91 137.742 1519.3 129.188L1508.61 127.661C1505.55 122.772 1504.02 118.394 1504.02 114.524C1504.02 112.283 1504.33 110.45 1504.94 109.025C1505.55 107.395 1506.67 106.071 1508.3 105.053C1510.13 104.035 1512.58 103.322 1515.63 102.915C1518.89 102.507 1523.07 102.304 1528.16 102.304C1530.81 102.304 1533.25 102.507 1535.49 102.915C1537.73 103.322 1539.67 103.729 1541.3 104.137C1546.18 104.137 1550.16 104.34 1553.21 104.748C1556.27 104.951 1558.51 105.562 1559.93 106.581C1561.56 107.395 1562.58 108.617 1562.99 110.247C1563.6 111.672 1563.9 113.607 1563.9 116.051C1563.9 121.143 1561.66 125.828 1557.18 130.105C1556.37 130.308 1552.7 130.41 1546.18 130.41C1546.39 133.465 1546.59 136.113 1546.8 138.353C1547 140.594 1547.2 143.547 1547.41 147.213C1547.81 150.675 1548.12 155.36 1548.32 161.266C1548.53 166.969 1548.73 174.81 1548.93 184.79C1548.93 189.475 1548.83 193.548 1548.63 197.011C1548.63 200.269 1548.63 203.223 1548.63 205.87C1548.63 211.166 1548.73 214.119 1548.93 214.73L1547.71 234.893C1553.62 235.708 1557.59 237.134 1559.63 239.17C1561.87 241.207 1562.99 244.262 1562.99 248.336C1562.99 251.187 1561.87 253.733 1559.63 255.973ZM1705.59 201.288C1705.38 207.398 1705.18 212.286 1704.98 215.952C1704.77 219.414 1704.47 222.368 1704.06 224.812C1703.86 227.052 1703.35 229.089 1702.53 230.922C1701.92 232.755 1701 234.995 1699.78 237.643C1695.51 247.419 1688.89 254.955 1679.92 260.25C1670.96 265.546 1659.56 268.194 1645.71 268.194C1640.82 268.194 1636.95 268.194 1634.1 268.194C1631.25 268.194 1628.09 267.684 1624.63 266.666C1621.37 265.648 1617.19 263.917 1612.1 261.472C1607.01 258.825 1599.78 255.057 1590.41 250.169C1583.08 246.299 1579.41 241.411 1579.41 235.504C1579.41 231.838 1580.64 228.58 1583.08 225.728C1585.52 222.673 1588.68 220.942 1592.55 220.535C1607.21 225.219 1617.3 230.107 1622.8 235.199C1630.13 238.458 1638.99 240.087 1649.37 240.087C1658.13 240.087 1665.16 237.541 1670.45 232.449C1671.27 230.209 1672.08 227.052 1672.9 222.979C1673.92 218.905 1674.43 214.017 1674.43 208.314C1674.43 203.834 1673.1 200.167 1670.45 197.316C1667.81 194.261 1664.45 191.613 1660.37 189.373C1656.3 187.133 1651.72 185.096 1646.62 183.263C1641.74 181.43 1637.05 179.495 1632.57 177.458C1629.11 176.032 1625.65 174.403 1622.18 172.57C1618.72 170.737 1615.26 168.395 1611.8 165.543C1603.04 150.675 1598.66 140.186 1598.66 134.076C1598.66 118.801 1607.72 104.238 1625.85 90.3888C1642.75 84.075 1654.26 80.918 1660.37 80.918C1662.61 80.918 1665.57 81.7327 1669.23 83.3621C1672.9 84.9915 1676.46 87.0282 1679.92 89.4722C1683.59 91.9163 1686.65 94.6658 1689.09 97.7209C1691.74 100.572 1693.06 103.424 1693.06 106.275C1693.06 109.738 1691.64 112.793 1688.78 115.44C1686.14 117.884 1682.67 119.106 1678.4 119.106C1677.99 119.106 1676.87 118.495 1675.04 117.273C1673.2 116.051 1670.96 114.727 1668.32 113.302C1665.87 111.876 1663.33 110.552 1660.68 109.33C1658.23 108.108 1656.2 107.497 1654.57 107.497C1651.11 107.497 1647.74 108.312 1644.49 109.941C1641.43 111.571 1638.68 113.607 1636.24 116.051C1633.79 118.495 1631.86 121.245 1630.43 124.3C1629.01 127.151 1628.29 129.799 1628.29 132.243C1628.29 136.928 1629.72 141.103 1632.57 144.769C1635.42 148.435 1638.89 151.388 1642.96 153.629L1662.21 160.35C1667.09 162.183 1671.88 164.525 1676.56 167.376C1681.25 170.228 1685.53 173.487 1689.4 177.153C1693.27 180.615 1696.63 184.485 1699.48 188.762C1702.33 192.835 1704.37 197.011 1705.59 201.288ZM1791.04 255.973C1790.43 256.992 1789.31 257.908 1787.68 258.723C1786.05 259.334 1784.32 259.843 1782.48 260.25C1780.85 260.454 1779.22 260.658 1777.59 260.861C1776.17 261.065 1775.35 261.269 1775.15 261.472C1772.5 261.676 1769.45 261.88 1765.98 262.083C1762.52 262.287 1758.45 262.593 1753.76 263C1753.15 262.796 1752.34 262.694 1751.32 262.694C1750.51 262.694 1749.28 262.898 1747.65 263.306C1746.03 263.713 1744.7 263.917 1743.68 263.917C1736.96 263.917 1733.6 260.047 1733.6 252.307C1733.6 246.401 1735.43 242.327 1739.1 240.087L1751.93 235.81C1751.93 230.311 1752.54 222.469 1753.76 212.286C1753.56 211.268 1753.36 210.147 1753.15 208.925C1753.15 207.5 1753.15 205.972 1753.15 204.343C1753.15 197.214 1753.36 191.715 1753.76 187.845C1754.17 183.976 1754.38 181.837 1754.38 181.43C1754.38 179.597 1754.27 177.56 1754.07 175.32C1754.07 172.876 1753.87 169.719 1753.46 165.849C1753.26 161.775 1752.85 156.786 1752.24 150.879C1751.83 144.973 1751.32 137.742 1750.71 129.188L1740.02 127.661C1736.96 122.772 1735.43 118.394 1735.43 114.524C1735.43 112.283 1735.74 110.45 1736.35 109.025C1736.96 107.395 1738.08 106.071 1739.71 105.053C1741.54 104.035 1743.99 103.322 1747.04 102.915C1750.3 102.507 1754.48 102.304 1759.57 102.304C1762.22 102.304 1764.66 102.507 1766.9 102.915C1769.14 103.322 1771.08 103.729 1772.71 104.137C1777.59 104.137 1781.57 104.34 1784.62 104.748C1787.68 104.951 1789.92 105.562 1791.34 106.581C1792.97 107.395 1793.99 108.617 1794.4 110.247C1795.01 111.672 1795.31 113.607 1795.31 116.051C1795.31 121.143 1793.07 125.828 1788.59 130.105C1787.78 130.308 1784.11 130.41 1777.59 130.41C1777.8 133.465 1778 136.113 1778.21 138.353C1778.41 140.594 1778.61 143.547 1778.82 147.213C1779.22 150.675 1779.53 155.36 1779.73 161.266C1779.94 166.969 1780.14 174.81 1780.34 184.79C1780.34 189.475 1780.24 193.548 1780.04 197.011C1780.04 200.269 1780.04 203.223 1780.04 205.87C1780.04 211.166 1780.14 214.119 1780.34 214.73L1779.12 234.893C1785.03 235.708 1789 237.134 1791.04 239.17C1793.28 241.207 1794.4 244.262 1794.4 248.336C1794.4 251.187 1793.28 253.733 1791.04 255.973ZM1962.35 194.567V202.51C1962.35 210.453 1962.05 218.192 1961.44 225.728V230.005C1961.44 232.246 1961.23 234.792 1960.83 237.643C1960.42 240.291 1959.71 242.938 1958.69 245.586C1957.87 248.03 1956.55 250.169 1954.72 252.002C1953.09 253.631 1951.05 254.446 1948.61 254.446C1942.9 254.446 1938.12 252.511 1934.25 248.641C1934.25 245.179 1926.92 234.588 1912.25 216.868C1911.23 214.424 1909.4 211.268 1906.75 207.398C1904.31 203.324 1901.15 198.538 1897.28 193.039C1896.26 192.224 1894.63 190.289 1892.39 187.234C1890.36 184.179 1888.22 181.022 1885.98 177.764C1883.94 174.301 1882.11 171.246 1880.48 168.598C1879.05 165.951 1878.44 164.729 1878.65 164.932C1877.02 163.303 1875.08 161.063 1872.84 158.211C1870.6 155.156 1867.85 151.388 1864.59 146.907C1864.59 157.702 1864.08 163.914 1863.06 165.543C1862.86 167.784 1862.55 170.737 1862.15 174.403C1861.94 177.865 1861.64 181.532 1861.23 185.401C1861.03 189.067 1860.82 192.733 1860.62 196.4C1860.42 199.862 1860.21 202.612 1860.01 204.648V205.87C1860.01 207.5 1859.6 210.046 1858.79 213.508C1858.18 216.767 1857.36 220.127 1856.34 223.59C1855.53 227.052 1854.71 230.209 1853.9 233.06C1853.08 235.912 1852.68 237.541 1852.68 237.948C1849.62 244.67 1844.84 248.03 1838.32 248.03C1831.8 248.03 1827.73 243.855 1826.1 235.504C1827.52 227.358 1829.66 213.915 1832.51 195.178C1832.72 191.511 1833.02 186.725 1833.43 180.819C1834.04 174.912 1834.86 167.682 1835.87 159.128C1836.28 157.091 1836.69 153.73 1837.1 149.046C1837.5 144.362 1837.91 139.473 1838.32 134.382C1838.93 129.086 1839.54 124.096 1840.15 119.412C1840.76 114.727 1841.37 111.367 1841.98 109.33C1846.46 103.627 1852.68 100.776 1860.62 100.776C1861.64 101.183 1862.96 102.304 1864.59 104.137C1866.42 105.97 1868.36 108.21 1870.4 110.858C1872.43 113.302 1874.57 116.051 1876.81 119.106C1879.05 121.958 1881.09 124.911 1882.92 127.966C1885.16 130.614 1888.12 134.382 1891.78 139.27C1895.65 143.954 1899.93 149.453 1904.61 155.767C1909.5 161.877 1914.49 168.598 1919.58 175.931C1924.88 183.263 1929.97 190.9 1934.86 198.844V190.595C1934.86 183.059 1934.55 177.56 1933.94 174.098C1934.35 172.876 1934.55 171.552 1934.55 170.126C1934.55 169.719 1934.35 168.497 1933.94 166.46C1933.74 164.22 1933.43 161.775 1933.03 159.128C1932.82 156.276 1932.52 153.527 1932.11 150.879C1931.9 148.231 1931.8 146.195 1931.8 144.769C1931.8 144.362 1931.8 144.056 1931.8 143.852C1932.01 143.445 1932.11 143.038 1932.11 142.63C1931.5 133.669 1930.89 126.235 1930.28 120.328C1929.66 114.218 1928.95 109.534 1928.14 106.275C1930.38 96.0915 1934.86 90.9998 1941.58 90.9998C1948.3 90.9998 1953.19 94.3603 1956.24 101.081C1956.65 108.21 1957.26 116.357 1958.08 125.522C1958.89 134.687 1960.01 144.871 1961.44 156.073L1962.35 194.567ZM2100.57 241.615C2107.29 245.077 2110.65 250.067 2110.65 256.584C2110.65 260.861 2109.53 263.917 2107.29 265.75C2105.26 267.583 2102.2 268.805 2098.13 269.416C2094.26 270.23 2089.37 270.638 2083.46 270.638C2077.56 270.841 2070.94 271.147 2063.61 271.554C2061.16 270.74 2052.2 269.925 2036.72 269.11C2034.48 269.314 2032.34 269.416 2030.31 269.416C2028.27 269.619 2026.33 269.721 2024.5 269.721C2013.5 269.721 2005.97 268.092 2001.89 264.833C2000.87 256.686 2000.06 249.15 1999.45 242.226C1999.04 235.301 1998.84 228.987 1998.84 223.284C1998.84 214.323 1999.14 206.583 1999.75 200.066C2000.57 193.344 2000.98 187.336 2000.98 182.041C2000.98 175.523 2000.67 170.431 2000.06 166.765L2001.89 134.687C2002.71 126.948 2003.62 120.328 2004.64 114.829C2005.86 109.33 2007.29 105.155 2008.92 102.304C2010.14 100.674 2016.25 98.6374 2027.25 96.1934L2046.8 91.9163C2048.02 91.7126 2050.57 91.4071 2054.44 90.9998C2058.31 90.5924 2062.28 90.1851 2066.36 89.7777C2070.63 89.3704 2074.4 89.0649 2077.66 88.8612C2080.92 88.6575 2082.45 88.5557 2082.24 88.5557H2083.46C2085.7 88.5557 2087.94 90.0832 2090.18 93.1383C2092.63 96.1934 2093.85 99.7576 2093.85 103.831C2093.85 105.868 2093.75 107.701 2093.55 109.33C2093.55 110.96 2092.93 112.385 2091.71 113.607C2090.49 114.626 2088.45 115.44 2085.6 116.051C2082.75 116.662 2078.58 117.07 2073.08 117.273C2064.11 117.681 2058 118.597 2054.75 120.023H2053.22C2047.92 120.023 2041.3 121.245 2033.36 123.689C2032.55 124.707 2031.93 126.54 2031.53 129.188C2031.12 131.632 2030.81 134.28 2030.61 137.131C2030.41 139.779 2030.2 142.121 2030 144.158C2030 145.991 2030 146.602 2030 145.991C2029.8 147.009 2029.59 148.028 2029.39 149.046C2029.39 150.064 2029.39 151.388 2029.39 153.018C2029.39 154.443 2029.39 156.073 2029.39 157.906C2029.59 159.535 2029.8 161.368 2030 163.405C2036.31 162.794 2041.41 162.183 2045.28 161.572C2049.35 160.757 2052.51 160.35 2054.75 160.35C2059.02 160.35 2063.2 160.248 2067.27 160.044C2071.34 159.841 2074.91 160.146 2077.96 160.961C2081.22 161.572 2083.77 162.997 2085.6 165.238C2087.44 167.275 2088.35 170.635 2088.35 175.32C2088.35 180.615 2086.62 184.077 2083.16 185.707C2079.9 187.336 2074.09 188.253 2065.74 188.456C2055.97 188.864 2050.06 189.271 2048.02 189.678C2046.8 189.678 2045.48 189.678 2044.05 189.678C2042.83 189.475 2041.41 189.373 2039.78 189.373C2038.76 189.373 2037.54 189.373 2036.11 189.373C2034.89 189.169 2033.67 189.169 2032.44 189.373C2031.22 189.373 2030.1 189.78 2029.08 190.595C2028.27 191.206 2027.86 192.428 2027.86 194.261C2027.86 195.483 2027.86 197.112 2027.86 199.149C2028.06 200.982 2028.17 202.713 2028.17 204.343C2028.17 206.787 2028.06 209.231 2027.86 211.675C2027.86 214.119 2027.76 216.767 2027.56 219.618C2027.56 222.266 2027.45 225.321 2027.25 228.783C2027.25 232.246 2027.25 236.319 2027.25 241.004C2028.47 241.207 2030.81 241.411 2034.28 241.615C2037.94 241.818 2041.71 242.022 2045.58 242.226C2049.65 242.429 2053.52 242.735 2057.19 243.142C2060.86 243.346 2063.3 243.549 2064.52 243.753C2064.73 243.753 2066.15 243.651 2068.8 243.448C2071.45 243.244 2075.32 242.938 2080.41 242.531C2087.33 241.92 2092.83 241.615 2096.91 241.615H2100.57Z" fill="white"/>
<path d="M500.405 409.422C503.101 410.811 504.449 412.812 504.449 415.427C504.449 417.142 504 418.368 503.101 419.103C502.284 419.838 501.059 420.328 499.425 420.573C497.873 420.9 495.912 421.064 493.543 421.064C491.174 421.145 488.519 421.268 485.578 421.431C484.597 421.104 481.003 420.778 474.794 420.451C473.895 420.533 473.037 420.573 472.22 420.573C471.403 420.655 470.627 420.696 469.892 420.696C465.481 420.696 462.458 420.042 460.824 418.735C460.415 415.467 460.089 412.445 459.844 409.667C459.68 406.889 459.599 404.357 459.599 402.069C459.599 398.475 459.721 395.37 459.966 392.756C460.293 390.06 460.456 387.65 460.456 385.526C460.456 382.912 460.334 380.869 460.089 379.399L460.824 366.532C461.151 363.427 461.518 360.772 461.927 358.567C462.417 356.361 462.989 354.686 463.642 353.542C464.133 352.889 466.583 352.072 470.995 351.091L478.838 349.376C479.328 349.294 480.349 349.172 481.901 349.008C483.454 348.845 485.047 348.681 486.681 348.518C488.396 348.355 489.907 348.232 491.215 348.15C492.522 348.069 493.134 348.028 493.053 348.028H493.543C494.442 348.028 495.34 348.641 496.239 349.866C497.219 351.091 497.709 352.521 497.709 354.155C497.709 354.972 497.669 355.707 497.587 356.361C497.587 357.014 497.342 357.586 496.852 358.076C496.361 358.485 495.544 358.812 494.401 359.057C493.257 359.302 491.582 359.465 489.376 359.547C485.782 359.71 483.331 360.078 482.024 360.65H481.411C479.287 360.65 476.632 361.14 473.446 362.12C473.119 362.529 472.874 363.264 472.711 364.326C472.547 365.306 472.425 366.369 472.343 367.512C472.261 368.574 472.18 369.514 472.098 370.331C472.098 371.066 472.098 371.311 472.098 371.066C472.016 371.474 471.935 371.883 471.853 372.291C471.853 372.7 471.853 373.231 471.853 373.885C471.853 374.456 471.853 375.11 471.853 375.845C471.935 376.499 472.016 377.234 472.098 378.051C474.63 377.806 476.673 377.561 478.225 377.316C479.859 376.989 481.125 376.826 482.024 376.826C483.739 376.826 485.414 376.785 487.048 376.703C488.682 376.621 490.112 376.744 491.337 377.071C492.644 377.316 493.665 377.888 494.401 378.786C495.136 379.603 495.504 380.951 495.504 382.83C495.504 384.954 494.809 386.343 493.42 386.997C492.113 387.65 489.785 388.018 486.435 388.099C482.514 388.263 480.145 388.426 479.328 388.59C478.838 388.59 478.307 388.59 477.735 388.59C477.245 388.508 476.673 388.467 476.019 388.467C475.611 388.467 475.121 388.467 474.549 388.467C474.059 388.385 473.568 388.385 473.078 388.467C472.588 388.467 472.139 388.631 471.73 388.957C471.403 389.202 471.24 389.693 471.24 390.428C471.24 390.918 471.24 391.572 471.24 392.389C471.322 393.124 471.363 393.818 471.363 394.472C471.363 395.452 471.322 396.432 471.24 397.413C471.24 398.393 471.199 399.455 471.118 400.599C471.118 401.661 471.077 402.886 470.995 404.275C470.995 405.664 470.995 407.298 470.995 409.177C471.485 409.259 472.425 409.34 473.814 409.422C475.284 409.504 476.795 409.585 478.348 409.667C479.982 409.749 481.534 409.871 483.004 410.035C484.475 410.116 485.455 410.198 485.945 410.28C486.027 410.28 486.599 410.239 487.661 410.157C488.723 410.076 490.275 409.953 492.318 409.79C495.095 409.545 497.301 409.422 498.935 409.422H500.405ZM571.255 390.55V393.736C571.255 396.923 571.133 400.027 570.888 403.05V404.765C570.888 405.664 570.806 406.685 570.643 407.829C570.479 408.891 570.193 409.953 569.785 411.015C569.458 411.995 568.927 412.853 568.192 413.588C567.538 414.242 566.721 414.569 565.741 414.569C563.453 414.569 561.534 413.793 559.981 412.24C559.981 410.852 557.04 406.603 551.158 399.496C550.75 398.516 550.015 397.249 548.953 395.697C547.972 394.063 546.706 392.143 545.154 389.938C544.745 389.611 544.092 388.835 543.193 387.609C542.376 386.384 541.518 385.118 540.62 383.81C539.803 382.422 539.067 381.196 538.414 380.134C537.842 379.072 537.597 378.582 537.679 378.664C537.025 378.01 536.249 377.111 535.35 375.968C534.452 374.742 533.349 373.231 532.042 371.434C532.042 375.763 531.837 378.255 531.429 378.909C531.347 379.807 531.225 380.992 531.061 382.463C530.98 383.851 530.857 385.322 530.694 386.874C530.612 388.345 530.53 389.815 530.449 391.286C530.367 392.674 530.285 393.777 530.203 394.594V395.084C530.203 395.738 530.04 396.759 529.713 398.148C529.468 399.455 529.141 400.803 528.733 402.192C528.406 403.581 528.079 404.847 527.753 405.991C527.426 407.135 527.262 407.788 527.262 407.951C526.037 410.647 524.117 411.995 521.503 411.995C518.889 411.995 517.255 410.321 516.601 406.971C517.173 403.703 518.031 398.311 519.175 390.795C519.256 389.325 519.379 387.405 519.542 385.036C519.787 382.667 520.114 379.767 520.523 376.335C520.686 375.518 520.849 374.17 521.013 372.291C521.176 370.412 521.339 368.452 521.503 366.409C521.748 364.285 521.993 362.284 522.238 360.405C522.483 358.526 522.728 357.178 522.973 356.361C524.771 354.073 527.262 352.93 530.449 352.93C530.857 353.093 531.388 353.542 532.042 354.278C532.777 355.013 533.553 355.912 534.37 356.974C535.187 357.954 536.045 359.057 536.943 360.282C537.842 361.426 538.659 362.611 539.394 363.836C540.293 364.898 541.477 366.409 542.948 368.37C544.5 370.249 546.216 372.455 548.095 374.987C550.055 377.438 552.057 380.134 554.099 383.075C556.223 386.016 558.266 389.08 560.226 392.266V388.957C560.226 385.935 560.104 383.729 559.859 382.34C560.022 381.85 560.104 381.319 560.104 380.747C560.104 380.584 560.022 380.093 559.859 379.276C559.777 378.378 559.655 377.397 559.491 376.335C559.41 375.192 559.287 374.089 559.124 373.027C559.042 371.965 559.001 371.148 559.001 370.576C559.001 370.412 559.001 370.29 559.001 370.208C559.083 370.045 559.124 369.881 559.124 369.718C558.878 366.123 558.633 363.142 558.388 360.772C558.143 358.322 557.857 356.443 557.531 355.135C558.429 351.051 560.226 349.008 562.922 349.008C565.618 349.008 567.579 350.356 568.804 353.052C568.968 355.912 569.213 359.179 569.54 362.856C569.867 366.532 570.316 370.617 570.888 375.11L571.255 390.55ZM679.013 402.927C681.382 403.417 682.567 405.256 682.567 408.442C682.567 410.157 682.158 411.505 681.341 412.486C680.524 413.466 679.462 413.956 678.155 413.956C677.746 413.956 676.97 413.915 675.827 413.834C674.683 413.67 673.457 413.548 672.15 413.466C670.843 413.303 669.577 413.18 668.352 413.098C667.126 412.935 666.268 412.853 665.778 412.853C665.288 412.853 664.839 412.853 664.43 412.853C664.022 412.853 663.613 412.894 663.205 412.976C661.816 412.894 660.182 412.731 658.303 412.486C656.506 412.159 654.708 411.832 652.911 411.505C651.196 411.097 649.643 410.688 648.254 410.28C646.947 409.871 646.171 409.504 645.926 409.177C645.109 406.726 644.701 403.458 644.701 399.373C644.701 398.72 644.701 398.066 644.701 397.413C644.701 396.678 644.742 395.942 644.823 395.207L645.559 386.506C645.64 385.853 645.681 385.24 645.681 384.668C645.681 384.015 645.681 383.443 645.681 382.953C645.681 382.299 645.681 381.768 645.681 381.36C645.681 380.869 645.599 380.42 645.436 380.012C646.008 376.907 646.416 374.334 646.661 372.291C646.906 370.167 647.029 368.533 647.029 367.39V366.409C647.029 365.266 647.519 361.63 648.5 355.503C649.725 352.889 651.604 351.582 654.137 351.582C655.689 351.582 656.996 352.194 658.058 353.42C659.12 354.564 659.651 356.157 659.651 358.199C659.324 359.343 658.997 360.772 658.671 362.488C658.426 364.204 658.18 366.246 657.935 368.615V369.595C657.935 370.331 657.854 371.474 657.69 373.027C657.609 374.497 657.486 376.049 657.323 377.683C657.159 379.236 656.996 380.665 656.832 381.972C656.751 383.198 656.71 383.892 656.71 384.056C656.71 384.954 656.751 385.526 656.832 385.771C656.506 389.202 656.261 392.062 656.097 394.349C655.934 396.637 655.852 398.393 655.852 399.619C655.852 400.435 655.893 400.967 655.975 401.212C660.223 401.702 663.041 401.947 664.43 401.947C665.084 401.947 665.737 401.947 666.391 401.947C667.126 401.865 667.861 401.824 668.597 401.824C671.701 401.824 675.173 402.192 679.013 402.927ZM721.813 415.182C721.568 415.59 721.118 415.958 720.465 416.284C719.811 416.529 719.117 416.734 718.382 416.897C717.728 416.979 717.075 417.061 716.421 417.142C715.849 417.224 715.522 417.306 715.441 417.387C714.379 417.469 713.153 417.551 711.764 417.632C710.376 417.714 708.742 417.837 706.863 418C706.618 417.918 706.291 417.877 705.882 417.877C705.556 417.877 705.065 417.959 704.412 418.123C703.758 418.286 703.227 418.368 702.819 418.368C700.123 418.368 698.775 416.815 698.775 413.711C698.775 411.342 699.51 409.708 700.981 408.809L706.127 407.094C706.127 404.888 706.372 401.743 706.863 397.658C706.781 397.249 706.699 396.8 706.618 396.31C706.618 395.738 706.618 395.125 706.618 394.472C706.618 391.612 706.699 389.407 706.863 387.854C707.026 386.302 707.108 385.444 707.108 385.281C707.108 384.546 707.067 383.729 706.985 382.83C706.985 381.85 706.903 380.584 706.74 379.031C706.658 377.397 706.495 375.396 706.25 373.027C706.087 370.658 705.882 367.757 705.637 364.326L701.348 363.713C700.123 361.753 699.51 359.996 699.51 358.444C699.51 357.545 699.633 356.81 699.878 356.238C700.123 355.585 700.572 355.054 701.226 354.645C701.961 354.237 702.941 353.951 704.167 353.787C705.474 353.624 707.149 353.542 709.191 353.542C710.253 353.542 711.233 353.624 712.132 353.787C713.031 353.951 713.807 354.114 714.46 354.278C716.421 354.278 718.014 354.359 719.239 354.523C720.465 354.604 721.364 354.849 721.935 355.258C722.589 355.585 722.997 356.075 723.161 356.728C723.406 357.3 723.528 358.076 723.528 359.057C723.528 361.099 722.63 362.978 720.833 364.694C720.506 364.775 719.035 364.816 716.421 364.816C716.503 366.042 716.584 367.104 716.666 368.002C716.748 368.901 716.829 370.086 716.911 371.556C717.075 372.945 717.197 374.824 717.279 377.193C717.36 379.481 717.442 382.626 717.524 386.629C717.524 388.508 717.483 390.142 717.401 391.531C717.401 392.838 717.401 394.022 717.401 395.084C717.401 397.209 717.442 398.393 717.524 398.638L717.034 406.726C719.403 407.053 720.996 407.625 721.813 408.442C722.712 409.259 723.161 410.484 723.161 412.118C723.161 413.262 722.712 414.283 721.813 415.182ZM799.231 415.182C798.986 415.672 798.864 416.448 798.864 417.51C798.864 418.163 798.905 418.98 798.986 419.961C799.068 420.941 799.109 421.758 799.109 422.412C799.109 423.964 798.619 425.067 797.638 425.72C796.658 426.374 795.473 426.701 794.085 426.701C792.042 426.701 790.163 425.965 788.448 424.495C788.448 424.25 788.448 423.964 788.448 423.637C788.529 423.31 788.57 422.943 788.57 422.534C788.57 421.145 788.488 419.756 788.325 418.368C788.162 416.979 788.08 416.325 788.08 416.407L788.325 411.75C783.75 415.263 779.788 417.142 776.438 417.387C774.723 417.551 773.211 417.673 771.904 417.755C770.679 417.837 769.617 417.918 768.718 418C767.738 418.082 766.88 418.163 766.145 418.245H766.267C763.571 418.245 760.835 417.673 758.057 416.529C755.361 415.304 752.91 413.67 750.704 411.628C748.499 409.504 746.701 407.053 745.312 404.275C743.924 401.416 743.229 398.393 743.229 395.207C743.229 393.655 743.393 391.653 743.719 389.202C744.128 386.67 744.618 384.096 745.19 381.482C745.843 378.868 746.497 376.376 747.151 374.007C747.886 371.638 748.621 369.8 749.356 368.493C750.582 366.205 752.747 363.632 755.851 360.772C757.893 359.629 760.181 358.403 762.714 357.096C765.328 355.707 768.269 354.278 771.537 352.807L784.526 350.601C789.673 351.173 793.513 352.113 796.045 353.42C798.578 354.727 799.844 356.851 799.844 359.792C799.844 362.815 798.251 364.326 795.065 364.326C793.839 364.326 792.491 364.081 791.021 363.591C789.55 363.019 787.957 362.692 786.242 362.611C785.18 362.529 784.159 362.488 783.178 362.488C782.198 362.488 781.177 362.488 780.115 362.488C775.131 363.468 771.292 364.816 768.596 366.532C766.798 366.859 765.042 367.839 763.326 369.473C761.611 371.025 760.099 373.027 758.792 375.478C757.485 377.928 756.423 380.706 755.606 383.81C754.789 386.915 754.381 390.101 754.381 393.369C754.381 396.8 755.034 399.619 756.341 401.824C757.648 404.03 760.304 405.746 764.307 406.971C764.878 407.216 765.736 407.339 766.88 407.339C769.821 407.339 772.068 407.175 773.62 406.849C775.254 406.522 776.683 405.991 777.909 405.256C779.216 404.52 780.523 403.581 781.83 402.437C783.219 401.293 785.139 399.904 787.59 398.271V396.432C787.345 395.452 786.364 394.717 784.649 394.227C782.933 393.655 781.095 393.287 779.134 393.124C776.847 392.879 774.233 392.756 771.292 392.756C769.331 390.959 768.35 389.08 768.35 387.119C768.35 384.505 769.698 382.83 772.394 382.095H772.272C772.272 381.931 772.966 382.013 774.355 382.34C775.826 382.667 777.868 382.83 780.482 382.83C781.218 382.83 781.83 382.748 782.32 382.585C783.382 382.667 784.608 382.871 785.997 383.198C787.467 383.525 788.938 383.933 790.408 384.423C791.879 384.913 793.186 385.444 794.33 386.016C795.555 386.506 796.454 386.956 797.026 387.364C798.496 388.508 799.231 391.286 799.231 395.697C799.231 397.658 798.986 399.414 798.496 400.967C798.659 401.62 798.782 402.723 798.864 404.275C798.945 405.746 799.027 407.298 799.109 408.932C799.19 410.566 799.231 412.036 799.231 413.343C799.231 414.569 799.231 415.182 799.231 415.182ZM875.339 390.55V393.736C875.339 396.923 875.217 400.027 874.972 403.05V404.765C874.972 405.664 874.89 406.685 874.726 407.829C874.563 408.891 874.277 409.953 873.869 411.015C873.542 411.995 873.011 412.853 872.276 413.588C871.622 414.242 870.805 414.569 869.825 414.569C867.537 414.569 865.617 413.793 864.065 412.24C864.065 410.852 861.124 406.603 855.242 399.496C854.834 398.516 854.098 397.249 853.036 395.697C852.056 394.063 850.79 392.143 849.238 389.938C848.829 389.611 848.175 388.835 847.277 387.609C846.46 386.384 845.602 385.118 844.703 383.81C843.886 382.422 843.151 381.196 842.498 380.134C841.926 379.072 841.681 378.582 841.762 378.664C841.109 378.01 840.333 377.111 839.434 375.968C838.535 374.742 837.433 373.231 836.125 371.434C836.125 375.763 835.921 378.255 835.513 378.909C835.431 379.807 835.308 380.992 835.145 382.463C835.063 383.851 834.941 385.322 834.777 386.874C834.696 388.345 834.614 389.815 834.532 391.286C834.451 392.674 834.369 393.777 834.287 394.594V395.084C834.287 395.738 834.124 396.759 833.797 398.148C833.552 399.455 833.225 400.803 832.817 402.192C832.49 403.581 832.163 404.847 831.836 405.991C831.51 407.135 831.346 407.788 831.346 407.951C830.121 410.647 828.201 411.995 825.587 411.995C822.972 411.995 821.339 410.321 820.685 406.971C821.257 403.703 822.115 398.311 823.258 390.795C823.34 389.325 823.463 387.405 823.626 385.036C823.871 382.667 824.198 379.767 824.606 376.335C824.77 375.518 824.933 374.17 825.097 372.291C825.26 370.412 825.423 368.452 825.587 366.409C825.832 364.285 826.077 362.284 826.322 360.405C826.567 358.526 826.812 357.178 827.057 356.361C828.855 354.073 831.346 352.93 834.532 352.93C834.941 353.093 835.472 353.542 836.125 354.278C836.861 355.013 837.637 355.912 838.454 356.974C839.271 357.954 840.129 359.057 841.027 360.282C841.926 361.426 842.743 362.611 843.478 363.836C844.377 364.898 845.561 366.409 847.032 368.37C848.584 370.249 850.3 372.455 852.179 374.987C854.139 377.438 856.141 380.134 858.183 383.075C860.307 386.016 862.35 389.08 864.31 392.266V388.957C864.31 385.935 864.188 383.729 863.943 382.34C864.106 381.85 864.188 381.319 864.188 380.747C864.188 380.584 864.106 380.093 863.943 379.276C863.861 378.378 863.738 377.397 863.575 376.335C863.493 375.192 863.371 374.089 863.207 373.027C863.126 371.965 863.085 371.148 863.085 370.576C863.085 370.412 863.085 370.29 863.085 370.208C863.167 370.045 863.207 369.881 863.207 369.718C862.962 366.123 862.717 363.142 862.472 360.772C862.227 358.322 861.941 356.443 861.614 355.135C862.513 351.051 864.31 349.008 867.006 349.008C869.702 349.008 871.663 350.356 872.888 353.052C873.052 355.912 873.297 359.179 873.624 362.856C873.95 366.532 874.4 370.617 874.972 375.11L875.339 390.55ZM939.358 409.422C942.054 410.811 943.402 412.812 943.402 415.427C943.402 417.142 942.953 418.368 942.054 419.103C941.237 419.838 940.012 420.328 938.378 420.573C936.826 420.9 934.865 421.064 932.496 421.064C930.127 421.145 927.472 421.268 924.531 421.431C923.55 421.104 919.956 420.778 913.747 420.451C912.848 420.533 911.99 420.573 911.173 420.573C910.356 420.655 909.58 420.696 908.845 420.696C904.434 420.696 901.411 420.042 899.777 418.735C899.368 415.467 899.042 412.445 898.797 409.667C898.633 406.889 898.552 404.357 898.552 402.069C898.552 398.475 898.674 395.37 898.919 392.756C899.246 390.06 899.409 387.65 899.409 385.526C899.409 382.912 899.287 380.869 899.042 379.399L899.777 366.532C900.104 363.427 900.471 360.772 900.88 358.567C901.37 356.361 901.942 354.686 902.595 353.542C903.086 352.889 905.536 352.072 909.948 351.091L917.791 349.376C918.281 349.294 919.302 349.172 920.854 349.008C922.407 348.845 924 348.681 925.634 348.518C927.349 348.355 928.86 348.232 930.168 348.15C931.475 348.069 932.087 348.028 932.006 348.028H932.496C933.395 348.028 934.293 348.641 935.192 349.866C936.172 351.091 936.662 352.521 936.662 354.155C936.662 354.972 936.622 355.707 936.54 356.361C936.54 357.014 936.295 357.586 935.805 358.076C935.314 358.485 934.497 358.812 933.354 359.057C932.21 359.302 930.535 359.465 928.329 359.547C924.735 359.71 922.284 360.078 920.977 360.65H920.364C918.24 360.65 915.585 361.14 912.399 362.12C912.072 362.529 911.827 363.264 911.664 364.326C911.5 365.306 911.378 366.369 911.296 367.512C911.214 368.574 911.133 369.514 911.051 370.331C911.051 371.066 911.051 371.311 911.051 371.066C910.969 371.474 910.888 371.883 910.806 372.291C910.806 372.7 910.806 373.231 910.806 373.885C910.806 374.456 910.806 375.11 910.806 375.845C910.888 376.499 910.969 377.234 911.051 378.051C913.583 377.806 915.626 377.561 917.178 377.316C918.812 376.989 920.078 376.826 920.977 376.826C922.692 376.826 924.367 376.785 926.001 376.703C927.635 376.621 929.065 376.744 930.29 377.071C931.597 377.316 932.618 377.888 933.354 378.786C934.089 379.603 934.457 380.951 934.457 382.83C934.457 384.954 933.762 386.343 932.373 386.997C931.066 387.65 928.738 388.018 925.388 388.099C921.467 388.263 919.098 388.426 918.281 388.59C917.791 388.59 917.26 388.59 916.688 388.59C916.198 388.508 915.626 388.467 914.972 388.467C914.564 388.467 914.074 388.467 913.502 388.467C913.012 388.385 912.521 388.385 912.031 388.467C911.541 388.467 911.092 388.631 910.683 388.957C910.356 389.202 910.193 389.693 910.193 390.428C910.193 390.918 910.193 391.572 910.193 392.389C910.275 393.124 910.316 393.818 910.316 394.472C910.316 395.452 910.275 396.432 910.193 397.413C910.193 398.393 910.152 399.455 910.071 400.599C910.071 401.661 910.03 402.886 909.948 404.275C909.948 405.664 909.948 407.298 909.948 409.177C910.438 409.259 911.378 409.34 912.767 409.422C914.237 409.504 915.748 409.585 917.301 409.667C918.935 409.749 920.487 409.871 921.957 410.035C923.428 410.116 924.408 410.198 924.898 410.28C924.98 410.28 925.552 410.239 926.614 410.157C927.676 410.076 929.228 409.953 931.271 409.79C934.048 409.545 936.254 409.422 937.888 409.422H939.358ZM1051.25 409.422C1053.95 410.811 1055.29 412.812 1055.29 415.427C1055.29 417.142 1054.85 418.368 1053.95 419.103C1053.13 419.838 1051.9 420.328 1050.27 420.573C1048.72 420.9 1046.76 421.064 1044.39 421.064C1042.02 421.145 1039.36 421.268 1036.42 421.431C1035.44 421.104 1031.85 420.778 1025.64 420.451C1024.74 420.533 1023.88 420.573 1023.07 420.573C1022.25 420.655 1021.47 420.696 1020.74 420.696C1016.33 420.696 1013.3 420.042 1011.67 418.735C1011.26 415.467 1010.93 412.445 1010.69 409.667C1010.53 406.889 1010.44 404.357 1010.44 402.069C1010.44 398.475 1010.57 395.37 1010.81 392.756C1011.14 390.06 1011.3 387.65 1011.3 385.526C1011.3 382.912 1011.18 380.869 1010.93 379.399L1011.67 366.532C1012 363.427 1012.36 360.772 1012.77 358.567C1013.26 356.361 1013.83 354.686 1014.49 353.542C1014.98 352.889 1017.43 352.072 1021.84 351.091L1029.68 349.376C1030.17 349.294 1031.19 349.172 1032.75 349.008C1034.3 348.845 1035.89 348.681 1037.53 348.518C1039.24 348.355 1040.75 348.232 1042.06 348.15C1043.37 348.069 1043.98 348.028 1043.9 348.028H1044.39C1045.29 348.028 1046.19 348.641 1047.08 349.866C1048.06 351.091 1048.55 352.521 1048.55 354.155C1048.55 354.972 1048.51 355.707 1048.43 356.361C1048.43 357.014 1048.19 357.586 1047.7 358.076C1047.21 358.485 1046.39 358.812 1045.25 359.057C1044.1 359.302 1042.43 359.465 1040.22 359.547C1036.63 359.71 1034.18 360.078 1032.87 360.65H1032.26C1030.13 360.65 1027.48 361.14 1024.29 362.12C1023.96 362.529 1023.72 363.264 1023.56 364.326C1023.39 365.306 1023.27 366.369 1023.19 367.512C1023.11 368.574 1023.02 369.514 1022.94 370.331C1022.94 371.066 1022.94 371.311 1022.94 371.066C1022.86 371.474 1022.78 371.883 1022.7 372.291C1022.7 372.7 1022.7 373.231 1022.7 373.885C1022.7 374.456 1022.7 375.11 1022.7 375.845C1022.78 376.499 1022.86 377.234 1022.94 378.051C1025.48 377.806 1027.52 377.561 1029.07 377.316C1030.7 376.989 1031.97 376.826 1032.87 376.826C1034.58 376.826 1036.26 376.785 1037.89 376.703C1039.53 376.621 1040.96 376.744 1042.18 377.071C1043.49 377.316 1044.51 377.888 1045.25 378.786C1045.98 379.603 1046.35 380.951 1046.35 382.83C1046.35 384.954 1045.65 386.343 1044.27 386.997C1042.96 387.65 1040.63 388.018 1037.28 388.099C1033.36 388.263 1030.99 388.426 1030.17 388.59C1029.68 388.59 1029.15 388.59 1028.58 388.59C1028.09 388.508 1027.52 388.467 1026.86 388.467C1026.46 388.467 1025.97 388.467 1025.39 388.467C1024.9 388.385 1024.41 388.385 1023.92 388.467C1023.43 388.467 1022.98 388.631 1022.58 388.957C1022.25 389.202 1022.09 389.693 1022.09 390.428C1022.09 390.918 1022.09 391.572 1022.09 392.389C1022.17 393.124 1022.21 393.818 1022.21 394.472C1022.21 395.452 1022.17 396.432 1022.09 397.413C1022.09 398.393 1022.04 399.455 1021.96 400.599C1021.96 401.661 1021.92 402.886 1021.84 404.275C1021.84 405.664 1021.84 407.298 1021.84 409.177C1022.33 409.259 1023.27 409.34 1024.66 409.422C1026.13 409.504 1027.64 409.585 1029.19 409.667C1030.83 409.749 1032.38 409.871 1033.85 410.035C1035.32 410.116 1036.3 410.198 1036.79 410.28C1036.87 410.28 1037.44 410.239 1038.51 410.157C1039.57 410.076 1041.12 409.953 1043.16 409.79C1045.94 409.545 1048.15 409.422 1049.78 409.422H1051.25ZM1113.65 367.022C1112.5 367.512 1111.24 367.757 1109.85 367.757C1109.44 367.757 1108.83 367.717 1108.01 367.635C1107.27 367.553 1106.46 367.471 1105.56 367.39C1104.66 367.226 1103.76 367.104 1102.86 367.022C1102.04 366.859 1101.43 366.777 1101.02 366.777C1098.41 366.777 1095.88 367.145 1093.43 367.88C1093.92 370.984 1094.32 374.007 1094.65 376.948C1094.98 379.889 1095.26 382.667 1095.51 385.281C1095.75 387.814 1095.92 390.142 1096 392.266C1096.08 394.308 1096.12 396.065 1096.12 397.535C1096.12 401.212 1096.08 404.398 1096 407.094C1096 409.708 1095.79 411.914 1095.39 413.711C1094.98 415.427 1094.32 416.693 1093.43 417.51C1092.53 418.327 1091.22 418.735 1089.5 418.735C1087.87 418.735 1086.64 418.327 1085.83 417.51C1085.09 416.611 1084.56 415.59 1084.23 414.446C1083.99 413.221 1083.87 411.955 1083.87 410.647C1083.95 409.34 1083.99 408.237 1083.99 407.339C1083.99 405.787 1084.11 404.398 1084.36 403.172C1084.6 401.865 1084.72 400.64 1084.72 399.496C1084.72 398.924 1084.56 396.882 1084.23 393.369C1083.91 389.774 1083.74 385.281 1083.74 379.889C1083.74 378.092 1083.54 376.335 1083.13 374.62C1082.81 372.822 1082.44 371.107 1082.03 369.473L1074.8 369.963C1071.86 370.208 1069.82 370.658 1068.67 371.311C1066.96 371.311 1065.49 370.821 1064.26 369.841C1063.03 368.86 1062.42 367.594 1062.42 366.042C1062.42 364.49 1063.12 362.774 1064.51 360.895C1064.91 360.813 1066.75 360.527 1070.02 360.037C1073.29 359.465 1077.99 358.607 1084.11 357.464L1090.24 356.728C1092.2 356.483 1094.08 356.361 1095.88 356.361H1097.71L1112.17 357.341C1113.89 358.322 1114.75 360.16 1114.75 362.856C1114.75 364.326 1114.38 365.715 1113.65 367.022ZM1223.1 393.246C1223.02 395.697 1222.94 397.658 1222.86 399.128C1222.78 400.517 1222.65 401.702 1222.49 402.682C1222.41 403.581 1222.21 404.398 1221.88 405.133C1221.63 405.868 1221.27 406.767 1220.78 407.829C1219.06 411.75 1216.4 414.773 1212.81 416.897C1209.22 419.021 1204.64 420.083 1199.09 420.083C1197.12 420.083 1195.57 420.083 1194.43 420.083C1193.29 420.083 1192.02 419.879 1190.63 419.471C1189.32 419.062 1187.65 418.368 1185.61 417.387C1183.56 416.325 1180.66 414.814 1176.91 412.853C1173.96 411.301 1172.49 409.34 1172.49 406.971C1172.49 405.501 1172.98 404.193 1173.96 403.05C1174.94 401.824 1176.21 401.13 1177.76 400.967C1183.65 402.846 1187.69 404.806 1189.89 406.849C1192.84 408.156 1196.39 408.809 1200.56 408.809C1204.07 408.809 1206.89 407.788 1209.01 405.746C1209.34 404.847 1209.66 403.581 1209.99 401.947C1210.4 400.313 1210.6 398.352 1210.6 396.065C1210.6 394.267 1210.07 392.797 1209.01 391.653C1207.95 390.428 1206.6 389.366 1204.97 388.467C1203.33 387.568 1201.5 386.752 1199.45 386.016C1197.49 385.281 1195.61 384.505 1193.82 383.688C1192.43 383.116 1191.04 382.463 1189.65 381.727C1188.26 380.992 1186.87 380.053 1185.48 378.909C1181.97 372.945 1180.21 368.738 1180.21 366.287C1180.21 360.16 1183.85 354.318 1191.12 348.763C1197.9 346.231 1202.52 344.964 1204.97 344.964C1205.87 344.964 1207.05 345.291 1208.52 345.945C1209.99 346.598 1211.42 347.415 1212.81 348.396C1214.28 349.376 1215.51 350.479 1216.49 351.704C1217.55 352.848 1218.08 353.992 1218.08 355.135C1218.08 356.524 1217.51 357.75 1216.36 358.812C1215.3 359.792 1213.91 360.282 1212.2 360.282C1212.03 360.282 1211.58 360.037 1210.85 359.547C1210.11 359.057 1209.22 358.526 1208.15 357.954C1207.17 357.382 1206.15 356.851 1205.09 356.361C1204.11 355.871 1203.29 355.626 1202.64 355.626C1201.25 355.626 1199.9 355.952 1198.6 356.606C1197.37 357.259 1196.27 358.076 1195.29 359.057C1194.31 360.037 1193.53 361.14 1192.96 362.365C1192.39 363.509 1192.1 364.571 1192.1 365.552C1192.1 367.431 1192.67 369.105 1193.82 370.576C1194.96 372.046 1196.35 373.231 1197.98 374.13L1205.7 376.826C1207.66 377.561 1209.58 378.5 1211.46 379.644C1213.34 380.788 1215.06 382.095 1216.61 383.565C1218.16 384.954 1219.51 386.506 1220.65 388.222C1221.8 389.856 1222.61 391.531 1223.1 393.246ZM1295 393.982C1293.94 398.23 1290.91 403.131 1285.93 408.687C1285.28 408.932 1284.42 409.422 1283.36 410.157C1282.38 410.893 1281.07 411.669 1279.44 412.486C1277.88 413.221 1275.96 413.874 1273.68 414.446C1271.39 415.018 1268.69 415.304 1265.59 415.304C1259.38 415.304 1254.19 413.67 1250.03 410.402C1245.86 407.053 1242.63 401.824 1240.35 394.717C1240.26 394.145 1240.22 393.573 1240.22 393.001C1240.22 392.429 1240.22 391.817 1240.22 391.163C1240.22 386.098 1240.75 381.646 1241.82 377.806C1242.88 373.885 1244.31 370.494 1246.1 367.635C1247.9 364.775 1249.94 362.365 1252.23 360.405C1254.6 358.444 1257.05 356.851 1259.58 355.626C1263.75 354.482 1267.84 353.91 1271.84 353.91C1274.7 353.91 1277.52 354.645 1280.29 356.116C1283.07 357.586 1285.52 359.67 1287.65 362.365C1289.85 365.061 1291.61 368.37 1292.92 372.291C1294.3 376.131 1295.08 380.502 1295.24 385.404L1295 393.982ZM1283.73 393.614C1284.3 390.264 1284.58 387.65 1284.58 385.771C1284.58 382.667 1284.13 379.807 1283.24 377.193C1282.34 374.579 1281.27 372.332 1280.05 370.453C1278.82 368.493 1277.52 366.981 1276.13 365.919C1274.82 364.775 1273.72 364.204 1272.82 364.204C1268.49 364.204 1264.94 365.184 1262.16 367.145C1259.46 369.024 1257.34 371.311 1255.79 374.007C1254.23 376.703 1253.17 379.521 1252.6 382.463C1252.03 385.404 1251.74 387.895 1251.74 389.938C1251.74 391.817 1252.03 393.655 1252.6 395.452C1253.25 397.168 1254.15 398.72 1255.3 400.109C1256.52 401.416 1257.95 402.478 1259.58 403.295C1261.22 404.112 1263.1 404.52 1265.22 404.52C1270.2 404.52 1274.13 403.622 1276.99 401.824C1279.84 399.945 1282.09 397.209 1283.73 393.614ZM1361.83 377.561C1361.18 383.279 1360.61 388.263 1360.12 392.511C1359.63 396.759 1358.69 400.19 1357.3 402.805C1355.83 405.501 1354.23 407.706 1352.52 409.422C1350.8 411.138 1349.05 412.486 1347.25 413.466C1345.45 414.446 1343.66 415.141 1341.86 415.549C1340.14 415.876 1338.51 416.039 1336.96 416.039C1334.51 416.039 1332.34 415.794 1330.46 415.304C1328.58 414.732 1326.83 413.834 1325.19 412.608C1323.64 411.301 1322.17 409.585 1320.78 407.461C1319.39 405.256 1317.96 402.478 1316.49 399.128C1315.02 393.246 1314.12 388.14 1313.8 383.81C1313.47 379.481 1313.31 375.273 1313.31 371.189C1313.31 369.8 1313.26 368.248 1313.18 366.532C1313.18 364.735 1313.31 363.06 1313.55 361.508C1313.88 359.874 1314.45 358.526 1315.27 357.464C1316.16 356.32 1317.47 355.748 1319.19 355.748C1322.37 355.748 1324.46 357.464 1325.44 360.895C1325.19 362.365 1325.07 364.898 1325.07 368.493C1325.07 369.636 1325.07 370.821 1325.07 372.046C1325.07 373.272 1325.11 374.62 1325.19 376.09C1325.27 379.767 1325.31 382.381 1325.31 383.933C1325.31 385.404 1325.36 386.506 1325.44 387.242C1325.52 387.895 1325.64 388.549 1325.8 389.202C1325.97 389.774 1326.25 391 1326.66 392.879C1327.48 395.33 1328.17 397.249 1328.75 398.638C1329.32 399.945 1329.93 401.007 1330.58 401.824C1331.24 402.56 1332.05 403.131 1333.03 403.54C1334.1 403.867 1335.44 404.234 1337.08 404.643C1339.45 404.071 1341.41 403.213 1342.96 402.069C1344.59 400.926 1345.86 399.496 1346.76 397.78C1347.74 395.983 1348.43 393.9 1348.84 391.531C1349.25 389.162 1349.54 386.506 1349.7 383.565C1349.7 381.441 1349.74 379.399 1349.82 377.438C1349.99 375.478 1350.15 373.68 1350.31 372.046C1350.23 370.412 1350.19 368.983 1350.19 367.757C1350.19 366.45 1350.19 365.347 1350.19 364.449C1350.19 363.468 1350.15 362.611 1350.07 361.875V363.223C1350.07 360.201 1350.39 357.505 1351.05 355.135C1352.76 354.155 1354.44 353.665 1356.07 353.665C1357.54 353.665 1358.69 353.992 1359.5 354.645C1360.32 355.217 1360.93 355.993 1361.34 356.974C1361.75 357.872 1362 358.934 1362.08 360.16C1362.16 361.303 1362.2 362.447 1362.2 363.591C1362.2 364.081 1362.16 364.816 1362.08 365.797C1362 366.695 1361.91 367.717 1361.83 368.86C1361.83 369.922 1361.79 370.943 1361.71 371.924C1361.63 372.904 1361.59 373.639 1361.59 374.13C1361.59 374.783 1361.59 375.396 1361.59 375.968C1361.67 376.458 1361.75 376.989 1361.83 377.561ZM1426.31 393.246C1426.22 395.697 1426.14 397.658 1426.06 399.128C1425.98 400.517 1425.86 401.702 1425.69 402.682C1425.61 403.581 1425.41 404.398 1425.08 405.133C1424.83 405.868 1424.47 406.767 1423.98 407.829C1422.26 411.75 1419.61 414.773 1416.01 416.897C1412.42 419.021 1407.84 420.083 1402.29 420.083C1400.33 420.083 1398.77 420.083 1397.63 420.083C1396.49 420.083 1395.22 419.879 1393.83 419.471C1392.52 419.062 1390.85 418.368 1388.81 417.387C1386.76 416.325 1383.86 414.814 1380.11 412.853C1377.17 411.301 1375.69 409.34 1375.69 406.971C1375.69 405.501 1376.19 404.193 1377.17 403.05C1378.15 401.824 1379.41 401.13 1380.96 400.967C1386.85 402.846 1390.89 404.806 1393.1 406.849C1396.04 408.156 1399.59 408.809 1403.76 408.809C1407.27 408.809 1410.09 407.788 1412.21 405.746C1412.54 404.847 1412.87 403.581 1413.19 401.947C1413.6 400.313 1413.81 398.352 1413.81 396.065C1413.81 394.267 1413.27 392.797 1412.21 391.653C1411.15 390.428 1409.8 389.366 1408.17 388.467C1406.53 387.568 1404.7 386.752 1402.65 386.016C1400.69 385.281 1398.81 384.505 1397.02 383.688C1395.63 383.116 1394.24 382.463 1392.85 381.727C1391.46 380.992 1390.07 380.053 1388.68 378.909C1385.17 372.945 1383.42 368.738 1383.42 366.287C1383.42 360.16 1387.05 354.318 1394.32 348.763C1401.1 346.231 1405.72 344.964 1408.17 344.964C1409.07 344.964 1410.25 345.291 1411.72 345.945C1413.19 346.598 1414.62 347.415 1416.01 348.396C1417.48 349.376 1418.71 350.479 1419.69 351.704C1420.75 352.848 1421.28 353.992 1421.28 355.135C1421.28 356.524 1420.71 357.75 1419.57 358.812C1418.5 359.792 1417.11 360.282 1415.4 360.282C1415.24 360.282 1414.79 360.037 1414.05 359.547C1413.32 359.057 1412.42 358.526 1411.35 357.954C1410.37 357.382 1409.35 356.851 1408.29 356.361C1407.31 355.871 1406.49 355.626 1405.84 355.626C1404.45 355.626 1403.1 355.952 1401.8 356.606C1400.57 357.259 1399.47 358.076 1398.49 359.057C1397.51 360.037 1396.73 361.14 1396.16 362.365C1395.59 363.509 1395.3 364.571 1395.3 365.552C1395.3 367.431 1395.87 369.105 1397.02 370.576C1398.16 372.046 1399.55 373.231 1401.18 374.13L1408.9 376.826C1410.86 377.561 1412.78 378.5 1414.66 379.644C1416.54 380.788 1418.26 382.095 1419.81 383.565C1421.36 384.954 1422.71 386.506 1423.85 388.222C1425 389.856 1425.81 391.531 1426.31 393.246ZM1514.86 353.542C1514.69 355.585 1514.2 357.913 1513.39 360.527C1512.65 363.06 1512.12 365.143 1511.79 366.777V368.248C1511.79 369.391 1511.71 370.617 1511.55 371.924C1511.38 373.231 1511.22 374.497 1511.06 375.723C1510.89 376.866 1510.69 377.888 1510.45 378.786C1510.28 379.685 1510.2 380.298 1510.2 380.624C1510.12 381.033 1510.08 382.013 1510.08 383.565C1510.08 385.118 1510.08 387.201 1510.08 389.815V391.286C1510.08 392.92 1510 394.349 1509.83 395.575C1509.67 396.8 1509.46 397.903 1509.22 398.883L1510.32 408.074C1510.65 408.973 1511.75 410.321 1513.63 412.118C1513.22 413.588 1512.16 414.936 1510.45 416.162C1508.73 417.306 1506.97 417.877 1505.18 417.877C1502.73 417.877 1500.85 416.734 1499.54 414.446C1498.31 412.077 1497.7 408.156 1497.7 402.682C1497.7 401.783 1497.74 401.007 1497.82 400.354C1497.99 399.7 1498.07 398.883 1498.07 397.903C1498.07 395.942 1497.82 393.491 1497.33 390.55C1497.74 389.652 1498.03 388.508 1498.19 387.119C1498.44 385.73 1498.6 384.423 1498.68 383.198C1498.76 381.891 1498.8 380.788 1498.8 379.889C1498.8 378.99 1498.8 378.623 1498.8 378.786C1498.8 378.868 1498.89 378.296 1499.05 377.071C1499.29 375.845 1499.54 374.416 1499.78 372.782C1500.03 371.066 1500.23 369.31 1500.4 367.512C1500.64 365.715 1500.76 364.285 1500.76 363.223V362.243L1502.85 351.949C1503.91 350.152 1505.75 349.253 1508.36 349.253C1511.22 349.253 1513.39 350.683 1514.86 353.542ZM1552.45 335.774C1552.69 336.427 1552.82 337.203 1552.82 338.102C1552.82 339.572 1552.69 341.002 1552.45 342.391C1552.28 343.78 1551.88 345.332 1551.22 347.048C1550.57 348.681 1549.63 350.479 1548.4 352.439C1547.18 354.4 1545.54 356.647 1543.5 359.179C1542.11 359.67 1540.97 359.915 1540.07 359.915C1538.93 359.915 1538.19 359.547 1537.87 358.812C1537.95 358.403 1538.07 357.954 1538.23 357.464C1538.48 356.892 1538.8 356.197 1539.21 355.38L1541.17 351.582C1542.07 349.376 1542.64 347.293 1542.89 345.332C1542.32 345.25 1541.58 345.046 1540.68 344.719C1539.79 344.392 1538.76 343.943 1537.62 343.371C1536.56 341.166 1536.03 339.205 1536.03 337.489L1539.34 331.852C1541.3 330.872 1543.13 330.382 1544.85 330.382C1548.04 330.382 1550.57 332.179 1552.45 335.774ZM1677.85 409.422C1680.54 410.811 1681.89 412.812 1681.89 415.427C1681.89 417.142 1681.44 418.368 1680.54 419.103C1679.73 419.838 1678.5 420.328 1676.87 420.573C1675.32 420.9 1673.35 421.064 1670.99 421.064C1668.62 421.145 1665.96 421.268 1663.02 421.431C1662.04 421.104 1658.45 420.778 1652.24 420.451C1651.34 420.533 1650.48 420.573 1649.66 420.573C1648.85 420.655 1648.07 420.696 1647.33 420.696C1642.92 420.696 1639.9 420.042 1638.27 418.735C1637.86 415.467 1637.53 412.445 1637.29 409.667C1637.12 406.889 1637.04 404.357 1637.04 402.069C1637.04 398.475 1637.16 395.37 1637.41 392.756C1637.74 390.06 1637.9 387.65 1637.9 385.526C1637.9 382.912 1637.78 380.869 1637.53 379.399L1638.27 366.532C1638.59 363.427 1638.96 360.772 1639.37 358.567C1639.86 356.361 1640.43 354.686 1641.08 353.542C1641.58 352.889 1644.03 352.072 1648.44 351.091L1656.28 349.376C1656.77 349.294 1657.79 349.172 1659.34 349.008C1660.9 348.845 1662.49 348.681 1664.12 348.518C1665.84 348.355 1667.35 348.232 1668.66 348.15C1669.96 348.069 1670.58 348.028 1670.5 348.028H1670.99C1671.88 348.028 1672.78 348.641 1673.68 349.866C1674.66 351.091 1675.15 352.521 1675.15 354.155C1675.15 354.972 1675.11 355.707 1675.03 356.361C1675.03 357.014 1674.78 357.586 1674.29 358.076C1673.8 358.485 1672.99 358.812 1671.84 359.057C1670.7 359.302 1669.02 359.465 1666.82 359.547C1663.22 359.71 1660.77 360.078 1659.47 360.65H1658.85C1656.73 360.65 1654.07 361.14 1650.89 362.12C1650.56 362.529 1650.32 363.264 1650.15 364.326C1649.99 365.306 1649.87 366.369 1649.79 367.512C1649.7 368.574 1649.62 369.514 1649.54 370.331C1649.54 371.066 1649.54 371.311 1649.54 371.066C1649.46 371.474 1649.38 371.883 1649.3 372.291C1649.3 372.7 1649.3 373.231 1649.3 373.885C1649.3 374.456 1649.3 375.11 1649.3 375.845C1649.38 376.499 1649.46 377.234 1649.54 378.051C1652.07 377.806 1654.12 377.561 1655.67 377.316C1657.3 376.989 1658.57 376.826 1659.47 376.826C1661.18 376.826 1662.86 376.785 1664.49 376.703C1666.12 376.621 1667.55 376.744 1668.78 377.071C1670.09 377.316 1671.11 377.888 1671.84 378.786C1672.58 379.603 1672.95 380.951 1672.95 382.83C1672.95 384.954 1672.25 386.343 1670.86 386.997C1669.56 387.65 1667.23 388.018 1663.88 388.099C1659.96 388.263 1657.59 388.426 1656.77 388.59C1656.28 388.59 1655.75 388.59 1655.18 388.59C1654.69 388.508 1654.12 388.467 1653.46 388.467C1653.05 388.467 1652.56 388.467 1651.99 388.467C1651.5 388.385 1651.01 388.385 1650.52 388.467C1650.03 388.467 1649.58 388.631 1649.17 388.957C1648.85 389.202 1648.68 389.693 1648.68 390.428C1648.68 390.918 1648.68 391.572 1648.68 392.389C1648.76 393.124 1648.81 393.818 1648.81 394.472C1648.81 395.452 1648.76 396.432 1648.68 397.413C1648.68 398.393 1648.64 399.455 1648.56 400.599C1648.56 401.661 1648.52 402.886 1648.44 404.275C1648.44 405.664 1648.44 407.298 1648.44 409.177C1648.93 409.259 1649.87 409.34 1651.26 409.422C1652.73 409.504 1654.24 409.585 1655.79 409.667C1657.42 409.749 1658.98 409.871 1660.45 410.035C1661.92 410.116 1662.9 410.198 1663.39 410.28C1663.47 410.28 1664.04 410.239 1665.1 410.157C1666.17 410.076 1667.72 409.953 1669.76 409.79C1672.54 409.545 1674.74 409.422 1676.38 409.422H1677.85ZM1746.12 419.103C1745.8 420.655 1744.29 421.431 1741.59 421.431C1739.38 421.431 1737.79 420.941 1736.81 419.961C1736.4 418.572 1735.83 416.897 1735.1 414.936C1734.36 412.894 1733.5 410.566 1732.52 407.951C1732.03 404.765 1731.54 402.519 1731.05 401.212C1730.64 399.904 1730.11 398.924 1729.46 398.271C1728.23 398.352 1726.48 398.516 1724.19 398.761C1721.9 398.924 1719.49 399.169 1716.96 399.496C1714.43 399.741 1712.06 400.109 1709.85 400.599C1707.65 401.007 1706.05 401.457 1705.07 401.947C1704.66 403.989 1704.17 406.236 1703.6 408.687C1703.03 411.138 1702.34 413.752 1701.52 416.529C1701.27 417.346 1700.7 417.918 1699.8 418.245C1698.9 418.654 1697.8 418.858 1696.49 418.858C1695.19 418.858 1694.04 418.613 1693.06 418.123C1692.16 417.714 1691.72 417.061 1691.72 416.162C1691.72 414.528 1692.7 409.667 1694.66 401.579C1694.57 401.252 1694.53 400.762 1694.53 400.109C1694.53 399.047 1694.66 397.74 1694.9 396.187C1695.23 394.553 1695.55 393.001 1695.88 391.531C1696.21 390.06 1696.49 388.794 1696.74 387.732C1697.07 386.67 1697.23 386.098 1697.23 386.016L1701.15 375.11C1701.31 374.048 1701.72 372.618 1702.38 370.821C1703.11 369.024 1703.89 367.185 1704.7 365.306C1705.52 363.427 1706.3 361.671 1707.03 360.037C1707.77 358.322 1708.26 357.014 1708.5 356.116C1709.24 353.42 1711.2 352.072 1714.39 352.072C1717 352.072 1718.67 353.052 1719.41 355.013C1719.41 355.013 1719.66 355.462 1720.15 356.361C1720.64 357.259 1721.29 358.403 1722.11 359.792C1722.92 361.181 1723.78 362.733 1724.68 364.449C1725.66 366.083 1726.56 367.676 1727.38 369.228C1728.19 370.698 1728.89 372.046 1729.46 373.272C1730.03 374.416 1730.36 375.192 1730.44 375.6C1731.09 377.152 1731.91 378.95 1732.89 380.992C1733.87 382.953 1735.05 385.158 1736.44 387.609C1737.26 388.671 1738 390.101 1738.65 391.898C1739.38 393.614 1740.04 395.37 1740.61 397.168C1741.18 398.965 1741.67 400.599 1742.08 402.069C1742.49 403.54 1742.86 404.52 1743.18 405.01C1743.18 405.582 1743.35 406.481 1743.67 407.706C1744.08 408.85 1744.45 410.076 1744.78 411.383C1745.18 412.69 1745.55 413.915 1745.88 415.059C1746.21 416.203 1746.37 417.02 1746.37 417.51C1746.37 417.918 1746.29 418.449 1746.12 419.103ZM1724.68 388.222C1724.03 386.261 1723.41 384.587 1722.84 383.198C1722.35 381.809 1721.74 380.42 1721 379.031C1720.35 377.642 1719.57 376.09 1718.67 374.375C1717.78 372.577 1716.63 370.29 1715.24 367.512C1713.36 370.943 1712.02 374.906 1711.2 379.399C1709.48 382.748 1708.26 386.302 1707.52 390.06C1710.06 389.325 1712.1 388.957 1713.65 388.957C1714.22 388.957 1714.63 388.998 1714.88 389.08C1716.26 388.753 1717.94 388.59 1719.9 388.59C1721.86 388.59 1723.45 388.467 1724.68 388.222ZM1810.6 377.561C1809.94 383.279 1809.37 388.263 1808.88 392.511C1808.39 396.759 1807.45 400.19 1806.06 402.805C1804.59 405.501 1803 407.706 1801.28 409.422C1799.57 411.138 1797.81 412.486 1796.02 413.466C1794.22 414.446 1792.42 415.141 1790.62 415.549C1788.91 415.876 1787.27 416.039 1785.72 416.039C1783.27 416.039 1781.11 415.794 1779.23 415.304C1777.35 414.732 1775.59 413.834 1773.96 412.608C1772.41 411.301 1770.94 409.585 1769.55 407.461C1768.16 405.256 1766.73 402.478 1765.26 399.128C1763.79 393.246 1762.89 388.14 1762.56 383.81C1762.23 379.481 1762.07 375.273 1762.07 371.189C1762.07 369.8 1762.03 368.248 1761.95 366.532C1761.95 364.735 1762.07 363.06 1762.32 361.508C1762.64 359.874 1763.21 358.526 1764.03 357.464C1764.93 356.32 1766.24 355.748 1767.95 355.748C1771.14 355.748 1773.22 357.464 1774.2 360.895C1773.96 362.365 1773.84 364.898 1773.84 368.493C1773.84 369.636 1773.84 370.821 1773.84 372.046C1773.84 373.272 1773.88 374.62 1773.96 376.09C1774.04 379.767 1774.08 382.381 1774.08 383.933C1774.08 385.404 1774.12 386.506 1774.2 387.242C1774.28 387.895 1774.41 388.549 1774.57 389.202C1774.73 389.774 1775.02 391 1775.43 392.879C1776.25 395.33 1776.94 397.249 1777.51 398.638C1778.08 399.945 1778.7 401.007 1779.35 401.824C1780 402.56 1780.82 403.131 1781.8 403.54C1782.86 403.867 1784.21 404.234 1785.84 404.643C1788.21 404.071 1790.17 403.213 1791.73 402.069C1793.36 400.926 1794.63 399.496 1795.53 397.78C1796.51 395.983 1797.2 393.9 1797.61 391.531C1798.02 389.162 1798.3 386.506 1798.47 383.565C1798.47 381.441 1798.51 379.399 1798.59 377.438C1798.75 375.478 1798.92 373.68 1799.08 372.046C1799 370.412 1798.96 368.983 1798.96 367.757C1798.96 366.45 1798.96 365.347 1798.96 364.449C1798.96 363.468 1798.92 362.611 1798.83 361.875V363.223C1798.83 360.201 1799.16 357.505 1799.81 355.135C1801.53 354.155 1803.2 353.665 1804.84 353.665C1806.31 353.665 1807.45 353.992 1808.27 354.645C1809.09 355.217 1809.7 355.993 1810.11 356.974C1810.52 357.872 1810.76 358.934 1810.84 360.16C1810.92 361.303 1810.97 362.447 1810.97 363.591C1810.97 364.081 1810.92 364.816 1810.84 365.797C1810.76 366.695 1810.68 367.717 1810.6 368.86C1810.6 369.922 1810.56 370.943 1810.48 371.924C1810.39 372.904 1810.35 373.639 1810.35 374.13C1810.35 374.783 1810.35 375.396 1810.35 375.968C1810.43 376.458 1810.52 376.989 1810.6 377.561Z" fill="white"/>
</svg>
