<svg width="730" height="140" viewBox="0 0 730 140" fill="none" xmlns="http://www.w3.org/2000/svg">
<path d="M37.5341 60.6915C40.0975 61.2219 41.3792 63.2107 41.3792 66.6581C41.3792 68.5143 40.9372 69.9728 40.0533 71.0335C39.1694 72.0942 38.0203 72.6246 36.606 72.6246C36.164 72.6246 35.3243 72.5804 34.0868 72.492C32.8493 72.3152 31.5234 72.1826 30.1091 72.0942C28.6949 71.9174 27.3248 71.7848 25.9989 71.6964C24.673 71.5197 23.7449 71.4313 23.2145 71.4313C22.6842 71.4313 22.198 71.4313 21.756 71.4313C21.3141 71.4313 20.8721 71.4755 20.4301 71.5638C18.9275 71.4755 17.1596 71.2987 15.1266 71.0335C13.1819 70.6799 11.2373 70.3264 9.29266 69.9728C7.43642 69.5308 5.75696 69.0889 4.25428 68.6469C2.84 68.2049 2.00027 67.8072 1.73509 67.4536C0.851163 64.8018 0.4092 61.2661 0.4092 56.8465C0.4092 56.1393 0.4092 55.4322 0.4092 54.725C0.4092 53.9295 0.453396 53.134 0.541788 52.3384L1.33732 42.9246C1.42571 42.2175 1.46991 41.5545 1.46991 40.9358C1.46991 40.2286 1.46991 39.6099 1.46991 39.0795C1.46991 38.3724 1.46991 37.7978 1.46991 37.3559C1.46991 36.8255 1.38152 36.3394 1.20473 35.8974C1.82348 32.5385 2.26545 29.7541 2.53062 27.5443C2.7958 25.2461 2.92839 23.4782 2.92839 22.2407V21.18C2.92839 19.9425 3.45875 16.009 4.51946 9.37959C5.84535 6.55102 7.87838 5.13674 10.6186 5.13674C12.298 5.13674 13.7123 5.79968 14.8614 7.12558C16.0105 8.36307 16.5851 10.0867 16.5851 12.2965C16.2315 13.534 15.8779 15.0809 15.5243 16.9372C15.2592 18.7934 14.994 21.0032 14.7288 23.5666V24.6273C14.7288 25.4229 14.6404 26.6604 14.4636 28.3398C14.3752 29.9309 14.2427 31.6104 14.0659 33.3782C13.8891 35.0577 13.7123 36.6045 13.5355 38.0188C13.4471 39.3447 13.4029 40.0961 13.4029 40.2728C13.4029 41.2452 13.4471 41.8639 13.5355 42.1291C13.1819 45.8416 12.9168 48.9353 12.74 51.4103C12.5632 53.8853 12.4748 55.7858 12.4748 57.1116C12.4748 57.9956 12.519 58.5701 12.6074 58.8353C17.2038 59.3657 20.2534 59.6308 21.756 59.6308C22.4632 59.6308 23.1703 59.6308 23.8775 59.6308C24.673 59.5424 25.4685 59.4982 26.2641 59.4982C29.623 59.4982 33.3797 59.896 37.5341 60.6915ZM93.7871 71.6964C90.9585 74.525 87.7764 76.9116 84.2407 78.8562C80.705 80.8893 77.1251 81.9058 73.501 81.9058C70.2304 81.9058 66.0318 81.3754 60.905 80.3147C59.1372 79.1656 57.3693 77.7955 55.6015 76.2045C53.8336 74.525 52.2425 72.713 50.8283 70.7683C49.414 68.7353 48.2649 66.5697 47.3809 64.2715C46.497 61.8848 46.055 59.4541 46.055 56.9791C46.055 56.2719 46.0992 55.3438 46.1876 54.1947C46.276 52.9572 46.3644 51.7639 46.4528 50.6148C46.6296 49.3773 46.7622 48.3166 46.8506 47.4326C46.939 46.5487 46.9832 46.1068 46.9832 46.1068C48.751 43.2782 50.6073 40.4938 52.5519 37.7536C54.5849 34.9251 57.4135 32.4501 61.0376 30.3287C66.7831 29.0912 70.9376 28.4724 73.501 28.4724C74.8269 28.4724 75.976 28.5608 76.9483 28.7376C77.9206 28.826 78.8487 29.0912 79.7327 29.5331C80.705 29.8867 81.6331 30.4612 82.517 31.2568C83.4894 32.0523 84.5943 33.0688 85.8318 34.3063C87.246 35.809 88.351 36.8255 89.1465 37.3559C90.0304 37.8862 90.4724 38.3724 90.4724 38.8144C90.4724 46.9465 87.9532 52.471 82.9148 55.388C80.705 56.1835 77.8322 57.0674 74.2965 58.0398C70.7608 58.9237 65.9434 59.7634 59.8443 60.559C61.0818 63.9179 62.7171 66.4371 64.7501 68.1165C66.7831 69.796 69.0813 70.6357 71.6447 70.6357C75.4456 70.6357 80.2188 68.3817 85.9643 63.8737C86.8483 63.0782 87.9532 62.6804 89.2791 62.6804C90.6934 62.6804 91.9309 63.2107 92.9916 64.2715C94.1407 65.3322 94.7152 66.6581 94.7152 68.2491C94.7152 69.3982 94.4059 70.5473 93.7871 71.6964ZM78.8045 43.3224C77.1251 40.5822 75.1362 39.2121 72.838 39.2121C71.8657 39.2121 70.805 39.3447 69.6559 39.6099C68.5068 39.8751 67.3135 40.2728 66.076 40.8032C64.9269 41.2452 63.822 41.8197 62.7613 42.5268C61.7889 43.234 60.9934 44.0737 60.3747 45.046L59.0488 49.0237C62.0541 48.7585 64.7059 48.5376 67.0041 48.3608C69.3023 48.184 71.2912 47.9188 72.9706 47.5652C74.6501 47.2117 75.976 46.7255 76.9483 46.1068C77.9206 45.488 78.5394 44.5599 78.8045 43.3224ZM207.742 73.9505C207.477 74.4808 207.344 75.3205 207.344 76.4696C207.344 77.1768 207.389 78.0607 207.477 79.1214C207.565 80.1821 207.61 81.0661 207.61 81.7732C207.61 83.4527 207.079 84.646 206.019 85.3531C204.958 86.0603 203.676 86.4138 202.173 86.4138C199.964 86.4138 197.931 85.6183 196.074 84.0272C196.074 83.762 196.074 83.4527 196.074 83.0991C196.163 82.7455 196.207 82.3478 196.207 81.9058C196.207 80.4031 196.119 78.9004 195.942 77.3978C195.765 75.8951 195.677 75.1879 195.677 75.2763L195.942 70.238C190.992 74.0388 186.705 76.0719 183.081 76.3371C181.224 76.5138 179.589 76.6464 178.175 76.7348C176.849 76.8232 175.7 76.9116 174.728 77C173.667 77.0884 172.739 77.1768 171.943 77.2652H172.076C169.159 77.2652 166.198 76.6464 163.192 75.4089C160.275 74.083 157.624 72.3152 155.237 70.1054C152.85 67.8072 150.906 65.1554 149.403 62.15C147.9 59.0563 147.149 55.7858 147.149 52.3384C147.149 50.659 147.326 48.4934 147.679 45.8416C148.121 43.1014 148.652 40.317 149.27 37.4885C149.978 34.6599 150.685 31.9639 151.392 29.4005C152.187 26.8371 152.983 24.8483 153.778 23.434C155.104 20.959 157.447 18.1747 160.806 15.0809C163.015 13.8434 165.49 12.5175 168.231 11.1032C171.059 9.60057 174.241 8.0537 177.777 6.46263L191.832 4.07603C197.4 4.69478 201.555 5.71129 204.295 7.12558C207.035 8.53986 208.405 10.8381 208.405 14.0202C208.405 17.2907 206.681 18.926 203.234 18.926C201.908 18.926 200.45 18.6608 198.859 18.1305C197.268 17.5117 195.544 17.1581 193.688 17.0698C192.539 16.9814 191.434 16.9372 190.373 16.9372C189.312 16.9372 188.207 16.9372 187.058 16.9372C181.666 17.9979 177.512 19.4564 174.595 21.3126C172.65 21.6662 170.75 22.7269 168.894 24.4947C167.037 26.1742 165.402 28.3398 163.988 30.9916C162.574 33.6434 161.424 36.6487 160.541 40.0077C159.657 43.3666 159.215 46.8139 159.215 50.3496C159.215 54.0621 159.922 57.1116 161.336 59.4982C162.75 61.8848 165.623 63.7411 169.954 65.067C170.573 65.3322 171.501 65.4648 172.739 65.4648C175.921 65.4648 178.352 65.288 180.031 64.9344C181.799 64.5808 183.346 64.0063 184.672 63.2107C186.086 62.4152 187.5 61.3987 188.915 60.1612C190.417 58.9237 192.494 57.421 195.146 55.6532V53.6643C194.881 52.6036 193.82 51.8081 191.964 51.2777C190.108 50.659 188.119 50.2612 185.998 50.0844C183.523 49.8192 180.694 49.6867 177.512 49.6867C175.39 47.742 174.33 45.709 174.33 43.5876C174.33 40.759 175.788 38.9469 178.705 38.1514H178.573C178.573 37.9746 179.324 38.063 180.827 38.4166C182.418 38.7702 184.628 38.9469 187.456 38.9469C188.252 38.9469 188.915 38.8586 189.445 38.6818C190.594 38.7702 191.92 38.9911 193.423 39.3447C195.014 39.6983 196.605 40.1402 198.196 40.6706C199.787 41.201 201.201 41.7755 202.439 42.3943C203.765 42.9246 204.737 43.4108 205.356 43.8527C206.947 45.0902 207.742 48.0956 207.742 52.8688C207.742 54.9902 207.477 56.8907 206.947 58.5701C207.123 59.2773 207.256 60.4706 207.344 62.15C207.433 63.7411 207.521 65.4206 207.61 67.1884C207.698 68.9563 207.742 70.5473 207.742 71.9616C207.742 73.2875 207.742 73.9505 207.742 73.9505ZM257.34 31.9197C258.754 32.8037 259.461 34.4831 259.461 36.9581C259.461 38.8144 258.975 40.4054 258.003 41.7313C257.03 43.0572 255.705 43.7201 254.025 43.7201C252.964 43.7201 251.859 43.455 250.71 42.9246C249.65 42.3059 248.501 41.9965 247.263 41.9965C246.202 41.9965 245.142 42.2175 244.081 42.6594C243.109 43.013 241.96 43.8527 240.634 45.1786L236.656 49.1563C236.656 49.7751 236.656 50.3938 236.656 51.0125C236.744 51.6313 236.789 52.2942 236.789 53.0014C236.789 54.0621 236.744 55.167 236.656 56.3161C236.656 57.4652 236.612 58.7027 236.523 60.0286L237.717 72.0942C237.451 76.1603 235.374 78.1933 231.485 78.1933C229.452 78.1933 227.949 77.5746 226.977 76.3371C226.005 75.0112 225.342 73.1991 224.988 70.9009C224.635 68.6027 224.458 65.9067 224.458 62.813C224.546 59.7192 224.546 56.3161 224.458 52.6036C224.281 47.0349 224.148 44.2505 224.06 44.2505V44.3831C223.706 43.0572 223.441 41.9081 223.264 40.9358C223.088 39.8751 222.999 38.9469 222.999 38.1514C222.999 36.5603 223.574 35.2786 224.723 34.3063C225.872 33.2456 227.551 32.7153 229.761 32.7153C231.176 32.7153 232.855 33.8202 234.8 36.03C236.833 34.4389 238.38 33.2456 239.44 32.4501C240.589 31.6545 241.518 31.08 242.225 30.7264C243.02 30.3729 243.772 30.1961 244.479 30.1961C245.186 30.1077 246.114 30.0635 247.263 30.0635C248.235 29.9751 249.119 30.0193 249.915 30.1961C250.799 30.3729 251.727 30.5496 252.699 30.7264L257.34 31.9197ZM310.354 61.3545C311.945 62.4152 312.74 63.6969 312.74 65.1996C312.74 65.9951 312.519 66.8348 312.077 67.7188C311.635 68.5143 311.061 69.2656 310.354 69.9728C309.647 70.5915 308.895 71.1219 308.1 71.5638C307.304 72.0058 306.509 72.2268 305.713 72.2268C305.006 71.9616 304.166 71.5197 303.194 70.9009C302.222 70.1938 301.249 69.4424 300.277 68.6469C299.305 67.763 298.376 66.7906 297.493 65.7299C296.697 64.6692 296.078 63.6085 295.636 62.5478L294.708 64.8018C293.029 67.9839 290.377 70.9893 286.753 73.8179C282.333 74.6134 279.77 75.0112 279.063 75.0112C277.383 75.0112 275.35 74.746 272.964 74.2156L265.671 69.0447C262.489 66.0393 260.898 61.929 260.898 56.7139C260.898 54.8576 261.163 52.8246 261.694 50.6148C262.312 48.3166 263.152 46.0184 264.213 43.7201C265.362 41.4219 266.732 39.1679 268.323 36.9581C269.914 34.7483 271.77 32.7595 273.892 30.9916C276.455 30.0193 278.93 29.2237 281.317 28.605C283.703 27.8979 285.515 27.4559 286.753 27.2791C288.432 25.4229 290.421 24.4947 292.719 24.4947C294.045 24.4947 295.194 25.1577 296.167 26.4836C297.227 27.7211 298.111 29.3121 298.818 31.2568C299.614 33.2014 300.233 35.367 300.675 37.7536C301.117 40.0519 301.426 42.2617 301.603 44.3831L303.326 51.4103C303.857 53.6201 304.697 55.5206 305.846 57.1116C307.083 58.7027 308.586 60.117 310.354 61.3545ZM290.2 46.6371C290.023 46.5487 289.36 43.7643 288.211 38.284C287.769 38.284 287.106 38.284 286.222 38.284C285.339 38.284 284.278 38.5492 283.04 39.0795C281.891 39.5215 280.61 40.3612 279.195 41.5987C277.869 42.7478 276.588 44.5157 275.35 46.9023C273.494 50.3496 272.566 53.7969 272.566 57.2442C274.068 60.1612 276.411 62.4594 279.593 64.1389C280.565 63.8737 281.361 63.5643 281.98 63.2107C282.687 62.8572 283.306 62.371 283.836 61.7523C284.366 61.1335 284.852 60.3822 285.294 59.4982C285.825 58.5259 286.399 57.3326 287.018 55.9183C288.167 53.8853 288.963 52.1175 289.405 50.6148C289.935 49.0237 290.2 47.6978 290.2 46.6371ZM358.46 62.2826V63.3433C358.46 63.8737 358.46 64.846 358.46 66.2603C358.548 67.5862 358.415 68.9563 358.062 70.3705C357.797 71.7848 357.222 73.0665 356.338 74.2156C355.454 75.2763 354.128 75.8067 352.361 75.8067C348.913 75.8067 346.88 74.4366 346.261 71.6964C346.35 71.1661 346.394 70.5915 346.394 69.9728C346.394 69.2656 346.394 68.5143 346.394 67.7188C346.394 67.3652 346.394 66.0835 346.394 63.8737C346.394 61.5755 346.306 59.1005 346.129 56.4487C346.041 53.7969 345.775 51.3219 345.333 49.0237C344.891 46.6371 344.228 45.1344 343.345 44.5157C341.312 43.1014 339.499 42.3943 337.908 42.3943C335.787 42.3943 333.975 43.0572 332.472 44.3831C331.058 45.6206 329.865 48.0956 328.892 51.8081C328.804 53.0456 328.716 54.4599 328.627 56.0509C328.539 57.5536 328.406 59.2773 328.229 61.2219C328.229 62.7246 328.274 64.404 328.362 66.2603C328.45 68.0281 328.583 70.0612 328.76 72.3594C328.76 74.0388 328.097 75.4531 326.771 76.6022C325.445 77.6629 323.942 78.1933 322.263 78.1933C320.937 78.1933 319.876 77.8397 319.081 77.1326C318.285 76.4254 317.666 75.4973 317.224 74.3482C316.871 73.1991 316.606 71.9616 316.429 70.6357C316.341 69.3098 316.296 67.9839 316.296 66.6581C316.296 65.6857 316.341 64.7134 316.429 63.7411C316.517 62.6804 316.65 61.6197 316.827 60.559L317.887 47.8304L318.948 41.4661C318.771 40.4054 318.418 39.2563 317.887 38.0188C317.357 36.7813 317.092 35.809 317.092 35.1019C317.092 33.5992 317.666 32.2291 318.816 30.9916C320.053 29.7541 321.556 29.1354 323.324 29.1354C324.561 29.1354 325.489 29.4005 326.108 29.9309C326.727 30.3729 327.743 31.522 329.158 33.3782C330.925 32.5827 332.34 32.0965 333.4 31.9197C334.461 31.6545 335.699 31.522 337.113 31.522C341.709 31.522 345.731 32.6269 349.178 34.8367C352.714 36.9581 354.924 40.538 355.808 45.5764C356.073 47.4326 356.294 48.9795 356.471 50.217C356.736 51.4545 356.957 52.6478 357.134 53.7969C357.311 54.946 357.487 56.1835 357.664 57.5094C357.841 58.7469 358.106 60.338 358.46 62.2826ZM412.375 12.164C412.11 12.9595 411.977 14.5064 411.977 16.8046C411.977 18.1305 411.977 19.8099 411.977 21.843C412.065 23.876 412.11 25.5555 412.11 26.8813C412.11 28.1188 412.11 29.2237 412.11 30.1961C412.11 31.1684 412.021 31.9639 411.844 32.5827C411.933 32.9362 411.977 33.334 411.977 33.776C411.977 34.2179 411.977 34.7041 411.977 35.2345C411.977 36.4719 411.889 38.063 411.712 40.0077C411.535 41.8639 411.447 43.1456 411.447 43.8527C411.447 44.0295 411.447 44.2063 411.447 44.3831C411.535 44.4715 411.579 44.6041 411.579 44.7809C410.784 49.5541 410.253 53.8853 409.988 57.7746C409.811 61.5755 409.502 64.846 409.06 67.5862C408.706 70.3264 408.043 72.4478 407.071 73.9505C406.187 75.3647 404.64 76.0719 402.431 76.0719C400.574 76.0719 398.939 75.6299 397.525 74.746V73.8179C394.873 74.967 391.337 75.5415 386.918 75.5415C384.001 75.5415 381.305 75.0112 378.83 73.9505C376.443 72.8897 374.366 71.4313 372.598 69.575C370.83 67.6304 369.46 65.3764 368.488 62.813C367.515 60.2496 367.029 57.4652 367.029 54.4599C367.029 52.7804 367.206 51.1451 367.56 49.5541C368.002 47.8746 368.532 46.3277 369.151 44.9135C369.769 43.4108 370.432 42.0849 371.14 40.9358C371.935 39.6983 372.686 38.6818 373.394 37.8862C375.161 35.9416 377.725 34.1737 381.084 32.5827C384.443 30.9916 388.023 30.1961 391.823 30.1961C394.387 30.1961 396.994 30.6822 399.646 31.6545C399.646 30.3287 399.69 28.7376 399.779 26.8813C399.956 25.0251 400.132 22.8595 400.309 20.3845L399.779 11.3684C399.779 10.9265 399.735 10.5729 399.646 10.3077C399.646 9.95414 399.646 9.60057 399.646 9.247C399.646 6.33004 400 4.12022 400.707 2.61754C401.502 1.11487 403.049 0.363537 405.348 0.363537C406.762 0.363537 407.867 0.540322 408.662 0.893894C409.546 1.24746 410.209 1.86621 410.651 2.75014C411.181 3.54567 411.535 4.73897 411.712 6.33004C411.889 7.83271 412.11 9.77736 412.375 12.164ZM398.718 43.8527C396.95 42.6152 394.785 41.9965 392.221 41.9965C390.365 41.9965 388.774 42.1291 387.448 42.3943C386.21 42.6594 385.15 43.1456 384.266 43.8527C383.382 44.4715 382.631 45.3554 382.012 46.5045C381.393 47.5652 380.774 48.8911 380.156 50.4822C379.625 51.9849 379.36 53.3992 379.36 54.725C379.36 57.5536 380.332 59.7634 382.277 61.3545C384.31 62.9456 386.741 63.7411 389.569 63.7411C392.044 63.7411 394.431 62.8572 396.729 61.0893C397.525 57.4652 398.055 54.946 398.32 53.5317C398.674 52.0291 398.851 50.7474 398.851 49.6867C398.851 48.7143 398.806 47.8304 398.718 47.0349C398.63 46.1509 398.585 45.3996 398.585 44.7809C398.585 44.6041 398.585 44.4715 398.585 44.3831C398.674 44.2063 398.718 44.0295 398.718 43.8527ZM524.477 59.1005C524.212 60.1612 523.549 61.4429 522.488 62.9456C521.516 64.4482 520.278 65.9951 518.775 67.5862C517.273 69.0889 515.637 70.4589 513.87 71.6964C512.19 72.9339 510.555 73.8179 508.964 74.3482C504.367 76.3813 499.196 77.3978 493.451 77.3978C491.595 77.3978 489.959 77.3536 488.545 77.2652C487.219 77.1768 485.893 76.9116 484.567 76.4696C483.242 76.0277 481.916 75.3205 480.59 74.3482C479.264 73.3759 477.761 71.9616 476.082 70.1054C474.225 68.1607 472.767 66.2603 471.706 64.404C470.646 62.4594 469.85 60.6032 469.32 58.8353C468.789 57.0674 468.436 55.388 468.259 53.7969C468.082 52.1175 467.994 50.6148 467.994 49.2889C467.994 46.3719 468.347 42.9246 469.055 38.9469C469.762 34.9693 471.662 30.1077 474.756 24.3622C475.905 22.2407 476.789 20.5613 477.408 19.3238C478.026 18.0863 478.38 17.2465 478.468 16.8046L486.689 11.7662C489.517 10.0867 492.213 8.76084 494.777 7.78852C497.34 6.72781 500.169 6.19745 503.262 6.19745C504.146 6.19745 505.472 6.19745 507.24 6.19745C509.008 6.19745 510.732 6.41843 512.411 6.86039C514.179 7.21397 515.726 7.92111 517.052 8.98182C518.378 9.95414 519.041 11.4126 519.041 13.3573C519.041 16.6278 517.096 18.5282 513.207 19.0586C513.295 19.0586 513.03 19.0144 512.411 18.926C511.792 18.8376 510.953 18.7492 509.892 18.6608C508.831 18.5724 507.638 18.484 506.312 18.3956C504.986 18.3073 503.66 18.2631 502.334 18.2631C500.036 18.2631 497.694 18.926 495.307 20.2519C493.009 21.4894 490.18 23.655 486.821 26.7488C485.054 30.4612 483.728 33.3782 482.844 35.4996C482.048 37.5327 481.65 38.9027 481.65 39.6099C480.678 41.3777 480.192 43.9853 480.192 47.4326C480.192 53.7969 481.341 58.3933 483.639 61.2219C485.938 63.9621 489.075 65.3322 493.053 65.3322C495.617 65.3322 499.594 64.625 504.986 63.2107C508.257 61.2661 511.085 58.1724 513.472 53.9295C514.975 52.4268 516.521 51.6755 518.112 51.6755C519.792 51.6755 521.295 52.3384 522.62 53.6643C523.946 54.9902 524.609 56.4929 524.609 58.1724C524.609 58.3491 524.565 58.5259 524.477 58.7027C524.477 58.7911 524.477 58.9237 524.477 59.1005ZM568.215 31.9197C569.629 32.8037 570.336 34.4831 570.336 36.9581C570.336 38.8144 569.85 40.4054 568.877 41.7313C567.905 43.0572 566.579 43.7201 564.9 43.7201C563.839 43.7201 562.734 43.455 561.585 42.9246C560.524 42.3059 559.375 41.9965 558.138 41.9965C557.077 41.9965 556.016 42.2175 554.956 42.6594C553.983 43.013 552.834 43.8527 551.508 45.1786L547.531 49.1563C547.531 49.7751 547.531 50.3938 547.531 51.0125C547.619 51.6313 547.663 52.2942 547.663 53.0014C547.663 54.0621 547.619 55.167 547.531 56.3161C547.531 57.4652 547.486 58.7027 547.398 60.0286L548.591 72.0942C548.326 76.1603 546.249 78.1933 542.36 78.1933C540.327 78.1933 538.824 77.5746 537.852 76.3371C536.879 75.0112 536.216 73.1991 535.863 70.9009C535.509 68.6027 535.332 65.9067 535.332 62.813C535.421 59.7192 535.421 56.3161 535.332 52.6036C535.156 47.0349 535.023 44.2505 534.935 44.2505V44.3831C534.581 43.0572 534.316 41.9081 534.139 40.9358C533.962 39.8751 533.874 38.9469 533.874 38.1514C533.874 36.5603 534.449 35.2786 535.598 34.3063C536.747 33.2456 538.426 32.7153 540.636 32.7153C542.05 32.7153 543.73 33.8202 545.674 36.03C547.707 34.4389 549.254 33.2456 550.315 32.4501C551.464 31.6545 552.392 31.08 553.099 30.7264C553.895 30.3729 554.646 30.1961 555.353 30.1961C556.061 30.1077 556.989 30.0635 558.138 30.0635C559.11 29.9751 559.994 30.0193 560.79 30.1961C561.673 30.3729 562.602 30.5496 563.574 30.7264L568.215 31.9197ZM619.637 71.6964C616.809 74.525 613.627 76.9116 610.091 78.8562C606.555 80.8893 602.975 81.9058 599.351 81.9058C596.081 81.9058 591.882 81.3754 586.755 80.3147C584.987 79.1656 583.219 77.7955 581.452 76.2045C579.684 74.525 578.093 72.713 576.678 70.7683C575.264 68.7353 574.115 66.5697 573.231 64.2715C572.347 61.8848 571.905 59.4541 571.905 56.9791C571.905 56.2719 571.949 55.3438 572.038 54.1947C572.126 52.9572 572.215 51.7639 572.303 50.6148C572.48 49.3773 572.612 48.3166 572.701 47.4326C572.789 46.5487 572.833 46.1068 572.833 46.1068C574.601 43.2782 576.457 40.4938 578.402 37.7536C580.435 34.9251 583.264 32.4501 586.888 30.3287C592.633 29.0912 596.788 28.4724 599.351 28.4724C600.677 28.4724 601.826 28.5608 602.798 28.7376C603.771 28.826 604.699 29.0912 605.583 29.5331C606.555 29.8867 607.483 30.4612 608.367 31.2568C609.339 32.0523 610.444 33.0688 611.682 34.3063C613.096 35.809 614.201 36.8255 614.997 37.3559C615.881 37.8862 616.323 38.3724 616.323 38.8144C616.323 46.9465 613.803 52.471 608.765 55.388C606.555 56.1835 603.682 57.0674 600.147 58.0398C596.611 58.9237 591.794 59.7634 585.694 60.559C586.932 63.9179 588.567 66.4371 590.6 68.1165C592.633 69.796 594.931 70.6357 597.495 70.6357C601.296 70.6357 606.069 68.3817 611.814 63.8737C612.698 63.0782 613.803 62.6804 615.129 62.6804C616.544 62.6804 617.781 63.2107 618.842 64.2715C619.991 65.3322 620.565 66.6581 620.565 68.2491C620.565 69.3982 620.256 70.5473 619.637 71.6964ZM604.655 43.3224C602.975 40.5822 600.986 39.2121 598.688 39.2121C597.716 39.2121 596.655 39.3447 595.506 39.6099C594.357 39.8751 593.164 40.2728 591.926 40.8032C590.777 41.2452 589.672 41.8197 588.611 42.5268C587.639 43.234 586.844 44.0737 586.225 45.046L584.899 49.0237C587.904 48.7585 590.556 48.5376 592.854 48.3608C595.152 48.184 597.141 47.9188 598.821 47.5652C600.5 47.2117 601.826 46.7255 602.798 46.1068C603.771 45.488 604.39 44.5599 604.655 43.3224ZM672.877 29.4005C673.054 30.4612 673.142 31.522 673.142 32.5827C673.142 33.6434 673.142 34.6599 673.142 35.6322C673.142 39.6983 672.7 43.3666 671.816 46.6371C671.463 48.8469 671.198 51.1451 671.021 53.5317C670.844 55.8299 670.667 58.2607 670.49 60.8241C670.49 61.0009 670.579 61.9732 670.756 63.7411C671.021 65.4206 671.153 67.9397 671.153 71.2987C671.153 72.8013 670.535 73.9505 669.297 74.746C668.148 75.4531 666.778 75.8067 665.187 75.8067C663.242 75.8067 661.872 75.4089 661.077 74.6134C660.281 73.7295 659.795 71.6964 659.618 68.5143C658.115 69.9286 656.657 71.0335 655.243 71.829C653.828 72.5362 652.458 73.0665 651.132 73.4201C649.895 73.7737 648.702 73.9946 647.552 74.083C646.492 74.1714 645.475 74.2156 644.503 74.2156C639.465 74.2156 635.664 72.713 633.1 69.7076C630.537 66.7023 629.255 62.5478 629.255 57.2442C629.255 56.6255 629.255 56.0067 629.255 55.388C629.255 54.6808 629.299 53.8853 629.388 53.0014C629.299 52.8246 629.255 52.4268 629.255 51.8081C629.255 50.8358 629.255 49.8634 629.255 48.8911C629.344 47.8304 629.52 46.5487 629.786 45.046C630.051 43.5434 630.448 41.6871 630.979 39.4773C631.598 37.1791 632.437 34.2621 633.498 30.7264C634.647 29.3121 636.194 28.605 638.139 28.605C639.641 28.605 640.923 29.0028 641.984 29.7983C643.133 30.5938 643.707 31.8313 643.707 33.5108C643.707 33.9528 643.575 34.8367 643.31 36.1626C643.044 37.4885 642.735 38.9469 642.382 40.538C642.028 42.1291 641.719 43.7202 641.453 45.3112C641.188 46.9023 641.056 48.1398 641.056 49.0237V49.6867C640.879 50.659 640.746 51.6313 640.658 52.6036C640.569 53.4875 640.525 54.3273 640.525 55.1228C640.525 57.421 640.835 59.3215 641.453 60.8241C642.161 62.3268 643.619 63.0782 645.829 63.0782C647.42 63.0782 648.923 62.7246 650.337 62.0174C651.751 61.2219 653.033 60.2938 654.182 59.2331C655.419 58.084 656.48 56.8907 657.364 55.6532C658.248 54.3273 658.911 53.0898 659.353 51.9407C659.795 48.6701 660.59 44.3831 661.74 39.0795V37.7536C661.74 36.251 661.784 34.7925 661.872 33.3782C662.049 31.9639 662.314 30.7264 662.668 29.6657C663.11 28.5166 663.728 27.6327 664.524 27.0139C665.319 26.3068 666.424 25.9532 667.839 25.9532C670.49 25.9532 672.17 27.1023 672.877 29.4005ZM729.394 66.5255C729.659 67.2326 729.792 67.9839 729.792 68.7795C729.792 70.4589 729.173 72.0942 727.936 73.6853C726.698 75.1879 725.416 75.9393 724.091 75.9393C723.383 75.9393 722.499 75.5857 721.439 74.8786C720.466 74.083 718.964 72.713 716.931 70.7683C715.693 69.0005 714.721 67.7188 714.014 66.9232C713.307 66.0393 712.599 65.288 711.892 64.6692C711.274 63.9621 710.522 63.2107 709.638 62.4152C708.754 61.5313 707.517 60.2054 705.926 58.4375L701.285 64.0063C699.429 66.9232 697.926 69.4424 696.777 71.5638C695.628 73.5969 694.612 75.2763 693.728 76.6022C692.844 77.9281 691.96 78.9004 691.076 79.5192C690.28 80.1379 689.308 80.4473 688.159 80.4473C686.568 80.4473 685.109 79.9612 683.783 78.9888C682.458 78.0165 681.795 76.779 681.795 75.2763C681.795 74.8344 682.016 74.1272 682.458 73.1549C682.988 72.0942 683.518 71.0777 684.049 70.1054C684.667 69.0447 685.198 68.1165 685.64 67.321C686.17 66.5255 686.479 66.0393 686.568 65.8625C687.629 64.4482 688.733 62.8572 689.883 61.0893C691.032 59.2331 692.402 57.2884 693.993 55.2554L697.97 50.217C696.645 49.2447 694.788 47.5652 692.402 45.1786C691.96 44.9135 691.12 44.3831 689.883 43.5876C688.733 42.792 687.54 41.9081 686.303 40.9358C685.065 39.8751 683.96 38.8144 682.988 37.7536C682.016 36.6045 681.529 35.5438 681.529 34.5715C681.529 32.7153 682.104 31.2126 683.253 30.0635C684.491 28.826 685.905 28.2072 687.496 28.2072C688.026 28.2072 688.424 28.2514 688.689 28.3398C688.954 28.3398 689.352 28.5166 689.883 28.8702C690.413 29.2237 691.208 29.8425 692.269 30.7264C693.33 31.522 694.921 32.7595 697.042 34.4389C697.661 35.3228 698.899 36.4278 700.755 37.7536L705.395 41.201C706.545 40.1402 707.517 38.9911 708.312 37.7536C709.196 36.5161 709.815 35.7206 710.169 35.367C711.406 33.776 712.423 32.5385 713.218 31.6545C714.102 30.6822 714.854 29.9309 715.472 29.4005C716.091 28.8702 716.621 28.5166 717.063 28.3398C717.505 28.163 717.991 28.0746 718.522 28.0746C720.113 28.0746 721.483 28.605 722.632 29.6657C723.781 30.638 724.356 31.9197 724.356 33.5108C724.356 34.3063 724.091 35.2786 723.56 36.4278C723.118 37.4885 722.367 38.6376 721.306 39.8751L715.737 46.7697C715.295 47.2117 714.854 47.6536 714.412 48.0956C714.058 48.4492 713.793 48.7585 713.616 49.0237C715.207 50.7916 717.373 53.2666 720.113 56.4487C722.941 59.6308 726.035 62.9898 729.394 66.5255ZM130.004 131.115C129.902 131.523 129.647 132.016 129.239 132.594C128.865 133.172 128.389 133.767 127.811 134.379C127.233 134.957 126.604 135.484 125.924 135.96C125.278 136.436 124.649 136.776 124.037 136.98C122.269 137.762 120.28 138.153 118.07 138.153C117.356 138.153 116.727 138.136 116.183 138.102C115.673 138.068 115.163 137.966 114.653 137.796C114.143 137.626 113.633 137.354 113.123 136.98C112.613 136.606 112.035 136.062 111.389 135.348C110.675 134.6 110.114 133.869 109.706 133.155C109.298 132.407 108.992 131.693 108.788 131.013C108.584 130.333 108.448 129.687 108.38 129.075C108.312 128.429 108.278 127.851 108.278 127.341C108.278 126.219 108.414 124.893 108.686 123.363C108.958 121.833 109.689 119.963 110.879 117.753C111.321 116.937 111.661 116.291 111.899 115.815C112.137 115.339 112.273 115.016 112.307 114.846L115.469 112.908C116.557 112.262 117.594 111.752 118.58 111.378C119.566 110.97 120.654 110.766 121.844 110.766C122.184 110.766 122.694 110.766 123.374 110.766C124.054 110.766 124.717 110.851 125.363 111.021C126.043 111.157 126.638 111.429 127.148 111.837C127.658 112.211 127.913 112.772 127.913 113.52C127.913 114.778 127.165 115.509 125.669 115.713C125.703 115.713 125.601 115.696 125.363 115.662C125.125 115.628 124.802 115.594 124.394 115.56C123.986 115.526 123.527 115.492 123.017 115.458C122.507 115.424 121.997 115.407 121.487 115.407C120.603 115.407 119.702 115.662 118.784 116.172C117.9 116.648 116.812 117.481 115.52 118.671C114.84 120.099 114.33 121.221 113.99 122.037C113.684 122.819 113.531 123.346 113.531 123.618C113.157 124.298 112.97 125.301 112.97 126.627C112.97 129.075 113.412 130.843 114.296 131.931C115.18 132.985 116.387 133.512 117.917 133.512C118.903 133.512 120.433 133.24 122.507 132.696C123.765 131.948 124.853 130.758 125.771 129.126C126.349 128.548 126.944 128.259 127.556 128.259C128.202 128.259 128.78 128.514 129.29 129.024C129.8 129.534 130.055 130.112 130.055 130.758C130.055 130.826 130.038 130.894 130.004 130.962C130.004 130.996 130.004 131.047 130.004 131.115ZM150.398 119.691C150.466 120.099 150.5 120.507 150.5 120.915C150.5 121.323 150.5 121.714 150.5 122.088C150.5 123.652 150.33 125.063 149.99 126.321C149.854 127.171 149.752 128.055 149.684 128.973C149.616 129.857 149.548 130.792 149.48 131.778C149.48 131.846 149.514 132.22 149.582 132.9C149.684 133.546 149.735 134.515 149.735 135.807C149.735 136.385 149.497 136.827 149.021 137.133C148.579 137.405 148.052 137.541 147.44 137.541C146.692 137.541 146.165 137.388 145.859 137.082C145.553 136.742 145.366 135.96 145.298 134.736C144.72 135.28 144.159 135.705 143.615 136.011C143.071 136.283 142.544 136.487 142.034 136.623C141.558 136.759 141.099 136.844 140.657 136.878C140.249 136.912 139.858 136.929 139.484 136.929C137.546 136.929 136.084 136.351 135.098 135.195C134.112 134.039 133.619 132.441 133.619 130.401C133.619 130.163 133.619 129.925 133.619 129.687C133.619 129.415 133.636 129.109 133.67 128.769C133.636 128.701 133.619 128.548 133.619 128.31C133.619 127.936 133.619 127.562 133.619 127.188C133.653 126.78 133.721 126.287 133.823 125.709C133.925 125.131 134.078 124.417 134.282 123.567C134.52 122.683 134.843 121.561 135.251 120.201C135.693 119.657 136.288 119.385 137.036 119.385C137.614 119.385 138.107 119.538 138.515 119.844C138.957 120.15 139.178 120.626 139.178 121.272C139.178 121.442 139.127 121.782 139.025 122.292C138.923 122.802 138.804 123.363 138.668 123.975C138.532 124.587 138.413 125.199 138.311 125.811C138.209 126.423 138.158 126.899 138.158 127.239V127.494C138.09 127.868 138.039 128.242 138.005 128.616C137.971 128.956 137.954 129.279 137.954 129.585C137.954 130.469 138.073 131.2 138.311 131.778C138.583 132.356 139.144 132.645 139.994 132.645C140.606 132.645 141.184 132.509 141.728 132.237C142.272 131.931 142.765 131.574 143.207 131.166C143.683 130.724 144.091 130.265 144.431 129.789C144.771 129.279 145.026 128.803 145.196 128.361C145.366 127.103 145.672 125.454 146.114 123.414V122.904C146.114 122.326 146.131 121.765 146.165 121.221C146.233 120.677 146.335 120.201 146.471 119.793C146.641 119.351 146.879 119.011 147.185 118.773C147.491 118.501 147.916 118.365 148.46 118.365C149.48 118.365 150.126 118.807 150.398 119.691ZM162.6 113.979C162.668 114.251 162.702 114.506 162.702 114.744C162.702 115.832 162.379 116.75 161.733 117.498C160.713 117.906 159.693 118.11 158.673 118.11C158.027 117.702 157.483 117.243 157.041 116.733C156.633 116.189 156.429 115.662 156.429 115.152C156.429 114.71 156.939 113.622 157.959 111.888C158.401 111.956 158.86 112.007 159.336 112.041C159.846 112.075 160.305 112.16 160.713 112.296C161.155 112.432 161.529 112.636 161.835 112.908C162.175 113.146 162.43 113.503 162.6 113.979ZM160.968 122.496V123.159C160.968 123.329 160.968 123.516 160.968 123.72C160.968 123.924 160.934 124.111 160.866 124.281L160.458 126.576V127.035C160.458 127.239 160.441 127.511 160.407 127.851C160.373 128.191 160.322 128.531 160.254 128.871C160.22 129.211 160.186 129.534 160.152 129.84C160.118 130.146 160.101 130.401 160.101 130.605C160.101 130.775 160.101 130.911 160.101 131.013C160.135 131.115 160.152 131.251 160.152 131.421C160.152 131.727 160.118 132.067 160.05 132.441C159.982 132.781 159.948 133.172 159.948 133.614C159.948 134.022 159.999 134.447 160.101 134.889C159.727 136.419 158.945 137.184 157.755 137.184C156.089 137.184 155.256 135.62 155.256 132.492C155.256 131.438 155.307 130.401 155.409 129.381C155.511 128.327 155.63 127.358 155.766 126.474C155.902 125.59 156.038 124.825 156.174 124.179C156.344 123.499 156.48 122.972 156.582 122.598C157.092 121.85 157.806 121.476 158.724 121.476C159.608 121.476 160.356 121.816 160.968 122.496ZM180.123 132.135C180.021 133.189 179.664 134.158 179.052 135.042C178.474 135.892 177.879 136.759 177.267 137.643C176.893 137.949 176.349 138.204 175.635 138.408C174.955 138.646 174.275 138.833 173.595 138.969C172.915 139.105 172.32 139.207 171.81 139.275C171.334 139.343 171.13 139.377 171.198 139.377C170.858 139.377 170.416 139.309 169.872 139.173C169.362 139.071 168.852 138.952 168.342 138.816C167.866 138.714 167.458 138.595 167.118 138.459C166.812 138.357 166.676 138.306 166.71 138.306C166.404 138.272 166.013 138.17 165.537 138C165.061 137.796 164.602 137.575 164.16 137.337C163.752 137.065 163.395 136.793 163.089 136.521C162.749 136.215 162.579 135.926 162.579 135.654C162.579 135.382 162.647 135.11 162.783 134.838C162.919 134.532 163.106 134.26 163.344 134.022C163.582 133.75 163.82 133.546 164.058 133.41C164.33 133.24 164.602 133.155 164.874 133.155L168.393 134.481C169.039 134.685 169.668 134.838 170.28 134.94C170.926 135.008 171.555 135.042 172.167 135.042C172.745 135.042 173.255 134.94 173.697 134.736C174.173 134.498 174.53 134.226 174.768 133.92L175.533 132.39C175.465 131.778 175.21 131.302 174.768 130.962C174.36 130.622 173.833 130.333 173.187 130.095C172.575 129.857 171.912 129.636 171.198 129.432C170.484 129.228 169.821 128.956 169.209 128.616L167.016 127.239C166.302 126.321 165.928 124.91 165.894 123.006C166.098 121.816 166.608 120.864 167.424 120.15C167.458 120.116 167.679 119.963 168.087 119.691C168.495 119.385 169.124 118.96 169.974 118.416C170.11 118.416 170.535 118.382 171.249 118.314C171.997 118.246 173.017 118.144 174.309 118.008C174.887 118.008 176.298 118.416 178.542 119.232C178.984 119.674 179.205 120.286 179.205 121.068C179.205 121.68 179.052 122.207 178.746 122.649C178.474 123.057 178.066 123.261 177.522 123.261C176.944 123.261 176.298 123.125 175.584 122.853C174.904 122.547 174.258 122.394 173.646 122.394C172.796 122.394 172.014 122.479 171.3 122.649C170.62 122.785 170.28 123.125 170.28 123.669C170.28 124.451 170.62 124.927 171.3 125.097C176.502 126.253 179.443 128.599 180.123 132.135ZM191.269 113.979C191.337 114.251 191.371 114.506 191.371 114.744C191.371 115.832 191.048 116.75 190.402 117.498C189.382 117.906 188.362 118.11 187.342 118.11C186.696 117.702 186.152 117.243 185.71 116.733C185.302 116.189 185.098 115.662 185.098 115.152C185.098 114.71 185.608 113.622 186.628 111.888C187.07 111.956 187.529 112.007 188.005 112.041C188.515 112.075 188.974 112.16 189.382 112.296C189.824 112.432 190.198 112.636 190.504 112.908C190.844 113.146 191.099 113.503 191.269 113.979ZM189.637 122.496V123.159C189.637 123.329 189.637 123.516 189.637 123.72C189.637 123.924 189.603 124.111 189.535 124.281L189.127 126.576V127.035C189.127 127.239 189.11 127.511 189.076 127.851C189.042 128.191 188.991 128.531 188.923 128.871C188.889 129.211 188.855 129.534 188.821 129.84C188.787 130.146 188.77 130.401 188.77 130.605C188.77 130.775 188.77 130.911 188.77 131.013C188.804 131.115 188.821 131.251 188.821 131.421C188.821 131.727 188.787 132.067 188.719 132.441C188.651 132.781 188.617 133.172 188.617 133.614C188.617 134.022 188.668 134.447 188.77 134.889C188.396 136.419 187.614 137.184 186.424 137.184C184.758 137.184 183.925 135.62 183.925 132.492C183.925 131.438 183.976 130.401 184.078 129.381C184.18 128.327 184.299 127.358 184.435 126.474C184.571 125.59 184.707 124.825 184.843 124.179C185.013 123.499 185.149 122.972 185.251 122.598C185.761 121.85 186.475 121.476 187.393 121.476C188.277 121.476 189.025 121.816 189.637 122.496ZM211.853 132.339V132.747C211.853 132.951 211.853 133.325 211.853 133.869C211.887 134.379 211.836 134.906 211.7 135.45C211.598 135.994 211.377 136.487 211.037 136.929C210.697 137.337 210.187 137.541 209.507 137.541C208.181 137.541 207.399 137.014 207.161 135.96C207.195 135.756 207.212 135.535 207.212 135.297C207.212 135.025 207.212 134.736 207.212 134.43C207.212 134.294 207.212 133.801 207.212 132.951C207.212 132.067 207.178 131.115 207.11 130.095C207.076 129.075 206.974 128.123 206.804 127.239C206.634 126.321 206.379 125.743 206.039 125.505C205.257 124.961 204.56 124.689 203.948 124.689C203.132 124.689 202.435 124.944 201.857 125.454C201.313 125.93 200.854 126.882 200.48 128.31C200.446 128.786 200.412 129.33 200.378 129.942C200.344 130.52 200.293 131.183 200.225 131.931C200.225 132.509 200.242 133.155 200.276 133.869C200.31 134.549 200.361 135.331 200.429 136.215C200.429 136.861 200.174 137.405 199.664 137.847C199.154 138.255 198.576 138.459 197.93 138.459C197.42 138.459 197.012 138.323 196.706 138.051C196.4 137.779 196.162 137.422 195.992 136.98C195.856 136.538 195.754 136.062 195.686 135.552C195.652 135.042 195.635 134.532 195.635 134.022C195.635 133.648 195.652 133.274 195.686 132.9C195.72 132.492 195.771 132.084 195.839 131.676L196.247 126.78L196.655 124.332C196.587 123.924 196.451 123.482 196.247 123.006C196.043 122.53 195.941 122.156 195.941 121.884C195.941 121.306 196.162 120.779 196.604 120.303C197.08 119.827 197.658 119.589 198.338 119.589C198.814 119.589 199.171 119.691 199.409 119.895C199.647 120.065 200.038 120.507 200.582 121.221C201.262 120.915 201.806 120.728 202.214 120.66C202.622 120.558 203.098 120.507 203.642 120.507C205.41 120.507 206.957 120.932 208.283 121.782C209.643 122.598 210.493 123.975 210.833 125.913C210.935 126.627 211.02 127.222 211.088 127.698C211.19 128.174 211.275 128.633 211.343 129.075C211.411 129.517 211.479 129.993 211.547 130.503C211.615 130.979 211.717 131.591 211.853 132.339ZM233.509 135.96C232.421 137.048 231.197 137.966 229.837 138.714C228.477 139.496 227.1 139.887 225.706 139.887C224.448 139.887 222.833 139.683 220.861 139.275C220.181 138.833 219.501 138.306 218.821 137.694C218.141 137.048 217.529 136.351 216.985 135.603C216.441 134.821 215.999 133.988 215.659 133.104C215.319 132.186 215.149 131.251 215.149 130.299C215.149 130.027 215.166 129.67 215.2 129.228C215.234 128.752 215.268 128.293 215.302 127.851C215.37 127.375 215.421 126.967 215.455 126.627C215.489 126.287 215.506 126.117 215.506 126.117C216.186 125.029 216.9 123.958 217.648 122.904C218.43 121.816 219.518 120.864 220.912 120.048C223.122 119.572 224.72 119.334 225.706 119.334C226.216 119.334 226.658 119.368 227.032 119.436C227.406 119.47 227.763 119.572 228.103 119.742C228.477 119.878 228.834 120.099 229.174 120.405C229.548 120.711 229.973 121.102 230.449 121.578C230.993 122.156 231.418 122.547 231.724 122.751C232.064 122.955 232.234 123.142 232.234 123.312C232.234 126.44 231.265 128.565 229.327 129.687C228.477 129.993 227.372 130.333 226.012 130.707C224.652 131.047 222.799 131.37 220.453 131.676C220.929 132.968 221.558 133.937 222.34 134.583C223.122 135.229 224.006 135.552 224.992 135.552C226.454 135.552 228.29 134.685 230.5 132.951C230.84 132.645 231.265 132.492 231.775 132.492C232.319 132.492 232.795 132.696 233.203 133.104C233.645 133.512 233.866 134.022 233.866 134.634C233.866 135.076 233.747 135.518 233.509 135.96ZM227.746 125.046C227.1 123.992 226.335 123.465 225.451 123.465C225.077 123.465 224.669 123.516 224.227 123.618C223.785 123.72 223.326 123.873 222.85 124.077C222.408 124.247 221.983 124.468 221.575 124.74C221.201 125.012 220.895 125.335 220.657 125.709L220.147 127.239C221.303 127.137 222.323 127.052 223.207 126.984C224.091 126.916 224.856 126.814 225.502 126.678C226.148 126.542 226.658 126.355 227.032 126.117C227.406 125.879 227.644 125.522 227.746 125.046ZM249.907 120.558C249.975 121.068 250.026 121.476 250.06 121.782C250.128 122.088 250.162 122.309 250.162 122.445C250.162 122.819 250.06 123.227 249.856 123.669C249.686 124.077 249.465 124.485 249.193 124.893C248.921 125.301 248.632 125.692 248.326 126.066C248.02 126.406 247.748 126.695 247.51 126.933C246.932 127.715 246.371 128.378 245.827 128.922C245.283 129.432 244.739 129.806 244.195 130.044C243.991 130.316 243.702 130.622 243.328 130.962C242.988 131.302 242.631 131.625 242.257 131.931C241.917 132.237 241.594 132.509 241.288 132.747C241.016 132.985 240.863 133.138 240.829 133.206C241.611 133.444 242.444 133.614 243.328 133.716C244.212 133.818 245.045 133.903 245.827 133.971C246.643 134.005 247.34 134.022 247.918 134.022C248.53 134.022 248.938 134.022 249.142 134.022C249.244 134.022 249.329 134.022 249.397 134.022C249.465 133.988 249.516 133.971 249.55 133.971C250.706 134.515 251.284 135.314 251.284 136.368C251.284 136.98 251.114 137.524 250.774 138C250.468 138.476 250.009 138.714 249.397 138.714C249.193 138.714 248.904 138.68 248.53 138.612C248.156 138.578 247.765 138.527 247.357 138.459C246.949 138.425 246.558 138.374 246.184 138.306C245.81 138.272 245.521 138.255 245.317 138.255C244.841 138.255 244.263 138.221 243.583 138.153C242.903 138.085 242.24 138.017 241.594 137.949C240.948 137.847 240.387 137.762 239.911 137.694C239.435 137.626 239.146 137.592 239.044 137.592C237.106 136.81 235.814 135.841 235.168 134.685C235.304 133.937 235.899 132.798 236.953 131.268C237.395 130.894 237.854 130.469 238.33 129.993C238.806 129.483 239.333 128.905 239.911 128.259C240.897 127.409 241.781 126.61 242.563 125.862C243.345 125.114 244.008 124.4 244.552 123.72C244.382 123.652 244.178 123.618 243.94 123.618C243.702 123.618 243.43 123.618 243.124 123.618H241.9L239.911 123.822C238.993 123.924 238.449 123.975 238.279 123.975C237.395 123.873 236.953 123.074 236.953 121.578C236.953 121.136 236.953 120.796 236.953 120.558C236.953 120.32 237.106 120.133 237.412 119.997C237.718 119.827 238.228 119.674 238.942 119.538C239.69 119.402 240.795 119.232 242.257 119.028C243.141 119.028 244.229 119.13 245.521 119.334C246.813 119.504 248.275 119.912 249.907 120.558ZM284.298 136.725C283.856 137.031 283.142 137.337 282.156 137.643C281.17 137.915 280.15 138.153 279.096 138.357L277.005 137.949C276.699 137.847 276.189 137.609 275.475 137.235C274.795 136.861 274.098 136.3 273.384 135.552C272.67 134.77 272.041 133.784 271.497 132.594C270.953 131.37 270.681 129.891 270.681 128.157C270.681 127.545 270.817 126.831 271.089 126.015C271.395 125.165 271.837 124.383 272.415 123.669C272.993 122.921 273.707 122.292 274.557 121.782C275.441 121.272 276.461 121.017 277.617 121.017C279.929 121.017 282.02 121.765 283.89 123.261C285.522 125.505 286.338 127.987 286.338 130.707C286.338 132.713 285.658 134.719 284.298 136.725ZM281.799 129.483C281.629 128.157 281.204 127.12 280.524 126.372C279.878 125.59 279.045 125.199 278.025 125.199C277.345 125.199 276.699 125.539 276.087 126.219C275.509 126.865 275.22 127.817 275.22 129.075C275.22 129.585 275.288 130.129 275.424 130.707C275.56 131.251 275.781 131.761 276.087 132.237C276.393 132.679 276.784 133.053 277.26 133.359C277.736 133.631 278.314 133.767 278.994 133.767C280.082 133.767 280.83 133.444 281.238 132.798C281.646 132.118 281.85 131.285 281.85 130.299C281.85 130.163 281.833 130.044 281.799 129.942C281.799 129.806 281.799 129.653 281.799 129.483ZM306.579 119.691C306.647 120.099 306.681 120.507 306.681 120.915C306.681 121.323 306.681 121.714 306.681 122.088C306.681 123.652 306.511 125.063 306.171 126.321C306.035 127.171 305.933 128.055 305.865 128.973C305.797 129.857 305.729 130.792 305.661 131.778C305.661 131.846 305.695 132.22 305.763 132.9C305.865 133.546 305.916 134.515 305.916 135.807C305.916 136.385 305.678 136.827 305.202 137.133C304.76 137.405 304.233 137.541 303.621 137.541C302.873 137.541 302.346 137.388 302.04 137.082C301.734 136.742 301.547 135.96 301.479 134.736C300.901 135.28 300.34 135.705 299.796 136.011C299.252 136.283 298.725 136.487 298.215 136.623C297.739 136.759 297.28 136.844 296.838 136.878C296.43 136.912 296.039 136.929 295.665 136.929C293.727 136.929 292.265 136.351 291.279 135.195C290.293 134.039 289.8 132.441 289.8 130.401C289.8 130.163 289.8 129.925 289.8 129.687C289.8 129.415 289.817 129.109 289.851 128.769C289.817 128.701 289.8 128.548 289.8 128.31C289.8 127.936 289.8 127.562 289.8 127.188C289.834 126.78 289.902 126.287 290.004 125.709C290.106 125.131 290.259 124.417 290.463 123.567C290.701 122.683 291.024 121.561 291.432 120.201C291.874 119.657 292.469 119.385 293.217 119.385C293.795 119.385 294.288 119.538 294.696 119.844C295.138 120.15 295.359 120.626 295.359 121.272C295.359 121.442 295.308 121.782 295.206 122.292C295.104 122.802 294.985 123.363 294.849 123.975C294.713 124.587 294.594 125.199 294.492 125.811C294.39 126.423 294.339 126.899 294.339 127.239V127.494C294.271 127.868 294.22 128.242 294.186 128.616C294.152 128.956 294.135 129.279 294.135 129.585C294.135 130.469 294.254 131.2 294.492 131.778C294.764 132.356 295.325 132.645 296.175 132.645C296.787 132.645 297.365 132.509 297.909 132.237C298.453 131.931 298.946 131.574 299.388 131.166C299.864 130.724 300.272 130.265 300.612 129.789C300.952 129.279 301.207 128.803 301.377 128.361C301.547 127.103 301.853 125.454 302.295 123.414V122.904C302.295 122.326 302.312 121.765 302.346 121.221C302.414 120.677 302.516 120.201 302.652 119.793C302.822 119.351 303.06 119.011 303.366 118.773C303.672 118.501 304.097 118.365 304.641 118.365C305.661 118.365 306.307 118.807 306.579 119.691ZM344.532 123.312C345.348 124.91 345.756 126.372 345.756 127.698C345.756 128.684 345.535 129.687 345.093 130.707L344.022 133.155L342.441 134.838C341.353 136.028 340.282 136.81 339.228 137.184C338.174 137.524 337.324 137.694 336.678 137.694C335.862 137.694 335.029 137.439 334.179 136.929C333.737 137.303 333.244 137.49 332.7 137.49C332.088 137.49 331.357 137.252 330.507 136.776C330.541 136.436 330.558 136.062 330.558 135.654C330.558 135.246 330.558 134.804 330.558 134.328C330.558 134.056 330.541 133.801 330.507 133.563C330.473 133.325 330.439 133.019 330.405 132.645C330.371 132.237 330.337 131.71 330.303 131.064C330.269 130.418 330.235 129.568 330.201 128.514C330.167 127.426 330.099 126.576 329.997 125.964C329.895 125.318 329.793 124.91 329.691 124.74C329.521 123.584 329.368 122.411 329.232 121.221C329.096 120.031 328.96 118.926 328.824 117.906C328.688 116.852 328.552 115.917 328.416 115.101C328.28 114.285 328.144 113.673 328.008 113.265C328.008 112.483 328.195 111.82 328.569 111.276C328.943 110.732 329.453 110.46 330.099 110.46C330.439 110.46 330.762 110.511 331.068 110.613C331.374 110.715 331.646 110.919 331.884 111.225C332.156 111.531 332.394 111.956 332.598 112.5C332.802 113.044 332.955 113.758 333.057 114.642C333.159 115.492 333.227 116.087 333.261 116.427C333.329 116.767 333.38 117.107 333.414 117.447C333.482 117.787 333.55 118.263 333.618 118.875C333.686 119.487 333.805 120.49 333.975 121.884C334.587 121.544 335.114 121.272 335.556 121.068C336.032 120.83 336.474 120.643 336.882 120.507C337.29 120.371 337.698 120.286 338.106 120.252C338.548 120.218 339.058 120.201 339.636 120.201C340.282 120.201 340.86 120.303 341.37 120.507C341.914 120.711 342.373 120.966 342.747 121.272C343.155 121.578 343.495 121.918 343.767 122.292C344.073 122.632 344.328 122.972 344.532 123.312ZM340.962 129.33C341.132 128.378 341.217 127.749 341.217 127.443C341.217 127.273 341.166 127.035 341.064 126.729C340.962 126.389 340.809 126.066 340.605 125.76C340.435 125.454 340.214 125.182 339.942 124.944C339.67 124.706 339.347 124.587 338.973 124.587C338.395 124.587 337.732 124.808 336.984 125.25C336.236 125.692 335.488 126.134 334.74 126.576L335.046 131.982C335.284 132.832 335.726 133.257 336.372 133.257C336.712 133.257 337.12 133.155 337.596 132.951C338.072 132.747 338.531 132.475 338.973 132.135C339.449 131.761 339.874 131.336 340.248 130.86C340.622 130.384 340.86 129.874 340.962 129.33ZM365.845 119.691C365.913 120.099 365.947 120.507 365.947 120.915C365.947 121.323 365.947 121.714 365.947 122.088C365.947 123.652 365.777 125.063 365.437 126.321C365.301 127.171 365.199 128.055 365.131 128.973C365.063 129.857 364.995 130.792 364.927 131.778C364.927 131.846 364.961 132.22 365.029 132.9C365.131 133.546 365.182 134.515 365.182 135.807C365.182 136.385 364.944 136.827 364.468 137.133C364.026 137.405 363.499 137.541 362.887 137.541C362.139 137.541 361.612 137.388 361.306 137.082C361 136.742 360.813 135.96 360.745 134.736C360.167 135.28 359.606 135.705 359.062 136.011C358.518 136.283 357.991 136.487 357.481 136.623C357.005 136.759 356.546 136.844 356.104 136.878C355.696 136.912 355.305 136.929 354.931 136.929C352.993 136.929 351.531 136.351 350.545 135.195C349.559 134.039 349.066 132.441 349.066 130.401C349.066 130.163 349.066 129.925 349.066 129.687C349.066 129.415 349.083 129.109 349.117 128.769C349.083 128.701 349.066 128.548 349.066 128.31C349.066 127.936 349.066 127.562 349.066 127.188C349.1 126.78 349.168 126.287 349.27 125.709C349.372 125.131 349.525 124.417 349.729 123.567C349.967 122.683 350.29 121.561 350.698 120.201C351.14 119.657 351.735 119.385 352.483 119.385C353.061 119.385 353.554 119.538 353.962 119.844C354.404 120.15 354.625 120.626 354.625 121.272C354.625 121.442 354.574 121.782 354.472 122.292C354.37 122.802 354.251 123.363 354.115 123.975C353.979 124.587 353.86 125.199 353.758 125.811C353.656 126.423 353.605 126.899 353.605 127.239V127.494C353.537 127.868 353.486 128.242 353.452 128.616C353.418 128.956 353.401 129.279 353.401 129.585C353.401 130.469 353.52 131.2 353.758 131.778C354.03 132.356 354.591 132.645 355.441 132.645C356.053 132.645 356.631 132.509 357.175 132.237C357.719 131.931 358.212 131.574 358.654 131.166C359.13 130.724 359.538 130.265 359.878 129.789C360.218 129.279 360.473 128.803 360.643 128.361C360.813 127.103 361.119 125.454 361.561 123.414V122.904C361.561 122.326 361.578 121.765 361.612 121.221C361.68 120.677 361.782 120.201 361.918 119.793C362.088 119.351 362.326 119.011 362.632 118.773C362.938 118.501 363.363 118.365 363.907 118.365C364.927 118.365 365.573 118.807 365.845 119.691ZM387.38 120.813C387.278 121.561 386.547 123.176 385.187 125.658L383.657 129.075C383.351 129.857 383.079 130.52 382.841 131.064C382.603 131.608 382.382 132.084 382.178 132.492C382.008 132.866 381.821 133.206 381.617 133.512C381.447 133.784 381.26 134.056 381.056 134.328C380.886 134.736 380.648 135.161 380.342 135.603C380.036 136.011 379.679 136.402 379.271 136.776C378.863 137.15 378.421 137.456 377.945 137.694C377.469 137.932 376.976 138.051 376.466 138.051C375.038 138.051 374.018 137.15 373.406 135.348C373.032 134.94 372.675 134.413 372.335 133.767C371.995 133.121 371.689 132.492 371.417 131.88C371.179 131.268 370.975 130.741 370.805 130.299C370.635 129.823 370.533 129.551 370.499 129.483C370.091 128.633 369.887 127.63 369.887 126.474V126.066C369.241 124.434 368.918 122.938 368.918 121.578C368.918 120.932 369.173 120.456 369.683 120.15C370.227 119.844 370.839 119.691 371.519 119.691C371.927 119.691 372.25 119.793 372.488 119.997C372.76 120.167 372.964 120.439 373.1 120.813C373.27 121.153 373.406 121.578 373.508 122.088C373.61 122.598 373.729 123.176 373.865 123.822C374.103 124.944 374.307 125.879 374.477 126.627C374.681 127.375 374.885 128.038 375.089 128.616C375.327 129.194 375.599 129.772 375.905 130.35C376.211 130.894 376.602 131.54 377.078 132.288C377.928 131.336 378.506 130.214 378.812 128.922C379.05 128.48 379.237 128.055 379.373 127.647C379.543 127.205 379.764 126.644 380.036 125.964C380.308 125.284 380.699 124.417 381.209 123.363C381.719 122.275 382.467 120.881 383.453 119.181C383.827 118.705 384.286 118.467 384.83 118.467C385.442 118.467 386.02 118.705 386.564 119.181C387.108 119.657 387.38 120.15 387.38 120.66V120.813ZM407.022 135.96C405.934 137.048 404.71 137.966 403.35 138.714C401.99 139.496 400.613 139.887 399.219 139.887C397.961 139.887 396.346 139.683 394.374 139.275C393.694 138.833 393.014 138.306 392.334 137.694C391.654 137.048 391.042 136.351 390.498 135.603C389.954 134.821 389.512 133.988 389.172 133.104C388.832 132.186 388.662 131.251 388.662 130.299C388.662 130.027 388.679 129.67 388.713 129.228C388.747 128.752 388.781 128.293 388.815 127.851C388.883 127.375 388.934 126.967 388.968 126.627C389.002 126.287 389.019 126.117 389.019 126.117C389.699 125.029 390.413 123.958 391.161 122.904C391.943 121.816 393.031 120.864 394.425 120.048C396.635 119.572 398.233 119.334 399.219 119.334C399.729 119.334 400.171 119.368 400.545 119.436C400.919 119.47 401.276 119.572 401.616 119.742C401.99 119.878 402.347 120.099 402.687 120.405C403.061 120.711 403.486 121.102 403.962 121.578C404.506 122.156 404.931 122.547 405.237 122.751C405.577 122.955 405.747 123.142 405.747 123.312C405.747 126.44 404.778 128.565 402.84 129.687C401.99 129.993 400.885 130.333 399.525 130.707C398.165 131.047 396.312 131.37 393.966 131.676C394.442 132.968 395.071 133.937 395.853 134.583C396.635 135.229 397.519 135.552 398.505 135.552C399.967 135.552 401.803 134.685 404.013 132.951C404.353 132.645 404.778 132.492 405.288 132.492C405.832 132.492 406.308 132.696 406.716 133.104C407.158 133.512 407.379 134.022 407.379 134.634C407.379 135.076 407.26 135.518 407.022 135.96ZM401.259 125.046C400.613 123.992 399.848 123.465 398.964 123.465C398.59 123.465 398.182 123.516 397.74 123.618C397.298 123.72 396.839 123.873 396.363 124.077C395.921 124.247 395.496 124.468 395.088 124.74C394.714 125.012 394.408 125.335 394.17 125.709L393.66 127.239C394.816 127.137 395.836 127.052 396.72 126.984C397.604 126.916 398.369 126.814 399.015 126.678C399.661 126.542 400.171 126.355 400.545 126.117C400.919 125.879 401.157 125.522 401.259 125.046ZM423.421 120.558C423.489 121.068 423.54 121.476 423.574 121.782C423.642 122.088 423.676 122.309 423.676 122.445C423.676 122.819 423.574 123.227 423.37 123.669C423.2 124.077 422.979 124.485 422.707 124.893C422.435 125.301 422.146 125.692 421.84 126.066C421.534 126.406 421.262 126.695 421.024 126.933C420.446 127.715 419.885 128.378 419.341 128.922C418.797 129.432 418.253 129.806 417.709 130.044C417.505 130.316 417.216 130.622 416.842 130.962C416.502 131.302 416.145 131.625 415.771 131.931C415.431 132.237 415.108 132.509 414.802 132.747C414.53 132.985 414.377 133.138 414.343 133.206C415.125 133.444 415.958 133.614 416.842 133.716C417.726 133.818 418.559 133.903 419.341 133.971C420.157 134.005 420.854 134.022 421.432 134.022C422.044 134.022 422.452 134.022 422.656 134.022C422.758 134.022 422.843 134.022 422.911 134.022C422.979 133.988 423.03 133.971 423.064 133.971C424.22 134.515 424.798 135.314 424.798 136.368C424.798 136.98 424.628 137.524 424.288 138C423.982 138.476 423.523 138.714 422.911 138.714C422.707 138.714 422.418 138.68 422.044 138.612C421.67 138.578 421.279 138.527 420.871 138.459C420.463 138.425 420.072 138.374 419.698 138.306C419.324 138.272 419.035 138.255 418.831 138.255C418.355 138.255 417.777 138.221 417.097 138.153C416.417 138.085 415.754 138.017 415.108 137.949C414.462 137.847 413.901 137.762 413.425 137.694C412.949 137.626 412.66 137.592 412.558 137.592C410.62 136.81 409.328 135.841 408.682 134.685C408.818 133.937 409.413 132.798 410.467 131.268C410.909 130.894 411.368 130.469 411.844 129.993C412.32 129.483 412.847 128.905 413.425 128.259C414.411 127.409 415.295 126.61 416.077 125.862C416.859 125.114 417.522 124.4 418.066 123.72C417.896 123.652 417.692 123.618 417.454 123.618C417.216 123.618 416.944 123.618 416.638 123.618H415.414L413.425 123.822C412.507 123.924 411.963 123.975 411.793 123.975C410.909 123.873 410.467 123.074 410.467 121.578C410.467 121.136 410.467 120.796 410.467 120.558C410.467 120.32 410.62 120.133 410.926 119.997C411.232 119.827 411.742 119.674 412.456 119.538C413.204 119.402 414.309 119.232 415.771 119.028C416.655 119.028 417.743 119.13 419.035 119.334C420.327 119.504 421.789 119.912 423.421 120.558ZM452.661 111.174C452.593 112.024 452.389 112.993 452.049 114.081C451.743 115.135 451.522 116.002 451.386 116.682V117.294C451.386 117.77 451.352 118.28 451.284 118.824C451.216 119.368 451.148 119.895 451.08 120.405C451.012 120.881 450.927 121.306 450.825 121.68C450.757 122.054 450.723 122.309 450.723 122.445C450.689 122.615 450.672 123.023 450.672 123.669C450.672 124.315 450.672 125.182 450.672 126.27V126.882C450.672 127.562 450.638 128.157 450.57 128.667C450.502 129.177 450.417 129.636 450.315 130.044L450.774 133.869C450.91 134.243 451.369 134.804 452.151 135.552C451.981 136.164 451.539 136.725 450.825 137.235C450.111 137.711 449.38 137.949 448.632 137.949C447.612 137.949 446.83 137.473 446.286 136.521C445.776 135.535 445.521 133.903 445.521 131.625C445.521 131.251 445.538 130.928 445.572 130.656C445.64 130.384 445.674 130.044 445.674 129.636C445.674 128.82 445.572 127.8 445.368 126.576C445.538 126.202 445.657 125.726 445.725 125.148C445.827 124.57 445.895 124.026 445.929 123.516C445.963 122.972 445.98 122.513 445.98 122.139C445.98 121.765 445.98 121.612 445.98 121.68C445.98 121.714 446.014 121.476 446.082 120.966C446.184 120.456 446.286 119.861 446.388 119.181C446.49 118.467 446.575 117.736 446.643 116.988C446.745 116.24 446.796 115.645 446.796 115.203V114.795L447.663 110.511C448.105 109.763 448.87 109.389 449.958 109.389C451.148 109.389 452.049 109.984 452.661 111.174ZM474.885 131.982C475.497 132.39 475.803 132.883 475.803 133.461C475.803 133.767 475.718 134.09 475.548 134.43C475.378 134.736 475.157 135.025 474.885 135.297C474.613 135.535 474.324 135.739 474.018 135.909C473.712 136.079 473.406 136.164 473.1 136.164C472.828 136.062 472.505 135.892 472.131 135.654C471.757 135.382 471.383 135.093 471.009 134.787C470.635 134.447 470.278 134.073 469.938 133.665C469.632 133.257 469.394 132.849 469.224 132.441L468.867 133.308C468.221 134.532 467.201 135.688 465.807 136.776C464.107 137.082 463.121 137.235 462.849 137.235C462.203 137.235 461.421 137.133 460.503 136.929L457.698 134.94C456.474 133.784 455.862 132.203 455.862 130.197C455.862 129.483 455.964 128.701 456.168 127.851C456.406 126.967 456.729 126.083 457.137 125.199C457.579 124.315 458.106 123.448 458.718 122.598C459.33 121.748 460.044 120.983 460.86 120.303C461.846 119.929 462.798 119.623 463.716 119.385C464.634 119.113 465.331 118.943 465.807 118.875C466.453 118.161 467.218 117.804 468.102 117.804C468.612 117.804 469.054 118.059 469.428 118.569C469.836 119.045 470.176 119.657 470.448 120.405C470.754 121.153 470.992 121.986 471.162 122.904C471.332 123.788 471.451 124.638 471.519 125.454L472.182 128.157C472.386 129.007 472.709 129.738 473.151 130.35C473.627 130.962 474.205 131.506 474.885 131.982ZM467.133 126.321C467.065 126.287 466.81 125.216 466.368 123.108C466.198 123.108 465.943 123.108 465.603 123.108C465.263 123.108 464.855 123.21 464.379 123.414C463.937 123.584 463.444 123.907 462.9 124.383C462.39 124.825 461.897 125.505 461.421 126.423C460.707 127.749 460.35 129.075 460.35 130.401C460.928 131.523 461.829 132.407 463.053 133.053C463.427 132.951 463.733 132.832 463.971 132.696C464.243 132.56 464.481 132.373 464.685 132.135C464.889 131.897 465.076 131.608 465.246 131.268C465.45 130.894 465.671 130.435 465.909 129.891C466.351 129.109 466.657 128.429 466.827 127.851C467.031 127.239 467.133 126.729 467.133 126.321ZM507.206 118.773C507.58 119.079 507.767 119.64 507.767 120.456C507.767 121.952 507.206 122.7 506.084 122.7H505.88C505.37 122.734 504.775 122.785 504.095 122.853C503.415 122.887 502.65 122.955 501.8 123.057C501.732 123.601 501.664 124.332 501.596 125.25C501.528 126.134 501.494 127.205 501.494 128.463C501.494 128.565 501.494 128.667 501.494 128.769C501.528 128.871 501.545 128.99 501.545 129.126V131.472C501.545 132.016 501.63 132.458 501.8 132.798C502.004 133.104 502.242 133.325 502.514 133.461L503.942 133.92C505.064 134.294 505.625 134.974 505.625 135.96C505.625 136.538 505.387 137.048 504.911 137.49C504.469 137.932 503.891 138.153 503.177 138.153C502.973 138.153 502.616 138.102 502.106 138C501.63 137.864 501.12 137.694 500.576 137.49C500.066 137.286 499.573 137.031 499.097 136.725C498.655 136.419 498.349 136.079 498.179 135.705C497.805 134.923 497.499 134.107 497.261 133.257C497.023 132.373 496.904 131.455 496.904 130.503C496.904 129.449 496.921 128.701 496.955 128.259C496.989 127.817 497.023 127.426 497.057 127.086C497.091 126.746 497.125 126.338 497.159 125.862C497.193 125.386 497.21 124.604 497.21 123.516C496.564 123.584 495.612 123.788 494.354 124.128C493.606 124.128 492.96 123.941 492.416 123.567C491.906 123.159 491.651 122.632 491.651 121.986C491.651 121.51 491.787 121.068 492.059 120.66C492.365 120.252 492.977 119.895 493.895 119.589C494.201 119.487 494.473 119.419 494.711 119.385C494.983 119.351 495.238 119.317 495.476 119.283C495.748 119.249 496.037 119.232 496.343 119.232C496.649 119.198 497.023 119.147 497.465 119.079C497.499 118.229 497.55 117.277 497.618 116.223C497.72 115.135 497.873 114.132 498.077 113.214C498.315 112.296 498.638 111.531 499.046 110.919C499.488 110.273 500.066 109.95 500.78 109.95C502.004 109.95 502.752 110.511 503.024 111.633C503.024 111.667 502.973 111.905 502.871 112.347C502.803 112.755 502.718 113.214 502.616 113.724C502.514 114.234 502.412 114.727 502.31 115.203C502.242 115.679 502.208 115.985 502.208 116.121L502.055 118.62C502.293 118.586 502.514 118.569 502.718 118.569C502.922 118.535 503.143 118.518 503.381 118.518H503.84C504.078 118.518 504.299 118.518 504.503 118.518C504.707 118.484 504.894 118.467 505.064 118.467C506.084 118.467 506.798 118.569 507.206 118.773ZM527.028 131.982C527.64 132.39 527.946 132.883 527.946 133.461C527.946 133.767 527.861 134.09 527.691 134.43C527.521 134.736 527.3 135.025 527.028 135.297C526.756 135.535 526.467 135.739 526.161 135.909C525.855 136.079 525.549 136.164 525.243 136.164C524.971 136.062 524.648 135.892 524.274 135.654C523.9 135.382 523.526 135.093 523.152 134.787C522.778 134.447 522.421 134.073 522.081 133.665C521.775 133.257 521.537 132.849 521.367 132.441L521.01 133.308C520.364 134.532 519.344 135.688 517.95 136.776C516.25 137.082 515.264 137.235 514.992 137.235C514.346 137.235 513.564 137.133 512.646 136.929L509.841 134.94C508.617 133.784 508.005 132.203 508.005 130.197C508.005 129.483 508.107 128.701 508.311 127.851C508.549 126.967 508.872 126.083 509.28 125.199C509.722 124.315 510.249 123.448 510.861 122.598C511.473 121.748 512.187 120.983 513.003 120.303C513.989 119.929 514.941 119.623 515.859 119.385C516.777 119.113 517.474 118.943 517.95 118.875C518.596 118.161 519.361 117.804 520.245 117.804C520.755 117.804 521.197 118.059 521.571 118.569C521.979 119.045 522.319 119.657 522.591 120.405C522.897 121.153 523.135 121.986 523.305 122.904C523.475 123.788 523.594 124.638 523.662 125.454L524.325 128.157C524.529 129.007 524.852 129.738 525.294 130.35C525.77 130.962 526.348 131.506 527.028 131.982ZM519.276 126.321C519.208 126.287 518.953 125.216 518.511 123.108C518.341 123.108 518.086 123.108 517.746 123.108C517.406 123.108 516.998 123.21 516.522 123.414C516.08 123.584 515.587 123.907 515.043 124.383C514.533 124.825 514.04 125.505 513.564 126.423C512.85 127.749 512.493 129.075 512.493 130.401C513.071 131.523 513.972 132.407 515.196 133.053C515.57 132.951 515.876 132.832 516.114 132.696C516.386 132.56 516.624 132.373 516.828 132.135C517.032 131.897 517.219 131.608 517.389 131.268C517.593 130.894 517.814 130.435 518.052 129.891C518.494 129.109 518.8 128.429 518.97 127.851C519.174 127.239 519.276 126.729 519.276 126.321ZM542.472 132.135C542.37 133.189 542.013 134.158 541.401 135.042C540.823 135.892 540.228 136.759 539.616 137.643C539.242 137.949 538.698 138.204 537.984 138.408C537.304 138.646 536.624 138.833 535.944 138.969C535.264 139.105 534.669 139.207 534.159 139.275C533.683 139.343 533.479 139.377 533.547 139.377C533.207 139.377 532.765 139.309 532.221 139.173C531.711 139.071 531.201 138.952 530.691 138.816C530.215 138.714 529.807 138.595 529.467 138.459C529.161 138.357 529.025 138.306 529.059 138.306C528.753 138.272 528.362 138.17 527.886 138C527.41 137.796 526.951 137.575 526.509 137.337C526.101 137.065 525.744 136.793 525.438 136.521C525.098 136.215 524.928 135.926 524.928 135.654C524.928 135.382 524.996 135.11 525.132 134.838C525.268 134.532 525.455 134.26 525.693 134.022C525.931 133.75 526.169 133.546 526.407 133.41C526.679 133.24 526.951 133.155 527.223 133.155L530.742 134.481C531.388 134.685 532.017 134.838 532.629 134.94C533.275 135.008 533.904 135.042 534.516 135.042C535.094 135.042 535.604 134.94 536.046 134.736C536.522 134.498 536.879 134.226 537.117 133.92L537.882 132.39C537.814 131.778 537.559 131.302 537.117 130.962C536.709 130.622 536.182 130.333 535.536 130.095C534.924 129.857 534.261 129.636 533.547 129.432C532.833 129.228 532.17 128.956 531.558 128.616L529.365 127.239C528.651 126.321 528.277 124.91 528.243 123.006C528.447 121.816 528.957 120.864 529.773 120.15C529.807 120.116 530.028 119.963 530.436 119.691C530.844 119.385 531.473 118.96 532.323 118.416C532.459 118.416 532.884 118.382 533.598 118.314C534.346 118.246 535.366 118.144 536.658 118.008C537.236 118.008 538.647 118.416 540.891 119.232C541.333 119.674 541.554 120.286 541.554 121.068C541.554 121.68 541.401 122.207 541.095 122.649C540.823 123.057 540.415 123.261 539.871 123.261C539.293 123.261 538.647 123.125 537.933 122.853C537.253 122.547 536.607 122.394 535.995 122.394C535.145 122.394 534.363 122.479 533.649 122.649C532.969 122.785 532.629 123.125 532.629 123.669C532.629 124.451 532.969 124.927 533.649 125.097C538.851 126.253 541.792 128.599 542.472 132.135ZM558.973 132.135C558.871 133.189 558.514 134.158 557.902 135.042C557.324 135.892 556.729 136.759 556.117 137.643C555.743 137.949 555.199 138.204 554.485 138.408C553.805 138.646 553.125 138.833 552.445 138.969C551.765 139.105 551.17 139.207 550.66 139.275C550.184 139.343 549.98 139.377 550.048 139.377C549.708 139.377 549.266 139.309 548.722 139.173C548.212 139.071 547.702 138.952 547.192 138.816C546.716 138.714 546.308 138.595 545.968 138.459C545.662 138.357 545.526 138.306 545.56 138.306C545.254 138.272 544.863 138.17 544.387 138C543.911 137.796 543.452 137.575 543.01 137.337C542.602 137.065 542.245 136.793 541.939 136.521C541.599 136.215 541.429 135.926 541.429 135.654C541.429 135.382 541.497 135.11 541.633 134.838C541.769 134.532 541.956 134.26 542.194 134.022C542.432 133.75 542.67 133.546 542.908 133.41C543.18 133.24 543.452 133.155 543.724 133.155L547.243 134.481C547.889 134.685 548.518 134.838 549.13 134.94C549.776 135.008 550.405 135.042 551.017 135.042C551.595 135.042 552.105 134.94 552.547 134.736C553.023 134.498 553.38 134.226 553.618 133.92L554.383 132.39C554.315 131.778 554.06 131.302 553.618 130.962C553.21 130.622 552.683 130.333 552.037 130.095C551.425 129.857 550.762 129.636 550.048 129.432C549.334 129.228 548.671 128.956 548.059 128.616L545.866 127.239C545.152 126.321 544.778 124.91 544.744 123.006C544.948 121.816 545.458 120.864 546.274 120.15C546.308 120.116 546.529 119.963 546.937 119.691C547.345 119.385 547.974 118.96 548.824 118.416C548.96 118.416 549.385 118.382 550.099 118.314C550.847 118.246 551.867 118.144 553.159 118.008C553.737 118.008 555.148 118.416 557.392 119.232C557.834 119.674 558.055 120.286 558.055 121.068C558.055 121.68 557.902 122.207 557.596 122.649C557.324 123.057 556.916 123.261 556.372 123.261C555.794 123.261 555.148 123.125 554.434 122.853C553.754 122.547 553.108 122.394 552.496 122.394C551.646 122.394 550.864 122.479 550.15 122.649C549.47 122.785 549.13 123.125 549.13 123.669C549.13 124.451 549.47 124.927 550.15 125.097C555.352 126.253 558.293 128.599 558.973 132.135ZM579.606 135.96C578.518 137.048 577.294 137.966 575.934 138.714C574.574 139.496 573.197 139.887 571.803 139.887C570.545 139.887 568.93 139.683 566.958 139.275C566.278 138.833 565.598 138.306 564.918 137.694C564.238 137.048 563.626 136.351 563.082 135.603C562.538 134.821 562.096 133.988 561.756 133.104C561.416 132.186 561.246 131.251 561.246 130.299C561.246 130.027 561.263 129.67 561.297 129.228C561.331 128.752 561.365 128.293 561.399 127.851C561.467 127.375 561.518 126.967 561.552 126.627C561.586 126.287 561.603 126.117 561.603 126.117C562.283 125.029 562.997 123.958 563.745 122.904C564.527 121.816 565.615 120.864 567.009 120.048C569.219 119.572 570.817 119.334 571.803 119.334C572.313 119.334 572.755 119.368 573.129 119.436C573.503 119.47 573.86 119.572 574.2 119.742C574.574 119.878 574.931 120.099 575.271 120.405C575.645 120.711 576.07 121.102 576.546 121.578C577.09 122.156 577.515 122.547 577.821 122.751C578.161 122.955 578.331 123.142 578.331 123.312C578.331 126.44 577.362 128.565 575.424 129.687C574.574 129.993 573.469 130.333 572.109 130.707C570.749 131.047 568.896 131.37 566.55 131.676C567.026 132.968 567.655 133.937 568.437 134.583C569.219 135.229 570.103 135.552 571.089 135.552C572.551 135.552 574.387 134.685 576.597 132.951C576.937 132.645 577.362 132.492 577.872 132.492C578.416 132.492 578.892 132.696 579.3 133.104C579.742 133.512 579.963 134.022 579.963 134.634C579.963 135.076 579.844 135.518 579.606 135.96ZM573.843 125.046C573.197 123.992 572.432 123.465 571.548 123.465C571.174 123.465 570.766 123.516 570.324 123.618C569.882 123.72 569.423 123.873 568.947 124.077C568.505 124.247 568.08 124.468 567.672 124.74C567.298 125.012 566.992 125.335 566.754 125.709L566.244 127.239C567.4 127.137 568.42 127.052 569.304 126.984C570.188 126.916 570.953 126.814 571.599 126.678C572.245 126.542 572.755 126.355 573.129 126.117C573.503 125.879 573.741 125.522 573.843 125.046ZM612.269 110.817C612.303 110.987 612.32 111.157 612.32 111.327C612.354 111.463 612.371 111.599 612.371 111.735C612.371 111.939 612.32 112.211 612.218 112.551C612.15 112.891 612.065 113.265 611.963 113.673C611.861 114.081 611.759 114.489 611.657 114.897C611.555 115.305 611.487 115.662 611.453 115.968C611.181 116.206 611.011 116.75 610.943 117.6C610.943 117.872 610.96 118.161 610.994 118.467C611.028 118.739 611.045 119.011 611.045 119.283C611.045 119.963 610.926 120.677 610.688 121.425C610.484 122.139 610.382 122.887 610.382 123.669C610.382 123.805 610.382 123.941 610.382 124.077C610.382 124.213 610.399 124.349 610.433 124.485C610.331 125.641 610.161 126.644 609.923 127.494C609.685 128.344 609.158 128.769 608.342 128.769C607.594 128.769 606.948 128.565 606.404 128.157C605.826 126.797 605.537 125.624 605.537 124.638C605.537 124.57 605.537 124.502 605.537 124.434C605.571 124.332 605.588 124.247 605.588 124.179C605.554 123.737 605.52 123.329 605.486 122.955C605.486 122.581 605.486 122.241 605.486 121.935C605.486 121.017 605.537 120.354 605.639 119.946C605.605 119.776 605.588 119.623 605.588 119.487C605.588 119.351 605.588 119.198 605.588 119.028C605.588 118.79 605.605 118.433 605.639 117.957C605.707 117.481 605.775 116.988 605.843 116.478C605.945 115.934 606.013 115.424 606.047 114.948C606.115 114.472 606.149 114.098 606.149 113.826L606.761 111.888C606.897 111.378 607.033 110.97 607.169 110.664C607.339 110.358 607.526 110.137 607.73 110.001C607.968 109.831 608.223 109.729 608.495 109.695C608.801 109.661 609.175 109.644 609.617 109.644C610.977 109.644 611.861 110.035 612.269 110.817ZM611.249 135.96C611.249 136.266 611.147 136.572 610.943 136.878C610.773 137.184 610.535 137.456 610.229 137.694C609.957 137.898 609.634 138.068 609.26 138.204C608.92 138.374 608.597 138.459 608.291 138.459C607.475 138.459 606.812 138.34 606.302 138.102C605.792 137.898 605.401 137.626 605.129 137.286C604.891 136.946 604.721 136.589 604.619 136.215C604.551 135.807 604.517 135.433 604.517 135.093C604.517 134.685 604.585 134.277 604.721 133.869C604.891 133.427 605.112 133.036 605.384 132.696C605.656 132.356 605.979 132.084 606.353 131.88C606.727 131.642 607.152 131.523 607.628 131.523C607.934 131.523 608.291 131.557 608.699 131.625C609.141 131.693 609.549 131.88 609.923 132.186C610.297 132.492 610.603 132.951 610.841 133.563C611.113 134.141 611.249 134.94 611.249 135.96Z" fill="white"/>
</svg>
