<svg width="604" height="251" viewBox="0 0 604 251" fill="none" xmlns="http://www.w3.org/2000/svg">
<g opacity="0.56" filter="url(#filter0_d_184_312)">
<path d="M545.64 244.534C545.64 244.532 545.638 244.53 545.636 244.53L458.5 243.11L229.85 240.77L56.0573 243.082C54.679 243.101 53.3048 242.929 51.9734 242.572L39.6898 239.279C37.8209 238.778 36.0666 237.92 34.5236 236.752L22.7506 227.844C20.1481 225.875 18.2617 223.126 17.396 219.979C14.3138 208.777 7 181.427 7 174.15L10.8138 58.6036C10.8773 56.6791 11.3108 54.7848 12.0906 53.0242L24.7274 24.4914C26.7538 19.9159 30.9284 16.6523 35.8577 15.79L52.4757 12.883C53.476 12.708 54.4914 12.635 55.5065 12.6652L143.06 15.2698L277.2 10.8298L469.81 8L553.65 12.63L571.109 14.4844C576.084 15.0129 580.468 17.987 582.799 22.4143L591.291 38.5491C591.742 39.4077 592.11 40.3081 592.388 41.2376L596.047 53.4714C596.486 54.9418 596.698 56.4709 596.674 58.0054L594.88 171.9L592.462 210.67C592.272 213.717 591.156 216.634 589.265 219.03L577.445 234.003C575.307 236.711 572.301 238.6 568.934 239.35L545.645 244.539C545.643 244.539 545.64 244.537 545.64 244.534Z" fill="url(#paint0_radial_184_312)"/>
</g>
<path d="M567.574 71.0311C567.574 49.7873 550.353 32.5658 529.109 32.5658H438.577H256.094H165.563H75.0311C53.7873 32.5658 36.5658 49.7873 36.5658 71.0311V181.895C36.5658 203.139 53.7873 220.36 75.0311 220.36H165.563H256.094H438.577H529.109C550.353 220.36 567.574 203.139 567.574 181.895V71.0311Z" fill="#FBE2CD" stroke="#6C5B52" stroke-width="2.8684"/>
<path d="M224.745 131.459C224.683 133.294 224.622 134.763 224.561 135.865C224.5 136.905 224.408 137.792 224.286 138.526C224.224 139.2 224.071 139.811 223.827 140.362C223.643 140.913 223.368 141.586 223.001 142.382C221.716 145.319 219.727 147.583 217.034 149.174C214.342 150.765 210.915 151.56 206.754 151.56C205.285 151.56 204.123 151.56 203.266 151.56C202.409 151.56 201.461 151.407 200.421 151.101C199.441 150.796 198.187 150.275 196.657 149.541C195.127 148.746 192.955 147.613 190.14 146.145C187.937 144.982 186.836 143.514 186.836 141.739C186.836 140.638 187.203 139.658 187.937 138.802C188.672 137.884 189.62 137.364 190.783 137.241C195.189 138.649 198.218 140.117 199.87 141.647C202.073 142.626 204.735 143.116 207.855 143.116C210.487 143.116 212.598 142.351 214.189 140.821C214.434 140.148 214.678 139.2 214.923 137.976C215.229 136.752 215.382 135.283 215.382 133.57C215.382 132.224 214.984 131.122 214.189 130.265C213.393 129.347 212.384 128.552 211.16 127.879C209.936 127.206 208.559 126.594 207.029 126.043C205.561 125.492 204.153 124.911 202.807 124.299C201.767 123.871 200.726 123.381 199.686 122.83C198.646 122.28 197.606 121.576 196.565 120.719C193.934 116.252 192.618 113.101 192.618 111.265C192.618 106.676 195.342 102.3 200.788 98.1393C205.867 96.2423 209.324 95.2938 211.16 95.2938C211.833 95.2938 212.72 95.5386 213.822 96.0281C214.923 96.5177 215.994 97.1296 217.034 97.8639C218.136 98.5982 219.054 99.4243 219.788 100.342C220.583 101.199 220.981 102.056 220.981 102.912C220.981 103.953 220.553 104.87 219.696 105.666C218.901 106.4 217.86 106.767 216.575 106.767C216.453 106.767 216.116 106.584 215.566 106.217C215.015 105.85 214.342 105.452 213.546 105.023C212.812 104.595 212.047 104.197 211.252 103.83C210.517 103.463 209.905 103.279 209.416 103.279C208.376 103.279 207.366 103.524 206.387 104.014C205.469 104.503 204.643 105.115 203.909 105.85C203.174 106.584 202.593 107.41 202.165 108.328C201.736 109.185 201.522 109.98 201.522 110.714C201.522 112.122 201.95 113.376 202.807 114.478C203.664 115.579 204.704 116.466 205.928 117.14L211.711 119.159C213.179 119.71 214.617 120.413 216.025 121.27C217.432 122.127 218.717 123.106 219.88 124.207C221.042 125.248 222.052 126.41 222.909 127.695C223.766 128.919 224.377 130.174 224.745 131.459ZM273.089 111.816C272.233 112.183 271.284 112.367 270.244 112.367C269.938 112.367 269.479 112.336 268.867 112.275C268.316 112.214 267.704 112.152 267.031 112.091C266.358 111.969 265.685 111.877 265.012 111.816C264.4 111.693 263.941 111.632 263.635 111.632C261.677 111.632 259.78 111.908 257.944 112.458C258.311 114.784 258.617 117.048 258.862 119.251C259.107 121.454 259.321 123.534 259.505 125.492C259.688 127.389 259.811 129.133 259.872 130.724C259.933 132.254 259.964 133.57 259.964 134.671C259.964 137.425 259.933 139.811 259.872 141.831C259.872 143.789 259.719 145.441 259.413 146.787C259.107 148.072 258.617 149.021 257.944 149.633C257.271 150.245 256.292 150.551 255.007 150.551C253.783 150.551 252.865 150.245 252.253 149.633C251.703 148.96 251.305 148.195 251.06 147.338C250.876 146.42 250.785 145.472 250.785 144.493C250.846 143.514 250.876 142.687 250.876 142.014C250.876 140.852 250.968 139.811 251.152 138.894C251.335 137.914 251.427 136.997 251.427 136.14C251.427 135.712 251.305 134.182 251.06 131.55C250.815 128.858 250.693 125.492 250.693 121.454C250.693 120.107 250.54 118.792 250.234 117.507C249.989 116.16 249.714 114.875 249.408 113.652L243.992 114.019C241.789 114.202 240.26 114.539 239.403 115.028C238.118 115.028 237.016 114.661 236.098 113.927C235.181 113.193 234.722 112.244 234.722 111.082C234.722 109.919 235.242 108.634 236.282 107.226C236.588 107.165 237.965 106.951 240.413 106.584C242.86 106.155 246.379 105.513 250.968 104.656L255.558 104.106C257.026 103.922 258.434 103.83 259.78 103.83H261.157L271.988 104.564C273.273 105.299 273.915 106.676 273.915 108.695C273.915 109.796 273.64 110.837 273.089 111.816ZM322.224 150.826C321.98 151.989 320.848 152.57 318.828 152.57C317.176 152.57 315.983 152.203 315.248 151.469C314.942 150.428 314.514 149.174 313.963 147.705C313.413 146.175 312.77 144.431 312.036 142.473C311.669 140.087 311.302 138.404 310.934 137.425C310.628 136.446 310.231 135.712 309.741 135.222C308.823 135.283 307.508 135.406 305.794 135.589C304.081 135.712 302.276 135.895 300.379 136.14C298.482 136.323 296.707 136.599 295.055 136.966C293.403 137.272 292.209 137.608 291.475 137.976C291.169 139.505 290.802 141.188 290.374 143.024C289.945 144.86 289.425 146.818 288.813 148.899C288.63 149.51 288.201 149.939 287.528 150.184C286.855 150.49 286.029 150.643 285.05 150.643C284.071 150.643 283.214 150.459 282.48 150.092C281.807 149.786 281.47 149.296 281.47 148.623C281.47 147.399 282.204 143.758 283.673 137.7C283.612 137.456 283.581 137.088 283.581 136.599C283.581 135.803 283.673 134.824 283.857 133.662C284.101 132.438 284.346 131.275 284.591 130.174C284.836 129.072 285.05 128.124 285.233 127.328C285.478 126.533 285.601 126.104 285.601 126.043L288.538 117.874C288.66 117.078 288.966 116.008 289.456 114.661C290.007 113.315 290.588 111.938 291.2 110.531C291.812 109.123 292.393 107.808 292.944 106.584C293.494 105.299 293.862 104.32 294.045 103.647C294.596 101.627 296.065 100.618 298.451 100.618C300.409 100.618 301.664 101.352 302.214 102.821C302.214 102.821 302.398 103.157 302.765 103.83C303.132 104.503 303.622 105.36 304.234 106.4C304.846 107.441 305.488 108.603 306.161 109.888C306.896 111.112 307.569 112.305 308.181 113.468C308.793 114.569 309.313 115.579 309.741 116.497C310.169 117.354 310.414 117.935 310.475 118.241C310.965 119.404 311.577 120.75 312.311 122.28C313.046 123.748 313.933 125.401 314.973 127.236C315.585 128.032 316.136 129.103 316.625 130.449C317.176 131.734 317.666 133.05 318.094 134.396C318.522 135.742 318.889 136.966 319.195 138.067C319.501 139.169 319.777 139.903 320.021 140.27C320.021 140.699 320.144 141.372 320.389 142.29C320.695 143.146 320.97 144.064 321.215 145.043C321.521 146.022 321.796 146.94 322.041 147.797C322.286 148.654 322.408 149.266 322.408 149.633C322.408 149.939 322.347 150.337 322.224 150.826ZM306.161 127.695C305.672 126.227 305.213 124.972 304.785 123.932C304.417 122.892 303.958 121.851 303.408 120.811C302.918 119.771 302.337 118.608 301.664 117.323C300.991 115.977 300.134 114.264 299.094 112.183C297.686 114.753 296.676 117.721 296.065 121.086C294.78 123.595 293.862 126.257 293.311 129.072C295.208 128.521 296.738 128.246 297.9 128.246C298.329 128.246 298.635 128.277 298.818 128.338C299.859 128.093 301.113 127.971 302.582 127.971C304.05 127.971 305.243 127.879 306.161 127.695ZM369.508 146.696C369.508 147.797 369.018 148.837 368.039 149.816C367.06 150.734 366.081 151.193 365.102 151.193C364.612 151.193 364.215 151.04 363.909 150.734C363.848 150.734 363.572 150.428 363.083 149.816C362.593 149.204 362.012 148.44 361.339 147.522C360.666 146.604 359.931 145.625 359.136 144.584C358.34 143.544 357.606 142.565 356.933 141.647C356.26 140.729 355.709 139.995 355.281 139.444C354.913 138.832 354.76 138.557 354.822 138.618C354.699 138.251 354.393 137.67 353.904 136.874C353.414 136.079 352.863 135.253 352.252 134.396C351.701 133.478 351.181 132.652 350.691 131.918C350.202 131.122 349.926 130.633 349.865 130.449C349.743 130.449 349.406 130.51 348.855 130.633C348.305 130.694 347.693 130.786 347.02 130.908C346.346 130.969 345.643 131.061 344.908 131.183C344.235 131.244 343.715 131.275 343.348 131.275H342.889C342.706 133.172 342.553 134.732 342.43 135.956C342.308 137.18 342.247 138.098 342.247 138.71V141.555C342.247 144.86 341.971 148.44 341.42 152.295C340.686 153.396 339.615 153.947 338.208 153.947C336.984 153.947 335.913 153.61 334.995 152.937C334.139 152.325 333.71 151.224 333.71 149.633C333.71 149.143 333.71 148.562 333.71 147.889C333.771 147.155 333.802 146.42 333.802 145.686C333.863 144.952 333.894 144.309 333.894 143.758C333.955 143.146 333.986 142.749 333.986 142.565V142.106L334.628 128.246C334.689 127.451 334.689 126.471 334.628 125.309C334.628 124.146 334.689 122.8 334.812 121.27L335.546 115.763C335.913 113.866 336.097 112.244 336.097 110.898C336.097 110.47 336.066 110.072 336.005 109.705C336.005 109.276 335.974 108.848 335.913 108.42C335.913 108.42 336.005 107.349 336.189 105.207C336.25 103.738 336.525 102.545 337.015 101.627C337.504 100.709 338.667 100.25 340.503 100.25C341.788 100.25 343.073 100.465 344.358 100.893C345.582 100.771 346.652 100.709 347.57 100.709C348.549 100.709 349.376 100.709 350.049 100.709C350.661 100.709 351.211 100.74 351.701 100.801C352.19 100.801 352.68 100.862 353.169 100.985C353.659 101.046 354.21 101.168 354.822 101.352C355.434 101.474 356.168 101.658 357.025 101.903L361.063 104.656C363.327 106.431 364.827 108.205 365.561 109.98C366.356 111.755 366.754 113.621 366.754 115.579C366.754 116.925 366.693 118.088 366.571 119.067C366.509 119.985 366.203 120.903 365.653 121.821C365.102 122.739 364.245 123.687 363.083 124.666C361.92 125.645 360.268 126.869 358.126 128.338C359.533 130.112 361.124 132.744 362.899 136.232C364.001 137.088 366.203 140.576 369.508 146.696ZM358.218 117.415C358.279 117.17 358.31 116.834 358.31 116.405C358.31 115.793 358.248 115.181 358.126 114.569C358.004 113.896 357.728 113.254 357.3 112.642C356.872 111.969 356.229 111.326 355.372 110.714C354.577 110.041 353.445 109.399 351.976 108.787C350.691 108.297 349.62 108.052 348.764 108.052C348.519 108.114 348.182 108.175 347.754 108.236C347.387 108.358 346.928 108.481 346.377 108.603C345.826 108.664 345.214 108.756 344.541 108.879C344.602 109.246 344.633 109.613 344.633 109.98C344.633 110.286 344.572 110.898 344.45 111.816C344.388 112.734 344.266 114.049 344.082 115.763C343.899 117.476 343.685 119.863 343.44 122.922C343.685 122.983 343.929 123.014 344.174 123.014C344.419 123.014 344.664 123.014 344.908 123.014C346.071 123.014 347.356 122.861 348.764 122.555C350.232 122.188 351.609 121.76 352.894 121.27C354.179 120.719 355.311 120.107 356.29 119.434C357.269 118.761 357.912 118.088 358.218 117.415ZM414.089 111.816C413.233 112.183 412.284 112.367 411.244 112.367C410.938 112.367 410.479 112.336 409.867 112.275C409.316 112.214 408.704 112.152 408.031 112.091C407.358 111.969 406.685 111.877 406.012 111.816C405.4 111.693 404.941 111.632 404.635 111.632C402.677 111.632 400.78 111.908 398.944 112.458C399.311 114.784 399.617 117.048 399.862 119.251C400.107 121.454 400.321 123.534 400.505 125.492C400.688 127.389 400.811 129.133 400.872 130.724C400.933 132.254 400.964 133.57 400.964 134.671C400.964 137.425 400.933 139.811 400.872 141.831C400.872 143.789 400.719 145.441 400.413 146.787C400.107 148.072 399.617 149.021 398.944 149.633C398.271 150.245 397.292 150.551 396.007 150.551C394.783 150.551 393.865 150.245 393.253 149.633C392.703 148.96 392.305 148.195 392.06 147.338C391.876 146.42 391.785 145.472 391.785 144.493C391.846 143.514 391.876 142.687 391.876 142.014C391.876 140.852 391.968 139.811 392.152 138.894C392.335 137.914 392.427 136.997 392.427 136.14C392.427 135.712 392.305 134.182 392.06 131.55C391.815 128.858 391.693 125.492 391.693 121.454C391.693 120.107 391.54 118.792 391.234 117.507C390.989 116.16 390.714 114.875 390.408 113.652L384.992 114.019C382.789 114.202 381.259 114.539 380.403 115.028C379.118 115.028 378.016 114.661 377.098 113.927C376.18 113.193 375.722 112.244 375.722 111.082C375.722 109.919 376.242 108.634 377.282 107.226C377.588 107.165 378.965 106.951 381.412 106.584C383.86 106.155 387.379 105.513 391.968 104.656L396.558 104.106C398.026 103.922 399.434 103.83 400.78 103.83H402.157L412.988 104.564C414.273 105.299 414.915 106.676 414.915 108.695C414.915 109.796 414.64 110.837 414.089 111.816Z" fill="#5F4F46"/>
<defs>
<filter id="filter0_d_184_312" x="0.5" y="0.5" width="602.675" height="249.539" filterUnits="userSpaceOnUse" color-interpolation-filters="sRGB">
<feFlood flood-opacity="0" result="BackgroundImageFix"/>
<feColorMatrix in="SourceAlpha" type="matrix" values="0 0 0 0 0 0 0 0 0 0 0 0 0 0 0 0 0 0 127 0" result="hardAlpha"/>
<feOffset dy="-1"/>
<feGaussianBlur stdDeviation="3.25"/>
<feComposite in2="hardAlpha" operator="out"/>
<feColorMatrix type="matrix" values="0 0 0 0 0 0 0 0 0 0 0 0 0 0 0 0 0 0 0.25 0"/>
<feBlend mode="normal" in2="BackgroundImageFix" result="effect1_dropShadow_184_312"/>
<feBlend mode="normal" in="SourceGraphic" in2="effect1_dropShadow_184_312" result="shape"/>
</filter>
<radialGradient id="paint0_radial_184_312" cx="0" cy="0" r="1" gradientUnits="userSpaceOnUse" gradientTransform="translate(239.5 130.99) rotate(-90) scale(150 253.5)">
<stop offset="1" stop-color="#F8E5C9"/>
</radialGradient>
</defs>
</svg>
