<?xml version="1.0" encoding="UTF-8"?><svg id="Livello_2" xmlns="http://www.w3.org/2000/svg" viewBox="0 0 17 26.52"><g id="Livello_1-2"><path d="m1.18.12s-.04.01-.06.02c-.03.01-.05.02-.08.04h-.02s-.03.01-.04.02c0,0-.01.01-.02.02s-.01.01-.02.02c-.02.01-.04.02-.06.04-.01.01-.03.02-.04.04,0,.01-.01.03-.02.04-.02.02-.04.05-.06.08,0,0-.01.01-.02.02v.02s-.01.03-.02.04c0,0-.01.01-.02.02v.04s-.01.05-.02.08v.1s0,.06,0,.1v20.19c0,.24.15.47.37.56.22.1.48.05.66-.12l4.46-4.19,3.59,8.3c.07.15.19.27.35.33s.33.05.48-.02l2.69-1.23c.3-.14.44-.5.31-.81l-3.75-8.18,6.26-.54c.25-.02.46-.18.54-.42.08-.24,0-.5-.18-.66L1.83.39s-.06-.07-.1-.1c-.02-.03-.05-.05-.08-.08h-.02s-.02-.03-.04-.04h-.02s-.06-.03-.1-.04h-.02s-.03-.01-.04-.02h-.25Zm.75,2.02l12.72,11.87-5.76.5c-.2.02-.37.13-.47.3-.1.17-.11.38-.03.56l3.86,8.41-1.57.71-3.69-8.51c-.08-.18-.24-.32-.43-.36-.19-.04-.4.01-.55.15l-4.07,3.82V2.14Z" fill="#a66eac" stroke-width="0"/><path d="m1.18.12s-.04.01-.06.02c-.03.01-.05.02-.08.04h-.02s-.03.01-.04.02c0,0-.01.01-.02.02s-.01.01-.02.02c-.02.01-.04.02-.06.04-.01.01-.03.02-.04.04,0,.01-.01.03-.02.04-.02.02-.04.05-.06.08,0,0-.01.01-.02.02v.02s-.01.03-.02.04c0,0-.01.01-.02.02v.04s-.01.05-.02.08v.1s0,.06,0,.1v20.19c0,.24.15.47.37.56.22.1.48.05.66-.12l4.46-4.19,3.59,8.3c.07.15.19.27.35.33s.33.05.48-.02l2.69-1.23c.3-.14.44-.5.31-.81l-3.75-8.18,6.26-.54c.25-.02.46-.18.54-.42.08-.24,0-.5-.18-.66L1.83.39s-.06-.07-.1-.1c-.02-.03-.05-.05-.08-.08h-.02s-.02-.03-.04-.04h-.02s-.06-.03-.1-.04h-.02s-.03-.01-.04-.02h-.25Zm.75,2.02l12.72,11.87-5.76.5c-.2.02-.37.13-.47.3-.1.17-.11.38-.03.56l3.86,8.41-1.57.71-3.69-8.51c-.08-.18-.24-.32-.43-.36-.19-.04-.4.01-.55.15l-4.07,3.82V2.14Z" fill="none" stroke-width="0"/><path d="m1.32,2.22c0-.1-.1-.06-.11-.08.02.17.14.08.11.08Z" fill="#fff" stroke-width="0"/><polygon points="1.56 3.9 1.51 3.87 1.62 4.12 1.56 3.9" fill="#fff" stroke-width="0"/><path d="m1.56,5.47c.18-.15-.03-.57.03-.85l.04-.05-.14-.13c.02.34.12.78.07,1.02Z" fill="#fff" stroke-width="0"/><path d="m1.17,6.3c.07-.05.06.18.02-.19,0,.02-.01.02-.02.04,0,.03,0,.08,0,.16Z" fill="#fff" stroke-width="0"/><path d="m1.17,6.14c0-.17-.06.11,0,0h0Z" fill="#fff" stroke-width="0"/><path d="m1.21,6.91l-.06-.22s-.05.24-.08.17c.03.22.07.18.14.05Z" fill="#fff" stroke-width="0"/><path d="m1.34,7.11l-.03-.11s-.02.05.03.11Z" fill="#fff" stroke-width="0"/><path d="m1.26,6.76l.06.24s.09-.04-.02-.11c.05.02,0-.03-.04-.13Z" fill="#fff" stroke-width="0"/><path d="m1.29,6.63c.04-.12.06-.28.12-.06-.02-.42-.15-.35-.12.06Z" fill="#fff" stroke-width="0"/><path d="m1.74,5.55l.05-.16-.06-.14c.03.07-.05.31,0,.3Z" fill="#fff" stroke-width="0"/><path d="m1.12,8.26s.1-.07.15-.09l-.04-.16c-.03.08-.05.24-.11.25Z" fill="#fff" stroke-width="0"/><path d="m1.27,8.17l.06.24c0-.21-.02-.25-.06-.24Z" fill="#fff" stroke-width="0"/><polygon points="1.54 7.15 1.4 6.76 1.54 7.23 1.54 7.15" fill="#fff" stroke-width="0"/><polygon points="1.12 9.18 1.03 9.04 1.16 9.29 1.12 9.18" fill="#fff" stroke-width="0"/><path d="m1.13,9.79c-.07-.1-.12.14-.17.03.01.17.08.31.13.43-.03-.13-.02-.28.04-.47Z" fill="#fff" stroke-width="0"/><path d="m1.18,10.47c-.02-.07-.05-.14-.08-.21.02.07.04.14.08.21Z" fill="#fff" stroke-width="0"/><path d="m1.32,8.82s-.08.05-.11.19l.11-.09s0-.06,0-.09Z" fill="#fff" stroke-width="0"/><path d="m1.32,8.91h0c0,.11,0,.18,0,.21,0-.03,0-.09,0-.21Z" fill="#fff" stroke-width="0"/><path d="m1.32,8.8v.02s.01-.01,0-.02Z" fill="#fff" stroke-width="0"/><path d="m1.44,7.78c.06.14.12.44.21.15-.07-.1-.12.06-.21-.15Z" fill="#fff" stroke-width="0"/><path d="m1.45,8.68l.02-.26s-.07.05-.1-.02l.07.27Z" fill="#fff" stroke-width="0"/><polygon points="1.48 8.81 1.45 8.68 1.44 8.78 1.48 8.81" fill="#fff" stroke-width="0"/><path d="m1.28,10.03c.05.11.05.23.06.37.02-.15.03-.3.03-.44-.03-.02-.09-.08-.09.07Z" fill="#fff" stroke-width="0"/><path d="m1.31,9.49v.02s.02-.03,0-.02Z" fill="#fff" stroke-width="0"/><polygon points="1.33 11.74 1.35 11.72 1.34 11.71 1.33 11.74" fill="#fff" stroke-width="0"/><path d="m1.39,9.93c.02-.11,0-.18-.04-.24.01.08.02.17.02.26.02,0,.03.01.02-.02Z" fill="#fff" stroke-width="0"/><path d="m1.23,10.84c.02-.06.04-.12.06-.19-.03.06-.09.17-.06.19Z" fill="#fff" stroke-width="0"/><path d="m1.28,9.55v-.02s-.02.03,0,.02Z" fill="#fff" stroke-width="0"/><path d="m1.28,9.55c.02.06.04.1.06.15,0-.07-.02-.13-.04-.18,0,.01-.02.03-.03.04Z" fill="#fff" stroke-width="0"/><path d="m2.02,12.15c-.1-.02-.19-.31-.08-.56-.07-.25-.4-.08-.58.13.04,0,.08,0,.14.26.05-.09.13-.56.22-.35.05.33-.04.27-.09.44.12-.14.18.43.36.35l-.06-.29s.07.1.1.02Z" fill="#fff" stroke-width="0"/><path d="m1.36,11.24v-.1c-.03.12-.07.2-.15.36.05.17.08.21.12.22v-.51s.03.04.03.04Z" fill="#fff" stroke-width="0"/><path d="m1.35,10.67c.11.08.15.33.27.18,0-.3-.09-.21-.14-.4.03.49-.06-.14-.12.21-.02-.1-.02-.18-.03-.27-.01.09-.03.17-.05.25h0s0-.01,0-.01c.01-.02.02-.03.01,0h0s.03.02.04.03c-.02.14-.03.02-.04-.02h-.02s0,0,0,0l.06.49c.02-.1.01-.23,0-.47Z" fill="#fff" stroke-width="0"/><path d="m1.89,8.2s-.02.01-.02.02c.01.03.02.04.02-.02Z" fill="#fff" stroke-width="0"/><path d="m1.83,8.4s-.06-.07-.05-.18c.03-.1.05,0,.09,0-.03-.07-.08-.25-.13-.03v.03c-.02.2-.16.45-.17.42.1-.06.17-.11.26-.24Z" fill="#fff" stroke-width="0"/><path d="m1.62,9.55l.05.41.09-.21h-.06c.02-.22-.05-.17-.09-.2Z" fill="#fff" stroke-width="0"/><polygon points="1.28 11.79 1.17 11.73 1.33 11.97 1.28 11.79" fill="#fff" stroke-width="0"/><polygon points="1.29 12.32 1.19 12.3 1.25 12.44 1.29 12.32" fill="#fff" stroke-width="0"/><path d="m9.6,19.45l-.08-.1s.06.08.08.1Z" fill="#fff" stroke-width="0"/><path d="m9.96,20.24h.05s-.07-.03-.05,0Z" fill="#fff" stroke-width="0"/><path d="m6.26,16.41c.08.09.07.29.09.14v-.14s-.06.01-.09,0Z" fill="#fff" stroke-width="0"/><path d="m10.19,23.34v-.06s-.09-.05-.13-.07c.04.04.09.08.13.13Z" fill="#fff" stroke-width="0"/><path d="m10.65,23.28c0,.08.02.17.01.21.01-.03.01-.09-.01-.21Z" fill="#fff" stroke-width="0"/><path d="m7.78,14.5c0-.08.01-.17.03-.25-.21.31-.06.2-.03.25Z" fill="#fff" stroke-width="0"/><path d="m1.33,18.03c-.04.26-.06.48-.07.66.06-.36.16-.63.07-.66Z" fill="#fff" stroke-width="0"/><path d="m10.79,19.28c-.05-.06-.08-.08-.1-.07.05.06.08.09.1.07Z" fill="#fff" stroke-width="0"/><path d="m1.27,19.43c0-.06.02-.11.03-.17-.02-.16-.03-.34-.03-.57-.05.26-.08.58,0,.74Z" fill="#fff" stroke-width="0"/><path d="m6.26,7.03s-.01-.02-.02-.04c-.01,0,0,.02.02.04Z" fill="#fff" stroke-width="0"/><path d="m3.32,2.79s.1.08.16.14c-.02-.03-.07-.07-.16-.14Z" fill="#fff" stroke-width="0"/><path d="m1.25,14.47c0-.11-.01-.02,0,0h0Z" fill="#fff" stroke-width="0"/><path d="m1.68,13.92s.03.04.05.05c-.03,0-.04-.02-.05-.05Z" fill="#fff" stroke-width="0"/><path d="m2.03,19.48h0s0-.03,0,0Z" fill="#fff" stroke-width="0"/><path d="m1.3,14.3s-.02.09-.03.14c0-.02.02-.07.03-.14Z" fill="#fff" stroke-width="0"/><path d="m1.24,14.32s0-.07.01-.1c-.02-.01-.03,0-.01.1Z" fill="#fff" stroke-width="0"/><path d="m1.25,14.62c0-.06,0-.12.01-.18,0,.02-.01.03-.02.03,0,.03,0,.08,0,.16Z" fill="#fff" stroke-width="0"/><path d="m13.09,13.01s0,0,0-.02c-.1-.03-.07-.01,0,.02Z" fill="#fff" stroke-width="0"/><polygon points="8.24 17.62 8.23 17.62 8.23 17.63 8.24 17.62" fill="#fff" stroke-width="0"/><path d="m8.47,17.97c-.19-.1-.22-.2-.24-.33l-.23.25.48.09Z" fill="#fff" stroke-width="0"/><path d="m8.7,17.56l.03.3c-.29-.25-.34-.5-.36-.19.33-.1.49.99.82.89v.2c0-.05-.03-.05-.05-.1,0,.4.34.14.49.59.04.16.05.28-.04.2l.23.3c.04.1-.03.1-.06,0l.26.5h-.01c.08.05.23.18.3.25.01.15-.06-.05-.09,0l.2.25c-.03.15-.21-.05-.29-.25-.19.4.18.2.26.85l-.16-.25c-.1.25.06.43.09.78.02-.1,0-.73.22-.46.02.1.06.21.19.35-.11.05,0,.2.09.4l-.15.05c.14.2.21.15.33.24.1.25,0,.35-.06.45.15.4.06-.35.3.1.07.22.06.19.11.26.06.06.13.14.23.24,0,.02-.02.03-.03.03-.01,0-.02,0-.03,0-.04-.02-.09-.07-.12-.06l.05.03s.04.05.05.08c-.03,0-.06-.02-.08-.03-.02.06.17.1.06.2.03.03.02.05-.02.05-.02,0-.03,0-.05-.01-.04,0-.09,0-.13.01-.13.02-.12-.01-.14-.01,0-.01-.08.04-.13.11-.03-.04.05-.13.05-.2-.07.08-.13.13-.15.16-.07-.05-.08-.03-.25-.1,0-.1,0-.19,0-.27-.04.22-.24.11-.48-.14-.02.11-.03.2-.03.25l-.26-.38c0-.06.07-.04.16,0-.02-.02-.05-.04-.07-.06-.01-.17.11-.13.24-.06,0,.06-.02.13-.03.19.13.06.27.12.35.06-.03-.02-.07-.07-.1-.12.04.02.06.02.07,0,0-.02-.04-.05-.11-.1l.12-.17h-.07s-.13-.58-.13-.58c-.33-.32-.72-.55-1.06-1.14.19.1.21-.05.36-.1-.08.23.27.45.38.79-.06-.17.03-.17.07-.13l-.38-.51c.12-.04.03-.16.02-.33-.18.21-.34-.36-.51-.56.07-.05.17-.03.28.27.04-.39-.45-.29-.43-.66.03.07.04.11.09.12-.14-.13-.26-.55-.15-.49l.03.07c-.17-.47-.61-1.4-.83-1.39.02-.02.26-.04.31-.03l-1.01-.54c.2,0,.48-.45.74-.11-.02-.12-.05-.27-.21-.47,0,.09-.16.29-.22.2.06-.36.02-.24.02-.65.01.13-.3.12-.37-.06.05.01.25-.13.31-.07-.15-.11-.3-.21-.46-.36.1.11.22-.09.22-.3,0,.08-.27-.55-.48-.59.07.07.13.15.17.24-.24-.29-.49-.24-.65-.17-.17.08-.34.18-.56.35.03-.09.09-.48-.23-.31-.05.12-.11.43-.14.68-.02.25-.07.52-.21.73h-.12s-.2.32-.2.32c0-.16.05-.43.11-.71.03-.14.07-.28.09-.41.03-.12.06-.24.15-.38-.26.16-.15,0-.37.22-.13.01.03-.19.11-.27l-.56.46c.14.1-.28.49-.16.58l.44-.65c.14.1,0,.65-.38.97-.14.04-.13-.28-.18-.32,0,.09-.27.41-.33.41l.09-.21c-.25.15-.18.47-.53.59-.09.07-.4.08-.35.17.27.01.7.42.71.61-.02.01-.17.09-.34.17-.18.09-.35.16-.41.15-.09-.02-.05-.18-.04-.31.02-.14.02-.25-.04-.28.02.05-.02.15-.03.2-.07,0-.01-.18-.12-.06,0,.24-.24.21-.05.25-.14.2-.14.08-.28.23.02.13-.34.83-.62,1.17.05-.1.05-.19.06-.23-.03.03-.06.05-.08.07.02-.51.09-.86.09-1.26.04-.09.09-.32.16-.31-.03-.02-.09-.03-.09-.15.15-.3.02.24.2-.05-.1.07-.14-.18-.2-.35-.15.07-.03.46.03.56-.11.09-.21.1-.31-.02-.09-.1-.17-.41-.22-.69-.05-.41.14-.18.11-.25.04-.77-.37-.66-.22-1.3.13-.25.27-.01.36-.07.05.33-.09.51-.08.74l.06-.28c.04.11.08.33.04.45.12-.21.02-1.3.13-1.9-.05-.11-.09-.29-.15-.2l.02.19c-.11.17-.15-.35-.2-.12-.08-.25-.2-.54-.13-.89l.15-.07s-.09.23-.04.33c-.07-.15.21-.55,0-.71l-.11.25c-.08-.25-.24-.57-.19-.88-.15.14.02.07-.16.3.22-.19,0,.81.22.49-.21.23-.09.4-.26.7.05,0,.1-.11.07.16.01.01.03.04.04.06v.02s0-.01,0-.01c0,.01,0,.01,0,0,.02-.06.05-.11.08-.13.12.13.11.55.17.69-.02.16-.06-.07-.11.02l.09.21c-.11.02-.19.42-.25.05v.33c-.07.2-.09.47-.05.63-.02.16.12.4.04.26l.07.52h-.03c0,.27.04.48.06.97.02.43.02.83-.08,1.44.03.26.06.48.03,1.01l-.1.28c.02.14,0,.43-.02.71.2-.16.39-.32.5-.5.06.13.43-.21.83-.59.4-.39.8-.82,1.06-1.04l-.03-.14c.16-.14.35-.34.47-.46.08-.1.18-.22.29-.36l-.09-.07c.15-.26.6-.45.92-.77,0,.05-.09.12-.16.16.29-.09.46-.32.63-.56.15-.22.38-.52.47-.47.02-.07.06-.09.09-.08h0s.02,0,.02,0c.02,0,.05.02.07.04-.02-.03-.04-.04-.06-.04.03-.03.09-.07.16-.1v.15s.02,0,.02,0c.03.06.06-.06.05-.18.04-.02.08-.03.12-.05-.05.23.19.09.07.34.05-.01.09.03.17.14.1.15.21.29.32.28-.02.02-.02.06-.05-.01.04.15.08.31.19.41l-.11.12.33.23c0,.23-.02.33-.21.19.37.39.22.35.56.67l-.1.02c.06.14.28.31.24.43-.04.39.65,1.56.83,2.43.2-.27.04.42.26.37-.04.07-.03.2-.14.1.24.38.17.66.46.87-.04.07-.13-.05-.15.01.03.03.11.11.09.17-.02.06-.08-.04-.13-.09.19.41.4.37.6.32,0,.25.06.35.25.45-.03.1-.04.25-.17,0,.02.07.48,1.34.57,1.14,0,.06.03.14.07.2.07-.04.13-.08.16-.1.22-.09.34-.14.45-.19.07-.03.14-.06.23-.1.07-.03.15-.07.26-.12l-.1.02c.03-.12.08-.15.18-.19.11-.04.31-.09.45-.17v.02c.33-.09.47-.15.54-.18-.08-.15-.13-.14-.24-.62l-.11.04c-.3-.03-.15-.69-.39-.98v.15c-.17-.15.08-.66.02-.86,0-.05.06.05.1.1-.08-.55-.17,0-.37-.34.05-.1.24,0,.14-.25,0-.15-.57-.59-.58-.99-.03.1-.05.2-.17.05-.14-.25-.09-.8-.39-.95,0-.04.01-.06.03-.07-.14-.17-.37-.6-.53-.67.29-.35-.74-1.14-.4-1.29l-.3-.6h.04c-.15-.4-.3-.5-.45-.59-.02-.1.04-.05.07-.05-.05-.15-.09-.27-.12-.36-.02-.06-.04-.09-.06-.13-.04-.08-.17-.13-.28-.35l.15.02c-.04-.05.07-.18.24-.21.08-.02.17,0,.25,0,.04,0,.08,0,.11-.02.06-.01.15-.03.22-.06,0,.01-.02.04-.06.06.67-.2,1.67.2,1.88-.27l.44-.15c-.59.02.07-.2-.18-.26.23-.05.6.08.33.13l-.05-.02c-.08.24.71.02.82.17.93-.09,1.89-.13,2.94-.18-.45-.46-.94-.95-1.45-1.43-.03.06-.07.1-.11.15l-.36-.35c-.05-.11,0-.19.3.09-.05-.19-.59-.43-.61-.4-.5-.57.39.07.23-.08l-.27-.23.04.07c-.24-.12-.26-.04-.51-.27-.12-.17,0-.15-.05-.21,0,0,0-.03-.09-.09l-.34-.34.04.24c-.2-.09-.32-.31-.27-.04-.06-.4-1.23-1.27-1.32-1.47-.29-.12-.5-.32-.75-.58.04.08-.03.24-.24.01.31-.17-.32-.49-.34-.84.06.27-.67-.57-.57-.17-.17-.2.07-.1-.02-.29-.54-.33-.94-.99-1.52-1.48-.04.02,0,.16-.16.1l-.14-.44c-.12-.09-.27.09-.37-.21,0,.05,0,.13-.08.08-.95-1.18-2.35-1.95-3.19-3.28.09.2-.01.12-.13.01.06.08-.08.08-.1.13l-.35-.55c-.2.04-.51-.46-.66-.39l.17.12c-.32-.05,0,.56-.2.71.36.05.36.77.93.88.05.11-.12,0-.12.07.16,0,.29.1.46.32h-.04c.59.51.77.82,1.36,1.47l.03-.13c.13.14.13.19.18.28.28.02-.38-.37-.1-.38.02.35.97.91.91,1.23.21.2.03-.16.24.04v.11s.12-.02.12-.02c.13.14.14.27.1.33-.03-.04-.11-.08-.15-.11.12.23.53.45.57.53l-.17-.22c.63.49,1.27,1.22,1.93,1.64v-.08c.49.32.3.36.8.77h-.03c.13.04.28.14.4.26-.16-.06.14.3-.07.21.54.35.29.15.74.29v.13c.17.04.21.01.46.21-.25-.12.05.24-.23.12.35.61.87.53.89.96.4.02-.33-.5-.17-.42-.05-.16.32.03.45.2.15.15.04.49.44.86-.04-.04-.05-.03-.09-.06.1.19.35.21.46.45.21-.01.12.12.32.04-.09-.06-.17-.12-.32-.24.06.04.13.07.2.1.05.01.12.03.18.06.13.05.29.16.35.29-.07-.01-.21-.07-.29-.1,0,.07.17.11.16.18-.28,0-.33-.25-.56-.26-.03.08.32.11.06.15.17-.03.22.03.25.08.04.06.04.09.28.18l-.21-.03s.19.07.22.11c-.12-.04-.23-.08-.34-.11.28.11.02.1.05.13,0,0,0,0,0,.01.01,0,.03,0,.04,0-.06-.08.33.1.42.08.1.06.16.1.18.13-.25.01-.84-.26-.92-.21,0-.02.23.05.26.1-.1-.02-.24-.05-.33-.1-.13.04.15.11.15.18-.21-.13-.06.06-.19.12l-.05-.12c-.14-.03-.15.04-.2.1-.03.06-.05.12-.33.1l.22-.19-.29.07.05-.14c-.31.13-.41.11-.72.1.08.08-.02.22-.3.25-.19-.06.1-.12-.29-.07.08-.08.17-.19.35-.09.01-.04.08-.08.09-.12-.21-.06-.51.02-.65.04.05,0,.12,0,.15.02l-.55.22c-.09-.04-.03-.08.04-.12-.11.02-.19.08-.35.11.04-.1.02-.2.25-.27l-.53.15s-.29-.09-.22-.13c-.27,0-.63.05-.88.21-.26.15-.48.39-.65.65,0,.04-.01.1-.04.23-.09.27-.11.53-.04.81.04.15.12.3.19.45.09.18.12.2.2.3l-.06.3c.18.3.06-.4.36.09.22.35-.07.2-.06.35.17.15.48.39.5.79-.08-.1-.1-.2-.16-.3Zm1.85,3.84c-.06-.06-.2-.18-.16-.27.17.03.14.12.16.27Zm-.39,1.27c.06.04.08.14.08.25-.04-.07-.07-.15-.08-.25ZM1.34,15.71h0c-.05.19-.03.13,0,0Zm.05-.38s-.03-.04-.05-.02c.03.03.03.11.02.21.03-.03.05-.08.03-.19Zm11.5-3.6l.03.07c-.15-.09-.09-.08-.03-.07Z" fill="#fff" stroke-width="0"/><path d="m10.6,23.28s-.03.04-.05.06c.03.02.05.01.05-.06Z" fill="#fff" stroke-width="0"/><path d="m7.78,14.54v-.02s0-.02,0-.03v.05Z" fill="#fff" stroke-width="0"/><path d="m3.01,17.91s.06,0,.08.01c0-.03-.03-.04-.08-.01Z" fill="#fff" stroke-width="0"/><path d="m1.19,13.3l.03.25c0-.12.02-.16.04-.22-.03,0-.07.05-.07-.02Z" fill="#fff" stroke-width="0"/><path d="m1.94,11.17s0-.08-.02-.11h-.06c0,.16.05.27.07.11Z" fill="#fff" stroke-width="0"/><path d="m1.59,13.07c.1-.02.07-.17.05-.34v.03c-.14-.05-.09.13-.05.31Z" fill="#fff" stroke-width="0"/><path d="m1.64,12.68c0-.05,0-.11,0-.16-.06-.02-.01.06,0,.16Z" fill="#fff" stroke-width="0"/><path d="m1.33,14.84c.03-.08-.13-.05-.09-.1-.13-.09.16.54.09.1Z" fill="#fff" stroke-width="0"/><polygon points="1.93 12.93 1.8 12.99 1.9 13.09 1.93 12.93" fill="#fff" stroke-width="0"/><path d="m1.84,14.28l.03-.27s-.03-.03-.04-.07c0,.17-.03.35,0,.35Z" fill="#fff" stroke-width="0"/><path d="m1.83,13.94c0-.09,0-.17-.02-.22,0,.05,0,.15.02.22Z" fill="#fff" stroke-width="0"/><polygon points="1.96 13.3 1.94 13.39 1.93 13.58 1.96 13.3" fill="#fff" stroke-width="0"/><path d="m1.81,17.23l.04.31s.07-.06.05-.18c-.03-.07-.05-.18-.09-.14Z" fill="#fff" stroke-width="0"/><path d="m2.15,16.33c-.03.08-.05.09-.1.13h.16s-.06-.13-.06-.13Z" fill="#fff" stroke-width="0"/><path d="m2.19,17.2s.12.4.11.06c-.04-.03-.08-.33-.11-.06Z" fill="#fff" stroke-width="0"/><path d="m3.43,18.1l-.05.05.15.21c-.03-.09-.06-.18-.1-.26Z" fill="#fff" stroke-width="0"/><path d="m6.55,14.95c-.27-.05-.31.02-.33.05-.02.05-.04.07-.26.11-.1.09.36-.05.25.04.29-.12.47-.01.34-.21Z" fill="#fff" stroke-width="0"/><path d="m6.21,15.16s-.09.04-.14.08c.07-.04.11-.06.14-.08Z" fill="#fff" stroke-width="0"/><polygon points="2.81 2.12 2.67 1.93 2.72 2.09 2.81 2.12" fill="#fff" stroke-width="0"/><path d="m2.36,1.96l.07-.16h-.2s.13.1.13.16Z" fill="#fff" stroke-width="0"/><path d="m10.51,22.12h.04c.02-.05,0-.1-.03-.2v.2Z" fill="#fff" stroke-width="0"/><polygon points="9.33 19.25 9.35 19.3 9.44 19.15 9.33 19.25" fill="#fff" stroke-width="0"/><path d="m8.08,16.97c.04.1.12.2.16.3-.12-.2,0-.4-.16-.3Z" fill="#fff" stroke-width="0"/><path d="m1.27.73c-.06-.01,0,.09,0,.11-.05,0-.02-.01,0-.03.02-.01.02-.03.02-.04,0-.03-.03-.05-.03-.04Z" fill="#fff" stroke-width="0"/><polygon points="2.53 1.55 2.47 1.55 2.75 1.67 2.53 1.55" fill="#fff" stroke-width="0"/><path d="m3.86,2.79c0-.25-.5-.43-.7-.7v-.07s-.22,0-.22,0c.3.25.75.53.92.76Z" fill="#fff" stroke-width="0"/><path d="m4.31,3.74c0-.09.2.1-.15-.17,0,.02.01.03.02.04.03.03.07.06.13.13Z" fill="#fff" stroke-width="0"/><path d="m4.18,3.61c-.14-.13.05.13,0,0h0Z" fill="#fff" stroke-width="0"/><path d="m4.85,4.19l-.23-.13c.01.07.17.23.09.19.21.15.2.09.14-.06Z" fill="#fff" stroke-width="0"/><path d="m5.12,4.26l-.11-.07s.03.06.11.07Z" fill="#fff" stroke-width="0"/><path d="m4.76,4.04l.24.15s.03-.09-.11-.07c.05-.02-.02-.02-.13-.08Z" fill="#fff" stroke-width="0"/><path d="m4.67,3.91c-.08-.13-.2-.27.03-.14-.37-.31-.4-.17-.03.14Z" fill="#fff" stroke-width="0"/><path d="m4.05,2.72l-.1-.17-.16-.07c.08.03.23.28.26.24Z" fill="#fff" stroke-width="0"/><path d="m5.95,5.33s0-.13.03-.18l-.17-.1c.05.08.17.23.14.28Z" fill="#fff" stroke-width="0"/><path d="m5.97,5.15l.25.14c-.18-.18-.23-.18-.25-.14Z" fill="#fff" stroke-width="0"/><polygon points="5.29 4.14 4.86 3.93 5.35 4.2 5.29 4.14" fill="#fff" stroke-width="0"/><polygon points="6.72 6.06 6.55 6.02 6.85 6.11 6.72 6.06" fill="#fff" stroke-width="0"/><path d="m7.25,6.53c-.14-.03.03.2-.09.15.15.12.31.19.46.25-.14-.08-.25-.2-.37-.4Z" fill="#fff" stroke-width="0"/><path d="m7.86,7.04c-.07-.04-.15-.07-.24-.11.07.04.15.08.24.11Z" fill="#fff" stroke-width="0"/><path d="m6.56,5.63s-.01.1.09.23v-.15s-.06-.05-.09-.08Z" fill="#fff" stroke-width="0"/><path d="m6.64,5.7h0c.08.09.14.15.17.17-.02-.02-.07-.07-.17-.17Z" fill="#fff" stroke-width="0"/><path d="m6.54,5.61l.02.02s0-.02-.02-.02Z" fill="#fff" stroke-width="0"/><path d="m5.76,4.71c.16.07.46.26.27-.04-.14-.03-.03.14-.27.04Z" fill="#fff" stroke-width="0"/><path d="m6.53,5.42l-.2-.22s0,.09-.08.06l.28.16Z" fill="#fff" stroke-width="0"/><polygon points="6.66 5.5 6.53 5.42 6.6 5.5 6.66 5.5" fill="#fff" stroke-width="0"/><path d="m7.56,6.62c.13.05.23.15.35.25-.11-.13-.23-.26-.35-.37-.04,0-.13,0,0,.12Z" fill="#fff" stroke-width="0"/><path d="m7.12,6.17l.02.02s-.02-.03-.02-.02Z" fill="#fff" stroke-width="0"/><polygon points="9.05 7.94 9.05 7.9 9.03 7.91 9.05 7.94" fill="#fff" stroke-width="0"/><path d="m7.55,6.46c-.08-.1-.15-.14-.23-.16.08.06.16.12.24.19.02,0,.03,0,0-.03Z" fill="#fff" stroke-width="0"/><path d="m8.22,7.3c-.03-.06-.08-.13-.12-.19.02.07.09.2.12.19Z" fill="#fff" stroke-width="0"/><path d="m7.15,6.23h-.02s.02.02.02,0Z" fill="#fff" stroke-width="0"/><path d="m7.15,6.23c.06.03.11.05.17.07-.06-.05-.12-.09-.18-.12,0,.02.01.04.01.05Z" fill="#fff" stroke-width="0"/><path d="m9.87,7.76c-.08.06-.39-.1-.53-.38-.26-.14-.34.23-.29.53.04-.03.06-.05.32.1-.04-.11-.39-.54-.15-.43.32.23.21.24.31.41-.03-.2.48.21.55.02l-.29-.19s.14.03.08-.06Z" fill="#fff" stroke-width="0"/><path d="m8.65,7.51l-.1-.07c.09.11.13.2.21.38.18.1.24.1.27.09l-.43-.42.04.02Z" fill="#fff" stroke-width="0"/><path d="m8.15,7.07c.14-.01.39.15.34-.06-.26-.24-.24-.1-.43-.21.44.37-.16-.07.1.26-.09-.06-.17-.13-.25-.19.07.08.13.16.18.24h0s0-.02,0-.02h0s0-.04,0-.01h.01s.03,0,.05,0c.11.13,0,.04-.05.01h-.02s0,0,0,0l.46.35c-.08-.09-.19-.2-.4-.37Z" fill="#fff" stroke-width="0"/><path d="m6.41,4.71s0,.02,0,.03c.04.02.05.02,0-.03Z" fill="#fff" stroke-width="0"/><path d="m6.54,4.92s-.1,0-.19-.11c-.06-.1.04-.04.06-.07-.08-.04-.26-.14-.11.07l.04.02c.14.18.27.49.23.47.02-.12.02-.21-.03-.38Z" fill="#fff" stroke-width="0"/><path d="m7.38,5.99l.39.29-.11-.23-.03.05c-.18-.2-.19-.11-.24-.1Z" fill="#fff" stroke-width="0"/><polygon points="9.06 8.01 8.93 8.05 9.24 8.12 9.06 8.01" fill="#fff" stroke-width="0"/><polygon points="9.52 8.43 9.44 8.48 9.6 8.55 9.52 8.43" fill="#fff" stroke-width="0"/><path d="m7.46,21.71l-.08-.12c.03.06.06.09.08.12Z" fill="#fff" stroke-width="0"/><path d="m7.86,22.64h.05s-.07-.04-.05,0Z" fill="#fff" stroke-width="0"/><path d="m11.22,14.92c-.27-.07-.81-.17-.7-.07l.15.1c.22-.04.45-.05.54-.03Z" fill="#fff" stroke-width="0"/><path d="m13.64,23.87v-.06s-.1-.08-.15-.11c.04.05.1.1.15.17Z" fill="#fff" stroke-width="0"/><path d="m14.13,24.05c-.02.13-.06.25-.12.36.05-.07.1-.18.12-.36Z" fill="#fff" stroke-width="0"/><path d="m5.75,18.66s.01.09.02.13c.03-.03,0-.07-.02-.13Z" fill="#fff" stroke-width="0"/><path d="m14.2,12.73c.1.15.19.26.28.35-.11-.19-.17-.38-.28-.35Z" fill="#fff" stroke-width="0"/><path d="m8.68,21.62c-.05-.07-.09-.1-.11-.08.05.07.09.11.11.08Z" fill="#fff" stroke-width="0"/><path d="m14.85,13.43s-.03-.05-.05-.08c-.11-.07-.21-.15-.32-.26.08.14.2.28.37.35Z" fill="#fff" stroke-width="0"/><path d="m.08,7.45s0-.03.01-.05c-.01,0-.02.02-.01.05Z" fill="#fff" stroke-width="0"/><path d="m1.17,1.59c0,.06,0,.15,0,.24,0-.04,0-.12,0-.24Z" fill="#fff" stroke-width="0"/><path d="m11.32,10.16c-.1-.08-.02,0,0,0h0Z" fill="#fff" stroke-width="0"/><path d="m11.14,9.41s.05.01.07,0c-.03.01-.05.01-.07,0Z" fill="#fff" stroke-width="0"/><path d="m16.28,13.83h0s0-.02,0,0Z" fill="#fff" stroke-width="0"/><path d="m11.2,9.99s.06.09.1.14c-.01-.02-.04-.07-.1-.14Z" fill="#fff" stroke-width="0"/><path d="m11.19,10.05s-.05-.06-.08-.09c-.02,0-.02.02.08.09Z" fill="#fff" stroke-width="0"/><path d="m11.45,10.28c-.06-.05-.1-.1-.15-.15.01.02.02.03.01.03.03.03.07.06.14.12Z" fill="#fff" stroke-width="0"/><path d="m.37,18.24s0-.02.01-.03c-.05-.13-.04-.07-.01.03Z" fill="#fff" stroke-width="0"/><polygon points="11.15 17.28 11.14 17.27 11.15 17.29 11.15 17.28" fill="#fff" stroke-width="0"/><path d="m11.42,17.68c-.21-.13-.24-.24-.28-.39l-.22.27.5.12Z" fill="#fff" stroke-width="0"/><path d="m6.47,19.48l.04.34c-.31-.3-.37-.59-.37-.25.33-.09.54,1.17.87,1.08l.02.23c-.02-.06-.04-.06-.07-.12.02.46.35.19.52.72.05.19.06.33-.03.22l.25.36c.04.12-.02.11-.07,0l.28.59h-.01c.09.06.25.22.32.3.02.17-.07-.06-.09,0l.22.3c-.02.17-.22-.07-.31-.3-.18.44.2.24.3.98l-.17-.29c-.09.28.08.49.12.89.02-.11-.03-.83.21-.5.02.11.07.25.21.42-.11.05,0,.23.11.46l-.15.05c.15.24.22.18.35.31.09.25.06.5.02.67.21.4.17.21.15.08,0-.16-.02-.25.24.11.38.52,1.02.56,1.63.1.33-.09,0,.11.13.1l.18-.22c.06-.02.06.02.06.04.18-.13-.05-.15.24-.33.01-.2.74-.06,1.04-.41.11,0,0,.11.05.15.33-.25.36-.28.62-.45.03-.05.14-.13.25-.28.16-.09.29-.22.38-.38-.28.32-.1-.22-.37-.54-.02.1-.08.18-.1.23-.02-.17-.14-.3-.22-.42,0-.05.07-.04.17.02-.03-.03-.05-.05-.07-.07-.02-.18.1-.15.25-.03,0,.08,0,.15-.01.21.16.11.27.28.36.26l-.08-.22s.07.07.08.05c.01-.02-.04-.1-.12-.19.04-.06.08-.12.11-.2l-.09-.02c-.1-.31-.14-.47-.21-.72-.37-.38-.79-.66-1.18-1.34.2.12.21-.05.36-.11-.06.26.32.52.46.91-.07-.2.01-.19.06-.15l-.44-.6c.12-.04.02-.18,0-.37-.17.23-.38-.42-.57-.66.07-.05.18-.02.31.31,0-.44-.48-.35-.5-.77.04.08.05.13.1.14-.15-.16-.31-.64-.19-.56l.04.08c-.22-.54-.74-1.62-.97-1.61.02-.02.27-.04.32-.02l-1.08-.65c.2,0,.45-.49.75-.1-.03-.14-.08-.31-.26-.55.02.1-.14.33-.21.21.01-.22.04-.23.04-.28,0-.04,0-.1.05-.2-.01.07-.37-.03-.45-.21.06.04.35.09.4.13-.15-.11-.33-.27-.53-.48.11.13.31.18.42.21l.04.02c-.1-.05.23-.01.27-.05l-.18-.05c.34.01.12-.41.79-.45-.07.06-.16.37.16.38.13-.16.59-.75,1.13-.9l.11.07.42-.13c-.25.24-.95.76-1.34.97.24.04.07.09.43.05.13.07-.18.13-.29.15l.83-.02c-.05-.16.61-.22.57-.36l-.88.25c-.05-.16.48-.52,1.06-.54.15.05-.08.31-.07.36.07-.06.54-.16.6-.12l-.24.11c.33.04.51-.27.91-.14.14,0,.42.18.43.08-.24-.17-.33-.76-.2-.92.06,0,.25.06.46.11.14.03.29.07.38.1.18.07.16.13.13.23-.03.09-.1.2.06.23-.02-.04.09-.13.13-.16.18-.03.05.16.36-.04-.06-.1.51-.58.01-.2.17-.29.29-.3.28-.73-.05.06-.14-.05-.29-.18-.14-.13-.4-.22-.51-.3.06,0,.07-.07.08-.1-.45-.44-.64-.72-1.06-1.11-.01-.07-.18-.29-.04-.27-.08-.03-.18-.04-.31-.16-.15-.34.31.25.23-.06-.08.06-.43-.21-.66-.34-.05.17.41.42.63.55-.14.16-.62.02-1.12-.32-.39-.29-.06-.24-.14-.28-.63-.64-.81-.25-1.25-.87-.12-.3.17-.21.19-.32.32.23.38.47.58.65l-.19-.27c.12.05.33.2.41.33-.1-.26-1.09-1.05-1.53-1.61-.12-.05-.31-.16-.27-.05l.17.14c.07.22-.4-.17-.24.05-.27-.14-.59-.28-.85-.61l.05-.17s.14.25.25.3c-.17-.07-.32-.58-.6-.57l.14.28c-.27-.15-.65-.27-.88-.56.02.22.07.04.14.35-.02-.32.68.65.57.23.06.33.28.38.42.75.03-.04-.02-.16.18.07.02,0,.06,0,.08.01v.02s0-.02,0-.02c.02,0,.02,0,0,0-.04-.07-.06-.13-.06-.16.19.02.55.36.71.43.12.14-.1,0-.06.1l.24.1c-.06.1.23.47-.13.22l.28.27c.12.2.34.43.51.53.12.14.42.22.25.18l.49.36-.02.02c.43.42,1.03.71,1.39,1.32.17.12.34.23.57.49l-.02.12c.23.17.09.21.25.23-.13.05-.14.08-.14.13,0,.06-.03.1-.09.08l.07.12h-.04s-.06.02-.15.04c-.14.03-.29.06-.46.1l.03.11c-.33.12-.87,0-1.4.05.03-.05.17-.05.27-.03-.65-.2-1.32.3-1.91.16-.14.05-.24.05-.35.03.01,0,.02,0,.04,0-.02,0-.04,0-.06,0-.07-.01-.14-.03-.2-.04.06.02.12.04.17.05-.05,0-.12.02-.2.03-.11.02-.23.04-.36.06l-.15-.11s-.04,0-.06,0c-.29-.02-.18.07,0,.15-.11.03-.21.06-.28.1-.36-.16-.54.11-1.06-.05,0,.02-.08.05-.17.07.23.38.53.98.75,1.08-.03,0-.02.06-.07-.05.07.21.15.45.3.64-.03.05-.07.1-.1.15.13.13.24.2.36.3.02.26,0,.37-.2.2.41.46.26.4.63.78l-.1.02c.08.16.32.36.29.49,0,.44.79,1.8,1.06,2.79.18-.3.08.48.3.43-.04.08-.01.23-.14.1.28.44.23.76.55,1-.04.08-.14-.06-.15,0,.03.03.12.12.11.19-.02.07-.08-.04-.15-.11.23.48.45.44.64.39-.02.21.04.23.2.4-.08.07-.15.12-.18-.07,0,.04,0,.14-.07.23-.06.1-.17.14-.24.19-.05.04-.07.08-.06.12-.07-.01-.24.1-.28.13-.38.16-.42.17-.79.35l.11-.02c-.07.24-.29.18-.58.34v-.02c-.73.17-.34.25-.84.27l.02.13c-.03.15-.19.14-.32,0-.14-.14-.14-.36-.23-.47v.15c-.15-.1.07-.7,0-.92,0-.06.07.06.11.12-.11-.63-.18-.01-.39-.42.04-.11.24.02.13-.28,0-.17-.61-.72-.63-1.18-.02.11-.05.22-.18.05-.15-.29-.13-.92-.43-1.11,0-.05,0-.07.02-.07-.15-.21-.41-.72-.57-.81.29-.38-.81-1.36-.45-1.5l-.33-.7h.04c-.04-.1-.09-.21-.15-.35-.06-.12-.11-.21-.16-.29-.1-.15-.18-.22-.26-.28-.04-.17.02-.1.04-.11-.17-.47-.28-.77-.38-.98-.22.23-.43.49-.73.92-.03-.03-.06-.06-.09-.09-.07.11-.38.34-.71.6-.27.2-.58.45-.79.74,0-.02-.01-.04.02-.09-.48.65-1.63,1.06-1.53,1.59l-.31.44c.52-.44.06.21.32.07-.2.22-.56.34-.37.13h.05c-.09-.25-.51.35-.52.14-.15.14-.4.1-.5-.07-.11-.17-.03-.38-.03-.55v-.14s.02-.24.02-.24l.02-.48c0-.32.02-.64.03-.95l-.18.14v-.44c.05-.12.15-.15.15.16.1-.16-.09-.52-.13-.53.07-.61.21.24.22.05v-.25s-.04.06-.04.06c-.07-.21-.15-.23-.14-.6.04-.24.11-.12.12-.22.01,0,.02-.03,0-.14l.02-.55-.14.22c-.07-.24,0-.52-.16-.26.25-.37.09-2.06.17-2.29-.1-.34-.1-.68-.09-1.1-.03.1-.19.17-.17-.19.33.13.15-.66.39-.95-.16.26-.04-1.03-.27-.62.03-.3.13-.02.2-.25-.13-.72.08-1.58.04-2.47-.04-.01-.11.13-.18-.06l.22-.47c-.02-.18-.25-.16-.1-.48-.04.05-.09.11-.11,0,.21-1.74-.18-3.55.23-5.32-.09.24-.09.08-.1-.1-.02.12-.11,0-.17.02l.17-.74c-.06-.05-.08-.15-.08-.27v-.03s0-.04,0-.04v-.03s0-.1,0-.1v.07s0-.03,0-.03l.02-.08v-.04s0-.04,0-.04l-.11.28.02-.02-.1-.21s.04,0,.05.01l.2.09-.02-.22v-.02s-.11.27-.11.27l.02-.02.05-.06h0s0-.03,0-.04l-.09-.17s.04,0,.05.01l.06.1s-.02,0-.02-.01h0s-.04-.08-.04-.08c-.01,0-.03-.01-.05-.01l.06.15-.02.04-.05.06-.02.02.1-.24v.02s.02.18.02.18l-.16-.06h-.02s.02,0,.02,0l.24.09-.12-.21s0-.01-.01-.02l-.09.22s0-.03,0-.05l.04-.05s-.03-.03-.05-.03l-.03.04s-.03-.01-.05-.01l.05-.12s-.01.01-.02.02l-.02.07s-.03,0-.05,0l-.02.03h-.04s.02-.05.02-.05l-.03.04h0s-.08.07-.08.07h0s-.08.1-.08.1h0s-.07.08-.1.11v-.02s-.07.04-.11.03c.21.35-.31.92-.01,1.49-.05.13-.08-.11-.13-.04.1.15.12.32.08.64l-.03-.04c.02.91-.08,1.3-.14,2.33l.12-.08c-.02.22-.05.27-.08.37.18.25.01-.62.21-.39-.24.29,0,1.55-.28,1.75,0,.34.14-.1.14.24l-.07.09.1.09c-.02.22-.11.33-.17.34,0-.05-.02-.15-.02-.21-.09.29.03.81,0,.91l.05-.33c.07.92-.03,2.05.12,2.95l.06-.07c.1.68-.06.55-.01,1.29v-.03c.04.15.07.35.06.55-.07-.19-.13.36-.2.11.11.74.09.37.29.85l-.09.11c.08.17.13.18.15.55-.08-.31-.14.24-.25-.1-.2.78.2,1.17-.09,1.52.26.36.14-.68.2-.48.08-.17.19.3.17.54,0,.25-.33.43-.32,1.06,0-.06-.02-.07-.02-.13-.07.24.09.46-.02.75.16.16,0,.38.19.42l-.05-.58c.05.33.28.64.17,1.18-.04-.04-.09-.2-.12-.31-.06.16.04.3-.02.47-.2-.05-.04-.7-.19-1.05-.08.17.14.66-.07.49.27.25-.03.62.17,1.05l-.12-.03c.02.07.07.21.07.33l-.15-.23c.13.36-.11.63-.04,1.04,0-.77.14-.18.23-.49.08.39,0,.61-.09.85-.08.22-.26.62.11,1.15-.15-.13-.19-.65-.07-.43.03.24.21.55.32.69.82.42-.08-.16.3-.04.21.25.44.1.77-.04v.13c.42-.11.47-.28.49-.37.03-.1.03-.18.38-.45-.06.13-.13.28-.22.43l.36-.4v.19c.09-.11.15-.2.2-.26.04-.06.08-.1.13-.14.09-.08.19-.15.33-.26-.12,0-.12-.19.12-.41.21-.1-.01.17.31-.16-.02.12-.04.27-.26.33.01.04-.02.12-.01.17.23-.1.44-.39.56-.51-.05.04-.11.09-.15.1l.37-.57c.11-.04.07.04.04.13.09-.1.12-.2.25-.35.03.11.11.17-.06.4l.38-.51c.06,0,.31-.14.28-.05.15-.1.27-.28.4-.47.07-.09.13-.18.19-.25.02-.03.05-.06.08-.06,0-.02,0-.05.02-.09.07-.05.12-.03.17-.07.02.05.04.06.09.06-.02.1-.05.18-.08.25.03,0,.06-.04.1-.11.04-.07.07-.15.15-.04.14.18-.11.12-.11.26.18.18.5.49.55.94-.09-.12-.11-.23-.17-.35Zm2.04,4.52c-.06-.08-.21-.22-.17-.32.17.05.14.15.17.32Zm5.04-.91c.07.05.09.16.1.29-.05-.08-.09-.17-.1-.29Zm-1.11-12.02h.01c.12.18.08.12-.01,0Zm-.29-.34s-.05,0-.05.02c.04,0,.12.07.2.15,0-.04-.03-.1-.14-.17ZM1.18,16.83l-.03.09c-.04-.2,0-.14.03-.09Z" fill="#fff" stroke-width="0"/><path d="m14.07,24.02s-.04.04-.06.05c.02.05.05.06.06-.05Z" fill="#fff" stroke-width="0"/><polygon points="5.75 18.64 5.75 18.64 5.75 18.66 5.75 18.64" fill="#fff" stroke-width="0"/><path d="m16.48,15.52c-.12.02-.21.02-.26,0,.01.03.09.04.26,0Z" fill="#fff" stroke-width="0"/><path d="m10.28,9.27l.23.17c-.1-.09-.12-.14-.16-.2-.01.02,0,.09-.07.03Z" fill="#fff" stroke-width="0"/><path d="m8.98,7.04s-.07-.06-.11-.08l-.03.05c.13.12.25.17.14.03Z" fill="#fff" stroke-width="0"/><path d="m10.36,8.8c.05-.09-.1-.19-.26-.31l.03.02c-.14.06.05.17.23.28Z" fill="#fff" stroke-width="0"/><path d="m10.06,8.46s-.1-.08-.14-.12c-.06.03.05.06.14.12Z" fill="#fff" stroke-width="0"/><path d="m11.69,10.4c-.05-.08-.13.05-.14-.01-.17.02.57.32.14.01Z" fill="#fff" stroke-width="0"/><polygon points="10.47 8.45 10.44 8.59 10.59 8.59 10.47 8.45" fill="#fff" stroke-width="0"/><path d="m11.56,9.59l-.21-.24s-.05,0-.09-.03c.14.14.28.3.3.27Z" fill="#fff" stroke-width="0"/><path d="m11.26,9.32c-.07-.07-.15-.14-.2-.16.04.04.13.12.2.16Z" fill="#fff" stroke-width="0"/><polygon points="10.82 8.72 10.87 8.8 11.03 8.96 10.82 8.72" fill="#fff" stroke-width="0"/><path d="m14.06,11.95l.28.21c.06,0,0-.09-.1-.17-.08-.04-.19-.11-.18-.04Z" fill="#fff" stroke-width="0"/><path d="m13.52,10.98c.05.08.04.11.05.17l.11-.11-.16-.07Z" fill="#fff" stroke-width="0"/><path d="m14.29,11.64c.05,0,.45.25.12-.04-.06,0-.33-.2-.12.04Z" fill="#fff" stroke-width="0"/><path d="m15.59,15.24h.09s-.11-.26-.11-.26c.01.08.02.17.02.26Z" fill="#fff" stroke-width="0"/><path d="m11.2,16.23c.16.05-.08-.15.27-.1.09-.07-.31-.04-.21-.1-.12.07-.17.04-.06.2Z" fill="#fff" stroke-width="0"/><path d="m11.26,16.03s.07-.03.12-.05c-.07.02-.1.04-.12.05Z" fill="#fff" stroke-width="0"/><path d="m1.3.75h.01s.03-.18.03-.18v-.04s-.18.45-.18.45l.02-.02-.28-.38s.03,0,.05.01l.38.18.06-.3v-.02s-.19.46-.19.46l.02-.02.09-.11s-.03-.01-.07-.05l.07.05s0,0,0,0l-.09.11h-.03s.18-.43.18-.43v.02s-.14.25-.14.25l-.28-.13s-.03-.01-.05-.01l.24.35h-.02s0,.01,0,.01h0s.17-.41.17-.41h0s0,0,0,0h0s0,.03,0,.03l-.03.17h.02Z" fill="#fff" stroke-width="0"/><path d="m1.28.51l.03.02-.2-.12s-.01-.03-.01-.05l-.07.4v.02s.02-.01.02-.01l.3-.08s-.02-.04-.03-.06c0-.02-.02-.02-.04-.02h-.02s-.01-.02-.01-.02h0s0,0,0,0h0s0,0,0,0h0s-.02-.19-.02-.19l.02.19h0s0,0,0,0h0s.02,0,.02,0c0,0,.03,0,.03,0,0,0,0,0-.02,0l-.23.06h-.02s.07-.27.07-.27c0,.02,0,.04.01.05l.18.1s0,0-.01,0Z" fill="#fff" stroke-width="0"/><path d="m8.5,24.82h.04c.02-.05,0-.11-.04-.23v.23Z" fill="#fff" stroke-width="0"/><polygon points="7.18 21.46 7.2 21.52 7.29 21.35 7.18 21.46" fill="#fff" stroke-width="0"/><path d="m5.87,18.91s0-.03.02.03.07.12.09.18c-.16-.3.06-.28-.11-.21Z" fill="#fff" stroke-width="0"/></g></svg>