<svg width="965" height="962" viewBox="0 0 965 962" fill="none" xmlns="http://www.w3.org/2000/svg">
<path fill-rule="evenodd" clip-rule="evenodd" d="M556.708 24.1375C565.964 25.6265 575.223 27.1196 584.457 28.7246C581.78 27.8376 579.141 26.8495 576.599 25.5885C573.929 24.8385 571.249 24.1185 568.529 23.5485C566.535 23.0485 564.57 22.4485 562.607 21.8485C560.186 21.1085 557.766 20.3685 555.291 19.8165C556.35 21.1245 556.995 22.7605 556.708 24.1375ZM858.679 193.249C860.321 195.019 861.771 196.93 863.124 198.913C868.148 204.292 872.951 209.862 877.431 215.699C883.897 225.847 889.399 236.454 894.179 247.383C895.81 249.579 897.353 251.832 898.659 254.239C899.667 256.801 900.352 259.455 901.036 262.108V262.109C901.567 264.168 902.098 266.225 902.779 268.239C903.873 271.935 905.935 275.21 907.979 278.457C908.495 279.277 909.011 280.096 909.509 280.919C910.484 282.964 911.421 285.028 912.359 287.094C914.56 291.94 916.764 296.793 919.449 301.399C920.447 303.75 921.295 306.16 922.143 308.571C923.113 311.331 924.084 314.091 925.279 316.759C925.804 317.972 926.396 319.151 926.987 320.328L926.988 320.329V320.33H926.989V320.333C928.168 322.678 929.344 325.017 929.969 327.599C931.001 329.277 932.001 330.976 932.968 332.693C929.369 318.707 924.514 305.028 919.698 291.459L919.697 291.457C918.874 289.138 918.054 286.822 917.238 284.509C922.368 296.469 927.108 308.559 931.708 320.719C934.318 326.489 936.088 332.529 937.208 338.739C937.503 339.883 937.784 341.031 938.052 342.182C938.592 343.227 939.131 344.272 939.669 345.318L940.539 347.009C941.756 349.79 942.519 352.715 943.283 355.643V355.644L943.284 355.646C943.756 357.457 944.229 359.269 944.809 361.049C946.309 365.259 947.719 369.499 948.369 373.939C948.716 376.972 949.376 379.949 950.036 382.925V382.927L950.037 382.928V382.931C950.463 384.85 950.888 386.768 951.229 388.699C951.314 389.549 951.401 390.399 951.49 391.249V391.255C951.79 394.144 952.09 397.036 952.229 399.939C952.545 403.352 952.003 406.701 951.033 409.943L951.188 410.439C951.242 412.125 951.145 413.811 951.048 415.494C950.892 418.213 950.736 420.92 951.218 423.589C951.758 425.766 952.036 427.97 952.223 430.185C952.45 431.236 952.656 432.293 952.861 433.35V433.351C953.132 434.74 953.402 436.131 953.722 437.509C956.432 443.179 957.962 449.249 958.742 455.469C960.182 461.599 961.272 467.799 960.662 474.109C960.967 476.31 961.406 478.494 961.844 480.674C962.21 482.495 962.575 484.314 962.862 486.139C962.914 487.682 962.987 489.227 963.059 490.772V490.777L963.06 490.782V490.787L963.11 491.858L963.178 493.38C965.091 510.064 965.141 526.861 961.961 543.589C958.572 560.815 951.228 576.785 942.678 592.012L942.66 592.059C941.912 594.418 941.089 596.759 940.266 599.102L940.265 599.103V599.105L940.264 599.106V599.107C938.91 602.96 937.556 606.814 936.53 610.749C935.419 615.994 934.934 621.324 934.448 626.655V626.661L934.447 626.663V626.671C934.225 629.11 934.002 631.548 933.72 633.979C933.08 643.099 932.07 652.169 929.71 661.019C927.86 665.819 925.88 670.599 923.41 675.109C919.55 681.018 916.08 687.199 913.4 693.739C911.706 697.833 910.178 701.987 908.65 706.138L908.648 706.144L908.647 706.147C907.72 708.684 906.775 711.215 905.81 713.739C903.65 718.139 901.54 722.569 899.45 727.009C895.468 737.639 889.769 747.543 882.58 756.329C881.915 757.173 881.241 758.01 880.566 758.846C878.084 761.923 875.606 764.995 873.64 768.439C872.196 770.733 870.808 773.062 869.42 775.39C866.513 780.267 863.608 785.141 860.19 789.689C855.37 795.139 850.67 800.729 846.03 806.339C844.394 808.303 842.854 810.357 841.313 812.411C838.161 816.612 835.006 820.817 831.03 824.269C827.01 827.859 822.69 831.129 818.19 834.099C812.98 837.799 808.13 841.989 803.49 846.379C800.64 849.139 797.8 851.889 794.96 854.649C794.227 855.45 793.534 856.297 792.841 857.144L792.84 857.145H792.839V857.146C791.592 858.669 790.344 860.194 788.86 861.459C787.45 862.389 786.02 863.309 784.59 864.219C780.703 866.899 776.353 868.724 772.013 870.545C771.25 870.864 770.489 871.185 769.73 871.509C766.912 872.681 763.959 873.525 761.016 874.365C760.292 874.571 759.57 874.779 758.85 874.989L751.35 878.349C748.11 880.159 744.88 881.959 741.64 883.759C737.52 886.729 733.18 889.289 728.47 891.199C727.397 891.645 726.325 892.093 725.252 892.543C721.955 893.92 718.655 895.299 715.34 896.639C694.304 908.895 671.693 917.91 649.133 926.904L649.131 926.905L649.052 926.937L645.76 928.25C643.7 929.212 641.641 930.177 639.583 931.145C621.206 939.782 602.873 948.398 582.89 952.76C580.055 953.044 577.229 953.199 574.417 953.353C566.973 953.759 559.627 954.16 552.47 956.97C548.653 957.346 544.827 957.755 540.996 958.164L540.985 958.165L540.975 958.166C526.395 959.723 511.728 961.29 497.1 961.14V961.12C486.874 961.029 476.757 959.873 466.64 958.718C458.82 957.824 450.999 956.931 443.13 956.53C428.217 952.295 413.186 948.831 398.113 945.358L398.094 945.354C393.665 944.333 389.233 943.312 384.8 942.27C377.109 939.981 369.255 938.346 361.407 936.713H361.406L361.405 936.712H361.402L361.4 936.711L361.399 936.71H361.397L361.396 936.709C347.992 933.92 334.607 931.135 322.09 925.1C318.664 924.002 315.187 923.088 311.724 922.179L311.722 922.178H311.719L311.718 922.177L311.715 922.176H311.713L311.711 922.175H311.71L311.708 922.174C301.195 919.411 290.811 916.684 282.39 908.97C272.89 905.28 263.73 900.85 256.5 893.51C243.774 888.753 233.006 880.702 222.237 872.652C219.903 870.898 217.557 869.161 215.2 867.44C204.708 853.446 190.432 844.451 176.045 835.386C170.713 832.026 165.365 828.657 160.19 825.02C155.316 821.423 150.785 817.407 146.257 813.394L146.256 813.393C141.457 809.14 136.662 804.891 131.47 801.15C128.731 799.248 125.748 797.7 122.769 796.153C117.711 793.527 112.662 790.906 108.83 786.57C104.634 782.208 101.207 777.222 97.781 772.236C95.897 769.494 94.013 766.753 92.001 764.116C90.425 762.468 88.989 760.715 87.636 758.9C86.222 757.365 84.752 755.875 83.281 754.384L83.28 754.383C78.859 749.901 74.439 745.421 71.57 739.76C71.408 739.143 71.2446 738.528 71.08 737.914C69.654 736.402 68.279 734.844 67.12 733.12C64.131 728.304 61.568 723.214 59.013 718.14C58.2976 716.713 57.5766 715.29 56.85 713.87C56.056 712.341 55.193 710.843 54.33 709.344L54.329 709.343C52.909 706.88 51.489 704.414 50.37 701.81C49.4412 698.852 48.4721 695.908 47.463 692.978C46.822 693.052 46.163 693.008 45.52 692.829L45.5 692.84C42.03 692.07 40.03 688.74 38.38 685.87C36.386 682.327 35.714 678.358 35.044 674.397C34.78 672.834 34.515 671.273 34.17 669.74C30.2 666.569 27.29 662.28 24.86 657.87C23 655.299 21.41 652.54 20 649.689C18.72 646.059 18.1 642.289 17.59 638.48C16.997 637.526 16.798 636.436 16.6 635.351C16.535 634.992 16.47 634.633 16.39 634.28C16.025 631.889 15.335 629.579 14.645 627.265C14.087 625.397 13.529 623.526 13.14 621.61C12.701 618.572 12.611 615.485 12.522 612.414C12.506 611.845 12.4886 611.277 12.47 610.709C11.038 609.103 9.97898 607.214 8.91998 605.322C8.20998 604.057 7.50197 602.792 6.67997 601.61C5.07997 599.73 3.66997 597.74 2.61997 595.5C1.75797 592.595 1.32797 589.593 0.898975 586.592C0.654975 584.891 0.411975 583.191 0.0899748 581.51C-0.164025 578.069 0.166975 574.628 0.496975 571.19C0.621975 569.893 0.746975 568.596 0.839975 567.299C1.53097 565.109 2.13697 562.871 2.74397 560.631C3.95497 556.159 5.16797 551.68 7.05997 547.569C7.79997 545.84 8.46998 544.09 9.11998 542.319L9.08397 542.036C8.79597 539.749 8.50597 537.454 8.40998 535.15C8.40929 534.629 8.39762 534.109 8.37498 533.589C8.28197 530.992 8.17797 528.116 10.54 526.6C10.618 525.675 10.6913 524.75 10.76 523.824C11.05 520.033 11.34 516.241 12.16 512.52C12.528 510.56 12.674 508.564 12.82 506.571C12.948 504.83 13.075 503.09 13.35 501.38C13.877 497.652 14.92 494.053 15.962 490.452C16.721 487.831 17.48 485.21 18.04 482.54C18.14 481.645 18.224 480.744 18.307 479.843C18.563 477.068 18.82 474.282 19.59 471.609C20.145 469.218 21.11 466.968 22.075 464.716C22.437 463.871 22.8 463.025 23.141 462.172C23.608 455.442 24.413 448.741 25.708 442.093L25.748 440.677V440.67C25.82 437.592 25.789 434.506 25.758 431.421C25.694 424.902 25.63 418.381 26.518 411.92C26.642 410.276 26.672 408.626 26.702 406.978C26.75 404.335 26.798 401.695 27.229 399.09C28.047 396.432 28.203 393.715 28.361 390.987C28.4137 389.976 28.483 388.967 28.569 387.96C29.139 382.07 30.139 376.29 31.609 370.57C32.237 367.42 32.525 364.22 32.813 361.024V361.021L32.814 361.017V361.008L32.899 360.08C33.459 357.638 33.985 355.189 34.511 352.739C35.176 349.639 35.841 346.538 36.579 343.45C37.15 341.491 37.512 339.483 37.872 337.481V337.48C38.072 336.365 38.272 335.252 38.509 334.15C39.579 331.616 40.343 328.985 41.108 326.353V326.349L41.109 326.348C41.351 325.51 41.5976 324.674 41.849 323.84C42.524 321.842 43.086 319.812 43.648 317.783C44.726 313.891 45.802 310.005 47.668 306.37C47.747 305.736 47.744 305.072 47.741 304.406C47.735 302.844 47.728 301.272 48.759 300.06C50.123 297.888 51.161 295.553 52.201 293.213C52.9 291.641 53.599 290.067 54.399 288.54C55.095 287.342 55.453 285.98 55.809 284.628C56.147 283.338 56.484 282.058 57.109 280.94C58.235 279.363 58.853 277.556 59.469 275.758C59.5903 275.4 59.7136 275.044 59.839 274.69C60.682 273.211 61.509 271.723 62.336 270.235V270.233L63.348 268.416C73.494 241.948 89.909 217.987 109.001 196.869C111.997 193.586 114.98 190.287 117.964 186.987L117.967 186.983L118.733 186.137C119.139 185.343 119.522 184.537 119.879 183.72C124.219 178.25 128.459 172.65 131.849 166.51C133.954 163.931 135.994 161.295 138.035 158.657V158.656L138.036 158.655H138.037V158.654C142.684 152.647 147.336 146.636 152.769 141.3C155.784 137.164 159.305 133.481 162.829 129.794H162.83C164.308 128.247 165.787 126.7 167.229 125.12L167.555 124.733L168.151 124.023L168.155 124.018C169.914 121.921 171.664 119.835 173.689 117.98C177.709 114.13 181.679 110.23 185.359 106.05C188.079 103.302 190.979 100.73 193.877 98.1595C195.187 96.9975 196.497 95.8355 197.789 94.6595C201.019 90.5695 204.659 86.8096 208.989 83.8696C212.289 81.8696 215.229 79.7395 218.019 77.1695C220.849 74.4495 223.849 72.0295 227.239 70.0295C231.859 67.3695 236.169 64.2896 240.149 60.7395C241.911 59.6165 243.587 58.3596 245.261 57.1055C248.089 54.9855 250.914 52.8695 254.149 51.3995C256.836 50.2375 259.407 48.8446 261.98 47.4486H261.982C262.866 46.9686 263.75 46.4886 264.639 46.0186L265.253 45.6035C268.017 43.7285 270.783 41.8535 273.809 40.4296C276.641 39.0435 279.699 38.0715 282.763 37.3046C285.023 35.8745 287.434 34.6665 289.836 33.4646C291.001 32.8862 292.16 32.2941 293.311 31.6885C295.701 30.4785 298.141 29.3585 300.481 28.3085C300.985 28.0379 301.488 27.7649 301.991 27.4895L301.993 27.4886C304.599 26.0655 307.206 24.6415 310.081 23.8285C310.591 23.6512 311.103 23.4802 311.617 23.3155C316.302 21.3605 321.155 19.8215 326.115 18.8355C328.354 18.1485 330.628 17.5755 332.941 17.1885C335.185 16.7035 337.459 16.4825 339.734 16.2625C342.049 16.0375 344.365 15.8125 346.651 15.3085C350.278 14.5535 353.835 13.5325 357.392 12.5125C360.337 11.6665 363.28 10.8225 366.261 10.1285C379.221 7.28855 392.251 4.46855 405.521 3.63855C406.974 3.31087 408.424 2.97086 409.871 2.61855C416.446 1.03855 423.143 -0.571452 429.881 0.198548C432.885 0.391548 435.865 0.814548 438.843 1.23755C443.3 1.87055 447.751 2.50255 452.271 2.35855C455.352 2.49455 458.44 2.27755 461.525 2.06055C465.028 1.81355 468.528 1.56755 472.011 1.83855C478.605 2.52855 484.903 4.46555 491.205 6.40455C493.495 7.10955 495.785 7.81455 498.091 8.45855C499.782 8.67855 501.475 8.88955 503.168 9.10255H503.173C511.613 10.1605 520.067 11.2205 528.361 13.1185L528.789 13.2265C531.133 13.3695 533.474 13.5595 535.829 13.7685C538.447 14.1655 541.035 14.7485 543.621 15.3315C544.364 15.4995 545.106 15.6652 545.849 15.8285C547.057 16.0355 548.267 16.2125 549.476 16.3885C552.182 16.7825 554.882 17.1765 557.529 17.9086C559.566 18.5846 561.652 19.0845 563.738 19.5855C565.852 20.0925 567.966 20.5996 570.029 21.2885C574.459 23.2655 579.143 24.2205 583.857 25.1815L584.529 25.3186C586.744 25.9125 588.941 26.5725 591.139 27.2335C594.758 28.3205 598.378 29.4085 602.079 30.1985C603.522 30.6985 604.956 31.2285 606.39 31.7575C608.365 32.4855 610.34 33.2146 612.339 33.8685C620.569 34.8785 628.599 36.8885 636.559 39.1685C640.774 40.6505 645.122 41.4455 649.474 42.2416C652.175 42.7365 654.877 43.2305 657.549 43.8885C660.643 45.0085 663.596 46.4985 666.552 47.9885C669.271 49.3585 671.993 50.7315 674.829 51.8186C676.213 52.2235 677.603 52.6136 678.994 53.0046H678.998L678.999 53.0056C683.869 54.3736 688.749 55.7435 693.399 57.7185C695.018 58.7225 696.597 59.7935 698.177 60.8645C701.397 63.0485 704.617 65.2326 708.179 66.8485C715.266 69.7085 721.734 73.8016 728.19 77.8885C730.608 79.4175 733.023 80.9465 735.469 82.4085C737.248 83.9085 738.943 85.4976 740.638 87.0855L740.639 87.0875C743.488 89.7575 746.334 92.4275 749.569 94.6585C751.035 95.5406 752.544 96.3885 754.061 97.2415L754.069 97.2466L754.071 97.2476L754.074 97.2495C759.984 100.572 766 103.954 769.929 109.569C771.979 112.349 774.039 115.119 776.179 117.819C778.782 119.718 781.551 121.374 784.318 123.029C787.803 125.113 791.285 127.195 794.429 129.759C795.394 130.554 796.357 131.351 797.319 132.149C798.281 132.947 799.244 133.743 800.209 134.539C801.743 135.96 803.13 137.529 804.517 139.098C805.815 140.567 807.112 142.035 808.529 143.379C810.858 145.564 813.405 147.473 815.953 149.383L815.954 149.384C818.165 151.041 820.377 152.7 822.449 154.539C824.84 156.354 826.936 158.51 829.032 160.665L829.033 160.667C830.102 161.766 831.172 162.866 832.279 163.919C834.95 166.45 837.443 169.15 839.928 171.84L839.929 171.841L839.93 171.842C840.459 172.415 840.989 172.987 841.519 173.559C845.503 177.132 848.851 181.316 852.2 185.501C854.306 188.134 856.413 190.767 858.679 193.249ZM22.59 478.733C22.068 480.102 21.562 481.478 21.16 482.89C20.35 486.462 20.1 490.118 19.85 493.776C19.582 497.705 19.313 501.637 18.35 505.47C19.543 503.63 20.473 501.673 21.288 499.663C21.489 495.725 21.982 491.399 22.666 486.923C22.612 484.193 22.584 481.462 22.59 478.733ZM21.9 594.776C21.814 596.605 21.848 598.456 22.14 600.26V600.25C22.1746 599.507 22.2033 598.763 22.226 598.017L22.172 597.669C22.1272 597.332 22.0939 596.995 22.072 596.657C22.053 596.43 22.036 596.204 22.012 595.979C21.9786 595.635 21.9466 595.292 21.916 594.949V594.946L21.9 594.776ZM935.644 354.147C936.581 356.532 937.518 358.915 938.15 361.403C938.176 362.494 938.187 363.585 938.197 364.676C938.229 368.073 938.261 371.465 938.778 374.819C939.047 376.222 939.36 377.615 939.673 379.007L939.674 379.012C940.283 381.716 940.891 384.418 941.168 387.189C941.177 390.593 941.192 393.996 941.304 397.394C941.14 396.509 940.923 395.636 940.652 394.779C940.108 392.989 939.289 391.298 938.468 389.605L938.467 389.604C937.583 387.779 936.696 385.95 936.152 383.989C935.37 381.75 934.887 379.43 934.405 377.113V377.112L934.404 377.111V377.107C934.165 375.96 933.927 374.814 933.652 373.679C933.204 372.561 932.733 371.454 932.24 370.356C932.097 368.641 932.073 366.919 932.049 365.196V365.192C932.019 363.022 931.989 360.851 931.719 358.689C930.259 352.059 929.689 345.289 930.579 338.529C931.424 340.529 931.974 342.634 932.525 344.74L932.526 344.741V344.744C932.934 346.302 933.342 347.862 933.869 349.379C934.402 350.99 935.023 352.569 935.643 354.146L935.644 354.147ZM924.115 349.796L923.943 349.35L923.553 347.621L923.54 347.567C922.964 345.013 922.386 342.457 921.805 339.899C922.018 340.45 922.226 341 922.429 341.549C923.27 344.233 923.835 346.996 924.115 349.796ZM918.511 325.609C917.735 322.301 916.942 318.996 916.132 315.694C916.656 316.341 917.192 316.98 917.739 317.609C918.315 319.983 918.4 322.426 918.485 324.874L918.511 325.609ZM295.053 40.7756C295.44 40.6069 295.827 40.4392 296.215 40.2725L296.511 40.0385C299.814 38.1475 303.266 36.5065 306.718 34.8656C310.531 33.0536 314.345 31.2405 317.961 29.0885C313.971 31.1385 309.891 32.9285 305.721 34.5585C302.081 36.4835 298.486 38.5046 295.053 40.7756ZM50.797 662.267C48.565 655.24 46.552 648.148 44.6 641.041C44.7973 641.507 44.996 641.972 45.196 642.438C46.248 644.897 47.302 647.358 48.158 649.889C48.516 651.359 48.914 652.818 49.337 654.27C49.7836 656.943 50.2703 659.609 50.797 662.267ZM176.53 127.15C175.118 128.835 173.78 130.583 172.469 132.35C171.506 133.187 170.537 134.017 169.562 134.839C164.725 138.92 160.042 143.159 155.472 147.515C157.548 144.639 159.653 141.796 162.36 139.43C163.959 137.658 165.461 135.798 166.963 133.939C169.811 130.414 172.657 126.889 176.16 123.97C177.614 122.473 179.01 120.915 180.405 119.358H180.406C183.616 115.776 186.826 112.193 190.75 109.35C192.56 107.778 194.271 106.091 195.982 104.404C198.799 101.626 201.616 98.8475 204.87 96.5885C202.902 98.6905 201.278 101.057 199.652 103.426C199.205 104.079 198.755 104.73 198.3 105.38C196.459 107.5 194.617 109.63 192.776 111.76L192.774 111.761L192.773 111.763L192.772 111.764L192.771 111.766L192.769 111.767L192.768 111.769L192.767 111.77L192.765 111.772L192.764 111.773L192.75 111.79L191.867 112.512C186.391 116.993 180.857 121.522 176.53 127.15ZM54.27 300.46C54.432 299.311 54.764 298.216 55.15 297.135C54.72 299.411 54.3406 301.702 54.012 304.009C53.6934 305.722 53.4438 307.448 53.264 309.182C52.8798 309.921 52.5379 310.681 52.24 311.46C51.535 315.063 50.408 318.534 49.28 322.007C48.391 324.742 47.503 327.478 46.82 330.28C45.246 333.809 44.177 337.511 43.107 341.217C42.267 344.126 41.427 347.038 40.34 349.87C39.729 354.264 38.738 358.658 37.744 363.065C36.836 367.093 35.925 371.131 35.3 375.19C35.179 376.209 35.121 377.241 35.063 378.273C35.0247 379.032 34.9737 379.791 34.91 380.55C34.6914 381.292 34.4513 382.029 34.19 382.758C33.836 383.774 33.482 384.79 33.25 385.83C32.733 390.62 31.94 395.371 31.135 400.122C30.896 396.459 31.325 392.874 32.04 389.29C32.22 385.41 32.92 381.61 33.77 377.84C34.067 372.026 35.436 366.405 36.805 360.78C37.231 359.032 37.656 357.284 38.05 355.53C38.684 353.152 39.175 350.739 39.666 348.328C40.578 343.855 41.486 339.39 43.3 335.18C43.703 332.37 44.402 329.63 45.102 326.891C45.635 324.804 46.168 322.718 46.57 320.6C46.78 320.113 46.998 319.631 47.215 319.148V319.147L47.216 319.145C47.936 317.544 48.654 315.947 49.13 314.25C49.882 312.059 50.401 309.8 50.92 307.543L51.04 307.02C51.37 306.461 51.744 305.92 52.119 305.379C53.165 303.869 54.212 302.359 54.27 300.46ZM885.04 688.523C888.62 682.716 892.244 676.939 895.878 671.168C895.378 672.528 894.902 673.898 894.45 675.279C889.92 685.379 885.15 695.419 878.12 704.049C881.057 699.186 883.979 694.134 885.04 688.523ZM822.465 812.434C824.813 809.286 827.043 806.052 829.151 802.739C834.829 793.499 839.838 783.923 844.499 774.172C845.237 773.476 845.955 772.763 846.6 771.989C847.69 770.419 848.77 768.859 849.85 767.289C851.901 764.597 853.427 761.594 854.955 758.587L855.02 758.459C857.219 755.178 859.544 751.979 861.868 748.781V748.78C866.116 742.934 870.362 737.09 873.84 730.749C875.57 728.1 877.408 725.526 879.245 722.953L879.246 722.952L879.247 722.951V722.95L879.248 722.949L879.249 722.947L879.25 722.946V722.945L879.251 722.944C881.066 720.402 882.881 717.862 884.59 715.249C887.98 710.229 890.88 704.919 893.76 699.599L894.709 698.089C896.875 694.643 899.042 691.197 901.11 687.689C899.073 692.758 896.195 697.387 893.317 702.016C891.364 705.158 889.41 708.3 887.72 711.579C885.313 716.534 882.403 721.194 879.493 725.855C876.601 730.487 873.708 735.119 871.31 740.039C869.117 744.452 866.862 748.837 864.607 753.219L864.486 753.455L864.483 753.46L864.48 753.465L864.477 753.47L862.947 756.446L862.593 757.137L862.301 757.707L861.66 758.959C859.122 762.822 856.371 766.528 853.621 770.233L853.62 770.234L853.619 770.235L853.618 770.236V770.237L853.617 770.238C851.762 772.736 849.908 775.235 848.12 777.779C845.76 781.369 843.49 785.009 841.62 788.889C839.433 792.771 836.78 796.33 834.122 799.894L834.121 799.895L834.095 799.93L834.057 799.98L833.977 800.088L833.644 800.535L833.4 800.862L833.22 801.104L832.69 801.819C829.566 805.43 826.178 808.771 822.787 812.116L822.465 812.434ZM659.282 913.126C653.656 915.715 647.853 917.754 641.6 919.06C641.16 920.37 640.41 921.58 639.68 922.73C639.627 922.816 639.572 922.902 639.516 922.987L639.472 923.053C639.394 923.167 639.314 923.279 639.23 923.39C647.227 919.564 655.503 916.487 663.851 913.6C662.818 913.669 661.781 913.618 660.76 913.449L660.75 913.429C660.253 913.37 659.762 913.269 659.282 913.126ZM675.025 909.807C678.292 908.709 681.549 907.586 684.798 906.438C683.215 906.858 681.645 907.325 680.09 907.839C678.365 908.335 676.69 909.049 675.025 909.807ZM89.744 742.221C86.584 735.667 83.432 729.132 79.709 722.869C83.934 728.822 88.656 734.441 93.895 739.785C95.3651 741.876 96.9077 743.916 98.52 745.9C101.196 749.088 103.11 752.733 105.027 756.384C106.471 759.133 107.916 761.885 109.69 764.45C112.981 768.76 116.891 772.527 120.801 776.293L121.134 776.614L121.544 777.01L121.833 777.288L122.013 777.462C120.168 776.051 118.308 774.66 116.433 773.29L115.957 772.939L114.18 771.05C113.231 769.766 112.306 768.461 111.381 767.157L111.38 767.155C110.151 765.423 108.923 763.692 107.64 762.01C103.078 757.878 98.362 753.924 93.569 750.061C92.2768 747.458 91.0027 744.847 89.747 742.228L89.744 742.221ZM123.721 763.997C127.271 767.654 130.873 771.261 134.524 774.818C131.872 771.638 129.071 768.59 126.19 765.607C125.36 765.073 124.537 764.536 123.721 763.997ZM163.375 276.314C164.7 271.82 166.006 267.322 167.294 262.818C176.458 230.944 185.645 198.991 206.861 173.219C236.571 144.399 273.071 123.459 309.341 103.989C331.061 92.2825 355.596 88.0415 379.77 83.8635C383.866 83.1555 387.951 82.4495 392.011 81.7085C475.271 67.7186 527.701 69.1486 607.431 99.4286C633.551 111.029 659.581 122.879 685.301 135.329C708.141 149.259 730.291 164.679 750.751 181.939C752.909 184.425 755.069 186.911 757.232 189.397L757.245 189.411C781.694 217.524 806.213 245.717 827.121 276.619C841.921 296.809 855.771 319.259 859.551 344.399C860.233 351.945 861.236 359.477 862.239 367.01C864.015 380.34 865.791 393.675 865.791 407.099C865.905 426.035 861.588 444.332 857.268 462.646C854.752 473.308 852.236 483.976 850.591 494.779C846.161 527.929 843.971 561.549 843.561 594.969C844.281 625.999 839.001 657.249 827.411 686.079C817.051 715.927 795.593 738.954 774.461 761.632L774.46 761.633C772.95 763.253 771.444 764.871 769.941 766.489C767.544 769.204 765.16 771.937 762.775 774.671C746.615 793.194 730.388 811.792 709.841 825.629C682.321 845.229 650.821 857.549 618.541 866.859L617.373 867.256C590.433 876.406 563.504 885.552 534.661 885.019L534.651 885.039C503.711 885.489 473.531 877.549 444.901 866.399C423.311 860.249 401.711 854.119 379.841 849.009C370.112 846.867 360.245 844.962 350.349 843.051L350.348 843.05H350.343L350.342 843.049H350.338L350.337 843.048H350.334C308.819 835.031 266.8 826.918 232.331 800.829C209.488 780.142 191.931 754.892 174.598 729.439C174.347 728.842 174.074 728.255 173.781 727.679L172.545 726.02L171.688 724.87L171.687 724.869L171.661 724.834L171.636 724.8L171.635 724.799C170.936 723.86 170.238 722.923 169.541 721.989L169.498 721.945C162.366 711.475 155.188 701.044 147.611 690.954C147.2 690.113 146.801 689.264 146.403 688.415L146.402 688.414V688.413L146.401 688.411C145.747 687.017 145.093 685.624 144.381 684.269C143.731 683.321 143.05 682.389 142.369 681.456C141.269 679.949 140.167 678.44 139.191 676.859C136.541 672.018 133.601 667.359 130.631 662.709C128.761 656.979 126.261 651.499 123.031 646.409C121.557 642.826 120.03 639.27 118.504 635.717L118.503 635.715L118.502 635.712L118.499 635.705C117.942 634.408 117.386 633.111 116.831 631.814C116.569 630.557 116.321 629.297 116.072 628.036C115.355 624.395 114.637 620.751 113.588 617.189C113.294 615.434 113.008 613.678 112.728 611.921C112.125 608.161 111.521 604.401 110.778 600.659C110.59 599.102 110.552 597.533 110.515 595.967C110.473 594.215 110.432 592.466 110.178 590.739C109.896 589.124 109.388 587.567 108.881 586.013C108.183 583.875 107.487 581.744 107.388 579.479C107.139 577.996 107.243 576.513 107.347 575.029C107.41 574.133 107.473 573.236 107.458 572.34L107.352 571.509L107.272 570.857V570.856C107.135 569.748 106.998 568.639 106.818 567.539C106.278 564.639 105.888 561.739 105.848 558.789C105.712 557.002 105.378 555.23 105.044 553.459C104.666 551.455 104.289 549.452 104.198 547.429C103.708 542.919 103.438 538.399 103.748 533.879C103.395 531.979 103.396 530.07 103.397 528.16C103.398 526.552 103.399 524.944 103.188 523.34C103.155 520.9 103.279 518.462 103.558 516.039C103.268 513.619 103.058 511.189 102.928 508.759C103.184 506.798 103.097 504.821 103.01 502.851C102.958 501.666 102.906 500.484 102.928 499.309C103.248 496.519 103.498 493.699 103.718 490.919C104.066 489.619 103.785 488.265 103.508 486.929C103.386 486.344 103.265 485.762 103.198 485.189C103.099 481.538 103.692 477.955 104.285 474.373C104.409 473.629 104.53 472.884 104.648 472.139C105.091 470.33 104.922 468.513 104.754 466.689C104.715 466.286 104.68 465.882 104.648 465.479C104.938 463.009 105.198 460.539 105.318 458.049C105.748 457.089 105.948 456.079 105.948 455.029C106.15 454.15 106.075 453.272 106 452.4C105.919 451.457 105.838 450.519 106.108 449.589C106.428 448.589 106.668 447.599 106.678 446.529C106.883 445.662 107.194 444.825 107.506 443.986C107.759 443.307 108.012 442.627 108.208 441.929C108.923 439.998 109.031 437.94 109.138 435.891C109.172 435.245 109.206 434.6 109.258 433.959C109.323 432.948 109.427 431.939 109.53 430.93C109.699 429.287 109.868 427.644 109.868 425.989C110.598 424.019 110.848 421.989 111.008 419.909C111.157 419.48 111.308 419.052 111.461 418.625V418.624C111.724 417.896 111.976 417.164 112.218 416.429C112.332 415.784 112.426 415.131 112.521 414.477C112.843 412.253 113.166 410.018 114.248 408.039C115.076 406.62 115.129 404.895 115.183 403.16C115.199 402.651 115.215 402.141 115.25 401.638C116.268 399.302 117.385 397.11 118.791 395.3C123.602 389.045 126.298 381.788 129.002 374.507C129.67 372.708 130.339 370.907 131.041 369.12C136.591 359.67 141.431 349.96 145.021 339.57C153.531 331.05 161.071 303.35 162.511 291.08C162.635 289.927 162.796 288.727 162.96 287.513C163.493 283.566 164.047 279.464 163.375 276.314ZM101.763 593.345C101.756 594.043 101.75 594.74 101.757 595.437C101.277 593.695 100.843 591.939 100.441 590.169L100.433 590.15L100.432 590.148C99.506 587.99 98.58 585.832 97.662 583.675L97.608 583.399C97.4 580.935 96.858 578.53 96.316 576.127C95.638 573.117 94.961 570.109 94.938 566.989C94.778 566.073 94.602 565.16 94.426 564.247C93.827 561.152 93.229 558.058 93.298 554.869C92.668 551.679 93.118 548.579 93.788 545.429C93.963 546.83 94.291 548.194 94.62 549.559C95.006 551.166 95.393 552.774 95.528 554.439C95.4913 554.761 95.4526 555.083 95.412 555.403C95.196 557.125 94.982 558.83 95.428 560.549C95.526 562.273 96.238 563.797 96.954 565.328L96.955 565.33C97.1163 565.671 97.274 566.014 97.428 566.359C97.625 568.995 98.244 571.554 98.863 574.114C99.535 576.896 100.208 579.679 100.338 582.559C100.416 582.993 100.491 583.427 100.563 583.862C100.835 585.471 101.105 587.076 101.648 588.619C101.792 590.192 101.777 591.769 101.763 593.345ZM87.688 537.602C87.6613 538.006 87.6366 538.409 87.614 538.812C87.5706 538.184 87.5283 537.555 87.487 536.927L87.409 535.738C87.5156 534.462 87.6323 533.185 87.759 531.909C87.928 533.814 87.808 535.71 87.688 537.602ZM94.158 477.209C93.643 474.383 93.503 471.543 93.571 468.696C97.73 458.48 99.021 447.697 99.918 436.84C100.1 436.424 100.287 436.011 100.478 435.599C101.338 439.659 101.338 444.009 100.328 447.989C100.798 449.886 100.184 451.688 99.568 453.494C99.228 454.496 98.885 455.499 98.728 456.519C98.7045 457.08 98.6899 457.642 98.684 458.205C98.659 459.757 98.634 461.307 98.238 462.819C98.021 463.47 97.758 464.112 97.496 464.755C96.94 466.119 96.381 467.488 96.238 468.949C95.836 471.006 95.558 473.085 95.281 475.162C94.815 478.659 94.349 482.15 93.288 485.519C93.3013 485.388 93.314 485.257 93.326 485.126C93.3486 484.866 93.3727 484.604 93.398 484.339L93.388 484.329C93.493 482.952 93.658 481.571 93.824 480.19C93.943 479.196 94.062 478.202 94.158 477.209ZM101.231 421C102.603 420.659 103.904 420.077 105.072 419.28C104.813 420.72 104.581 422.164 104.375 423.613C104.038 425.889 103.699 428.167 103.158 430.409C102.236 429.698 101.334 429.468 100.486 429.57C100.709 426.708 100.942 423.848 101.231 421ZM96.444 622.976C96.2105 621.024 95.9217 619.08 95.578 617.145C97.248 621.895 98.828 626.685 100.388 631.449C100.894 632.764 101.413 634.075 101.946 635.381C101.263 634.365 100.59 633.343 99.926 632.316C98.778 629.194 97.6173 626.08 96.444 622.976ZM92.069 603.577C92.1036 604.151 92.1506 604.723 92.21 605.294C91.9882 604.69 91.7606 604.088 91.527 603.489C90.733 601.428 89.939 599.367 89.612 597.169C90.033 598.33 90.484 599.48 90.934 600.63L90.936 600.635V600.636C91.32 601.615 91.704 602.593 92.069 603.577ZM101.794 621.073C100.842 617.675 99.888 614.274 98.775 610.928C99.125 611.144 99.499 611.315 99.888 611.419C100.126 611.487 100.369 611.541 100.617 611.579L101.015 613.33L101.371 614.899C101.895 616.329 102.522 617.724 103.15 619.118L103.591 620.104C104.766 623.931 106.039 627.787 107.458 631.599C107.975 633.232 108.542 634.848 109.109 636.464C110 639.005 110.891 641.545 111.588 644.149C112.492 646.083 113.722 647.885 114.94 649.669C115.26 650.135 115.576 650.603 115.888 651.069C116.104 652.07 116.276 653.092 116.449 654.116L116.451 654.127L116.489 654.353L116.54 654.657C116.038 654.062 115.539 653.464 115.042 652.865C114.654 652.011 114.26 651.159 113.861 650.309C113.424 649.347 112.979 648.387 112.534 647.427C110.833 643.759 109.131 640.088 107.831 636.259C106.823 633.402 105.634 630.617 104.445 627.83L104.444 627.828V627.827C103.652 625.973 102.861 624.117 102.121 622.239L101.794 621.073ZM98.691 604.655C97.6174 601.825 96.5056 599.009 95.356 596.21C96.135 599.146 97.196 602.003 98.691 604.655ZM161.776 808.342C162.52 809.056 163.265 809.77 164.02 810.47C162.62 809.61 161.23 808.76 159.83 807.91C157.115 805.832 154.323 803.85 151.532 801.869L151.53 801.868L151.528 801.867L151.527 801.866C147.536 799.034 143.546 796.202 139.78 793.09C142.054 794.78 144.511 796.158 146.97 797.536L146.971 797.537H146.972C149.023 798.687 151.074 799.837 153.02 801.17C156.306 803.095 159.041 805.719 161.776 808.342ZM474.23 951.85C478.01 951.91 481.78 952.21 485.53 952.67C480.16 951.41 474.65 951.07 469.17 951.47C470.85 951.63 472.54 951.78 474.23 951.84V951.85ZM532.56 943.94C556.23 946.99 582.11 945.2 603.36 934.21C614.07 932.52 624.1 929.41 632.84 922.6C622.712 927.212 611.913 929.304 601.089 931.401C594.054 932.764 587.007 934.129 580.13 936.19C573.244 935.692 566.568 936.993 559.894 938.294C556.905 938.876 553.917 939.459 550.91 939.88C548.746 939.987 546.581 940.076 544.415 940.164C534.889 940.554 525.362 940.943 516 942.94C515.97 943.6 515.78 944.28 515.52 944.85C518 944.932 520.476 944.616 522.951 944.3H522.957C526.159 943.891 529.358 943.483 532.56 943.94ZM486.3 944.62L486.84 944.56C485.792 944.302 484.737 944.39 483.675 944.479L483.311 944.508L483.03 944.53L486.3 944.62ZM441.474 938.927L441.281 938.839L440.75 938.6L439.28 938.66L440.745 938.96L442.21 939.26L441.474 938.927ZM390.32 929.67C392.733 930.139 395.161 930.534 397.59 930.928C403.384 931.87 409.176 932.811 414.75 934.77C406.209 931.666 397.172 930.301 388.213 928.948L386.77 928.73L387.398 928.894L387.414 928.898C388.382 929.152 389.354 929.408 390.32 929.67ZM332.62 919.44C329.12 917.96 325.61 916.52 322.08 915.09C322.092 915.09 322.104 915.092 322.115 915.097L322.15 915.11C321.182 914.762 320.207 914.439 319.223 914.141C317.117 913.481 315.008 912.821 313.1 911.71C318.95 915.58 325.79 917.97 332.62 919.44ZM294.94 903.26C296.889 903.716 298.785 904.406 300.673 905.093C301.225 905.295 301.777 905.494 302.33 905.69L304.97 906.62C297.004 899.832 287.503 897.056 277.898 894.249L277.895 894.248L277.892 894.247H277.889L277.887 894.246C274.618 893.291 271.336 892.332 268.1 891.21C263.955 888.658 260.079 885.673 256.201 882.686C249.227 877.313 242.246 871.936 233.68 869.07C242.83 874.97 251.37 881.59 259.51 888.89C265.578 890.252 271.025 893.102 276.453 895.942C282.376 899.04 288.277 902.127 294.94 903.26ZM29.849 412.1C29.815 412.869 29.854 413.657 29.892 414.439C29.91 414.825 29.929 415.209 29.939 415.59L29.969 416.88C30.759 412.07 30.979 407.2 30.829 402.34C30.099 405.56 29.959 408.81 29.849 412.1ZM37.919 386.08C37.919 386.19 37.909 386.31 37.889 386.43L38.233 384.806C39.614 378.3 40.993 371.807 41.519 365.16C40.735 367.733 40.269 370.366 39.804 372.999C39.575 374.294 39.346 375.59 39.079 376.88C38.029 379.87 37.849 382.94 37.919 386.08ZM50.225 333.175C50.039 333.65 49.853 334.126 49.683 334.607C49.8165 333.906 49.9385 333.203 50.049 332.499C50.133 331.981 50.216 331.463 50.309 330.95L50.879 329.56L50.884 329.548L51.191 328.798L51.449 328.17C51.487 329.945 50.859 331.554 50.225 333.175ZM215.729 87.8195C221.559 84.3996 226.486 79.8526 231.419 75.2996L231.422 75.2975L231.425 75.2945L231.427 75.2925L231.429 75.2915L231.43 75.2906H231.431C232.205 74.5745 232.981 73.8609 233.759 73.1496C235.297 71.9166 236.85 70.7032 238.419 69.5096L238.42 69.5086C240.264 68.0926 242.108 66.6765 243.899 65.1985C241.269 66.6685 238.729 68.2985 236.219 69.9785C233.819 72.3485 231.399 74.6886 228.819 76.8586C227.661 77.7456 226.468 78.5936 225.275 79.4416C221.8 81.9106 218.324 84.3795 215.719 87.8195H215.729ZM99.879 555.859C100.075 554.305 99.913 552.736 99.752 551.172C99.552 549.244 99.354 547.322 99.828 545.439C99.328 541.791 99.132 538.133 98.936 534.471C98.791 531.768 98.646 529.064 98.378 526.359C98.244 524.676 98.334 522.99 98.424 521.301C98.481 520.231 98.538 519.16 98.538 518.09C98.216 516.484 98.363 514.882 98.512 513.274C98.593 512.388 98.675 511.501 98.678 510.609C98.258 508.037 98.347 505.454 98.435 502.871C98.505 500.846 98.575 498.821 98.398 496.799C98.022 498.598 97.828 500.419 97.633 502.24C97.466 503.802 97.3 505.363 97.018 506.909C95.908 511.859 95.438 516.749 95.898 521.809C96.005 522.561 95.82 523.292 95.635 524.021C95.559 524.32 95.484 524.619 95.428 524.919C95.358 526.679 95.748 528.329 96.298 529.989C96.914 532.605 97.098 535.297 97.282 537.994C97.457 540.555 97.632 543.121 98.178 545.629C98.388 546.801 98.442 548.012 98.495 549.222C98.597 551.524 98.699 553.824 99.878 555.849L99.879 555.859ZM88.852 513.588C88.274 517.669 87.696 521.75 87.838 525.879C87.838 526.229 87.848 526.589 87.858 526.939C88.298 523.999 88.525 521.052 88.753 518.096C88.826 517.152 88.898 516.206 88.978 515.259C89.0806 514.709 89.1866 514.159 89.296 513.607C90.013 509.94 90.74 506.221 89.888 502.509C89.893 506.23 89.372 509.91 88.852 513.588ZM31.98 651.477C31.888 652.31 31.797 653.145 31.779 653.98C30.049 651.679 29.189 648.85 28.589 646.069C29.309 647.38 30.489 648.11 31.949 648.409C31.9936 648.416 32.041 648.425 32.091 648.435C32.1196 648.441 32.149 648.446 32.179 648.449C32.201 649.454 32.091 650.464 31.98 651.477ZM24 625.01C24.62 626.578 24.84 628.16 24.73 629.84H24.72C23.32 627.22 21.9 624.54 21 621.699C21.9445 622.851 22.9458 623.956 24 625.01ZM12.558 588.9C12.044 592.851 11.53 596.808 11.7 600.77V600.78C11.257 599.734 10.936 598.641 10.614 597.549C10.21 596.174 9.80597 594.801 9.15998 593.52C8.82988 592.891 8.49253 592.266 8.14797 591.646C7.39097 590.268 6.65497 588.929 6.00997 587.37C5.15998 584.74 5.18997 581.959 5.21997 579.23C4.89397 575.218 5.66097 571.334 6.43197 567.432L6.45997 567.289C6.78997 563.23 7.50997 559.249 9.11998 555.49C9.12064 556.264 9.12331 557.039 9.12798 557.815C9.14198 560.436 9.15698 563.062 9.00998 565.669C8.97498 566.031 8.93097 566.42 8.88498 566.827C8.44298 570.748 7.81198 576.341 13.32 575.679C13.705 580.076 13.132 584.484 12.558 588.9Z" fill="white"/>
</svg>
