<svg width="495" height="465" viewBox="0 0 495 465" fill="none" xmlns="http://www.w3.org/2000/svg">
<path fill-rule="evenodd" clip-rule="evenodd" d="M248.195 464.41C250.755 464.425 253.32 464.44 255.866 464.773L255.826 464.763C258.082 464.889 260.341 464.632 262.6 464.376C263.916 464.226 265.232 464.077 266.546 464.003C271.506 464.143 276.446 464.093 281.376 463.503C285.706 463.283 290.056 462.823 294.156 461.333C299.606 460.113 304.736 458.003 309.626 455.343C310.186 455.14 310.748 454.939 311.311 454.741C313.64 453.918 315.98 453.091 318.106 451.843C319.96 450.59 321.852 449.384 323.746 448.177C326.411 446.477 329.079 444.776 331.646 442.943C334.73 441.618 337.787 440.24 340.775 438.713C342.685 437.743 344.595 436.773 346.375 435.583C346.555 435.613 346.745 435.633 346.935 435.643C348.105 435.713 349.264 435.763 350.435 435.673C352.965 435.473 355.505 434.963 357.935 434.193C360.454 433.383 362.974 432.393 365.365 431.233C366.655 430.603 367.925 429.933 369.195 429.253L369.455 429.109L369.46 429.107C369.91 428.859 370.356 428.614 370.775 428.313L370.785 428.305C371.224 427.988 371.657 427.67 372.085 427.353C372.486 427.046 372.886 426.736 373.284 426.425C373.963 425.896 374.641 425.367 375.335 424.863C376.2 424.237 377.052 423.597 377.906 422.954L378.18 422.749L378.455 422.543C379.975 421.583 381.485 420.633 383.005 419.683L383.016 419.677C384.322 419.019 385.628 418.361 386.935 417.693C387.415 417.453 387.885 417.213 388.345 416.953C388.855 416.583 389.365 416.223 389.885 415.863L390.662 415.314L390.664 415.312C391.364 414.819 392.062 414.326 392.755 413.823C393.225 413.533 393.645 413.193 394.015 412.803C394.396 412.363 394.783 411.923 395.175 411.483L395.924 410.639C396.453 410.046 396.98 409.45 397.505 408.853C397.957 408.339 398.351 407.757 398.74 407.18H398.741C398.928 406.904 399.113 406.629 399.305 406.363C399.724 405.776 400.142 405.189 400.559 404.602C401.393 403.423 402.235 402.25 403.085 401.083L406.16 398.108L409.234 395.133C410.081 394.35 411.015 393.666 411.948 392.984L411.954 392.98C412.198 392.802 412.442 392.623 412.685 392.443L414.392 391.166L415.057 390.669L416.365 389.693C416.516 389.582 416.669 389.472 416.824 389.363C417.335 389 417.852 388.634 418.275 388.173C418.47 387.958 418.667 387.743 418.865 387.528C419.063 387.313 419.26 387.098 419.455 386.883L419.908 386.392C420.35 385.915 420.793 385.437 421.225 384.953C421.575 384.583 421.895 384.203 422.195 383.793C422.525 383.193 422.857 382.595 423.19 381.998L423.726 381.033L424.185 380.203C424.799 379.093 425.305 377.944 425.821 376.775L425.835 376.743C426.795 374.553 427.825 372.393 428.895 370.243L430.219 368.469L430.246 368.433C431.746 366.424 433.247 364.412 434.755 362.413C435.555 361.525 436.357 360.639 437.161 359.756C438.365 358.428 439.57 357.101 440.765 355.763C441.581 354.851 442.254 353.856 442.934 352.85L443.245 352.393C443.935 351.393 444.625 350.383 445.305 349.373C445.824 348.613 446.335 347.863 446.845 347.103C447.075 346.703 447.275 346.273 447.435 345.843C447.984 344.563 448.534 343.273 449.044 341.973C449.246 341.455 449.438 340.935 449.631 340.416V340.414C449.925 339.621 450.218 338.828 450.544 338.043C450.974 337.013 451.395 335.973 451.775 334.923C452.065 334.133 452.354 333.343 452.615 332.543C452.688 332.316 452.762 332.089 452.837 331.86C452.937 331.557 453.036 331.251 453.135 330.943C453.765 329.603 454.375 328.263 454.935 326.893C455.495 325.533 456.025 324.153 456.525 322.773C456.789 322.027 456.914 321.214 457.037 320.42C457.072 320.192 457.108 319.966 457.145 319.743C457.522 317.522 457.819 315.292 458.115 313.069V313.067L458.215 312.323L458.484 311.603C458.784 310.853 459.085 310.103 459.365 309.353C459.727 308.388 459.935 307.388 460.144 306.385C460.211 306.057 460.281 305.73 460.354 305.403C460.664 304.613 460.975 303.823 461.275 303.033C461.44 302.694 461.578 302.331 461.713 301.975V301.974C461.773 301.814 461.834 301.657 461.895 301.503C462.205 300.743 462.355 300.313 462.525 299.523L462.578 299.271C462.681 298.793 462.784 298.309 462.895 297.833C463.175 297.006 463.463 296.189 463.752 295.371L464.185 294.143C465.475 291.923 466.874 289.793 468.294 287.653C468.543 287.333 468.756 286.993 468.935 286.633C469.01 286.402 469.081 286.169 469.148 285.935L469.17 285.859L469.265 285.543C469.4 285.022 469.533 284.501 469.665 283.978C469.797 283.455 469.93 282.934 470.065 282.413C470.375 281.523 470.695 280.633 471.015 279.753C471.515 278.903 472.025 278.063 472.544 277.223C472.757 276.868 472.94 276.489 473.121 276.112L473.122 276.11C473.195 275.957 473.27 275.804 473.345 275.653C473.606 275.135 473.868 274.618 474.132 274.101L474.133 274.099C474.606 273.171 475.079 272.244 475.535 271.313C475.785 270.823 476.025 270.323 476.265 269.823C476.515 269.323 476.755 268.833 476.995 268.333C477.275 267.573 477.545 266.803 477.815 266.033C478.395 264.403 479.135 262.783 479.945 261.243C479.935 261.243 479.955 261.203 479.975 261.173C479.995 261.143 480.005 261.113 480.025 261.083C480.145 260.858 480.268 260.629 480.394 260.396C480.531 260.143 480.668 259.888 480.805 259.633C480.995 259.283 481.175 258.943 481.354 258.603C481.684 257.753 481.995 256.903 482.305 256.043C482.723 254.891 483.284 253.802 483.845 252.711C483.997 252.42 484.147 252.127 484.294 251.833C484.914 250.754 485.544 249.684 486.173 248.615L486.175 248.613C486.465 248.102 486.671 247.525 486.873 246.959V246.958C486.955 246.725 487.039 246.496 487.125 246.273L487.533 245.22C488.223 243.447 488.915 241.666 489.525 239.863C489.725 239.303 489.915 238.743 490.095 238.173L490.455 237.343L490.571 237.074C490.652 236.886 490.733 236.699 490.815 236.513C491.275 235.403 491.745 234.303 492.225 233.193C492.465 232.643 492.704 232.083 492.935 231.533C493.065 231.163 493.135 230.783 493.135 230.383C493.254 229.49 493.304 228.577 493.353 227.674L493.354 227.653C493.684 225.983 493.985 224.303 494.205 222.603C494.229 222.414 494.262 222.218 494.295 222.02C494.371 221.568 494.448 221.104 494.435 220.673L494.426 220.497L494.418 220.31C494.392 219.583 494.345 218.857 494.275 218.133C494.165 217.576 494.155 217.004 494.245 216.443L494.305 215.603C494.314 215.441 494.328 215.271 494.346 215.093C494.391 214.617 494.439 214.105 494.345 213.683C494.105 212.653 493.805 211.633 493.484 210.623C493.457 210.483 493.429 210.344 493.4 210.205L493.315 209.793C493.267 209.567 493.22 209.34 493.175 209.113C493.065 208.603 492.945 208.093 492.815 207.583L492.774 207.19L492.773 207.178C492.708 206.551 492.643 205.918 492.544 205.293C492.535 204.962 492.474 204.635 492.365 204.323C492.145 203.813 491.905 203.303 491.635 202.813C491.365 202.293 491.085 201.793 490.794 201.283C490.701 200.993 490.61 200.703 490.521 200.412C490.294 199.677 490.065 198.934 489.765 198.233C489.435 197.483 489.105 196.743 488.755 196.003L488.665 195.824C488.413 195.317 488.224 194.938 487.875 194.453C487.465 193.883 487.045 193.313 486.625 192.753C486.435 192.209 486.253 191.662 486.08 191.112L485.815 190.293C485.716 189.983 485.493 189.713 485.277 189.453C485.208 189.371 485.14 189.288 485.075 189.203L484.74 188.77C484.257 188.144 483.777 187.52 483.225 186.943L482.455 186.143L481.685 185.343L481.682 185.34C480.503 183.771 479.324 182.202 478.095 180.663L476.475 178.293C476.263 177.992 475.993 177.745 475.727 177.501L475.544 177.333L475.229 177.032C474.549 176.384 473.879 175.745 473.135 175.173C472.677 174.815 472.209 174.457 471.742 174.098L471.734 174.093C471.395 173.283 471.035 172.483 470.645 171.693C470.455 171.313 470.224 170.943 469.984 170.573C469.777 169.391 469.541 168.214 469.275 167.043C468.826 165.056 468.165 163.133 467.504 161.207L467.503 161.205C467.338 160.728 467.176 160.251 467.015 159.773L466.967 159.564C466.623 158.052 466.275 156.524 465.845 155.033C465.515 153.873 465.094 152.753 464.664 151.633C464.064 150.073 463.465 148.533 462.765 147.023L462.476 146.402C461.995 145.379 461.528 144.349 461.075 143.313C460.938 142.819 460.804 142.325 460.671 141.83C460.404 140.842 460.138 139.853 459.845 138.873C459.625 138.123 459.465 137.683 459.125 136.973C458.715 136.133 458.314 135.293 457.914 134.453C457.181 132.913 456.389 131.422 455.593 129.921V129.92L455.345 129.453C454.675 128.193 454.095 126.893 453.525 125.583C452.885 124.113 452.235 122.633 451.575 121.173C451.245 120.433 450.915 119.703 450.565 118.973C450.375 118.583 450.145 118.223 449.875 117.883C448.865 116.403 447.845 114.923 446.775 113.473C446.606 113.246 446.435 113.021 446.26 112.798C445.88 112.308 445.492 111.81 445.185 111.283L444.315 109.813L444.314 109.812C443.434 108.352 442.554 106.893 441.575 105.493C440.685 104.213 439.675 103.023 438.645 101.853L438.405 101.583C437.436 100.493 436.472 99.4059 435.345 98.4729C434.205 97.5329 433.034 96.6229 431.854 95.7329C431.036 95.1199 430.25 94.4619 429.463 93.8029C428.878 93.3072 428.285 92.8205 427.685 92.3429C427.233 91.9829 426.786 91.6229 426.345 91.2629C426.195 90.9529 426.025 90.6429 425.845 90.3629C425.445 89.7229 424.865 89.1629 424.325 88.6429C423.175 87.5129 422.005 86.4029 420.775 85.3629L420.641 85.2499L420.364 85.0179C419.852 84.5879 419.344 84.1609 418.854 83.7029L418.851 83.6999C418.252 83.1409 417.653 82.5819 417.035 82.0429C415.801 80.9772 414.551 79.9304 413.285 78.9029C412.585 78.2099 411.902 77.4979 411.22 76.7869C410.879 76.4316 410.538 76.0769 410.195 75.7229C409.815 74.9229 409.415 74.1349 409.016 73.3449L409.015 73.3429C408.942 73.1943 408.867 73.0389 408.791 72.8769C408.588 72.4469 408.372 71.989 408.125 71.6329C407.836 71.2029 407.543 70.7729 407.245 70.3429C406.223 68.8429 405.102 67.4229 403.98 66.0009C403.552 65.4609 403.127 64.9183 402.705 64.3729C401.473 62.7459 400.323 60.9029 399.146 59.0159C398.476 57.9329 397.792 56.8585 397.095 55.7929C396.825 55.4329 396.545 55.0929 396.255 54.7529L395.085 53.3429C394.485 52.6329 393.845 51.9829 393.185 51.3229C391.995 50.1229 390.765 48.9529 389.535 47.7929C387.875 46.2129 385.945 44.3329 384.085 42.3729L383.76 42.0309L383.498 41.7539C383.118 41.3506 382.737 40.9503 382.354 40.5529C382.044 40.2129 381.715 39.8829 381.375 39.5729L380.892 39.1739H380.891C380.143 38.5509 379.388 37.9372 378.625 37.3329C378.122 36.9329 377.552 36.6129 376.986 36.2949L376.525 36.0329L376.253 35.8729H376.251C375.809 35.6129 375.362 35.3519 374.914 35.1029C374.184 34.6869 373.389 34.3659 372.6 34.0479C372.309 33.9313 372.021 33.8129 371.734 33.6929C371.099 33.4189 370.46 33.1569 369.822 32.8949C368.502 32.3539 367.185 31.8129 365.905 31.1729C364.9 30.6738 363.897 30.1711 362.896 29.6649C361.82 28.4529 360.486 27.8169 359.099 27.1559C358.208 26.7319 357.296 26.2969 356.416 25.6929C355.939 25.0419 355.539 24.3279 355.139 23.6149C354.569 22.5979 354 21.5819 353.206 20.7529C351.526 19.6329 349.716 18.6929 347.916 17.7829C346.642 16.9729 345.649 15.8449 344.655 14.7169C343.614 13.5339 342.573 12.3519 341.206 11.5329C340.171 10.9959 339.088 10.5379 338.006 10.0809C337.174 9.73817 336.35 9.3754 335.536 8.99294C334.306 8.19294 333.066 7.39294 331.686 6.88294C330.764 6.49294 329.814 6.19494 328.866 5.89794C327.573 5.49194 326.283 5.08794 325.066 4.45294C323.455 3.89694 321.784 3.62494 320.113 3.35294C318.175 3.03594 316.238 2.71994 314.396 1.96294C311.786 1.52194 309.211 1.99694 306.647 2.47094L306.146 2.56294C304.553 2.63394 303.038 2.18694 301.518 1.73894C300.052 1.30694 298.583 0.872945 297.036 0.902945C293.598 1.04194 290.167 0.755945 286.736 0.469945C283.742 0.219945 280.747 -0.0300553 277.746 0.00294474C276.622 0.0319447 275.51 0.175945 274.396 0.319945C273.192 0.475945 271.987 0.632945 270.766 0.642945C268.646 0.522945 266.516 0.582945 264.426 0.952945C262.124 1.48094 259.975 2.41994 257.829 3.35794C255.062 4.56594 252.301 5.77194 249.226 6.09294C246.956 6.77294 244.826 7.80294 242.836 9.07294C241.495 9.69694 240.136 10.2719 238.776 10.8479C237.824 11.2499 236.873 11.6529 235.926 12.0729C235.795 12.1283 235.665 12.1846 235.535 12.2419C235.335 12.2246 235.135 12.2116 234.935 12.2029C234.025 12.1629 233.105 12.1329 232.195 12.1229C230.775 12.0429 229.355 11.9829 227.925 12.0229C226.445 12.0729 225.005 12.2229 223.545 12.4129C222.935 12.4043 222.327 12.3993 221.72 12.3979H221.719C221.112 12.3966 220.504 12.3916 219.895 12.3829C219.686 12.3777 219.477 12.371 219.268 12.3629C218.588 12.3389 217.899 12.3139 217.235 12.3829C216.59 12.4509 215.939 12.5799 215.296 12.7079L214.655 12.8329C213.625 13.0229 212.595 13.2629 211.565 13.5029C211.145 13.5376 210.727 13.5709 210.31 13.6029C209.893 13.6349 209.474 13.6683 209.055 13.7029C208.654 13.7269 208.246 13.8789 207.865 14.0209L207.615 14.1129C206.405 14.5329 205.185 14.9029 203.965 15.2629C202.835 15.2429 201.705 15.2229 200.585 15.2629C200.345 15.2696 200.101 15.2729 199.854 15.2729C199.213 15.2739 198.555 15.2759 197.935 15.4129C197.365 15.5359 196.795 15.7829 196.24 16.0239H196.239C196.025 16.1179 195.814 16.2076 195.605 16.2929C194.655 16.6729 193.715 17.0729 192.785 17.4729C192.38 17.5143 191.975 17.5543 191.569 17.5929C191.202 17.6283 190.834 17.6649 190.465 17.7029H189.655C188.935 17.7029 188.215 17.7029 187.515 17.7729C187.013 17.8279 186.507 17.9489 186.01 18.0679C185.661 18.1536 185.309 18.2323 184.957 18.3039C184.545 18.3889 184.118 18.4779 183.745 18.6529L181.705 19.6429C181.3 19.7329 180.896 19.8246 180.491 19.9179C180.086 20.0113 179.68 20.1029 179.275 20.1929C178.945 20.2323 178.615 20.2706 178.286 20.3079H178.283C177.954 20.3453 177.624 20.3836 177.295 20.4229C176.955 20.4429 176.615 20.4929 176.275 20.5529C175.986 20.6269 175.695 20.7056 175.402 20.7889C174.774 20.9639 174.139 21.1409 173.505 21.2429L172.075 21.4829L170.645 21.7229C170.255 21.8229 169.865 21.9329 169.475 22.0429C168.975 22.1729 168.475 22.3129 167.975 22.4529L167.663 22.5079C166.965 22.6299 166.261 22.7519 165.565 22.8829H164.619C163.967 22.8819 163.304 22.8809 162.665 22.9529C162.255 23.0029 161.885 23.1229 161.505 23.2729C160.035 23.8629 158.595 24.4929 157.165 25.1629C156.8 25.2329 156.435 25.3046 156.07 25.3779C155.705 25.4513 155.34 25.5229 154.975 25.5929L153.321 25.7709L153.3 25.7729L153.278 25.7749L151.625 25.9529C151.405 25.9756 151.181 25.9949 150.953 26.0109C150.335 26.0579 149.703 26.1049 149.125 26.3029C148.583 26.4829 148.072 26.7569 147.563 27.0299C147.255 27.1949 146.948 27.3599 146.635 27.5029L146.166 27.7189C145.669 27.9469 145.169 28.1769 144.675 28.4129C143.315 28.6529 141.965 28.9129 140.625 29.2729C139.755 29.5029 138.895 29.7529 138.035 30.0229C137.195 30.2829 136.425 30.5229 135.645 30.9329C135.025 31.2529 134.405 31.5829 133.795 31.9229C133.574 31.9936 133.35 32.0636 133.125 32.1329C132.341 32.3759 131.545 32.6229 130.815 32.9729C130.178 33.2759 129.566 33.6799 128.969 34.0749L128.968 34.0759C128.796 34.1899 128.625 34.3023 128.455 34.4129C127.655 34.8229 126.865 35.2429 126.075 35.6729C125.485 35.9429 124.705 36.3529 123.915 36.7729C123.755 36.8429 123.605 36.9429 123.465 37.0529C122.905 37.5629 122.365 38.0729 121.825 38.5929C121.215 39.0029 120.604 39.4129 120.005 39.8429C118.975 40.3129 117.955 40.7929 116.965 41.3529C116.852 41.4143 116.737 41.4756 116.62 41.5369C116.114 41.8029 115.587 42.0799 115.205 42.5029C114.873 42.8669 114.686 43.3489 114.506 43.8099L114.395 44.0929C114.125 44.7529 113.875 45.4129 113.625 46.0829C113.265 46.5029 112.905 46.9329 112.565 47.3629C111.665 48.1529 110.835 48.9329 110.065 49.8529C109.952 49.9863 109.835 50.1196 109.714 50.2529C109.449 50.5489 109.181 50.8489 108.975 51.1729L108.405 52.0829L107.835 52.9929C107.665 53.2729 107.495 53.5529 107.335 53.8329C106.305 54.5029 105.275 55.1929 104.275 55.9229C103.575 56.4329 103.305 56.6829 102.725 57.3029L102.347 57.7139C102.108 57.9766 101.867 58.2363 101.625 58.4929C101.045 59.0429 100.445 59.6029 99.8549 60.1529L99.4229 60.4459C98.7999 60.8669 98.1729 61.2919 97.6039 61.7629C97.3239 62.0129 97.0739 62.2829 96.8439 62.5829L96.8419 62.5859L96.8409 62.5869C96.4819 62.9859 96.1229 63.3839 95.7749 63.7829C95.5776 63.9536 95.3776 64.1233 95.1749 64.2919C94.7169 64.6749 94.2549 65.0619 93.8449 65.4929C93.5849 65.7629 93.3249 66.0313 93.0649 66.2979C92.8049 66.5653 92.5449 66.8336 92.2849 67.1029L91.5269 67.6349C91.1636 67.8889 90.7992 68.1449 90.4339 68.4029C90.1199 68.6259 89.8879 68.8769 89.6309 69.1549L89.4649 69.3329C89.3549 69.4483 89.2426 69.563 89.1279 69.6769C88.8059 70.0019 88.4799 70.3309 88.2149 70.6929C88.0242 70.9529 87.8323 71.2129 87.6389 71.4729C87.4463 71.7329 87.2546 71.9929 87.0639 72.2529C86.3739 72.6229 85.6839 73.003 85.0039 73.3829C84.7239 73.533 84.5039 73.7729 84.3239 74.0229C84.1999 74.2016 84.0702 74.3816 83.9349 74.563C83.3829 74.6516 82.8333 74.7583 82.2859 74.8829C80.8259 75.3549 79.5229 76.187 78.2289 77.0129C77.7429 77.3229 77.2579 77.6329 76.7659 77.9229C72.9859 79.3129 69.2559 80.8329 65.6559 82.6429C62.0909 84.4109 59.0659 87.075 56.0989 89.6899L55.9359 89.8329C54.1859 91.2739 52.2079 92.3229 50.2309 93.3719C48.3679 94.3599 46.5059 95.3479 44.8359 96.6619C43.1449 97.742 41.7499 99.1589 40.3549 100.576C39.9019 101.035 39.4489 101.495 38.9859 101.943C38.4059 102.516 37.7799 103.047 37.1539 103.579C36.0099 104.55 34.8659 105.521 34.0059 106.743C32.6679 108.345 31.6989 109.979 30.7269 111.618C30.0009 112.845 29.2719 114.073 28.3869 115.293C24.4969 119.353 21.1669 123.893 19.0669 129.143C16.0669 134.033 14.1469 139.393 13.4069 145.073C13.0219 146.508 12.3669 147.818 11.7099 149.128C11.2549 150.036 10.7999 150.943 10.4359 151.893C9.42692 154.422 8.91592 157.089 8.40592 159.755C8.13592 161.158 7.86792 162.56 7.52592 163.943C7.30392 165.005 7.15592 166.078 7.00692 167.151C6.76192 168.927 6.51692 170.702 5.93692 172.423C4.84697 174.933 4.15856 177.599 3.89692 180.323C3.94692 181.409 4.02992 182.497 4.11392 183.587C4.34792 186.624 4.58192 189.674 4.09592 192.713C3.94658 193.367 3.79425 194.021 3.63892 194.675C3.12792 196.84 2.61592 199.007 2.31592 201.203C2.33458 201.572 2.35725 201.94 2.38392 202.307C-2.63608 229.708 0.171917 258.192 11.7609 284.156C11.7909 284.489 11.8492 284.818 11.9359 285.143C12.2889 287.077 12.7319 288.998 13.1759 290.921C13.5119 292.378 13.8489 293.837 14.1459 295.303C14.3359 296.265 14.7179 297.168 15.0979 298.067C15.2589 298.448 15.4199 298.829 15.5659 299.213C15.7969 300.689 15.7139 302.16 15.6319 303.624C15.6069 304.064 15.5819 304.504 15.5659 304.943C16.1559 306.803 17.1259 308.493 18.2659 310.063C18.3586 310.41 18.4486 310.759 18.5359 311.108C18.8029 312.154 19.0689 313.2 19.4359 314.213C19.6139 315.047 20.0679 315.769 20.5189 316.487C20.7279 316.819 20.9359 317.151 21.1159 317.493C21.3759 318.305 21.5919 319.131 21.8069 319.957C22.1809 321.39 22.5539 322.822 23.1569 324.173C23.6419 325.518 24.3859 326.747 25.1259 327.972C26.2889 329.896 27.4459 331.808 27.5859 334.143C28.0559 336.113 29.1559 337.753 30.5559 339.193C31.9319 341.23 33.1739 343.349 34.4159 345.467C35.7999 347.829 37.1859 350.192 38.7559 352.443C39.3619 353.532 40.2459 354.398 41.1299 355.263L41.4959 355.623C42.2859 356.963 43.1859 358.203 44.2359 359.353C44.7989 360.103 45.5779 360.621 46.3569 361.139C46.6999 361.367 47.0419 361.595 47.3669 361.843C47.6919 362.503 47.9769 363.171 48.2649 363.848L48.3559 364.063C48.8999 364.986 49.6299 365.759 50.3559 366.528C51.4059 367.64 52.4459 368.741 52.8959 370.273C53.9219 371.787 55.4989 372.523 57.0799 373.262C57.4909 373.454 57.9029 373.646 58.3049 373.852C59.1567 374.866 60.0167 375.873 60.8849 376.873C61.7949 378.403 62.7249 379.913 63.7549 381.373C63.8903 381.57 64.0259 381.772 64.1619 381.978V381.98C64.5219 382.521 64.8869 383.072 65.3139 383.543C65.6349 383.892 66.0069 384.206 66.3739 384.517C66.5226 384.642 66.6702 384.767 66.8149 384.893C68.0704 385.988 69.3462 387.059 70.6419 388.106L70.7479 388.277C72.2159 390.654 73.7079 393.069 76.1459 394.483C77.1119 395.191 77.8159 396.111 78.5239 397.036C78.7253 397.301 78.9293 397.563 79.1359 397.823C80.9789 398.891 82.3259 400.435 83.6809 401.987C84.4439 402.86 85.2089 403.737 86.0659 404.533C87.5759 405.815 88.7809 407.38 89.9859 408.944C90.4729 409.577 90.9599 410.209 91.4659 410.823C92.1489 411.775 92.9899 412.578 93.8329 413.383C94.5829 414.1 95.3349 414.818 95.9759 415.643C96.8359 417.524 98.3479 418.816 99.8679 420.115C100.804 420.915 101.744 421.718 102.536 422.663C102.628 422.915 102.697 423.183 102.766 423.452C102.948 424.155 103.131 424.865 103.716 425.313C104.416 425.797 105.14 426.249 105.863 426.7C106.545 427.126 107.226 427.551 107.886 428.003C108.846 429.513 110.216 430.403 111.856 431.043C112.58 431.565 113.03 432.285 113.481 433.006C113.747 433.431 114.014 433.857 114.336 434.243C115.455 434.926 116.412 435.809 117.367 436.69C118.495 437.731 119.62 438.769 121.006 439.473C122.362 440.66 123.848 441.663 125.333 442.666C126.751 443.623 128.167 444.579 129.466 445.693C130.226 446.803 131.176 447.703 132.396 448.293C133.106 448.814 133.958 449.067 134.806 449.319C135.082 449.4 135.357 449.482 135.626 449.573C136.478 449.915 137.123 450.501 137.777 451.095C138.022 451.317 138.268 451.541 138.526 451.753C140.183 453.13 142.144 453.917 144.101 454.702C145.157 455.125 146.211 455.548 147.216 456.063C148.258 456.902 149.501 457.237 150.752 457.575C151.29 457.721 151.83 457.866 152.356 458.053C153.406 459.172 154.874 459.562 156.303 459.942L156.306 459.943C157.093 460.115 157.874 459.992 158.657 459.868C159.287 459.769 159.919 459.669 160.556 459.723C163.652 460.68 166.899 460.989 170.119 461.296C171.038 461.383 171.956 461.471 172.866 461.573C174.896 461.283 176.866 461.073 178.906 461.343C179.537 461.359 180.171 461.389 180.806 461.419C182.964 461.521 185.14 461.623 187.256 461.183C188.209 460.854 189.151 461.012 190.103 461.172C190.77 461.284 191.442 461.396 192.126 461.343C193.48 461.253 194.83 461.303 196.177 461.353C197.963 461.419 199.743 461.485 201.516 461.223C202.937 461.421 204.354 461.639 205.772 461.857C206.639 461.991 207.507 462.123 208.376 462.253C209.932 462.443 211.493 462.468 213.057 462.493C214.369 462.513 215.683 462.534 216.996 462.653C219.516 463.023 222.056 463.163 224.606 463.223C227.353 463.823 230.104 463.678 232.867 463.533C234.34 463.456 235.816 463.378 237.296 463.413C240.875 464.367 244.531 464.388 248.195 464.41ZM198.582 446.761C196.313 446.367 194.024 446.084 191.716 446.123C190.235 446.238 188.809 445.905 187.375 445.57L186.826 445.443C185.201 445.58 183.606 445.406 182.01 445.233C180.816 445.103 179.623 444.973 178.416 444.973C170.956 444.463 163.596 442.903 156.476 440.763C155.504 440.429 154.478 440.164 153.446 439.898C151.017 439.271 148.551 438.635 146.656 437.063C145.555 435.732 143.852 435.361 142.197 435.001C141.768 434.911 141.341 434.812 140.916 434.703C139.556 434.233 138.166 433.553 137.046 432.663C134.343 431.891 131.584 431.918 128.817 431.946C127.317 431.961 125.814 431.975 124.316 431.863C125.947 433.226 127.947 433.97 129.92 434.705C130.379 434.874 130.835 435.047 131.286 435.223C133.756 436.523 136.136 437.933 138.326 439.673C141.99 441.994 146.048 443.533 150.101 445.07C152.875 446.122 155.646 447.173 158.286 448.473C161.148 450.108 164.36 450.639 167.574 451.17C168.998 451.406 170.422 451.641 171.816 451.973C173.055 452.179 174.182 452.705 175.313 453.232C175.771 453.446 176.23 453.66 176.696 453.853C178.368 454.265 180.04 454.661 181.712 455.056L183.386 455.453C185.689 455.732 187.969 456.123 190.247 456.514C193.511 457.074 196.771 457.633 200.086 457.863H200.076C201.926 458.103 203.726 458.323 205.476 457.543C208.136 457.413 210.776 457.223 213.246 456.083C215.896 455.183 218.496 454.273 220.666 452.433C221.669 451.89 222.653 451.313 223.616 450.703C222.801 450.651 221.99 450.558 221.185 450.423C219.515 450.143 217.855 449.833 216.205 449.483C214.115 449.153 212.045 448.793 209.965 448.393C208.355 448.293 206.745 448.173 205.135 448.033L204.684 447.996C204.155 447.954 203.618 447.912 203.105 447.803C202.245 447.623 201.395 447.433 200.535 447.233C199.882 447.084 199.231 446.926 198.582 446.761ZM230.559 450.89C229.558 451.457 228.561 452.025 227.566 452.593C224.966 454.363 222.186 455.743 219.226 456.853C217.696 457.853 216.066 458.653 214.336 459.223C219.246 459.673 224.156 460.113 229.076 460.233C231.836 460.893 234.616 461.393 237.466 461.553L237.446 461.543C241.014 460.965 244.588 461.072 248.17 461.179C249.488 461.218 250.806 461.258 252.126 461.263C255.505 460.693 258.868 460.95 262.244 461.208C263.665 461.317 265.089 461.426 266.516 461.473L269.202 461.316C273.03 461.093 276.861 460.871 280.686 460.563C284.956 459.793 289.216 459.003 293.476 458.203C294.253 457.964 295.033 457.725 295.814 457.488C299.888 456.246 303.997 454.994 307.916 453.383C308.946 452.758 309.931 452.064 310.914 451.372C312.079 450.552 313.242 449.734 314.474 449.032C314.21 449.095 313.947 449.158 313.685 449.223C311.335 449.803 308.944 450.193 306.544 450.533C305.374 450.703 304.205 450.803 303.025 450.903L302.766 450.926C301.488 451.039 300.188 451.154 298.905 451.173C297.705 451.193 296.515 451.193 295.325 451.173C294.725 451.153 294.125 451.143 293.535 451.123C292.971 451.104 292.4 451.133 291.831 451.162C291.501 451.179 291.171 451.196 290.845 451.203C289.105 451.253 287.375 451.263 285.635 451.263H283.265L283.095 451.183C281.31 451.183 279.526 450.943 277.755 450.705H277.754C277.152 450.625 276.553 450.544 275.955 450.473C275.247 450.386 274.559 450.166 273.88 449.949L273.603 449.86L273.354 449.783L272.961 449.66C266.731 449.934 260.132 449.812 253.042 449.279L252.539 449.321C251.71 449.39 250.881 449.459 250.055 449.543C246.984 449.853 243.905 450.083 240.825 450.253C238.935 450.423 237.045 450.543 235.145 450.623C233.795 450.713 232.435 450.793 231.085 450.863L230.559 450.89ZM350.723 421.246C351.19 420.785 351.659 420.324 352.13 419.863C352.653 419.351 353.174 418.838 353.695 418.323L353.123 418.571C352.531 418.973 351.942 419.372 351.355 419.767C351.285 419.914 351.215 420.052 351.146 420.183L350.914 420.766L350.723 421.246ZM343.663 424.827C343.283 425.414 342.907 426.004 342.534 426.597C341.68 427.951 340.826 429.305 339.884 430.592C339.469 430.843 339.059 431.104 338.655 431.373C336.495 432.813 334.295 434.203 332.025 435.463C329.79 436.66 327.529 437.819 325.209 438.846L325.348 438.736C325.903 438.299 326.457 437.861 327.016 437.433C328.577 436.347 330.243 435.434 331.907 434.522C334.243 433.242 336.574 431.965 338.606 430.213C340.056 429.004 341.164 427.565 342.283 426.112C342.488 425.845 342.695 425.578 342.903 425.311L343.663 424.827ZM313.92 440.777C310.079 442.356 306.16 443.737 302.177 444.913C302.82 444.817 303.46 444.7 304.096 444.563L304.223 444.541C306.311 444.178 308.406 443.815 310.346 442.923C311.305 442.383 312.25 441.819 313.182 441.233L313.92 440.777ZM54.5249 358.061C54.7039 358.541 54.9049 359.015 55.1069 359.488C55.5579 360.547 56.0089 361.606 56.2069 362.743C56.0856 362.499 55.9345 362.27 55.7569 362.063L55.7669 362.073C55.3069 361.473 54.8469 360.897 54.3919 360.329C52.8919 358.453 51.4599 356.66 50.3159 354.373C50.0132 353.99 49.7024 353.614 49.3839 353.244C49.1886 352.836 48.9953 352.426 48.8039 352.013C48.7126 351.813 48.6236 351.61 48.5369 351.405C48.3599 350.991 48.1819 350.574 47.9549 350.193C47.2149 348.933 46.4849 347.673 45.7749 346.403L45.4709 345.669L45.6459 345.903C46.7609 347.129 47.7819 348.415 48.8059 349.704C49.2419 350.255 49.6819 350.804 50.1259 351.353C50.4172 351.673 50.7119 351.991 51.0099 352.307C51.2806 352.594 51.5499 352.884 51.8179 353.177C52.7125 354.809 53.6148 356.437 54.5249 358.061ZM35.8849 331.66C36.1209 332.417 36.3576 333.171 36.5949 333.923C36.7356 334.4 36.8783 334.877 37.0229 335.354C36.9429 335.239 36.8606 335.126 36.7759 335.013C36.1289 333.92 35.6659 332.755 35.2019 331.59C34.6349 330.165 34.0689 328.741 33.1659 327.453C34.3759 328.688 35.2049 330.129 35.8859 331.66M54.7899 110.493C48.1939 117.065 42.2869 123.62 37.2339 130.033C25.6759 143.408 16.6599 158.439 10.3959 174.326C10.3584 173.827 10.3084 173.329 10.2459 172.833C10.4079 170.468 11.0309 168.217 11.6559 165.955L11.8659 165.193C12.2879 163.136 12.8949 161.133 13.4999 159.132C14.0569 157.291 14.6139 155.451 15.0259 153.573C15.2559 152.548 15.3789 151.494 15.5019 150.439C15.7219 148.56 15.9399 146.679 16.7659 144.963C18.3519 142.353 19.5599 139.516 20.7689 136.677C22.2289 133.249 23.6889 129.818 25.8159 126.783C26.9799 125.081 27.8599 123.203 28.7389 121.328C29.8019 119.062 30.8619 116.801 32.4159 114.863C33.5679 113.616 34.7839 112.43 35.9999 111.245C37.4549 109.827 38.9099 108.408 40.2559 106.883C41.9459 104.733 43.9959 102.993 46.2459 101.443C48.1209 100.132 49.8199 98.6169 51.5159 97.1029C53.7009 95.1549 55.8819 93.2109 58.4259 91.7129C61.3859 90.1829 64.7759 88.3729 67.6759 86.4429C70.9359 83.7929 74.6559 81.8429 78.4059 79.9729C78.6939 79.9069 78.9823 79.8426 79.2709 79.7799C79.213 79.8727 79.1577 79.9671 79.1049 80.063C78.8349 80.493 78.5649 80.9229 78.2849 81.3529C77.3979 82.4919 76.5019 83.6239 75.6049 84.7579C74.9029 85.6433 74.2029 86.5323 73.5049 87.4229C72.6749 88.4829 71.8049 89.4929 70.9249 90.5029C70.7049 90.7729 70.5149 91.0629 70.3449 91.3629L70.1879 91.6069L69.9639 91.9529L69.5839 92.5429L68.4739 93.6829C68.1839 93.9229 67.9339 94.2029 67.7139 94.5029C67.5439 94.8029 67.4239 95.113 67.3439 95.4529C67.1939 95.9029 67.0439 96.3529 66.8839 96.7929C66.5139 97.3429 66.1539 97.8929 65.7939 98.4429C65.4252 98.6876 65.0592 98.9343 64.6959 99.1829L64.0449 99.6229C63.7649 99.8229 63.5049 100.033 63.3149 100.323C63.0899 100.667 62.9739 101.105 62.8619 101.526C62.8159 101.705 62.7666 101.878 62.7139 102.043L62.6539 102.232C61.8399 102.95 61.1109 103.756 60.3809 104.565C59.8509 105.151 59.3209 105.737 58.7559 106.293C57.3009 107.581 56.0359 109.028 54.7899 110.493ZM91.3139 74.2259C91.5259 73.9709 91.8069 73.7659 92.0739 73.5709L92.2739 73.4229C92.4339 73.3023 92.5942 73.1796 92.7549 73.0549C93.2999 72.6349 93.8529 72.2079 94.4249 71.8529C95.0279 71.4699 95.6749 71.1409 96.3179 70.8149C96.5486 70.6983 96.7772 70.5809 97.0039 70.4629C97.1709 69.9829 97.3289 69.503 97.4869 69.0229L97.4889 69.0159L97.7249 68.3029C97.8499 67.91 98.2779 67.5549 98.6209 67.2699C98.7156 67.1919 98.8002 67.1196 98.8749 67.0529C98.8893 67.0425 98.9026 67.0308 98.9149 67.0179L98.9549 66.9829C99.3149 66.2629 99.6749 65.5529 100.035 64.8429H100.034C99.6439 65.103 99.2539 65.3629 98.8539 65.6229C98.5939 65.8783 98.3323 66.1333 98.0689 66.3879C97.8063 66.6426 97.5446 66.8976 97.2839 67.1529C96.8439 67.5849 96.3539 67.9759 95.8619 68.3669C95.6712 68.5176 95.4822 68.6696 95.2949 68.8229L94.9599 69.2409C94.7566 69.4923 94.5549 69.7463 94.3549 70.0029C93.8549 70.6229 93.6349 70.8229 93.0149 71.3329C92.5149 71.7383 92.0149 72.145 91.5149 72.5529L90.0149 73.7729L89.8239 74.2369C90.1619 74.2503 90.4992 74.2689 90.8359 74.2929C90.9959 74.2696 91.1553 74.2473 91.3139 74.2259ZM85.4479 78.646L86.6079 78.4559C87.2506 78.3526 87.8926 78.2476 88.5339 78.1409C88.189 78.4668 87.8423 78.7908 87.4939 79.1129C87.0739 79.3729 86.6639 79.6529 86.2939 79.9629C86.0179 80.1849 85.7889 80.5079 85.5759 80.8079C85.5112 80.8999 85.4476 80.9883 85.3849 81.0729C85.2896 81.1969 85.1926 81.3209 85.0939 81.4449C84.7949 81.8209 84.4929 82.202 84.2739 82.6229L84.2599 82.6429C84.2519 82.6529 84.2439 82.6609 84.2439 82.6729L83.8739 83.1179L83.5039 83.563L83.5029 83.5639C83.3329 83.7339 83.1539 83.9139 82.9749 84.0829C82.6296 84.2869 82.2829 84.4903 81.9349 84.6929C81.5869 84.895 81.2402 85.0983 80.8949 85.3029C80.8009 85.3589 80.7066 85.4136 80.6119 85.4669C80.2529 85.672 79.8989 85.8739 79.6149 86.1829C79.0679 86.7859 78.5119 87.3879 77.9639 87.9829L77.8349 88.1229C77.7149 88.2529 77.5749 88.3919 77.4359 88.5309L77.4339 88.5329L77.4139 88.5429C77.6959 88.1583 77.9802 87.7726 78.2669 87.3859L78.9049 86.5229L79.7189 85.6159L79.7259 85.6079C80.5199 84.7229 81.3119 83.8399 82.1149 82.9629L82.9389 82.1989L83.7549 81.4429C83.9049 81.3229 84.0349 81.173 84.1449 81.0129C84.3149 80.7229 84.4349 80.423 84.5049 80.0929L84.6799 79.5579L84.8539 79.0229L85.3059 78.7359L85.4479 78.646ZM290.3 16.9009C274.864 13.7629 259.113 12.4069 243.437 13.0999C243.157 13.0298 242.876 12.9651 242.594 12.9059C243.426 12.5463 244.264 12.1983 245.106 11.8619C245.553 11.7219 246.008 11.5979 246.465 11.4739C247.672 11.1439 248.888 10.8139 249.976 10.1819C251.1 9.69195 252.143 9.06194 253.185 8.43194C254.315 7.74894 255.444 7.06594 256.676 6.56194C261.586 5.50194 266.316 4.47194 271.156 3.02194C272.694 2.76494 274.248 2.95194 275.802 3.13994C276.724 3.25194 277.647 3.36294 278.566 3.38194C281.626 3.35194 284.656 3.49194 287.696 3.84194C290.516 3.89594 293.279 4.32894 296.058 4.76394L297.006 4.91194C299.356 5.04194 301.666 4.69194 303.966 4.26194C305.494 4.36494 306.945 4.83494 308.396 5.30494C310.043 5.83794 311.692 6.37194 313.456 6.37194C313.992 6.39094 314.525 6.31194 315.057 6.23194C315.639 6.14594 316.222 6.05995 316.806 6.10194C317.7 6.04894 318.994 6.41194 320.014 6.69694L320.426 6.81194C321.257 7.01294 322.103 7.14194 322.947 7.27194C324.746 7.54794 326.534 7.82194 328.126 8.78194C328.904 9.15794 329.705 9.49194 330.505 9.82694C331.618 10.2919 332.729 10.7559 333.776 11.3319C334.641 11.9039 335.401 12.6069 336.157 13.3079C336.617 13.7339 337.076 14.1579 337.556 14.5519C338.51 15.1819 339.515 15.7199 340.517 16.2589C342.078 17.0969 343.634 17.9319 344.986 19.1019C345.886 20.4019 346.816 21.6719 347.836 22.8919C348.863 24.1319 350.356 24.8109 351.847 25.4889L352.335 25.7119C351.833 25.5719 351.328 25.4419 350.815 25.3819L349.965 25.2779L349.955 25.2769L349.095 25.1719C348.7 25.1199 348.304 25.0689 347.907 25.0189C347.159 24.9229 346.409 24.8269 345.664 24.7219C343.524 24.4319 341.385 24.1119 339.255 23.7719C338.719 23.6813 338.184 23.5879 337.649 23.4919H337.647C335.888 23.1819 334.131 22.8739 332.345 22.6819C330.265 22.4519 328.195 22.2019 326.125 21.9219C322.984 21.3819 319.854 20.8519 316.675 20.6519C314.081 20.5019 311.505 20.6519 308.922 20.8039L308.455 20.8319L307.99 20.8439C307.685 20.8553 307.384 20.8613 307.085 20.8619C306.618 20.7843 306.15 20.711 305.681 20.6419C302.636 19.7785 299.572 18.9836 296.491 18.2579L296.462 18.2379C295.755 17.7489 295.044 17.2579 294.196 17.0719C293.117 16.8359 291.959 16.8619 290.836 16.8889L290.3 16.9009ZM364.645 37.4329L364.958 37.7919L364.835 37.7219C363.685 37.0819 362.535 36.4519 361.365 35.8419V35.8519C360.235 35.2679 359.088 34.7176 357.925 34.2019L358.895 34.5169L359.865 34.8319C360.568 35.1449 361.267 35.4679 361.965 35.7899L361.967 35.7909L362.815 36.1819C363.431 36.5909 364.037 37.0109 364.645 37.4329ZM379.115 49.2259C378.599 48.2578 377.924 47.3841 377.116 46.6419C376.774 46.1419 376.427 45.6453 376.075 45.1519C376.394 45.3299 376.714 45.5066 377.035 45.6819C378.09 46.2759 379.098 46.9439 380.108 47.6139H380.109L380.755 48.0419C381.605 48.7819 382.454 49.5219 383.294 50.2719C384.514 51.5519 385.705 52.8419 386.835 54.2019C387.26 54.7139 387.676 55.2359 388.092 55.7569C388.675 56.4869 389.258 57.2169 389.865 57.9219L389.357 57.4669L388.797 56.9659L388.135 56.3719L387.978 56.2319L387.977 56.2309C387.37 55.6879 386.768 55.1489 386.115 54.6519L384.675 53.5519C384.215 53.2026 383.754 52.8553 383.292 52.5099C382.301 51.7679 381.309 51.0259 380.354 50.2419C379.94 49.9046 379.527 49.5659 379.115 49.2259ZM180.769 458.241C179.326 458.276 177.886 458.311 176.446 458.433L176.426 458.423C175.869 458.358 175.205 458.223 174.532 458.085C173.961 457.969 173.384 457.851 172.856 457.773C172.118 457.725 171.374 457.784 170.629 457.842C169.962 457.894 169.293 457.946 168.626 457.923C167.978 457.875 167.331 457.818 166.685 457.751C165.896 457.674 165.108 457.597 164.316 457.553C163.883 457.506 163.447 457.486 163.012 457.491C162.127 457.483 161.278 457.476 160.406 457.003C158.706 455.373 156.166 455.063 153.906 455.333C153.238 455.191 152.639 454.895 152.036 454.597C151.746 454.453 151.456 454.31 151.156 454.183L150.49 454.016C149.044 453.658 147.596 453.3 146.426 452.303C144.861 451.198 143.195 450.391 141.543 449.59C140.325 449 139.115 448.413 137.956 447.713C137.356 446.693 136.646 445.773 135.626 445.153C134.916 444.49 134.02 444.153 133.123 443.814C132.896 443.73 132.671 443.643 132.446 443.553C130.824 442.532 129.35 441.313 127.875 440.092C126.705 439.124 125.534 438.154 124.286 437.283C123.376 436.213 122.286 435.363 121.036 434.723C120.225 434.197 119.539 433.532 118.855 432.867C118.485 432.508 118.116 432.149 117.726 431.813C117.451 431.682 117.176 431.555 116.899 431.431C115.901 430.98 114.915 430.535 114.076 429.783C113.964 429.555 113.859 429.324 113.761 429.09C113.459 428.386 113.159 427.686 112.476 427.273C113.684 427.799 114.698 428.668 115.718 429.543C116.522 430.232 117.328 430.924 118.236 431.453C119.128 432.113 120.074 432.679 121.019 433.243C122.449 434.097 123.874 434.949 125.096 436.123C128.076 439.674 132.45 441.162 136.719 442.614C137.38 442.838 138.036 443.064 138.686 443.293C145.436 447.163 152.736 449.973 160.256 451.933C161.426 452.398 162.595 452.923 163.772 453.452C165.987 454.446 168.228 455.453 170.546 456.093C171.335 456.213 172.125 456.332 172.915 456.45C176.229 456.945 179.546 457.44 182.816 458.183C182.133 458.209 181.451 458.225 180.769 458.241ZM129.006 428.823C127.996 428.543 126.996 428.243 125.996 427.923C124.783 427.623 123.538 427.484 122.291 427.344C120.875 427.185 119.458 427.026 118.086 426.633C115.388 425.729 113.448 423.759 111.499 421.78C110.365 420.627 109.228 419.472 107.936 418.523C108.336 418.758 108.734 418.996 109.13 419.237C110.699 420.187 112.258 421.132 114.046 421.643C114.329 421.84 114.611 422.037 114.892 422.236C115.948 422.981 117.008 423.729 118.136 424.353C120.266 425.173 122.466 425.863 124.706 426.273C125.493 426.612 126.203 427.092 126.915 427.573C127.588 428.027 128.263 428.483 129.006 428.823ZM32.5189 325.924C32.6489 326.339 32.7789 326.754 32.9759 327.133C32.4899 326.371 32.1749 325.53 31.8589 324.69C31.7856 324.494 31.7112 324.298 31.6359 324.103C32.1089 324.612 32.3139 325.267 32.5189 325.924ZM74.9159 92.1589L75.2029 91.9179L75.3609 91.6409C75.4502 91.4876 75.5379 91.3316 75.6239 91.1729L75.7349 90.9729C75.8389 90.7869 75.9439 90.5969 76.0549 90.4129C75.7879 90.796 75.5349 91.1929 75.2849 91.5869H75.2839C75.1679 91.7703 75.0512 91.9523 74.9339 92.1329L74.9159 92.1589ZM106.56 68.2249C120.391 58.7689 135.018 49.9569 149.8 42.2749L149.905 42.2029C150.044 42.1063 150.182 42.0069 150.321 41.9049H150.322C150.702 41.6279 151.087 41.3479 151.505 41.1429L152.499 40.6429L153.495 40.1429L153.575 40.0649C153.628 40.0149 153.678 39.9643 153.725 39.9129L153.585 39.9279L153.445 39.9429C151.005 40.3529 148.595 40.8629 146.205 41.4729C144.605 42.2529 143.005 43.0529 141.435 43.8929L141.236 43.9999C140.858 44.2059 140.489 44.4079 140.055 44.4929C139.484 44.6029 138.915 44.7129 138.345 44.8329L138.29 44.8829C138.273 44.9003 138.254 44.9169 138.235 44.9329C137.931 45.2129 137.472 45.3899 137.074 45.5449C136.987 45.5783 136.904 45.6109 136.825 45.6429L135.958 46.0089C135.257 46.3039 134.558 46.5989 133.865 46.9029L133.86 46.9059C133.441 47.2059 133.023 47.5039 132.605 47.8129C132.395 47.9729 132.185 48.1346 131.975 48.2979C131.765 48.4613 131.555 48.6229 131.345 48.7829C130.575 49.3729 129.795 49.8529 128.965 50.3529C127.725 51.0929 126.495 51.8629 125.275 52.6329V52.6429C125.17 52.7669 125.065 52.8953 124.96 53.0279C124.707 53.3449 124.448 53.6679 124.145 53.9229C123.845 54.1429 123.535 54.3429 123.215 54.5129L122.22 55.1129L121.225 55.7129C121.17 55.7529 121.115 55.7946 121.06 55.8379C121.005 55.8806 120.95 55.9223 120.895 55.9629C120.88 55.9769 120.865 55.9903 120.85 56.0029L120.84 56.0109L120.805 56.0429C120.139 56.6229 119.437 57.1459 118.732 57.6729C118.536 57.8189 118.34 57.9656 118.145 58.1129L117.885 58.3079L117.625 58.5029C117.494 58.6136 117.365 58.7249 117.238 58.8369C117.042 59.0103 116.844 59.1789 116.645 59.3429C116.305 59.8529 115.965 60.3629 115.625 60.8629L115.571 60.9429C115.339 61.2989 115.1 61.6629 114.775 61.9329C114.451 62.1979 114.038 62.3949 113.65 62.5799C113.57 62.6173 113.492 62.6549 113.415 62.6929C112.755 63.0329 112.095 63.3629 111.435 63.6929L110.775 64.0729C110.555 64.2009 110.335 64.3276 110.115 64.4529L109.993 64.5669L109.824 64.7229C109.726 64.8129 109.63 64.9029 109.535 64.9929C109.146 65.3589 108.759 65.7289 108.375 66.1029C107.99 66.4749 107.605 66.8479 107.215 67.2129L106.765 67.9079L106.56 68.2249ZM169.876 32.3029L170.833 32.1769L196.266 22.3399L195.935 22.4279C195.415 22.5646 194.895 22.7029 194.375 22.8429L193.35 23.1779C193.007 23.2913 192.665 23.4029 192.325 23.5129C192.138 23.5729 191.952 23.6363 191.765 23.7029C191.381 23.8369 190.995 23.9729 190.605 24.0529C190.151 24.1499 189.68 24.1969 189.214 24.2429C189.053 24.2589 188.893 24.2756 188.735 24.2929L188.71 24.2959H188.709L186.495 24.5629C186.064 24.6336 185.635 24.7056 185.208 24.7789L184.115 24.9629L183.725 25.1229C183.595 25.1749 183.465 25.2283 183.335 25.2829L183.694 25.2329H183.695C183.815 25.2149 183.935 25.1983 184.055 25.1829L184.154 25.1699C184.572 25.1129 184.998 25.0559 185.415 25.0929C185.916 25.1561 186.414 25.2415 186.908 25.3489L187.275 25.4229L187.43 25.4049L187.573 25.3879C181.927 27.4841 176.344 29.7481 170.833 32.1769L169.965 31.0829L168.435 32.4929L168.665 32.4629L169.873 32.3029H169.876ZM349.99 38.6199C345.868 36.4071 341.678 34.3227 337.427 32.3699C340.801 33.7579 344.179 35.2349 347.455 36.9029C348.314 37.4539 349.157 38.0329 349.99 38.6199ZM401.735 79.5239C403.879 82.0243 405.963 84.5757 407.985 87.1759C408.358 87.5519 408.733 87.9263 409.109 88.299C409.49 88.6756 409.869 89.0536 410.245 89.4329C410.592 89.7869 410.89 90.2229 411.181 90.6469L411.182 90.6479C411.309 90.836 411.436 91.0176 411.565 91.1929C412.105 91.9329 412.634 92.6629 413.164 93.4029C413.997 94.5429 414.761 95.7309 415.525 96.9199C415.806 97.3586 416.09 97.7963 416.375 98.2329C418.195 100.433 420.085 102.553 422.005 104.663H422.015C422.599 105.302 423.178 105.945 423.754 106.592L424.354 107.263C424.034 106.573 423.704 105.883 423.365 105.203C422.573 103.766 421.729 102.359 420.835 100.983C420.671 100.732 420.506 100.483 420.339 100.237C420.015 99.7715 419.71 99.2931 419.425 98.8029C418.986 98.0329 418.536 97.2695 418.075 96.5129C417.615 95.7629 417.105 95.0229 416.595 94.2929C416.415 94.0529 416.245 93.8129 416.075 93.5729C415.855 93.1829 415.655 92.7729 415.484 92.3529L415.25 91.8239L415.249 91.8219C414.972 91.1935 414.691 90.5672 414.405 89.9429C413.779 89.4329 413.19 88.881 412.6 88.3279C412.324 88.0673 412.046 87.8089 411.765 87.5529C410.925 86.7809 410.152 85.9409 409.379 85.0999C409.122 84.8199 408.864 84.5409 408.604 84.2629C407.764 83.3629 406.995 82.3629 406.245 81.3729C405.475 80.3429 404.735 79.2929 404.025 78.2229C402.245 76.8329 400.475 75.4429 398.785 73.9429L398.782 73.9409C397.343 72.6609 395.904 71.382 394.475 70.0829L392.025 67.8729C391.485 67.3829 390.915 66.9329 390.345 66.4829C390.455 66.6529 390.564 66.8329 390.664 67.0029C392.824 69.4429 395.134 71.7429 397.444 74.0429H397.445C397.884 74.4719 398.313 74.9009 398.742 75.3299L398.745 75.3329C399.324 75.9029 399.654 76.3129 400.104 76.9729C400.666 77.8107 401.21 78.6619 401.735 79.5239ZM437.627 136.58C438.794 139.099 439.928 141.633 441.029 144.181C441.9 144.826 442.772 145.47 443.645 146.112L443.635 146.102L443.731 146.173C444.178 146.498 444.616 146.817 445.044 147.162C444.513 146.342 443.996 145.512 443.495 144.672C443.391 144.499 443.285 144.328 443.178 144.157C442.916 143.734 442.655 143.313 442.435 142.872C442.055 142.122 441.665 141.372 441.275 140.632C440.845 139.862 440.331 139.165 439.81 138.46L439.445 137.962C438.955 137.302 438.495 136.632 438.055 135.942C437.934 136.171 437.791 136.384 437.627 136.58ZM444.591 152.74C444.841 153.365 445.089 153.991 445.336 154.618C445.646 155.135 445.948 155.657 446.251 156.18L446.252 156.182C446.379 156.402 446.506 156.622 446.635 156.842C446.731 157.004 446.832 157.164 446.936 157.322C447.217 157.76 447.514 158.224 447.675 158.682C448.079 159.873 448.478 161.066 448.873 162.263L449.385 163.802C449.565 164.356 449.783 164.902 450.001 165.448V165.449C450.122 165.749 450.24 166.05 450.354 166.352L450.48 166.689C450.749 167.409 451.019 168.134 451.305 168.852C453.164 171.862 455.005 174.902 456.575 178.082V178.072L456.596 177.649V177.646C456.64 176.788 456.685 175.928 456.685 175.062C456.476 174.332 456.263 173.602 456.044 172.872L455.995 172.731V172.73C455.932 172.55 455.87 172.374 455.815 172.192C455.52 171.662 455.223 171.136 454.926 170.614C454.707 170.231 454.49 169.847 454.275 169.462C453.963 168.91 453.718 168.307 453.476 167.708C453.345 167.385 453.215 167.064 453.075 166.752C452.895 166.392 452.755 166.022 452.645 165.642C452.558 165.07 452.461 164.5 452.354 163.932C452.169 162.862 451.912 161.807 451.585 160.772C451.305 159.892 451.035 159.092 450.625 158.272L450.383 157.789L450.218 157.463C450.025 157.089 449.837 156.712 449.655 156.332C449.412 156.088 449.169 155.843 448.927 155.598C448.563 155.228 448.196 154.859 447.825 154.492C447.415 154.252 446.995 154.012 446.725 153.872C446.48 153.743 446.234 153.616 445.987 153.491C445.513 153.257 445.047 153.007 444.591 152.74ZM463.546 207.454C463.794 208.371 464.034 209.287 464.265 210.201L464.332 210.381L464.505 210.842C464.645 211.232 464.775 211.632 464.895 212.042C464.985 212.66 465.07 213.272 465.153 213.887C465.401 214.969 465.637 216.048 465.86 217.125L465.885 216.952L465.922 216.685L466.067 215.682C466.189 214.835 466.311 213.989 466.425 213.142C466.44 212.575 466.452 212.008 466.463 211.439C466.489 210.163 466.515 208.885 466.585 207.612L466.765 204.422C466.816 203.46 466.779 202.49 466.742 201.525L466.725 201.052L466.707 200.44V200.434C466.679 199.497 466.652 198.556 466.685 197.622C466.725 196.482 466.755 195.332 466.785 194.192C466.818 193.209 466.782 192.226 466.746 191.243L466.725 190.652C466.685 189.482 466.635 188.322 466.535 187.162C466.456 186.38 466.368 185.599 466.271 184.819L466.255 184.682C466.225 184.428 466.186 184.173 466.147 183.919C466.08 183.483 466.013 183.048 465.995 182.612C465.925 180.812 465.835 179.012 465.675 177.222C465.365 175.512 465.025 173.812 464.675 172.112C464.634 172.072 464.605 172.032 464.565 171.992L463.385 170.712C463.095 170.442 462.835 170.142 462.604 169.822C462.227 169.181 461.865 168.535 461.499 167.883L461.495 167.875L461.055 167.092C460.372 166.368 459.668 165.657 458.967 164.949L458.544 164.522C458.431 164.377 458.318 164.232 458.207 164.085L458.204 164.082L458.001 163.817L457.865 163.642C457.76 163.506 457.657 163.37 457.555 163.232L457.245 162.822C457.085 162.712 456.935 162.602 456.775 162.492C456.885 162.692 456.997 162.892 457.11 163.092C457.223 163.292 457.334 163.492 457.445 163.692C457.645 164.042 457.835 164.392 458.015 164.742C458.122 165.072 458.213 165.411 458.302 165.743L458.303 165.744L458.335 165.862C458.361 165.989 458.388 166.115 458.416 166.242L458.52 166.717C458.583 167.002 458.644 167.287 458.705 167.572C458.805 167.942 458.875 168.312 458.905 168.682C458.965 169.692 458.985 170.702 459.005 171.712C459.155 172.497 459.325 173.281 459.493 174.061L459.625 174.672C459.984 175.402 460.354 176.122 460.734 176.852C461.014 177.312 461.225 177.792 461.345 178.312C461.455 178.632 461.545 178.952 461.625 179.282C461.835 180.032 462.015 180.722 462.095 181.492C462.161 182.129 462.193 182.773 462.224 183.413L462.245 183.812C462.343 184.315 462.443 184.818 462.544 185.32L462.545 185.326C462.825 186.719 463.104 188.113 463.325 189.522C463.416 190.124 463.397 190.75 463.378 191.364C463.372 191.555 463.368 191.744 463.365 191.932C463.365 193.122 463.325 194.322 463.285 195.512C463.226 197.103 463.397 198.708 463.565 200.292C463.6 200.609 463.633 200.926 463.664 201.242C463.664 201.722 463.645 202.202 463.615 202.672L463.555 204.102C463.506 205.216 463.458 206.339 463.546 207.454ZM468.986 242.397L469.004 242.878C469.052 243.132 469.082 243.388 469.075 243.622C469.066 243.819 469.056 244.017 469.044 244.215C469.072 245.294 469.088 246.372 469.092 247.447C469.268 248.432 469.448 249.414 469.645 250.402V250.412C469.669 250.536 469.695 250.664 469.724 250.795L469.725 250.798C469.816 251.216 469.912 251.662 469.905 252.072C469.905 252.412 469.905 252.742 469.895 253.082C469.935 253.002 469.965 252.922 469.995 252.842C470.015 252.452 470.037 252.062 470.06 251.672L470.088 251.174L470.125 250.502C470.166 249.787 470.139 249.085 470.111 248.38L470.095 247.952C470.086 247.797 470.074 247.635 470.059 247.466L470.058 247.464C470.016 246.966 469.97 246.43 470.075 245.982L470.336 244.854C470.512 244.1 470.688 243.346 470.854 242.592C470.937 241.735 471.019 240.876 471.1 240.015C471.173 239.228 471.248 238.441 471.325 237.652C471.385 236.992 471.455 236.332 471.535 235.672C471.616 234.963 471.768 234.25 471.92 233.541C472.01 233.12 472.1 232.699 472.175 232.282C472.345 230.242 472.515 228.202 472.725 226.172C472.817 225.277 472.933 224.395 473.051 223.505L473.155 222.712C473.284 221.706 473.387 220.696 473.491 219.683C473.531 219.286 473.572 218.889 473.615 218.492C473.734 217.035 473.686 215.563 473.638 214.095V214.094L473.627 213.728L473.615 213.332L473.482 212.081C473.442 211.71 473.403 211.34 473.365 210.972C473.345 210.798 473.323 210.62 473.3 210.439C473.223 209.841 473.143 209.216 473.205 208.632L473.336 207.38L473.337 207.375C473.42 206.58 473.503 205.784 473.595 204.992L473.785 204.092C473.847 203.792 473.91 203.492 473.975 203.192C474.095 202.612 474.205 202.032 474.305 201.452C474.384 200.302 474.445 199.152 474.455 198.002C474.215 196.692 473.965 195.392 473.685 194.102C473.529 193.371 473.391 192.636 473.271 191.899C473.171 191.302 473.062 190.706 472.945 190.112C472.585 188.331 472.175 186.56 471.715 184.802C471.715 185.849 471.695 186.886 471.675 187.933V187.972C471.651 189.045 471.67 190.118 471.689 191.192V191.194C471.702 191.91 471.715 192.626 471.715 193.342V197.622C471.715 198.813 471.645 200.005 471.576 201.196L471.562 201.439C471.552 201.596 471.543 201.754 471.535 201.912C471.439 203.582 471.413 205.255 471.387 206.927C471.367 208.219 471.347 209.512 471.294 210.802V210.819C471.244 212.153 471.195 213.478 471.225 214.812C471.245 215.622 471.265 216.432 471.275 217.242C471.295 218.062 471.234 218.852 471.164 219.662C471.123 220.202 471.076 220.742 471.025 221.282C471.01 221.484 470.998 221.686 470.989 221.888C470.968 222.324 470.946 222.767 470.865 223.182C470.775 223.63 470.605 224.082 470.439 224.523V224.524H470.438C470.364 224.723 470.29 224.919 470.225 225.112L469.385 227.482C469.176 228.64 469.003 229.798 468.829 230.957L468.793 231.199L468.725 231.652C468.781 232.667 468.886 233.678 468.99 234.689C469.051 235.283 469.113 235.877 469.164 236.472C469.199 236.877 469.232 237.282 469.264 237.687C469.296 238.092 469.33 238.497 469.365 238.902C469.435 239.742 469.385 240.122 469.245 240.972C469.166 241.451 469.08 241.926 468.986 242.397ZM364.575 419.873C364.387 420.072 364.199 420.272 364.012 420.475C363.473 421.058 362.931 421.643 362.345 422.163C361.165 423.203 359.985 424.243 358.815 425.283C358.202 425.822 357.591 426.363 356.983 426.906C356.065 427.725 355.147 428.543 354.215 429.343C355.325 429.023 356.425 428.653 357.515 428.253C358.695 427.763 359.835 427.203 360.965 426.613C362.335 425.863 363.685 425.063 365.025 424.253C365.46 424.001 365.907 423.772 366.365 423.565C366.583 423.463 366.799 423.359 367.015 423.253C367.745 422.893 368.475 422.503 369.195 422.123C370.699 421.284 372.147 420.315 373.576 419.359L373.734 419.253L373.739 419.249C375.017 418.06 376.296 416.872 377.234 415.973C377.613 415.531 377.99 415.087 378.364 414.641C379.264 413.571 380.165 412.502 381.125 411.493C381.945 410.633 382.765 409.783 383.575 408.923C383.935 408.543 384.305 408.183 384.685 407.823C385.135 407.493 385.585 407.183 386.044 406.893C388.336 405.391 390.639 403.904 392.951 402.432H392.952C394.841 401.224 396.729 400.017 398.604 398.793C399.295 398.07 399.987 397.348 400.679 396.627C402.067 395.188 403.445 393.74 404.815 392.283L407.725 386.823L407.722 386.825C407.483 387.085 407.244 387.344 407.015 387.603C406.755 387.913 406.475 388.203 406.175 388.473L404.975 389.433C404.305 390.143 403.625 390.843 402.935 391.533C402.375 392.103 401.774 392.633 401.164 393.143C400.844 393.513 400.535 393.893 400.215 394.263C399.955 394.513 399.685 394.753 399.405 394.983L398.924 395.403L398.545 395.733C398.257 395.983 397.97 396.233 397.685 396.483C396.973 397.098 396.182 397.588 395.387 398.082C395.2 398.198 395.012 398.315 394.825 398.433C394.019 398.943 393.203 399.44 392.386 399.937L392.385 399.938C391.792 400.297 391.202 400.659 390.615 401.023C390.219 401.373 389.824 401.725 389.43 402.078L388.245 403.133C387.234 404.093 386.215 405.033 385.115 405.883C383.655 407.013 382.065 407.953 380.445 408.843C379.035 409.613 377.545 410.153 376.015 410.573C374.315 412.063 372.605 413.543 370.845 414.953L370.338 415.36L370.19 415.48C369.703 415.874 369.215 416.265 368.725 416.653C368.57 416.779 368.414 416.907 368.259 417.037C367.785 417.432 367.304 417.831 366.785 418.163C366.432 418.386 366.085 418.609 365.736 418.832L365.325 419.093C365.075 419.353 364.815 419.613 364.565 419.873H364.575ZM468.245 276.913L468.215 277.033C468.405 276.513 468.605 275.983 468.835 275.473C469.022 275.052 469.209 274.632 469.398 274.213C469.746 273.44 470.094 272.668 470.425 271.883C470.954 270.623 471.505 269.363 472.055 268.113C472.538 267.013 473.147 265.982 473.759 264.945L473.761 264.941L474.125 264.323C474.915 262.693 475.685 261.073 476.345 259.393C476.422 259.198 476.497 259 476.57 258.797C476.732 258.352 476.898 257.899 477.125 257.493C477.57 256.673 478.033 255.859 478.496 255.046L478.885 254.363C479.235 253.53 479.57 252.686 479.905 251.843V251.842L479.907 251.836L480.275 250.913C480.511 250.326 480.694 249.719 480.877 249.111C481.127 248.282 481.378 247.452 481.765 246.673C481.982 246.233 482.211 245.796 482.439 245.362C482.569 245.115 482.698 244.869 482.825 244.623C483.208 243.86 483.57 243.088 483.913 242.306L483.914 242.303C484.648 240.672 485.362 239.032 486.055 237.383C486.525 235.743 486.905 234.113 487.155 232.423C487.187 232.216 487.208 231.995 487.229 231.77C487.273 231.301 487.319 230.815 487.475 230.403C487.672 229.904 487.872 229.404 488.076 228.904L488.078 228.899L488.079 228.896C488.31 228.327 488.542 227.756 488.765 227.183C488.995 226.073 489.175 224.963 489.335 223.843C489.425 222.783 489.495 221.733 489.544 220.673C489.574 220.303 489.635 219.943 489.705 219.583C489.825 218.813 489.935 218.043 490.035 217.273L489.975 216.523C489.915 216.013 489.845 215.503 489.765 214.993C489.685 214.633 489.634 214.283 489.604 213.923L489.635 213.309C489.681 212.494 489.714 211.679 489.734 210.863C489.615 209.903 489.445 208.963 489.255 208.013C488.895 207.063 488.484 206.133 488.044 205.213C487.935 204.883 487.854 204.553 487.805 204.203H487.804C487.644 203.473 487.484 202.743 487.294 202.013C486.761 201.016 486.173 200.049 485.586 199.083C485.337 198.674 485.09 198.264 484.845 197.853C484.734 197.668 484.617 197.484 484.496 197.3V197.299C484.267 196.945 484.035 196.588 483.865 196.213C483.514 195.443 483.164 194.673 482.805 193.903C482.505 193.583 482.195 193.273 482.065 193.163C481.901 193.01 481.735 192.859 481.566 192.712L481.565 192.711C481.281 192.461 480.995 192.209 480.745 191.933C480.468 191.62 480.25 191.249 480.035 190.885C479.956 190.748 479.875 190.614 479.794 190.483L479.567 190.124C479.338 189.766 479.109 189.408 478.914 189.033C478.524 188.293 478.135 187.543 477.755 186.803C477.527 186.483 477.293 186.168 477.053 185.857L477.005 185.793C476.899 185.658 476.792 185.523 476.685 185.388C476.576 185.253 476.47 185.118 476.365 184.983C476.505 185.423 476.635 185.863 476.765 186.313C477.245 188.013 477.514 189.733 477.675 191.483C477.775 192.573 477.815 193.623 477.785 194.713C477.755 195.761 477.697 196.809 477.638 197.867V197.871L477.635 197.933L477.733 198.803C477.833 199.673 477.932 200.543 478.015 201.413C478.07 201.713 478.127 202.013 478.185 202.313C478.243 202.613 478.299 202.913 478.354 203.213L478.457 203.724V203.726C478.563 204.242 478.67 204.765 478.715 205.283C478.765 205.893 478.805 206.513 478.835 207.123C478.847 207.312 478.864 207.508 478.885 207.709C478.937 208.229 478.991 208.772 478.905 209.263C478.704 210.372 478.468 211.481 478.233 212.586L478.025 213.573L477.815 215.313L477.675 216.533L477.535 217.753C477.528 218.519 477.53 219.29 477.532 220.062L477.535 221.223C477.535 222.347 477.45 223.465 477.366 224.587C477.341 224.912 477.317 225.237 477.294 225.563C477.152 227.633 476.9 229.704 476.649 231.76L476.555 232.533C476.535 233.383 476.525 234.243 476.525 235.093C476.525 235.913 476.485 236.273 476.335 237.083C476.098 238.322 475.846 239.559 475.579 240.792L475.578 240.796C475.421 241.536 475.264 242.275 475.115 243.013C475.068 243.534 475.031 244.059 474.994 244.582L474.935 245.393C474.915 245.763 474.895 246.133 474.854 246.503C474.745 246.863 474.635 247.213 474.515 247.573C474.147 248.727 473.758 249.874 473.349 251.014V251.017C473.104 251.712 472.859 252.407 472.625 253.103C472.655 253.913 472.725 254.713 472.805 255.523C472.883 256.422 472.865 256.521 472.701 257.399L472.695 257.433C472.447 258.747 472.138 260.056 471.829 261.363V261.364L471.828 261.368C471.687 261.959 471.549 262.551 471.414 263.143C471.446 263.759 471.503 264.368 471.559 264.982L471.592 265.335L471.604 265.473C471.694 265.853 471.715 266.223 471.655 266.603C471.545 266.973 471.425 267.343 471.294 267.703C470.775 269.28 470.022 270.777 469.273 272.268L469.096 272.62L468.885 273.043C468.792 273.559 468.715 274.08 468.639 274.602V274.603C468.525 275.375 468.412 276.149 468.245 276.913ZM455.505 155.033C455.806 155.216 456.107 155.398 456.41 155.579C456.903 155.873 457.394 156.171 457.885 156.473C458.034 156.564 458.184 156.655 458.336 156.746C458.832 157.043 459.339 157.346 459.775 157.713C460.13 158.008 460.418 158.378 460.704 158.746L460.835 158.913C461.338 159.572 461.838 160.233 462.335 160.897C462.357 160.929 462.38 160.958 462.405 160.983L462.355 160.764L462.335 160.668L462.265 160.353C461.964 159.491 461.639 158.633 461.322 157.793L461.321 157.792V157.791C460.858 156.566 460.408 155.378 460.065 154.263C458.995 150.883 457.875 147.503 456.595 144.193L456.341 143.73C455.185 141.614 454.027 139.495 452.965 137.333L452.783 136.962L452.636 136.664C452.062 135.496 451.487 134.325 450.975 133.133L450.59 132.25L450.578 132.222L450.576 132.219C450.121 131.174 449.667 130.13 449.195 129.093C447.443 126.583 445.706 124.063 443.984 121.533C442.788 119.775 441.756 117.905 440.726 116.036C440.215 115.11 439.705 114.184 439.175 113.273C438.115 111.983 437.024 110.703 435.914 109.453C435.557 109.056 435.196 108.66 434.831 108.265L434.83 108.264C434.591 108.004 434.352 107.744 434.115 107.483C433.747 107.083 433.4 106.658 433.053 106.233C432.862 105.998 432.669 105.764 432.475 105.533C432.03 105.024 431.575 104.523 431.111 104.032L431.11 104.031C430.528 103.406 429.946 102.782 429.405 102.123C429.493 103.056 429.566 103.995 429.638 104.931L429.687 105.566L429.715 105.913C429.77 106.673 429.795 107.438 429.82 108.203C429.845 108.968 429.87 109.733 429.925 110.493L430.405 112.053C430.481 112.29 430.555 112.528 430.628 112.767C430.719 113.063 430.812 113.355 430.905 113.643L430.92 113.693L430.935 113.743C430.946 113.776 430.956 113.807 430.964 113.835L430.975 113.873L431.064 114.156L431.21 114.623C431.287 114.873 431.365 115.123 431.445 115.373C431.797 116.452 432.216 117.513 432.635 118.575C432.752 118.871 432.869 119.167 432.984 119.463C433.498 120.775 434.038 122.081 434.577 123.385L434.578 123.386L434.604 123.45L434.945 124.273C434.955 124.303 434.965 124.323 434.975 124.353C435.415 124.933 435.845 125.523 436.265 126.113L436.394 126.296C437.58 127.975 438.76 129.643 439.995 131.283C441.275 132.993 442.535 134.733 443.625 136.553C444.185 137.493 444.745 138.433 445.354 139.343C445.517 139.583 445.68 139.821 445.844 140.058C446.377 140.832 446.908 141.604 447.375 142.423C447.478 142.605 447.582 142.788 447.689 142.972L447.691 142.976C448.08 143.653 448.479 144.345 448.785 145.043C449.265 146.133 449.715 147.233 450.155 148.333C450.425 148.883 450.704 149.423 450.984 149.963C451.264 150.503 451.535 151.053 451.805 151.603C451.979 151.956 452.155 152.308 452.334 152.657V152.658L452.521 153.028L452.685 153.353L454.085 154.193C454.553 154.473 455.019 154.753 455.484 155.033H455.505ZM109.405 57.5829C109.334 57.7116 109.265 57.8423 109.196 57.9749C109.047 58.2579 108.895 58.5469 108.725 58.8129C109.318 58.2989 109.979 57.8329 110.633 57.3709C110.884 57.1956 111.131 57.0196 111.375 56.8429C111.695 56.4829 112.015 56.1329 112.345 55.7729C112.454 55.6523 112.564 55.5289 112.674 55.4029C112.988 55.0449 113.31 54.6789 113.665 54.3829C113.995 54.1089 114.402 53.9389 114.799 53.7729L114.862 53.7479L115.085 53.6529C115.694 53.3829 116.316 53.1329 116.941 52.8819L117.435 52.6829C118.235 52.0429 119.035 51.4129 119.845 50.7829C120.558 50.2349 121.322 49.7489 122.082 49.2649C122.335 49.1049 122.586 48.9443 122.835 48.7829C123.295 48.4829 123.765 48.1829 124.235 47.8829C124.375 47.7929 124.515 47.7016 124.655 47.6089C125.067 47.3369 125.485 47.0619 125.925 46.8529C126.295 46.7029 126.675 46.5629 127.055 46.4529C127.256 46.3799 127.464 46.3139 127.667 46.2499L127.815 46.2029C127.865 46.1529 127.925 46.1029 127.985 46.0529C128.349 45.7479 128.796 45.5149 129.232 45.2879H129.233C129.384 45.2099 129.531 45.1316 129.675 45.0529C130.395 44.6429 131.115 44.2329 131.835 43.8129C132.335 43.5329 132.815 43.2229 133.295 42.9029C133.705 42.5329 134.125 42.1729 134.615 41.9429C134.725 41.8929 134.845 41.8429 134.965 41.7929C135.04 41.7479 135.116 41.6969 135.187 41.6489L135.255 41.6029C135.485 41.4529 135.745 41.3229 136.005 41.2029C135.355 41.2629 134.695 41.2529 134.035 41.2329C133.895 41.2329 133.765 41.2329 133.625 41.2229C132.545 41.8929 131.465 42.5529 130.375 43.2129C130.045 43.4329 129.705 43.6329 129.355 43.8229C128.545 44.1829 127.735 44.5429 126.925 44.9229C126.465 45.2129 126.004 45.5029 125.545 45.8029C125.225 46.0429 124.885 46.2529 124.535 46.4329C123.475 46.9429 122.415 47.4629 121.365 48.0029C120.796 48.3489 120.23 48.6969 119.699 49.0249C119.277 49.2849 118.877 49.5319 118.515 49.7529C116.065 51.5129 113.645 53.3129 111.245 55.1429C110.955 55.4329 110.665 55.7229 110.385 56.0229C110.035 56.5329 109.705 57.0629 109.405 57.6029V57.5829ZM115.465 48.0829L115.612 47.9889C115.693 47.9356 115.778 47.8836 115.865 47.8329C116.418 47.4859 116.953 47.1129 117.489 46.7399C117.756 46.5519 118.025 46.3663 118.295 46.1829C117.705 46.4829 117.115 46.7929 116.535 47.1129C116.415 47.1829 116.295 47.2529 116.165 47.3129L115.81 47.6979L115.455 48.0829H115.465ZM121.205 43.7529C121.081 43.9549 120.956 44.1599 120.826 44.3529C120.886 44.3129 120.946 44.2729 121.006 44.2229C121.916 43.5749 122.912 43.1029 123.917 42.6269L124.346 42.4229L125.056 41.9879L125.766 41.5529C126.466 41.1329 126.906 40.9129 127.666 40.6029C129.016 40.0529 130.376 39.5629 131.746 39.0829L131.822 38.9609C132.336 38.1389 132.86 37.3019 133.766 36.8829C134.156 36.6929 134.626 36.5529 135.066 36.5229L137.436 36.4029C137.64 36.3023 137.843 36.2006 138.045 36.0979C138.247 35.9953 138.451 35.8936 138.656 35.7929C139.006 35.5929 139.366 35.4229 139.736 35.2829C140.136 35.1629 140.546 35.0829 140.966 35.0429C141.236 34.9989 141.508 34.9556 141.781 34.9129C142.054 34.8709 142.325 34.8276 142.596 34.7829L142.598 34.7819C143.227 34.3919 143.856 34.0019 144.486 33.6029C144.895 33.3489 145.369 33.1599 145.83 32.9749C146.023 32.8989 146.212 32.8216 146.396 32.7429L146.669 32.6209C147.053 32.4489 147.433 32.2779 147.846 32.1729C148.596 31.9829 149.346 31.7929 150.096 31.6129C150.523 31.3136 150.949 31.0129 151.375 30.7109H151.376C151.77 30.4339 152.128 30.1809 152.596 30.0229C153.028 29.8809 153.504 29.8199 153.96 29.7619L154.326 29.7129C154.721 29.6536 155.118 29.5953 155.516 29.5379C155.913 29.4806 156.31 29.4223 156.706 29.3629L157.994 28.9119L157.996 28.9109C158.661 28.6769 159.328 28.4443 159.996 28.2129C160.266 28.1329 160.536 28.0629 160.806 28.0029C161.126 27.7329 161.455 27.4729 161.806 27.2329C160.636 27.3029 159.476 27.3729 158.306 27.4529L157.231 27.7829L156.156 28.1129L155.148 28.5299L155.141 28.5329L155.133 28.5359C154.798 28.6759 154.463 28.8149 154.126 28.9529C153.817 29.0779 153.511 29.2129 153.203 29.3469C152.652 29.5889 152.1 29.8299 151.536 30.0229C150.936 30.2279 150.279 30.2659 149.639 30.3029C149.434 30.3136 149.233 30.3269 149.036 30.3429C148.167 30.4259 147.3 30.5266 146.435 30.6449L145.986 30.7029C144.826 31.2029 143.666 31.7029 142.496 32.1629C141.906 32.3929 141.326 32.6329 141.036 32.7529C140.748 32.8669 140.462 32.9909 140.174 33.1149C139.683 33.3354 139.183 33.5349 138.676 33.7129C138.156 33.8829 137.613 34.0129 137.072 34.1409C136.821 34.2003 136.573 34.2609 136.326 34.3229C136.156 34.3729 135.976 34.4229 135.796 34.4629C135.256 34.7329 134.726 35.0129 134.196 35.2929C134.097 35.3463 133.997 35.4023 133.897 35.4609C133.621 35.6189 133.339 35.7809 133.046 35.8829C132.266 36.1529 131.486 36.4329 130.716 36.7129C130.226 36.9529 129.746 37.2029 129.416 37.3829L129.345 37.4209C129.308 37.4436 129.268 37.4643 129.226 37.4829C128.286 38.0129 127.396 38.6229 126.506 39.2529C126.186 39.4329 125.846 39.5929 125.506 39.7229C125.066 39.9229 124.636 40.1329 124.206 40.3529C123.676 40.7629 123.156 41.1829 122.636 41.6129C122.266 42.1329 121.906 42.6529 121.556 43.1929L121.546 43.2129C121.429 43.3907 121.315 43.5707 121.205 43.7529ZM138.316 40.1329C138.436 40.0736 138.558 40.0153 138.681 39.9579C138.804 39.9013 138.925 39.8429 139.046 39.7829L139.413 39.4009C139.658 39.1449 139.902 38.8899 140.156 38.6429L139.941 38.7129L139.785 38.7629L139.416 38.8829L139.352 38.9589L139.277 39.0499C138.97 39.4199 138.653 39.8029 138.306 40.1329H138.316ZM155.466 35.4429C155.726 35.4089 155.988 35.3756 156.251 35.3429C156.514 35.3103 156.775 35.2769 157.036 35.2429L157.041 35.2419C158.069 35.0119 159.097 34.7819 160.126 34.5629L160.127 34.5609C160.407 34.3209 160.686 34.0819 160.966 33.8329C160.741 33.8709 160.516 33.8909 160.291 33.9119L160.185 33.9219L160.066 33.9329L159.109 34.0379L158.156 34.1429C157.386 34.4829 156.616 34.8329 155.846 35.1929C155.717 35.2721 155.59 35.3555 155.466 35.4429Z" fill="white"/>
</svg>
