<svg xmlns="http://www.w3.org/2000/svg" fill="none" viewBox="0 0 505 416">
	<path fill="#fff" d="m12.09 173.38-4.846 7.209v33.668l4.846 4.846h4.846l21.613-14.404h2.483l4.712 12.055h2.482l2.363-2.482c-6.377-23.769-9.557-63.888-9.557-120.373 8.532 0 17.346-6.421 26.458-19.25l-4.846-4.845H41.032V67.44l2.363-53.036h2.363l9.692 7.209h24.095L93.95 9.692c0-2.23-7.21-5.47-21.613-9.692C54.781 0 34.7 9.647 12.09 28.941v43.36c-4.727 0-8.74 3.181-12.055 9.573v9.691H12.09v81.859-.044Z"/>
	<path fill="#fff" d="M218.669 72.63h-5.098l-2.483 2.602c-11.758 6.793-17.644 12.665-17.644 17.644h-7.581l-20.245-22.728-20.781 27.024c-11.341-13.304-21.762-22.014-31.275-26.147l-40.624 35.779v81.235c0 3.805 9.572 14.166 28.688 31.052h7.075c11.268 0 24.022-8.741 38.262-26.206v-90.317l6.094-4.578 10.063 10.063v105.969l5.099 5.098h2.482l12.546-12.664h2.616c.491 8.443 3.018 12.664 7.581 12.664l4.965-5.098v-7.581l-4.965-7.581v-93.289l7.581-7.581c11.594 11.757 20.825 17.644 27.707 17.644h2.602l17.644-17.644-30.309-25.344v-.015Zm-95.534 127.33h-7.209c-12.754-9.023-19.131-19.383-19.131-31.052v-38.142l4.846-35.898c14.329 10.598 21.494 20.171 21.494 28.689v76.403Zm168.723 71.068c18.283-10.36 30.294-15.533 36.017-15.533h18.016l5.083-5.084v-2.616c-10.36-23.694-19.755-35.66-28.198-35.913v-5.083c7.462 0 12.576-3.449 15.4-10.316v-33.416l-2.616-23.114 2.616-18.016v-17.882l-36.017-33.43h-2.616l-41.13 38.514-2.482 74.545v7.7l25.715 28.198-43.716 43.613v2.616l15.533-2.616c20.944 1.724 32.925 4.34 35.898 7.833h2.497Zm-5.113-95.029 2.616-79.629h2.497c9.424 11.922 16.321 17.882 20.617 17.882v79.763l-2.616 12.784-25.716-28.317 2.602-2.483Zm10.316 46.199c11.43 8.607 19.13 17.154 23.114 25.597v2.616h-28.317c0-5.143-6.838-7.714-20.513-7.714l25.716-20.484v-.015Zm65.212-26.968c8.606 12.843 15.771 20.795 21.494 23.857h4.727l31.052-31.052v-2.363l-2.364-2.364-16.648 11.922-19.131-19.131v-9.573l2.364-9.572c10.018-5.708 21.94-16.857 35.779-33.416V99.681c0-10.108-6.333-19.666-19.012-28.689h-4.846L383.767 87.76C372.589 89.662 367 93.646 367 99.681c-9.528 3.225-14.285 6.421-14.285 9.572v78.753c0 4.801 3.181 7.209 9.573 7.209l-.015.015Zm19.13-95.52 4.727-4.845c4.802 0 8.77 7.164 11.922 21.494v16.767l-14.285 14.285h-2.364v-47.7Zm99.135-6.333h13.037l10.434-10.434v-7.82l-5.217-5.335h-18.269v-7.82c6.704 0 11.06-10.479 13.037-31.423 0-5.217-1.74-7.818-5.218-7.818-37.771 30.145-59.592 49.365-65.463 57.644v5.218l5.336 7.818 26.087-2.601v34.04l-5.217 7.818v7.953l5.217 7.819v39.405s-.431 69.314-2.081 91.254c-1.263 16.797 1.338 33.4 2.081 57.481v24.407l-5.217 7.953v23.471c3.969 8.443 10.925 16.321 20.87 23.605 7.536 0 18.016-7.864 31.423-23.605v-2.602l-2.601-2.601c-13.913 0-20.87-7.001-20.87-20.988l1.665-135.104c.535-43.821 3.404-72.628 2.155-91.402-1.129-16.916-1.204-38.484-1.204-42.587v-3.686l.015-.06ZM136.04 304.569c-9.989-14.894-18.194-22.342-24.616-22.342-3.255 0-11.416 5.931-24.496 17.808h-4.43l-20.082-20.082-22.237 20.082h-2.275c-6.124-11.877-10.583-17.808-13.392-17.808h-4.43c0 2.944-6.69 11.119-20.082 24.497v2.274h4.534l6.585-4.429 4.533 4.429v66.816l-2.274 37.89h2.274l2.156 2.274h2.274l8.844-6.689h4.534l4.43 4.43 4.43-4.43V306.754l8.962-2.156 11.12 11.119v60.112l-2.156 37.89H62.4l2.274 2.274c5.753-5.975 10.926-8.963 15.534-8.963l4.534 8.963h2.155l2.274-2.274-2.274-33.356v-20.082l2.274-55.697 6.69-2.275c8.918 2.944 13.377 5.931 13.377 8.964v53.423l-2.274 49.008 2.274 2.274 20.082-6.689c0 4.46 1.472 6.689 4.43 6.689l6.689-6.689v-2.274l-4.43-6.689v-95.742l.03-.015Zm50.819-23.811h-4.43l-10.896 15.31c-10.212 1.739-15.31 5.366-15.31 10.896-8.696 2.943-13.051 5.857-13.051 8.74v71.915c0 4.385 2.913 6.585 8.74 6.585 7.864 11.728 14.404 18.982 19.621 21.776h4.311l28.362-28.361v-2.156l-2.156-2.155-15.206 10.896-17.466-17.466v-8.74l2.155-8.741c9.142-5.217 20.038-15.385 32.673-30.517v-21.776c0-9.231-5.783-17.956-17.362-26.206h.015Zm-2.275 56.708-13.051 13.036h-2.155v-43.553l4.311-4.43c4.385 0 8.012 6.541 10.895 19.622v15.325Zm123.643-38.559h-2.155l-17.689-17.689h-2.155c-7.492 5.217-13.393 12.59-17.689 22.118v2.275l6.689-2.275 6.585 6.689v94.94l-4.43 6.585v2.274h6.585l11.119-6.689 6.585 6.689 6.585-6.689v-79.51l6.689-24.274 13.274 13.274v41.963l-2.274 55.236 2.274 2.155 13.155-4.429 11.119 2.274v-2.274l2.155-2.156V305.611l-24.274-26.549-22.118 19.845h-.03Zm89.731-18.149-37.087 32.672v74.189c0 3.478 8.74 12.932 26.206 28.361h6.466c10.287 0 21.925-7.982 34.932-23.932v-85.069c-11.119-13.453-21.286-22.193-30.517-26.206v-.015Zm8.74 117.742h-6.585c-11.639-8.235-17.465-17.689-17.465-28.362v-34.827l4.429-32.777c13.081 9.677 19.621 18.417 19.621 26.206v69.76Z"/>
  </svg>
