<svg width="880" height="881" viewBox="0 0 880 881" fill="none" xmlns="http://www.w3.org/2000/svg">
<path fill-rule="evenodd" clip-rule="evenodd" d="M101.143 175.575C101.208 175.706 101.319 175.808 101.454 175.861V175.88C101.778 175.995 102.145 175.837 102.471 175.643C102.584 175.575 102.692 175.505 102.79 175.438L102.801 175.431L102.916 175.354C102.97 175.319 103.02 175.288 103.066 175.261C102.912 175.298 102.752 175.368 102.586 175.442L102.575 175.447L102.561 175.453C102.221 175.604 101.861 175.765 101.497 175.683L101.288 175.426C101.258 174.641 101.644 173.949 102.037 173.28C102.773 172.116 103.672 171.065 104.617 170.053C105.02 169.621 105.431 169.197 105.842 168.774L105.895 168.718C106.177 168.428 106.457 168.137 106.734 167.845C106.97 167.597 107.203 167.347 107.433 167.095L108.68 165.534C109.391 164.638 110.098 163.738 110.8 162.835C111.72 161.953 112.698 161.148 113.677 160.345C114.203 159.912 114.731 159.478 115.249 159.033C115.608 158.726 115.96 158.412 116.305 158.09C117.302 157.147 118.2 156.122 119.062 155.065L119.487 154.537L119.799 154.145L120.603 153.118L120.632 153.08L120.66 153.042C121.162 152.4 121.664 151.757 122.18 151.125C122.719 150.459 123.282 149.811 123.866 149.183C124.149 148.888 124.443 148.606 124.749 148.338C124.898 148.206 125.048 148.077 125.2 147.949C125.744 147.501 126.301 147.071 126.872 146.658L127.604 146.127C128.238 145.67 128.871 145.214 129.483 144.732C133.543 141.661 137.321 138.24 140.35 134.133L140.559 133.861C145.248 131.468 149.917 129.049 154.017 125.68C158.027 122.34 161.342 118.332 164.659 114.324C165.597 113.184 166.544 112.051 167.5 110.924C169.832 109.036 172.285 107.289 174.529 105.297C178.238 102.177 181.249 98.3576 184.886 95.17C186.902 93.5761 189.223 92.5144 191.543 91.4551C192.221 91.1476 192.897 90.8331 193.568 90.5117C197.774 88.4568 201.529 85.6995 205.284 82.9422L205.312 82.9225L206.898 81.7603C207.529 81.2993 208.163 80.843 208.8 80.3914C209.475 79.9123 210.156 79.4419 210.842 78.9802L211.611 78.5094C213.488 77.3649 215.38 76.2113 216.987 74.702C221.99 69.7911 227.893 65.462 233.595 61.2807L234.745 60.4365C235.41 59.9841 236.101 59.5695 236.813 59.1946C237.683 58.7393 238.574 58.3261 239.483 57.9563C240.766 57.4291 242.077 56.9644 243.39 56.4991C244.429 56.1313 245.469 55.7629 246.495 55.3638C247.429 55.0046 248.347 54.6068 249.247 54.1715C250.62 53.5554 251.941 52.845 253.241 52.0952C254.178 51.5497 255.109 50.9939 256.034 50.4278L256.056 50.4156C258.575 48.8898 261.091 47.3658 263.829 46.2575C265.94 45.3613 267.903 44.1567 269.864 42.9534C272.77 41.1695 275.673 39.3881 279.048 38.6193C281.264 38.0774 283.549 37.8212 285.833 37.565C289.673 37.1346 293.51 36.7043 297.009 34.9167C298.227 34.3074 299.427 33.6674 300.627 33.0286L300.641 33.0207C303.203 31.6555 305.761 30.2915 308.476 29.228C311.015 28.0877 313.492 26.923 316.246 26.2119C320.578 25.057 325.024 24.4219 329.462 23.7881L329.473 23.7862C331.532 23.492 333.59 23.1983 335.634 22.8526C339.595 22.1341 343.254 20.5005 346.905 18.8705C347.832 18.4538 348.762 18.0443 349.695 17.642C352.902 16.4343 356.355 16.0297 359.764 15.9501C364.983 16.0359 370.207 16.1094 375.303 14.8098C381.036 13.9761 386.849 14.1723 392.606 13.7432C396.188 13.5286 399.579 12.3333 402.989 11.3034C407.612 9.86894 412.48 10.0835 417.202 10.9049C427.619 13.6359 431.496 12.9481 437.674 11.852C440.3 11.3862 443.344 10.8461 447.482 10.4642C451.071 10.1742 454.542 10.8277 458.033 11.4849L458.184 11.5137L459.62 11.7803L460.13 11.8723C461.27 12.0746 462.417 12.2572 463.572 12.3884C465.507 12.6183 467.448 12.6349 469.389 12.5785C470.371 12.5477 471.352 12.5068 472.333 12.4559L472.412 12.4528C473.341 12.4074 474.271 12.3627 475.199 12.3333C480.098 12.009 484.937 12.6177 489.775 13.2264C491.247 13.4122 492.721 13.5973 494.195 13.7561C495.081 13.8174 495.968 13.8676 496.856 13.9179L498.204 13.9945C499.078 14.046 499.951 14.1018 500.824 14.1723C504.362 14.5156 507.913 14.9386 511.316 15.9684C514.147 16.9482 517.056 17.6905 520.011 18.1876C521.3 18.4389 522.6 18.5983 523.903 18.7086C525.366 18.8337 526.836 18.8968 528.304 18.96C529.2 18.998 530.095 19.0366 530.987 19.0887C532.227 19.1629 533.453 19.3394 534.671 19.557L535.507 19.7121L535.899 19.7875L537.039 20.0137C538.162 20.2387 539.285 20.4637 540.419 20.6396C540.801 20.6985 541.184 20.7553 541.567 20.81L542.676 20.9657C544.764 21.2581 546.854 21.5512 548.905 22.0563C552.879 22.9513 556.544 24.672 560.207 26.3928C563.713 28.0387 567.218 29.684 570.992 30.6072C574.831 31.5206 578.406 31.9927 582.374 33.0041C583.931 33.3217 585.499 33.573 587.058 33.8666C588.692 34.1744 590.315 34.5275 591.902 35.0516C593.828 35.7566 595.686 36.6209 597.519 37.5282C598.863 38.1964 600.173 38.9344 601.478 39.6799L602.273 40.1347C603.156 40.6444 604.045 41.1436 604.941 41.6323C606.27 42.3514 607.621 43.0251 609.024 43.5915C609.77 43.8753 610.523 44.1334 611.282 44.3737L612.634 45.2951C613.357 45.7795 614.122 46.1961 614.922 46.5395C615.179 46.6523 615.443 46.7589 615.706 46.8601L616.148 47.0256C616.577 47.1825 617.013 47.3278 617.448 47.467C618 47.6423 618.552 47.8072 619.11 47.9727L619.116 47.9764C621.636 48.7273 624.15 49.4783 626.241 51.15C627.529 52.2117 628.866 53.2299 630.227 54.2003C631.274 54.9431 632.342 55.6573 633.428 56.3422C634.023 56.7194 634.624 57.0872 635.231 57.4456C638.425 59.2234 641.792 60.6695 644.901 62.595C646.219 63.5218 647.39 64.6247 648.568 65.7287C649.622 66.7181 650.677 67.7075 651.836 68.5719C654.019 70.3864 656.601 71.5572 659.213 72.63C660.09 72.9831 660.93 73.4153 661.739 73.8922C662.144 74.1325 662.543 74.3832 662.941 74.6413C663.603 75.0723 664.253 75.5234 664.903 75.9752C665.854 76.6379 666.81 77.3012 667.804 77.9013C669.686 79.1519 671.734 80.0739 673.776 80.9952C674.414 81.2809 675.046 81.5666 675.677 81.862C676.254 82.133 676.824 82.4113 677.388 82.7055C678.026 83.0402 678.657 83.3946 679.271 83.7802C680.393 84.6267 681.429 85.572 682.465 86.5166C683.563 87.5152 684.654 88.5138 685.85 89.3954C686.463 89.8747 687.095 90.3247 687.745 90.7507C688.401 91.1841 689.076 91.5936 689.756 91.9841C690.271 92.2765 690.786 92.5585 691.314 92.8325C691.702 93.0358 692.092 93.2346 692.485 93.429C693.938 94.0947 695.281 94.9315 696.569 95.8431C697.066 96.1937 697.556 96.556 698.041 96.9238C698.568 97.3216 699.089 97.7268 699.61 98.132C701.309 99.4537 703.008 100.776 704.872 101.864C706.165 102.708 707.508 103.464 708.851 104.219L708.87 104.232L708.888 104.239C710.507 105.152 712.132 106.065 713.659 107.13C715.02 108.119 716.093 109.402 717.166 110.687L717.178 110.701C717.497 111.086 717.822 111.471 718.147 111.848L718.442 112.177L718.767 112.531C720.57 114.573 722.642 116.344 724.831 117.956C725.557 118.432 726.258 118.944 726.935 119.488C727.223 119.716 727.505 119.947 727.787 120.182C728.32 120.631 728.848 121.089 729.375 121.549L729.418 121.585L729.43 121.599C730.54 122.566 731.65 123.532 732.84 124.411C733.385 124.809 733.931 125.213 734.477 125.628C735.268 126.236 736.047 126.87 736.782 127.545C737.291 128.01 737.782 128.495 738.236 129.007C738.698 129.518 739.126 130.06 739.517 130.627C741.13 133.116 742.54 135.764 744.68 137.86C746.588 139.725 748.807 141.221 751.021 142.717L751.039 142.731C752.309 143.586 753.572 144.44 754.78 145.364C757.797 147.68 759.679 150.9 761.568 154.123C762.15 155.123 762.733 156.123 763.352 157.096C763.818 157.832 764.309 158.552 764.83 159.245C765.229 159.779 765.652 160.295 766.099 160.793C767.019 161.774 768.031 162.668 769.043 163.561C770.177 164.564 771.306 165.567 772.311 166.691C772.918 167.368 773.476 168.088 773.961 168.879C774.77 170.002 775.481 171.195 776.187 172.387L776.205 172.418C776.775 173.377 777.346 174.335 777.965 175.254C779.308 177.106 780.865 178.786 782.208 180.63C782.723 181.317 783.214 182.021 783.68 182.742C784.281 183.667 784.857 184.613 785.427 185.558C786.163 186.779 786.905 187.999 787.709 189.176C787.917 189.48 788.138 189.776 788.365 190.066C788.794 190.61 789.248 191.132 789.714 191.641C791.553 193.64 793.62 195.433 795.3 197.58C797.483 200.366 798.838 203.588 800.193 206.812C801.138 209.066 802.082 211.32 803.315 213.427C804.737 215.632 806.62 217.438 808.502 219.246C810.397 221.061 812.292 222.878 813.721 225.105C814.947 226.806 815.824 228.689 816.627 230.609C817.492 232.667 818.277 234.767 819.337 236.727C820.214 238.33 821.189 239.877 822.158 241.424L822.63 242.172L823.17 243.045L823.624 243.783C824.525 245.28 825.298 246.837 826.003 248.424C826.843 250.32 827.579 252.261 828.315 254.2L828.327 254.233L828.345 254.277L828.958 255.878C829.382 256.894 829.829 257.899 830.283 258.898C831.301 261.12 832.386 263.31 833.484 265.496C834.723 267.851 835.526 270.369 836.329 272.888C836.85 274.528 837.372 276.168 838.015 277.763C838.524 279.025 839.058 280.276 839.64 281.505C840.119 282.523 840.636 283.522 841.192 284.5C842.4 286.505 843.448 288.592 844.497 290.678L845.282 292.236L845.772 293.191C846.447 294.485 847.14 295.767 847.9 297.017C849.635 299.923 850.978 303.068 851.653 306.39C851.696 306.76 851.733 307.131 851.769 307.502L851.819 308.023C851.898 308.864 851.966 309.709 852.027 310.553V310.564C852.413 315.443 852.8 320.343 855.283 324.708C855.43 324.992 855.584 325.275 855.737 325.557C855.909 325.878 856.086 326.197 856.264 326.516L856.73 327.35L857.258 328.285C858.055 329.72 858.827 331.169 859.471 332.689C859.821 333.507 860.183 334.321 860.544 335.135L860.563 335.178C862.065 338.54 863.561 341.905 864.138 345.574C864.696 348.823 864.812 352.14 864.929 355.454C865.094 360.401 865.266 365.342 866.922 370.034C867.285 370.914 867.673 371.783 868.087 372.641C868.046 373.737 867.9 374.826 867.651 375.895C867.437 379.231 868.626 382.24 869.828 385.255C870.208 386.225 870.595 387.196 870.932 388.178C871.502 389.832 871.944 391.519 872.023 393.292C870.668 404.375 871.122 415.281 873.237 426.216C873.133 429.37 872.348 432.437 871.563 435.52C870.877 438.22 870.184 440.934 869.938 443.73C869.742 452.656 868.841 461.452 867.835 470.323C867.59 473.252 867.743 476.196 867.897 479.135C868.117 483.338 868.338 487.532 867.381 491.662C864.42 500.851 861.998 510.194 861.673 519.891C861.329 523.852 860.041 527.606 858.754 531.36C858.386 532.44 858.018 533.519 857.668 534.603C857.315 535.699 856.994 536.805 856.706 537.92C856.142 540.322 855.712 542.487 855.363 544.484C855.007 546.542 854.725 548.421 854.468 550.197C853.302 558.091 852.444 563.947 845.932 574.4C844.362 577.82 843.405 581.444 842.443 585.069C841.584 588.314 840.726 591.56 839.426 594.661C837.488 598.165 836.151 601.934 834.821 605.702C833.275 610.062 831.736 614.419 829.253 618.366C821.845 626.471 819.184 634.06 816.406 641.974C814.628 647.037 812.807 652.236 809.661 657.789C807.08 661.4 803.922 664.502 800.77 667.61C797.894 670.442 795.024 673.274 792.584 676.48C791.455 677.915 790.548 679.472 789.763 681.09C788.917 682.819 788.205 684.615 787.5 686.417C786.292 689.464 785.09 692.517 783.232 695.239C776.42 704.133 769.153 712.685 761.893 721.23L761.881 721.243L761.875 721.261L761.838 721.298C756.123 728.029 750.408 734.753 744.92 741.644C741.682 744.617 737.984 747.044 734.293 749.46L734.281 749.472C729.032 752.911 723.789 756.35 719.889 761.371C713.26 772.319 703.688 778.351 693.282 784.904L693.27 784.91L691.351 786.124C689.848 787.461 688.352 788.803 686.856 790.139L686.641 790.336L686.439 790.519C679.589 796.662 672.746 802.798 665.418 808.389C662.524 811.27 659.495 814.035 656.263 816.53C655.276 816.94 654.289 817.37 653.345 817.854C651.566 819.049 649.659 820.018 647.758 820.992C646.415 821.673 645.079 822.359 643.779 823.126C642.853 823.671 641.945 824.254 641.081 824.91C639.627 825.995 638.07 826.914 636.334 827.49C635.01 827.791 633.728 828.195 632.465 828.686C630.828 829.36 629.258 830.175 627.682 830.991C627.094 831.297 626.505 831.604 625.91 831.904C625.346 832.186 624.788 832.462 624.218 832.719C623.739 832.94 623.261 833.155 622.771 833.357C620.863 834.332 619.097 835.576 617.111 836.404C616.424 836.618 615.719 836.784 615.007 836.925C614.437 837.041 613.867 837.139 613.297 837.237C612.25 837.421 611.207 837.605 610.189 837.875C609.677 838.007 609.173 838.167 608.679 838.353C608.128 838.555 607.589 838.807 607.067 839.107C603.185 841.271 599.623 844.054 595.435 845.617C593.508 846.249 591.518 846.58 589.53 846.911C587.468 847.248 585.41 847.591 583.428 848.272C581.752 848.903 580.194 849.792 578.634 850.681L578.623 850.687C576.736 851.76 574.847 852.839 572.746 853.464C572.009 853.685 571.266 853.881 570.521 854.065C569.636 854.285 568.748 854.481 567.859 854.684L567.765 854.702C566.996 854.88 566.228 855.052 565.462 855.235C564.999 855.37 564.538 855.511 564.078 855.658C563.356 855.885 562.636 856.118 561.916 856.351C559.158 857.246 556.402 858.141 553.529 858.625L552.074 858.92C551.009 859.134 549.942 859.349 548.884 859.594C548.123 859.766 547.366 859.962 546.617 860.176C545.966 860.415 545.314 860.667 544.661 860.912L544.596 860.937C540.812 862.383 536.981 863.848 532.876 863.732C532.18 863.744 531.484 863.738 530.787 863.72C530.015 863.695 529.243 863.664 528.47 863.628C526.682 863.542 524.894 863.462 523.114 863.554C519.704 863.854 516.548 865.056 513.384 866.257C511.084 867.134 508.781 868.011 506.374 868.544C503.088 869.372 499.74 869.329 496.389 869.292H496.342C495.087 869.273 493.831 869.261 492.577 869.292C490.089 869.402 487.652 869.886 485.214 870.371H485.203C483.439 870.72 481.675 871.076 479.889 871.284C478.65 871.456 477.408 871.529 476.165 871.542C474.581 871.554 472.996 871.462 471.415 871.352C470.875 871.321 470.334 871.309 469.794 871.303C467.613 871.284 465.434 871.437 463.257 871.591C462.487 871.646 461.717 871.701 460.947 871.75C460.296 871.787 459.644 871.824 458.993 871.848C455.894 872.093 452.822 871.744 449.749 871.401C446.741 871.063 443.734 870.726 440.701 870.941C439.533 871.014 438.366 871.094 437.2 871.18L435.279 871.315C434.347 871.382 433.415 871.437 432.482 871.486C431.196 871.554 429.909 871.603 428.62 871.609C427.56 871.701 426.496 871.805 425.432 871.916C419.866 872.48 414.249 873.05 408.815 871.346L407.455 870.965C403.838 869.96 400.197 868.942 396.421 868.875C394.881 868.851 393.333 868.844 391.784 868.838C384.568 868.82 377.283 868.802 370.342 866.674C369.066 866.288 367.811 865.841 366.563 865.369C364.951 864.756 363.353 864.1 361.739 863.499C359.989 862.843 358.222 862.248 356.404 861.831C353.592 861.194 350.726 861.09 347.86 860.979C344.889 860.869 341.916 860.759 339.001 860.06C337.406 859.68 335.834 859.22 334.272 858.73C333.033 858.337 331.801 857.927 330.569 857.522C328.976 856.989 327.385 856.461 325.781 855.977C318.293 854.555 311.051 852.226 303.84 849.81C301.969 849.24 300.09 848.836 298.222 848.437C294.735 847.689 291.285 846.948 287.995 845.139C286.431 844.299 284.91 843.367 283.388 842.436C280.37 840.584 277.352 838.739 273.995 837.581C273.293 837.37 272.587 837.172 271.877 836.986C271.315 836.833 270.75 836.692 270.183 836.551C269.061 836.275 267.934 836.011 266.808 835.748C260.624 834.301 254.434 832.86 249.21 829.023C248.239 828.41 247.278 827.779 246.318 827.141C243.632 825.376 240.942 823.604 238.019 822.243C234.954 820.907 231.746 819.95 228.537 818.994L228.523 818.988C226.936 818.516 225.349 818.044 223.779 817.529C222.418 817.075 221.07 816.591 219.746 816.045C218.083 815.383 216.603 814.421 215.201 813.348C214.205 812.582 213.248 811.754 212.294 810.927C211.668 810.387 211.042 809.848 210.407 809.327C207.69 806.911 204.426 805.244 201.206 803.601L200.75 803.368C198.069 802.044 195.39 800.708 193.029 798.869C192.718 798.587 192.41 798.299 192.105 798.004L191.282 797.22C190.343 796.319 189.409 795.411 188.437 794.547C187.803 793.981 187.149 793.439 186.474 792.922C184.261 791.071 181.775 789.631 179.288 788.19C178.668 787.834 178.049 787.473 177.434 787.111C176.487 786.552 175.555 785.968 174.64 785.358C171.426 783.255 168.231 781.122 165.227 778.725C164.408 778.042 163.598 777.349 162.796 776.647C162.089 775.875 161.385 775.09 160.677 774.311C159.258 773.049 157.667 772.025 156.066 771.026C155.605 770.675 155.137 770.333 154.662 770.002C153.676 769.313 152.685 768.63 151.69 767.954C151.144 767.384 150.603 766.808 150.06 766.232C146.417 762.351 142.764 758.465 137.952 755.982C131.652 752.574 127.321 746.989 122.976 741.38C120.067 737.622 117.151 733.865 113.632 730.738C103.76 721.899 100.405 717.178 94.7331 705.255C93.3245 703.122 91.8455 701.038 90.3677 698.96L90.3389 698.923C86.6002 693.669 82.8732 688.434 80.3425 682.39C78.2558 678.074 75.3118 674.323 72.3722 670.571C69.511 666.923 66.6541 663.282 64.5956 659.132C63.9358 657.544 63.3404 655.932 62.7762 654.308C62.2219 652.708 61.6982 651.089 61.1752 649.477C59.4705 644.223 57.7658 638.964 54.9868 634.133C50.9703 627.684 48.3887 620.641 45.8029 613.579C45.3362 612.306 44.869 611.032 44.3938 609.762C43.8546 608.311 43.2976 606.868 42.7228 605.431C41.0665 601.865 39.1589 598.393 37.2518 594.925L37.2377 594.9C32.2003 585.742 27.1751 576.605 26.8275 565.794C25.9714 558.024 22.9974 550.924 20.0148 543.806C17.6595 538.182 15.2993 532.546 13.9754 526.561C11.1308 518.735 9.48437 510.598 7.83732 502.461C7.24007 499.506 6.64158 496.551 5.98546 493.611C6.16329 491.666 5.92476 489.725 5.56849 487.794C4.7419 484.482 5.09755 481.143 5.45566 477.797C5.65433 475.934 5.85424 474.069 5.84933 472.205C5.91188 469.781 5.63287 467.377 5.35387 464.972C5.1417 463.138 4.92953 461.304 4.86883 459.461C5.03439 455.672 6.53673 452.141 7.11313 448.414C7.57303 446.042 7.38601 443.861 7.19101 441.593C7.09167 440.438 6.99049 439.261 6.97149 438.023C7.16158 433.677 8.37632 429.448 8.4867 425.095C8.68783 422.798 8.49774 420.505 8.30826 418.214C8.08076 415.465 7.85449 412.72 8.30212 409.978C8.70929 408.126 9.23664 406.302 9.76338 404.479C10.4919 401.964 11.2197 399.45 11.6318 396.86C12.1732 394.06 12.3167 391.222 12.4602 388.383C12.5326 386.975 12.6043 385.568 12.7239 384.164C13.0476 382.252 13.3853 380.343 13.7369 378.436C14.1416 376.208 14.5463 373.981 14.9075 371.744C15.869 366.3 16.0536 361.065 16.7771 355.555C17.2346 352.041 18.6922 348.849 20.1503 345.652C21.194 343.366 22.2383 341.078 22.9208 338.666C23.8406 335.819 24.3557 332.866 24.8695 329.917C25.1301 328.42 25.3914 326.925 25.7053 325.443C26.2817 322.139 27.3977 318.969 28.3359 315.751C30.01 309.333 31.175 302.713 34.0448 296.687C34.9156 294.896 35.9071 293.166 36.8974 291.436C38.4672 288.695 40.0376 285.954 41.1273 282.974C42.5229 279.845 43.1999 276.494 43.8738 273.153C44.0148 272.455 44.1558 271.758 44.3036 271.063C45.9654 264.203 47.7007 257.252 50.7974 250.876C53.1827 246.07 56.1506 241.565 59.5968 237.451C63.1834 233.234 66.6486 228.728 68.574 223.481C69.6759 220.582 70.3707 217.55 71.0618 214.53L71.2592 213.666C72.8112 205.819 77.7843 199.414 83.1497 193.719C87.3066 189.183 90.9496 184.235 94.3523 179.117C96.6438 175.59 99.5632 172.612 102.484 169.632C103.12 168.984 103.756 168.336 104.385 167.681C103.852 168.712 103.328 169.748 102.811 170.787C102.334 171.742 101.857 172.696 101.368 173.642C101.293 173.806 101.203 174.072 101.136 174.34C101.084 174.533 101.051 174.731 101.037 174.93C101.029 175.136 101.042 175.381 101.143 175.575ZM169.506 98.65C167.226 99.8975 164.911 101.076 162.587 102.236C159.857 103.597 157.112 104.932 154.391 106.315C153.775 106.578 153.157 106.836 152.539 107.096C148.779 108.675 145.002 110.259 141.612 112.55C138.025 114.86 134.75 117.668 132.076 121.003C129.532 124.448 126.828 127.752 124.043 131.014C121.903 133.68 119.8 136.389 117.451 138.885C115.771 140.311 114.111 141.761 112.473 143.236C107.261 146.321 101.711 149.171 97.9824 154.106C93.9175 159.279 89.8575 164.447 85.6829 169.535L84.8587 170.614C83.2528 172.718 81.6468 174.822 79.8084 176.738C77.7468 178.791 75.8465 181.017 74.3136 183.493C72.7658 185.938 71.269 188.414 69.7728 190.89C66.9276 195.599 64.0817 200.308 60.89 204.795C57.266 209.755 53.2441 214.457 50.424 219.956C48.3575 223.967 47.2991 228.331 46.2401 232.696C45.7066 234.901 45.1707 237.106 44.506 239.266C44.2582 240.313 44.0295 241.368 43.7996 242.426C42.8461 246.813 41.8882 251.224 39.6004 255.136C38.4868 257.176 37.1954 259.111 35.9384 261.066C35.132 262.32 34.3391 263.581 33.6156 264.884C33.1716 265.584 32.7178 266.283 32.2635 266.982C29.9296 270.576 27.5786 274.195 26.3363 278.327C25.1547 282.057 24.9603 285.962 24.7677 289.851C24.7136 291.021 24.6462 292.19 24.5654 293.358C24.0803 297.122 23.0679 300.776 21.6588 304.294C21.3513 305.049 21.0385 305.801 20.7206 306.55C19.7959 308.74 18.8718 310.931 18.2237 313.214C17.5369 315.978 17.0893 318.78 16.3289 321.52C15.2374 325.326 13.8822 329.073 13.2077 332.984C12.4927 336.079 12.4075 339.243 12.3216 342.406C12.2297 345.804 12.1377 349.202 11.2639 352.514C10.6243 354.331 9.90503 356.114 9.18513 357.896C7.86246 361.172 6.54041 364.445 5.72731 367.906C4.84369 371.728 4.80015 375.613 4.75723 379.508C4.74619 380.418 4.73576 381.328 4.71553 382.239C4.58246 384.675 4.11521 387.076 3.64672 389.477C3.14758 392.044 2.64782 394.611 2.55707 397.221C2.275 401.242 2.90046 405.227 3.31744 409.211C3.44008 410.922 3.25612 412.607 3.04701 414.3C1.91873 419.486 0.496723 424.672 0.564174 430.023C0.561722 430.973 0.594834 431.925 0.629173 432.876C0.686201 434.514 0.743842 436.152 0.619362 437.785C0.0490877 442.29 -0.380764 446.845 0.515118 451.338C0.588702 451.825 0.665352 452.313 0.745068 452.801C1.11053 455.069 1.47661 457.344 1.26935 459.645C1.14733 460.959 0.958461 462.271 0.770209 463.583C0.346489 466.533 -0.0778444 469.484 0.245924 472.474C0.466063 476.527 1.74765 480.419 2.28052 484.423L2.25415 485.667C2.21797 487.317 2.18241 488.969 2.27071 490.607C2.32712 497.639 2.71037 504.65 4.18818 511.573L4.20289 511.685C6.26508 529.72 8.32113 547.703 13.8651 565.094C14.9302 568.756 16.7594 572.062 18.5891 575.368C20.2503 578.369 21.9115 581.369 23.0023 584.638C25.0743 591.656 25.5459 599.068 28.2446 605.922C29.9861 610.985 32.4897 615.7 34.9947 620.408C35.5649 621.481 36.1352 622.56 36.6975 623.632C37.4364 625.055 38.16 626.483 38.8474 627.923C39.6813 629.928 40.4374 631.963 41.1947 634.005C42.3598 637.143 43.5249 640.276 44.9671 643.292C45.5855 644.592 46.2647 645.862 47.0023 647.099C48.8358 650.176 51.0414 652.99 53.2465 655.803C55.1303 658.206 57.0134 660.609 58.6623 663.172C59.0815 663.823 59.4833 664.485 59.8672 665.158C61.0544 667.641 62.0048 670.228 62.9547 672.808L62.962 672.827C64.3509 676.597 65.7392 680.367 67.8639 683.824C69.427 686.681 71.3972 689.262 73.3674 691.842C75.1831 694.221 76.9994 696.599 78.4968 699.199C78.8549 699.928 79.2057 700.658 79.5564 701.393C81.0643 704.544 82.5758 707.707 84.6643 710.515C87.0239 713.482 89.8158 716.02 92.593 718.545C97.3612 722.879 102.089 727.177 104.526 733.552C108.127 740.865 114.469 745.506 120.805 750.14C123.749 752.292 126.691 754.444 129.355 756.865C129.785 757.406 130.206 757.954 130.62 758.508C131.01 759.029 131.394 759.55 131.778 760.077L131.965 760.328C133.677 762.67 135.389 765.012 137.468 767.066C139.541 769.144 142.022 770.658 144.501 772.166L144.509 772.172C147.307 773.882 150.103 775.586 152.313 778.1C155.061 780.84 158.488 782.544 161.914 784.254L163.034 784.812C164.005 785.303 164.971 785.799 165.914 786.333L167.232 787.608C169.589 789.9 171.947 792.199 174.419 794.369C177.729 797.545 181.084 800.714 184.997 803.141C187.649 804.637 190.221 806.249 192.749 807.929C194.663 809.198 196.552 810.51 198.431 811.846C199.533 812.634 200.673 813.367 201.848 814.041C203.231 814.831 204.648 815.559 206.096 816.223C207.167 816.603 208.251 816.94 209.337 817.278C211.557 817.97 213.774 818.663 215.859 819.711C217.784 820.668 219.485 821.986 221.178 823.297L222.199 824.088C222.85 824.554 223.498 825.026 224.146 825.498C226.847 827.46 229.552 829.427 232.464 831.07C236.23 833.277 240.462 834.227 244.693 835.172C245.41 835.337 246.127 835.496 246.842 835.662C248.276 835.999 249.701 836.355 251.099 836.79C255.895 838.402 259.961 841.492 264.344 843.925C268.274 846.384 272.34 848.737 276.878 849.853C279.003 850.38 281.15 850.803 283.293 851.245C285.626 851.729 287.953 852.232 290.239 852.918C292.816 853.776 295.274 854.886 297.727 856.032C301.613 857.963 305.804 859.055 309.99 860.14C311.286 860.471 312.58 860.808 313.866 861.169C315.868 861.752 317.85 862.402 319.831 863.051C321.503 863.597 323.173 864.143 324.855 864.651C329.252 865.798 333.698 866.687 338.094 867.827C340.699 868.569 343.21 869.568 345.722 870.567C347.68 871.345 349.638 872.13 351.639 872.786C354.754 873.491 357.906 873.914 361.101 873.853C365.307 873.755 369.513 873.748 373.695 874.3C377.273 875.103 380.794 876.133 384.316 877.163C385.848 877.615 387.383 878.059 388.92 878.493C390.893 879.045 392.872 879.566 394.87 880.014C399.232 881.062 403.605 880.559 407.987 880.05C410.271 879.787 412.556 879.523 414.842 879.48C415.711 879.443 416.576 879.45 417.441 879.48C418.654 879.529 419.865 879.627 421.075 879.744C422.901 879.922 424.726 880.13 426.56 880.246C428.086 880.406 429.614 880.412 431.145 880.4L431.63 880.394C432.115 880.394 432.6 880.387 433.085 880.387L434.876 880.516C436.472 880.633 438.066 880.743 439.663 880.835V880.859C442.977 881.209 446.259 880.841 449.541 880.467C450.82 880.326 452.1 880.179 453.382 880.081C454.665 879.977 455.949 879.915 457.238 879.946C458.65 879.964 460.06 880.056 461.468 880.142C463.603 880.277 465.738 880.412 467.877 880.314C468.836 880.289 469.785 880.204 470.729 880.069C472.026 879.891 473.314 879.64 474.603 879.388C475.739 879.161 476.876 878.941 478.02 878.769C478.979 878.597 479.943 878.469 480.909 878.358C482.876 878.132 484.853 878.003 486.829 877.874C488.556 877.758 490.283 877.647 492 877.469C494.717 877.01 497.377 876.268 500.071 875.686C501.309 875.416 502.555 875.183 503.817 875.03C504.906 874.907 505.997 874.84 507.09 874.803C508.533 874.748 509.98 874.748 511.424 874.748C512.034 874.748 512.644 874.754 513.253 874.748L514.416 874.809C516.828 874.938 519.286 875.066 521.63 874.515C524.666 873.853 527.46 872.522 530.257 871.192C532.584 870.083 534.914 868.973 537.389 868.25C539.517 867.686 541.699 867.49 543.88 867.287C546.301 867.067 548.722 866.846 551.063 866.129C553.875 865.209 556.706 864.351 559.552 863.542C561.553 862.978 563.559 862.432 565.571 861.905C566.923 861.39 568.254 860.826 569.583 860.262C570.945 859.686 572.307 859.11 573.69 858.589C575.484 857.92 577.383 857.669 579.278 857.418C581.706 857.093 584.128 856.768 586.316 855.579C588.384 854.586 590.299 853.323 592.214 852.054C594.019 850.858 595.824 849.663 597.758 848.701C600.093 847.554 602.62 846.941 605.14 846.322L605.163 846.316C606.687 845.942 608.209 845.574 609.686 845.084C612.843 844.177 615.161 841.663 618.049 840.18C619.208 839.561 620.422 839.046 621.63 838.525C622.114 838.322 622.599 838.114 623.077 837.906C623.641 837.654 624.199 837.397 624.745 837.121C627.235 835.552 630.031 834.614 632.649 833.289C633.863 832.615 634.924 831.831 635.991 831.034C636.978 830.298 637.966 829.562 639.082 828.913C642.54 827.644 645.949 826.289 648.899 824.039C650.579 822.88 652.4 821.943 654.203 820.999C655.196 820.361 656.141 819.638 657.054 818.878C668.031 813.924 678.056 806.789 687.696 799.647C695.195 794.712 703.21 790.519 709.526 784.015C715.989 778.578 721.066 775.403 725.463 772.65C734.103 767.243 740.149 763.461 749.065 747.345C751.413 744.127 754.522 741.711 757.637 739.29C760.096 737.383 762.555 735.471 764.646 733.16C766.657 730.855 768.565 728.452 770.472 726.055C773.936 721.702 777.401 717.344 781.479 713.531C783.968 710.742 785.912 707.572 787.862 704.397V704.391C788.604 703.183 789.346 701.976 790.118 700.786C790.824 699.701 791.56 698.629 792.338 697.593C794.135 695.226 796.257 693.148 798.372 691.07C800.905 688.593 803.437 686.117 805.405 683.156C807.766 679.435 809.545 675.407 811.323 671.374C812.439 668.842 813.555 666.304 814.818 663.846C818.399 657.354 822.072 652.683 825.488 648.343C831.693 640.441 837.047 633.624 839.493 618.894C841.345 614.59 843.381 610.361 845.411 606.131C849.028 598.609 852.646 591.082 855.259 583.105C856.687 579.427 857.178 575.544 857.674 571.666C858.183 567.642 858.699 563.622 860.25 559.841C866.149 548.25 870.012 536.007 871.514 523.079C874.777 513.768 874.482 504.224 874.182 494.626C874.127 492.887 874.071 491.147 874.041 489.407L874.593 487.086C876.862 477.523 879.118 468.04 877.941 458.069C878.063 457.029 878.211 455.992 878.37 454.957C878.517 454.027 878.67 453.098 878.83 452.169C879.731 446.805 880.633 441.46 879.394 435.988C877.916 430.133 878.376 424.296 878.842 418.39C878.977 416.635 879.118 414.874 879.204 413.104C879.609 406.423 878.106 399.916 876.616 393.454L876.598 393.361L876.181 391.547L875.868 390.165L875.813 388.465L875.77 386.937C875.647 382.188 875.519 377.441 874.378 372.803C874.341 371.532 874.329 370.228 874.347 368.845V368.76C874.519 363.694 874.697 358.561 873.342 353.624C872.71 351.351 871.993 349.105 871.269 346.859L871.239 346.784C869.804 342.332 868.369 337.881 867.664 333.228C867.521 332.315 867.341 331.407 867.124 330.509C866.83 329.258 866.48 328.019 866.131 326.78V326.77C865.781 325.528 865.432 324.285 865.131 323.028C864.414 319.705 863.347 316.474 862.065 313.33C861.237 311.383 860.367 309.458 859.496 307.532C857.76 303.706 856.025 299.88 854.664 295.896C854.363 295.009 854.075 294.113 853.787 293.217C853.223 291.462 852.659 289.704 851.978 288C851.561 287.018 851.101 286.055 850.647 285.091C849.948 283.615 849.249 282.14 848.691 280.601C846.735 275.194 844.368 269.959 841.167 265.172C839.634 262.628 838.635 259.847 837.641 257.067C837.163 255.728 836.685 254.39 836.151 253.078C836.059 252.863 835.973 252.649 835.875 252.435C835.428 251.377 834.919 250.347 834.349 249.349C834.079 248.907 833.803 248.468 833.527 248.033C833.22 247.557 832.907 247.084 832.601 246.61L832.552 246.533L832.533 246.509C831.816 245.408 831.092 244.305 830.424 243.17C829.467 241.424 828.627 239.613 827.793 237.804V237.795C826.512 235.021 825.236 232.248 823.513 229.708L823.053 229.073C820.509 225.569 817.958 222.051 816.186 218.079C815.431 216.598 814.818 215.052 814.199 213.506L814.193 213.49C813.77 212.426 813.34 211.361 812.874 210.319C812.249 208.934 811.55 207.589 810.667 206.334C810.321 205.849 809.957 205.378 809.575 204.92C809.037 204.281 808.47 203.666 807.877 203.078C807.509 202.707 807.135 202.344 806.748 201.987C805.841 201.145 804.903 200.333 803.964 199.521C802.021 197.835 800.071 196.148 798.409 194.184C797.225 192.602 796.281 190.872 795.331 189.141L795.325 189.127C794.294 187.242 793.264 185.356 791.927 183.659C788.984 179.681 785.912 175.806 783.214 171.662C782.739 170.993 782.24 170.343 781.718 169.711C781.294 169.198 780.859 168.693 780.424 168.189L779.878 167.559C778.443 165.912 777.008 164.266 775.843 162.412C774.47 160.382 773.679 158.029 772.495 155.893C772.299 155.534 772.084 155.18 771.857 154.835C770.686 152.904 769.08 151.304 767.295 149.931L766.835 149.551C766.627 149.375 766.406 149.202 766.191 149.031C765.971 148.858 765.75 148.688 765.529 148.519C764.904 148.044 764.272 147.58 763.641 147.116C761.458 145.516 759.275 143.915 757.484 141.876C756.325 140.423 755.209 138.951 754.093 137.474C752.536 135.421 751.377 133.079 749.568 131.221C748.856 130.399 748.047 129.696 747.195 129.051C746.361 128.421 745.484 127.849 744.601 127.275C743.423 126.505 742.24 125.735 741.167 124.828C738.493 122.639 736.445 119.801 733.778 117.613C730.424 115.21 727.781 111.997 724.549 109.441C723.255 108.393 721.771 107.636 720.294 106.88L720.281 106.873C718.319 105.873 716.363 104.874 714.854 103.207C714.425 102.762 714.008 102.31 713.585 101.855C713.138 101.363 712.69 100.868 712.236 100.376C711.476 99.5512 710.709 98.7353 709.9 97.9604C708.998 97.0985 708.054 96.2869 707.018 95.569C706.372 95.0892 705.71 94.633 705.031 94.2014C704.767 94.033 704.504 93.8669 704.24 93.703L703.633 93.3358C703.283 93.1237 702.928 92.9153 702.572 92.7075C701.462 92.0558 700.34 91.4159 699.242 90.7379C697.029 89.0833 694.883 87.3479 692.51 85.914C688.959 83.6759 684.838 82.6216 681.178 80.6047C679.688 79.5228 678.32 78.2888 676.947 77.0554L676.928 77.0394C674.727 75.0576 672.525 73.0763 669.846 71.7221C668.969 71.2642 668.074 70.8412 667.178 70.4176C666.639 70.1626 666.099 69.9076 665.566 69.6452C664.965 69.351 664.37 69.0476 663.787 68.7251C663.56 68.5743 663.34 68.4211 663.113 68.2666L662.763 68.0201C662.401 67.7602 662.034 67.4972 661.672 67.233L661.629 67.2005C659.844 65.9059 658.054 64.6106 656.006 63.7652C654.577 63.1044 653.069 62.6287 651.579 62.107C651.033 61.9139 650.487 61.7153 649.947 61.4989C649.702 61.3984 649.451 61.2941 649.205 61.185C648.93 61.0612 648.654 60.9306 648.384 60.7927C646.74 59.8609 645.318 58.6281 643.975 57.3046C641.16 54.6135 638.143 52.0628 634.562 50.4757C633.017 49.6806 631.374 49.0909 629.736 48.5024C629.019 48.2449 628.302 47.9868 627.59 47.7116C626.02 46.7553 624.457 45.7867 622.912 44.793C621.599 43.8796 620.305 42.9252 619.018 41.9707C615.774 39.5714 612.526 37.1708 608.876 35.4071C604.918 33.5056 600.746 32.1232 596.581 30.7421C595.765 30.4724 594.949 30.2006 594.134 29.9268C587.383 27.1866 580.62 24.4342 574.132 21.1116C570.851 19.5546 567.423 18.2121 563.824 17.6726C563.248 17.5933 562.671 17.5202 562.092 17.4532C561.329 17.3643 560.565 17.284 559.8 17.2031C556.361 16.8395 552.92 16.476 549.622 15.3738C548.505 15.0182 547.395 14.6419 546.292 14.2453L545.038 13.7916C544.336 13.5333 543.636 13.2738 542.937 13.0131L542.811 12.9665C541.907 12.6286 541.001 12.295 540.094 11.9655C537.808 11.2961 535.507 10.68 533.193 10.1178C529.943 9.32908 526.667 8.65131 523.371 8.08568C521.724 7.77795 520.069 7.58485 518.409 7.44324C517.563 7.3722 516.716 7.31007 515.868 7.25689L514.477 7.17106C511.787 7.00678 509.098 6.84188 506.435 6.40541C504.861 6.1081 503.294 5.74826 501.725 5.3878C498.41 4.62767 495.09 3.86507 491.693 3.68975C489.326 3.51811 486.966 3.63458 484.605 3.86753C480.215 4.28438 475.812 4.32729 471.422 3.9227L469.916 3.78416C465.822 3.40102 461.719 3.01789 457.606 3.33482C455.163 3.47642 452.713 3.59228 450.267 3.55121C448.501 3.52179 446.737 3.41022 444.98 3.16869C442.318 2.78249 439.614 2.46985 436.99 1.8691C433.231 0.845364 429.392 -0.0802888 425.481 0.00553323C421.398 0.160626 417.472 1.30206 413.545 2.44472L411.944 2.90693C410.684 3.26739 409.42 3.61496 408.15 3.91534C406.879 4.21572 405.602 4.47012 404.312 4.64606C401.495 4.94459 398.669 4.86858 395.842 4.79318C392.676 4.70736 389.508 4.62276 386.352 5.06291C385.727 5.12421 385.103 5.1896 384.479 5.25907L382.852 5.44604L381.598 5.59562L380.423 5.73538C379.848 5.80363 379.273 5.86984 378.698 5.934C376.783 6.14672 374.864 6.32817 372.935 6.41767C372.401 6.44219 371.867 6.46405 371.333 6.48326C370.469 6.51636 369.607 6.54947 368.746 6.60157C368.201 6.63366 367.658 6.67556 367.115 6.72724C366.559 6.78028 366.006 6.84876 365.455 6.9326C361.205 7.59466 356.968 8.29963 352.687 8.72873C350.365 8.95678 348.009 8.90344 345.656 8.8495C341.376 8.75142 337.101 8.65333 333.041 10.2558C329.97 11.4781 327.096 13.1896 324.223 14.9006C319.619 17.6407 315.019 20.3809 309.616 21.1055C303.712 21.7982 297.696 22.1109 291.883 23.4166C288.093 24.3974 284.72 26.4142 281.458 28.4985C277.805 30.839 273.762 32.3537 269.717 33.8685L269.702 33.874C267.267 34.7862 264.831 35.6989 262.48 36.7919C262.026 37.0351 261.577 37.2772 261.133 37.5184L260.044 38.1118C258.921 38.7293 257.79 39.3309 256.65 39.9165C255.908 40.2954 255.157 40.6582 254.4 41.0046C253.557 41.3895 252.702 41.7471 251.836 42.0767C248.003 43.6215 244.244 45.4728 240.889 47.9004C237.774 50.2421 235.352 53.3869 232.09 55.5385C230.038 56.6438 227.838 57.4132 225.639 58.1819C222.495 59.281 219.356 60.3789 216.668 62.4534C215.549 63.2006 214.572 64.0981 213.654 65.0593C213.241 65.4955 212.836 65.9401 212.441 66.3926L211.714 67.2275C210.185 68.9918 208.654 70.7579 206.679 72.0593C205.037 73.1394 203.311 74.0835 201.585 75.0269C198.96 76.462 196.338 77.8964 194.011 79.8084C192.115 81.3508 190.441 83.1267 188.77 84.9001L188.762 84.9056L188.755 84.9112L187.793 85.9288L187.217 86.5289C186.196 87.5851 185.151 88.615 184.034 89.5676C183.039 90.3603 181.976 91.0474 180.882 91.6801C180.688 91.7888 180.495 91.8985 180.302 92.0093C179.123 92.6652 177.914 93.2715 176.712 93.8888C174.182 95.2705 171.727 96.811 169.506 98.65Z" fill="white"/>
</svg>
