<svg width="639" height="251" viewBox="0 0 639 251" fill="none" xmlns="http://www.w3.org/2000/svg">
<g opacity="0.56" filter="url(#filter0_d_279_351)">
<path d="M580.76 244.534C580.76 244.532 580.758 244.53 580.756 244.53L493.62 243.11L229.85 240.768L56.0573 243.081C54.679 243.099 53.3048 242.927 51.9734 242.57L39.6898 239.277C37.8209 238.776 36.0666 237.918 34.5236 236.75L22.7506 227.843C20.1481 225.874 18.2617 223.124 17.396 219.978C14.3138 208.775 7 181.425 7 174.148L10.8138 58.6019C10.8773 56.6774 11.3108 54.7831 12.0906 53.0225L24.7274 24.4897C26.7538 19.9142 30.9284 16.6506 35.8577 15.7883L52.4757 12.8813C53.476 12.7063 54.4914 12.6333 55.5065 12.6635L143.06 15.2681L277.2 10.8281L504.93 8L588.77 12.63L606.229 14.4844C611.204 15.0129 615.588 17.987 617.919 22.4143L626.411 38.5491C626.862 39.4077 627.23 40.3081 627.508 41.2376L631.167 53.4714C631.606 54.9418 631.818 56.4709 631.794 58.0054L630 171.9L627.582 210.67C627.392 213.717 626.276 216.634 624.385 219.03L612.565 234.003C610.427 236.711 607.421 238.6 604.054 239.35L580.765 244.539C580.763 244.539 580.76 244.537 580.76 244.534Z" fill="url(#paint0_radial_279_351)"/>
</g>
<path d="M607.497 71.0311C607.497 49.7873 590.275 32.5658 569.032 32.5658H478.5H256.094H165.563H75.0311C53.7873 32.5658 36.5658 49.7873 36.5658 71.0311V181.895C36.5658 203.139 53.7873 220.36 75.0311 220.36H165.563H256.094H478.5H569.032C590.275 220.36 607.497 203.139 607.497 181.895V71.0311Z" fill="#FBE2CD" stroke="#6C5B52" stroke-width="2.8684"/>
<path d="M132.02 118.792C131.898 119.893 131.745 120.872 131.561 121.729C131.439 122.586 131.163 123.412 130.735 124.207C130.307 124.942 129.725 125.737 128.991 126.594C128.318 127.389 127.431 128.307 126.329 129.347C123.453 132.04 120.271 133.6 116.783 134.029C115.988 134.335 114.947 134.702 113.662 135.13C112.377 135.497 110.847 135.926 109.073 136.415L109.348 142.382C109.47 143.238 109.562 144.095 109.623 144.952C109.685 145.808 109.715 146.757 109.715 147.797C109.715 148.531 109.715 149.327 109.715 150.184C109.715 151.04 109.593 151.836 109.348 152.57C109.165 153.304 108.767 153.916 108.155 154.406C107.604 154.895 106.778 155.14 105.677 155.14C104.514 155.14 103.657 154.926 103.106 154.498C102.556 154.069 102.189 153.457 102.005 152.662C101.821 151.928 101.699 151.04 101.638 150C101.638 148.96 101.546 147.858 101.362 146.696V146.787C101.301 145.992 101.24 145.043 101.179 143.942C101.118 142.963 101.057 141.77 100.995 140.362C100.934 138.894 100.842 137.18 100.72 135.222V134.671C100.72 134.304 100.689 133.815 100.628 133.203C100.628 132.591 100.598 131.948 100.536 131.275C100.475 130.602 100.414 130.021 100.353 129.531C100.353 128.98 100.353 128.613 100.353 128.43C100.353 128.062 100.353 127.42 100.353 126.502C100.414 125.523 100.445 124.483 100.445 123.381C100.506 122.28 100.536 121.239 100.536 120.26C100.598 119.22 100.628 118.425 100.628 117.874C100.628 116.895 100.567 116.008 100.445 115.212C100.383 114.417 100.292 113.682 100.169 113.009C100.169 112.887 100.169 112.489 100.169 111.816C100.23 111.143 100.292 110.408 100.353 109.613C100.414 108.756 100.506 107.93 100.628 107.135C100.751 106.278 100.904 105.574 101.087 105.023C102.739 104.228 104.728 103.83 107.053 103.83H107.788C110.419 103.035 112.867 102.637 115.131 102.637C115.988 102.637 118.405 103.004 122.382 103.738L126.421 105.941C127.522 106.614 128.41 107.318 129.083 108.052C129.817 108.726 130.398 109.552 130.827 110.531C131.255 111.51 131.561 112.673 131.745 114.019C131.928 115.304 132.02 116.895 132.02 118.792ZM123.392 120.077C123.575 118.914 123.667 117.874 123.667 116.956C123.667 115.304 122.994 113.805 121.648 112.458C120.302 111.051 118.099 110.347 115.039 110.347C113.632 110.347 111.49 110.837 108.614 111.816C108.736 112.978 108.828 114.386 108.889 116.038C108.95 117.629 108.981 119.495 108.981 121.637C108.92 121.76 108.889 122.372 108.889 123.473C108.889 124.024 108.889 124.697 108.889 125.492C108.889 126.227 108.92 127.083 108.981 128.062C109.532 128.001 110.144 127.879 110.817 127.695C111.551 127.512 112.224 127.328 112.836 127.145C113.448 126.9 113.968 126.686 114.396 126.502C114.825 126.318 115.039 126.227 115.039 126.227C119.445 125.186 122.229 123.136 123.392 120.077ZM170.059 138.71C171.834 139.077 172.721 140.454 172.721 142.84C172.721 144.126 172.415 145.135 171.803 145.869C171.191 146.604 170.396 146.971 169.417 146.971C169.111 146.971 168.529 146.94 167.673 146.879C166.816 146.757 165.898 146.665 164.919 146.604C163.94 146.481 162.992 146.39 162.074 146.328C161.156 146.206 160.513 146.145 160.146 146.145C159.779 146.145 159.442 146.145 159.136 146.145C158.83 146.145 158.524 146.175 158.219 146.237C157.178 146.175 155.954 146.053 154.547 145.869C153.201 145.625 151.854 145.38 150.508 145.135C149.223 144.829 148.061 144.523 147.02 144.217C146.041 143.911 145.46 143.636 145.276 143.391C144.664 141.555 144.358 139.108 144.358 136.048C144.358 135.559 144.358 135.069 144.358 134.579C144.358 134.029 144.389 133.478 144.45 132.927L145.001 126.41C145.062 125.921 145.093 125.462 145.093 125.033C145.093 124.544 145.093 124.116 145.093 123.748C145.093 123.259 145.093 122.861 145.093 122.555C145.093 122.188 145.032 121.851 144.909 121.545C145.337 119.22 145.643 117.293 145.827 115.763C146.011 114.172 146.102 112.948 146.102 112.091V111.357C146.102 110.5 146.47 107.777 147.204 103.188C148.122 101.229 149.529 100.25 151.426 100.25C152.589 100.25 153.568 100.709 154.363 101.627C155.159 102.484 155.557 103.677 155.557 105.207C155.312 106.064 155.067 107.135 154.822 108.42C154.639 109.705 154.455 111.234 154.272 113.009V113.743C154.272 114.294 154.21 115.151 154.088 116.313C154.027 117.415 153.935 118.578 153.813 119.801C153.69 120.964 153.568 122.035 153.446 123.014C153.384 123.932 153.354 124.452 153.354 124.574C153.354 125.248 153.384 125.676 153.446 125.86C153.201 128.43 153.017 130.571 152.895 132.285C152.772 133.998 152.711 135.314 152.711 136.232C152.711 136.844 152.742 137.241 152.803 137.425C155.985 137.792 158.096 137.976 159.136 137.976C159.626 137.976 160.115 137.976 160.605 137.976C161.156 137.914 161.707 137.884 162.257 137.884C164.583 137.884 167.183 138.159 170.059 138.71ZM222.771 150.826C222.526 151.989 221.394 152.57 219.374 152.57C217.722 152.57 216.529 152.203 215.795 151.469C215.489 150.428 215.06 149.174 214.509 147.705C213.959 146.175 213.316 144.431 212.582 142.473C212.215 140.087 211.848 138.404 211.48 137.425C211.175 136.446 210.777 135.712 210.287 135.222C209.369 135.283 208.054 135.406 206.34 135.589C204.627 135.712 202.822 135.895 200.925 136.14C199.028 136.323 197.253 136.599 195.601 136.966C193.949 137.272 192.756 137.608 192.021 137.976C191.715 139.505 191.348 141.188 190.92 143.024C190.491 144.86 189.971 146.818 189.359 148.899C189.176 149.51 188.747 149.939 188.074 150.184C187.401 150.49 186.575 150.643 185.596 150.643C184.617 150.643 183.76 150.459 183.026 150.092C182.353 149.786 182.016 149.296 182.016 148.623C182.016 147.399 182.751 143.758 184.219 137.7C184.158 137.456 184.127 137.088 184.127 136.599C184.127 135.803 184.219 134.824 184.403 133.662C184.648 132.438 184.892 131.275 185.137 130.174C185.382 129.072 185.596 128.124 185.78 127.328C186.024 126.533 186.147 126.104 186.147 126.043L189.084 117.874C189.206 117.078 189.512 116.008 190.002 114.661C190.553 113.315 191.134 111.938 191.746 110.531C192.358 109.123 192.939 107.808 193.49 106.584C194.041 105.299 194.408 104.32 194.591 103.647C195.142 101.627 196.611 100.618 198.997 100.618C200.955 100.618 202.21 101.352 202.761 102.821C202.761 102.821 202.944 103.157 203.311 103.83C203.678 104.503 204.168 105.36 204.78 106.4C205.392 107.441 206.034 108.603 206.707 109.888C207.442 111.112 208.115 112.305 208.727 113.468C209.339 114.569 209.859 115.579 210.287 116.497C210.716 117.354 210.96 117.935 211.022 118.241C211.511 119.404 212.123 120.75 212.857 122.28C213.592 123.748 214.479 125.401 215.519 127.236C216.131 128.032 216.682 129.103 217.171 130.449C217.722 131.734 218.212 133.05 218.64 134.396C219.068 135.742 219.436 136.966 219.741 138.067C220.047 139.169 220.323 139.903 220.568 140.27C220.568 140.699 220.69 141.372 220.935 142.29C221.241 143.146 221.516 144.064 221.761 145.043C222.067 146.022 222.342 146.94 222.587 147.797C222.832 148.654 222.954 149.266 222.954 149.633C222.954 149.939 222.893 150.337 222.771 150.826ZM206.707 127.695C206.218 126.227 205.759 124.972 205.331 123.932C204.963 122.892 204.505 121.851 203.954 120.811C203.464 119.771 202.883 118.608 202.21 117.323C201.537 115.977 200.68 114.264 199.64 112.183C198.232 114.753 197.223 117.721 196.611 121.086C195.326 123.595 194.408 126.257 193.857 129.072C195.754 128.521 197.284 128.246 198.446 128.246C198.875 128.246 199.181 128.277 199.364 128.338C200.405 128.093 201.659 127.971 203.128 127.971C204.596 127.971 205.79 127.879 206.707 127.695ZM270.513 105.758C270.023 106.982 269.595 107.93 269.228 108.603C268.861 109.215 268.432 109.827 267.943 110.439C267.453 110.99 266.78 111.693 265.923 112.55C265.128 113.346 263.996 114.508 262.527 116.038C261.303 117.323 260.294 118.394 259.498 119.251C258.764 120.046 258.03 120.781 257.295 121.454C256.622 122.127 255.888 122.861 255.092 123.657C254.297 124.391 253.287 125.339 252.063 126.502C252.063 127.359 252.033 128.399 251.972 129.623C251.91 130.847 251.88 132.254 251.88 133.845C251.88 134.396 251.91 135.069 251.972 135.865C252.033 136.599 252.094 137.333 252.155 138.067C252.278 138.802 252.369 139.505 252.431 140.179C252.492 140.791 252.522 141.28 252.522 141.647V144.217C252.522 146.481 252.645 148.317 252.889 149.725C252.4 151.56 250.962 152.478 248.575 152.478C247.535 152.478 246.709 152.172 246.097 151.56C245.546 150.948 245.118 150.153 244.812 149.174C244.506 148.134 244.292 146.971 244.17 145.686C244.108 144.34 244.078 142.932 244.078 141.464C244.078 140.974 244.078 140.546 244.078 140.179C244.139 139.811 244.2 139.475 244.261 139.169C244.139 136.538 244.017 134.335 243.894 132.56C243.833 130.786 243.802 129.439 243.802 128.521V127.512C242.884 126.533 241.722 125.248 240.314 123.657C238.907 122.066 237.255 120.199 235.358 118.057C235.052 117.446 234.562 116.681 233.889 115.763C233.216 114.845 232.512 113.958 231.778 113.101C231.105 112.183 230.493 111.357 229.942 110.623C229.453 109.827 229.208 109.246 229.208 108.879C229.208 107.838 229.636 106.829 230.493 105.85C231.411 104.87 232.482 104.381 233.706 104.381C234.256 104.381 234.685 104.473 234.991 104.656C235.358 104.779 235.694 105.023 236 105.391C236.367 105.697 236.735 106.155 237.102 106.767C237.53 107.318 238.081 108.022 238.754 108.879C239.427 109.735 239.978 110.5 240.406 111.173C240.896 111.846 241.293 112.428 241.599 112.917C241.783 113.101 242.15 113.499 242.701 114.111C243.313 114.722 243.955 115.396 244.628 116.13C245.302 116.803 245.913 117.446 246.464 118.057C247.076 118.669 247.505 119.067 247.749 119.251C248.422 118.639 249.279 117.904 250.319 117.048C251.36 116.191 252.583 115.181 253.991 114.019C254.236 113.529 254.848 112.581 255.827 111.173C256.806 109.766 257.907 108.297 259.131 106.767C260.416 105.176 261.671 103.738 262.894 102.453C264.118 101.107 265.097 100.25 265.832 99.8833C266.26 100.067 266.75 100.373 267.3 100.801C267.851 101.168 268.371 101.627 268.861 102.178C269.35 102.668 269.748 103.188 270.054 103.738C270.36 104.289 270.513 104.809 270.513 105.299V105.758ZM355.434 150.826C355.189 151.989 354.057 152.57 352.038 152.57C350.386 152.57 349.193 152.203 348.458 151.469C348.152 150.428 347.724 149.174 347.173 147.705C346.622 146.175 345.98 144.431 345.246 142.473C344.878 140.087 344.511 138.404 344.144 137.425C343.838 136.446 343.44 135.712 342.951 135.222C342.033 135.283 340.717 135.406 339.004 135.589C337.291 135.712 335.485 135.895 333.588 136.14C331.691 136.323 329.917 136.599 328.265 136.966C326.612 137.272 325.419 137.608 324.685 137.976C324.379 139.505 324.012 141.188 323.583 143.024C323.155 144.86 322.635 146.818 322.023 148.899C321.839 149.51 321.411 149.939 320.738 150.184C320.065 150.49 319.239 150.643 318.26 150.643C317.281 150.643 316.424 150.459 315.69 150.092C315.016 149.786 314.68 149.296 314.68 148.623C314.68 147.399 315.414 143.758 316.883 137.7C316.822 137.456 316.791 137.088 316.791 136.599C316.791 135.803 316.883 134.824 317.066 133.662C317.311 132.438 317.556 131.275 317.801 130.174C318.045 129.072 318.26 128.124 318.443 127.328C318.688 126.533 318.81 126.104 318.81 126.043L321.748 117.874C321.87 117.078 322.176 116.008 322.666 114.661C323.216 113.315 323.798 111.938 324.41 110.531C325.021 109.123 325.603 107.808 326.153 106.584C326.704 105.299 327.071 104.32 327.255 103.647C327.806 101.627 329.274 100.618 331.661 100.618C333.619 100.618 334.873 101.352 335.424 102.821C335.424 102.821 335.608 103.157 335.975 103.83C336.342 104.503 336.832 105.36 337.444 106.4C338.055 107.441 338.698 108.603 339.371 109.888C340.105 111.112 340.779 112.305 341.39 113.468C342.002 114.569 342.523 115.579 342.951 116.497C343.379 117.354 343.624 117.935 343.685 118.241C344.175 119.404 344.787 120.75 345.521 122.28C346.255 123.748 347.143 125.401 348.183 127.236C348.795 128.032 349.345 129.103 349.835 130.449C350.386 131.734 350.875 133.05 351.304 134.396C351.732 135.742 352.099 136.966 352.405 138.067C352.711 139.169 352.986 139.903 353.231 140.27C353.231 140.699 353.354 141.372 353.598 142.29C353.904 143.146 354.18 144.064 354.424 145.043C354.73 146.022 355.006 146.94 355.251 147.797C355.495 148.654 355.618 149.266 355.618 149.633C355.618 149.939 355.557 150.337 355.434 150.826ZM339.371 127.695C338.882 126.227 338.423 124.972 337.994 123.932C337.627 122.892 337.168 121.851 336.617 120.811C336.128 119.771 335.547 118.608 334.873 117.323C334.2 115.977 333.344 114.264 332.303 112.183C330.896 114.753 329.886 117.721 329.274 121.086C327.989 123.595 327.071 126.257 326.521 129.072C328.418 128.521 329.947 128.246 331.11 128.246C331.538 128.246 331.844 128.277 332.028 128.338C333.068 128.093 334.323 127.971 335.791 127.971C337.26 127.971 338.453 127.879 339.371 127.695ZM406.665 147.889C406.481 148.256 406.389 148.837 406.389 149.633C406.389 150.122 406.42 150.734 406.481 151.469C406.542 152.203 406.573 152.815 406.573 153.304C406.573 154.467 406.206 155.293 405.471 155.783C404.737 156.272 403.85 156.517 402.809 156.517C401.28 156.517 399.872 155.966 398.587 154.865C398.587 154.681 398.587 154.467 398.587 154.222C398.648 153.978 398.679 153.702 398.679 153.396C398.679 152.356 398.618 151.316 398.495 150.275C398.373 149.235 398.312 148.746 398.312 148.807L398.495 145.319C395.069 147.95 392.101 149.357 389.592 149.541C388.307 149.663 387.175 149.755 386.196 149.816C385.278 149.878 384.482 149.939 383.809 150C383.075 150.061 382.432 150.122 381.882 150.184H381.973C379.954 150.184 377.904 149.755 375.823 148.899C373.804 147.981 371.968 146.757 370.316 145.227C368.664 143.636 367.318 141.8 366.277 139.72C365.237 137.578 364.717 135.314 364.717 132.927C364.717 131.765 364.839 130.265 365.084 128.43C365.39 126.533 365.757 124.605 366.186 122.647C366.675 120.689 367.165 118.822 367.654 117.048C368.205 115.273 368.756 113.896 369.306 112.917C370.224 111.204 371.846 109.276 374.171 107.135C375.701 106.278 377.414 105.36 379.311 104.381C381.27 103.341 383.473 102.27 385.92 101.168L395.65 99.5161C399.505 99.9444 402.381 100.648 404.278 101.627C406.175 102.606 407.123 104.197 407.123 106.4C407.123 108.664 405.93 109.796 403.544 109.796C402.626 109.796 401.616 109.613 400.515 109.246C399.413 108.817 398.22 108.573 396.935 108.511C396.139 108.45 395.375 108.42 394.64 108.42C393.906 108.42 393.141 108.42 392.345 108.42C388.613 109.154 385.737 110.164 383.717 111.449C382.371 111.693 381.055 112.428 379.77 113.652C378.485 114.814 377.353 116.313 376.374 118.149C375.395 119.985 374.6 122.066 373.988 124.391C373.376 126.716 373.07 129.103 373.07 131.55C373.07 134.121 373.559 136.232 374.538 137.884C375.518 139.536 377.506 140.821 380.505 141.739C380.933 141.923 381.576 142.014 382.432 142.014C384.635 142.014 386.318 141.892 387.481 141.647C388.705 141.402 389.775 141.005 390.693 140.454C391.672 139.903 392.651 139.2 393.631 138.343C394.671 137.486 396.109 136.446 397.945 135.222V133.845C397.761 133.111 397.027 132.56 395.742 132.193C394.457 131.765 393.08 131.489 391.611 131.367C389.898 131.183 387.94 131.091 385.737 131.091C384.268 129.745 383.534 128.338 383.534 126.869C383.534 124.911 384.543 123.657 386.563 123.106H386.471C386.471 122.983 386.991 123.045 388.031 123.289C389.133 123.534 390.663 123.657 392.621 123.657C393.172 123.657 393.631 123.595 393.998 123.473C394.793 123.534 395.711 123.687 396.751 123.932C397.853 124.177 398.954 124.483 400.056 124.85C401.157 125.217 402.136 125.615 402.993 126.043C403.911 126.41 404.584 126.747 405.012 127.053C406.114 127.909 406.665 129.99 406.665 133.294C406.665 134.763 406.481 136.079 406.114 137.241C406.236 137.731 406.328 138.557 406.389 139.72C406.45 140.821 406.512 141.984 406.573 143.208C406.634 144.431 406.665 145.533 406.665 146.512C406.665 147.43 406.665 147.889 406.665 147.889ZM461.744 150.826C461.5 151.989 460.368 152.57 458.348 152.57C456.696 152.57 455.503 152.203 454.768 151.469C454.462 150.428 454.034 149.174 453.483 147.705C452.933 146.175 452.29 144.431 451.556 142.473C451.189 140.087 450.821 138.404 450.454 137.425C450.148 136.446 449.751 135.712 449.261 135.222C448.343 135.283 447.028 135.406 445.314 135.589C443.601 135.712 441.796 135.895 439.899 136.14C438.002 136.323 436.227 136.599 434.575 136.966C432.923 137.272 431.729 137.608 430.995 137.976C430.689 139.505 430.322 141.188 429.894 143.024C429.465 144.86 428.945 146.818 428.333 148.899C428.15 149.51 427.721 149.939 427.048 150.184C426.375 150.49 425.549 150.643 424.57 150.643C423.591 150.643 422.734 150.459 422 150.092C421.327 149.786 420.99 149.296 420.99 148.623C420.99 147.399 421.724 143.758 423.193 137.7C423.132 137.456 423.101 137.088 423.101 136.599C423.101 135.803 423.193 134.824 423.377 133.662C423.621 132.438 423.866 131.275 424.111 130.174C424.356 129.072 424.57 128.124 424.753 127.328C424.998 126.533 425.121 126.104 425.121 126.043L428.058 117.874C428.18 117.078 428.486 116.008 428.976 114.661C429.526 113.315 430.108 111.938 430.72 110.531C431.332 109.123 431.913 107.808 432.464 106.584C433.014 105.299 433.382 104.32 433.565 103.647C434.116 101.627 435.585 100.618 437.971 100.618C439.929 100.618 441.184 101.352 441.734 102.821C441.734 102.821 441.918 103.157 442.285 103.83C442.652 104.503 443.142 105.36 443.754 106.4C444.366 107.441 445.008 108.603 445.681 109.888C446.416 111.112 447.089 112.305 447.701 113.468C448.313 114.569 448.833 115.579 449.261 116.497C449.689 117.354 449.934 117.935 449.995 118.241C450.485 119.404 451.097 120.75 451.831 122.28C452.565 123.748 453.453 125.401 454.493 127.236C455.105 128.032 455.656 129.103 456.145 130.449C456.696 131.734 457.185 133.05 457.614 134.396C458.042 135.742 458.409 136.966 458.715 138.067C459.021 139.169 459.297 139.903 459.541 140.27C459.541 140.699 459.664 141.372 459.909 142.29C460.215 143.146 460.49 144.064 460.735 145.043C461.041 146.022 461.316 146.94 461.561 147.797C461.806 148.654 461.928 149.266 461.928 149.633C461.928 149.939 461.867 150.337 461.744 150.826ZM445.681 127.695C445.192 126.227 444.733 124.972 444.304 123.932C443.937 122.892 443.478 121.851 442.928 120.811C442.438 119.771 441.857 118.608 441.184 117.323C440.511 115.977 439.654 114.264 438.614 112.183C437.206 114.753 436.196 117.721 435.585 121.086C434.299 123.595 433.382 126.257 432.831 129.072C434.728 128.521 436.258 128.246 437.42 128.246C437.849 128.246 438.155 128.277 438.338 128.338C439.378 128.093 440.633 127.971 442.102 127.971C443.57 127.971 444.763 127.879 445.681 127.695ZM490.303 147.889C490.119 148.195 489.783 148.47 489.293 148.715C488.804 148.899 488.284 149.052 487.733 149.174C487.243 149.235 486.754 149.296 486.264 149.357C485.836 149.419 485.591 149.48 485.53 149.541C484.734 149.602 483.816 149.663 482.776 149.725C481.736 149.786 480.512 149.878 479.105 150C478.921 149.939 478.676 149.908 478.37 149.908C478.126 149.908 477.758 149.969 477.269 150.092C476.779 150.214 476.382 150.275 476.076 150.275C474.056 150.275 473.047 149.113 473.047 146.787C473.047 145.013 473.597 143.789 474.699 143.116L478.554 141.831C478.554 140.179 478.737 137.823 479.105 134.763C479.043 134.457 478.982 134.121 478.921 133.753C478.921 133.325 478.921 132.866 478.921 132.377C478.921 130.235 478.982 128.583 479.105 127.42C479.227 126.257 479.288 125.615 479.288 125.492C479.288 124.942 479.258 124.33 479.196 123.657C479.196 122.922 479.135 121.974 479.013 120.811C478.952 119.587 478.829 118.088 478.646 116.313C478.523 114.539 478.37 112.367 478.187 109.796L474.974 109.338C474.056 107.869 473.597 106.553 473.597 105.391C473.597 104.717 473.689 104.167 473.873 103.738C474.056 103.249 474.393 102.851 474.882 102.545C475.433 102.239 476.167 102.025 477.085 101.903C478.064 101.78 479.319 101.719 480.849 101.719C481.644 101.719 482.378 101.78 483.052 101.903C483.725 102.025 484.306 102.147 484.796 102.27C486.264 102.27 487.457 102.331 488.375 102.453C489.293 102.515 489.966 102.698 490.395 103.004C490.884 103.249 491.19 103.616 491.313 104.106C491.496 104.534 491.588 105.115 491.588 105.85C491.588 107.379 490.915 108.787 489.569 110.072C489.324 110.133 488.222 110.164 486.264 110.164C486.325 111.082 486.387 111.877 486.448 112.55C486.509 113.223 486.57 114.111 486.631 115.212C486.754 116.252 486.845 117.66 486.907 119.434C486.968 121.148 487.029 123.504 487.09 126.502C487.09 127.909 487.06 129.133 486.998 130.174C486.998 131.153 486.998 132.04 486.998 132.835C486.998 134.426 487.029 135.314 487.09 135.497L486.723 141.555C488.498 141.8 489.691 142.229 490.303 142.84C490.976 143.452 491.313 144.37 491.313 145.594C491.313 146.451 490.976 147.216 490.303 147.889ZM548.2 129.439V131.826C548.2 134.212 548.108 136.538 547.925 138.802V140.087C547.925 140.76 547.864 141.525 547.741 142.382C547.619 143.177 547.405 143.973 547.099 144.768C546.854 145.502 546.456 146.145 545.905 146.696C545.416 147.185 544.804 147.43 544.07 147.43C542.356 147.43 540.918 146.849 539.756 145.686C539.756 144.646 537.553 141.464 533.147 136.14C532.841 135.406 532.29 134.457 531.495 133.294C530.76 132.071 529.812 130.633 528.649 128.98C528.343 128.736 527.854 128.154 527.181 127.236C526.569 126.318 525.926 125.37 525.253 124.391C524.641 123.351 524.09 122.433 523.601 121.637C523.172 120.842 522.989 120.475 523.05 120.536C522.56 120.046 521.979 119.373 521.306 118.516C520.633 117.599 519.807 116.466 518.828 115.12C518.828 118.363 518.675 120.23 518.369 120.719C518.308 121.392 518.216 122.28 518.093 123.381C518.032 124.421 517.94 125.523 517.818 126.686C517.757 127.787 517.696 128.889 517.634 129.99C517.573 131.03 517.512 131.856 517.451 132.468V132.835C517.451 133.325 517.329 134.09 517.084 135.13C516.9 136.109 516.655 137.119 516.349 138.159C516.105 139.2 515.86 140.148 515.615 141.005C515.37 141.861 515.248 142.351 515.248 142.473C514.33 144.493 512.892 145.502 510.934 145.502C508.976 145.502 507.752 144.248 507.262 141.739C507.691 139.291 508.333 135.253 509.19 129.623C509.251 128.521 509.343 127.083 509.465 125.309C509.649 123.534 509.894 121.362 510.2 118.792C510.322 118.18 510.444 117.17 510.567 115.763C510.689 114.355 510.811 112.887 510.934 111.357C511.117 109.766 511.301 108.267 511.485 106.859C511.668 105.452 511.852 104.442 512.035 103.83C513.382 102.117 515.248 101.26 517.634 101.26C517.94 101.382 518.338 101.719 518.828 102.27C519.378 102.821 519.96 103.494 520.572 104.289C521.184 105.023 521.826 105.85 522.499 106.767C523.172 107.624 523.784 108.511 524.335 109.429C525.008 110.225 525.895 111.357 526.997 112.825C528.16 114.233 529.445 115.885 530.852 117.782C532.321 119.618 533.82 121.637 535.35 123.84C536.941 126.043 538.471 128.338 539.939 130.724V128.246C539.939 125.982 539.847 124.33 539.664 123.289C539.786 122.922 539.847 122.525 539.847 122.096C539.847 121.974 539.786 121.607 539.664 120.995C539.603 120.322 539.511 119.587 539.388 118.792C539.327 117.935 539.235 117.109 539.113 116.313C539.052 115.518 539.021 114.906 539.021 114.478C539.021 114.355 539.021 114.264 539.021 114.202C539.082 114.08 539.113 113.958 539.113 113.835C538.929 111.143 538.746 108.909 538.562 107.135C538.379 105.299 538.165 103.891 537.92 102.912C538.593 99.8527 539.939 98.3228 541.959 98.3228C543.978 98.3228 545.447 99.3325 546.364 101.352C546.487 103.494 546.67 105.941 546.915 108.695C547.16 111.449 547.496 114.508 547.925 117.874L548.2 129.439Z" fill="#5F4F46"/>
<defs>
<filter id="filter0_d_279_351" x="0.5" y="0.5" width="637.795" height="249.539" filterUnits="userSpaceOnUse" color-interpolation-filters="sRGB">
<feFlood flood-opacity="0" result="BackgroundImageFix"/>
<feColorMatrix in="SourceAlpha" type="matrix" values="0 0 0 0 0 0 0 0 0 0 0 0 0 0 0 0 0 0 127 0" result="hardAlpha"/>
<feOffset dy="-1"/>
<feGaussianBlur stdDeviation="3.25"/>
<feComposite in2="hardAlpha" operator="out"/>
<feColorMatrix type="matrix" values="0 0 0 0 0 0 0 0 0 0 0 0 0 0 0 0 0 0 0.25 0"/>
<feBlend mode="normal" in2="BackgroundImageFix" result="effect1_dropShadow_279_351"/>
<feBlend mode="normal" in="SourceGraphic" in2="effect1_dropShadow_279_351" result="shape"/>
</filter>
<radialGradient id="paint0_radial_279_351" cx="0" cy="0" r="1" gradientUnits="userSpaceOnUse" gradientTransform="translate(239.5 130.99) rotate(-90) scale(150 253.5)">
<stop offset="1" stop-color="#F8E5C9"/>
</radialGradient>
</defs>
</svg>
